<?xml version="1.0" encoding="UTF-8"?>
<svg id="Capa_2" data-name="Capa 2" xmlns="http://www.w3.org/2000/svg" viewBox="0 0 610.99 881.37">
  <defs>
    <style>
      .cls-1 {
        fill: #fef1d1;
      }
    </style>
  </defs>
  <g id="Capa_1-2" data-name="Capa 1">
    <g>
      <path class="cls-1" d="M556.7,568.12c-23.74-43.85-47.05-83.63-77-134.41-26.56-45.03-55.34-90.8-87.2-131.95-24.1-31.13-52.35-57.41-84.74-78.82-14.27-9.43-23.94-15.79-29-19.07-8.08-5.24-16.92-11.3-22.86-16.41-12.3-10.59-22.37-23.28-30.21-38.07-4.01-7.57-8.17-15.71-12.49-24.42-.13-.27-.08-.59.14-.8,8.7-8.49,10.51-18.3,5.42-29.44-1.22-2.66-4.07-6.35-8.56-11.09-.42-.44-.76-.93-1.01-1.48-.84-1.77-1.65-3.4-2.42-4.89-9.22-17.83-20.88-37.94-34.99-60.34-7.62-12.09-19.22-19.2-33.7-16.24-5.31,1.08-11.46,2.94-18.46,5.58-33.46,12.62-64.96,28.77-94.48,48.44-2.82,1.88-6.78,4.76-11.87,8.63-15.73,11.99-15.69,27.13-9.01,43.77,7.31,18.23,16.22,38.48,26.72,60.74.83,1.74,1.88,2.94,2.68,4.38.27.47.44.98.5,1.52,2.09,16.25,12.82,29.93,30.74,26.24.57-.12,1.16.17,1.41.7,4.56,9.63,12.1,22.42,16.43,33.54,4.59,11.82,8.16,23.32,8.9,34.56,1.11,17.23,0,30.63-1.26,50.76-1.81,28.88-1.33,58.09,3.13,85.52,2.74,16.79,6.82,34.21,12.25,52.26,7.3,24.28,15.6,48.17,24.91,71.69,21.05,53.21,43.67,106.4,67.86,159.56,16.47,36.2,34.42,71.74,53.86,106.63,6.53,11.69,13.85,23.34,21.12,33.91,7.68,11.15,15.8,20.83,24.38,29.04,20.56,19.66,46.31,26.01,74.26,22.18,17.99-2.47,35.72-6.96,53.2-13.49,42.11-15.73,82.72-36.08,119.77-61.62,19.29-13.31,37.06-28.08,50.49-46.59,14-19.29,17.93-40.76,13.96-63.75-1.8-10.45-4.45-20.68-7.96-30.69-4.83-13.76-10.81-28.13-17.96-43.09-8.86-18.55-17.83-36.2-26.91-52.95ZM20.89,99.82c-2.58-6.32-5.65-13.98-.03-20.25,2.07-2.31,6.34-5.61,12.82-9.9,28.05-18.59,57.34-33.92,87.88-45.99,3.8-1.51,9.4-3.43,16.78-5.76,8.28-2.64,13.21,1.4,17.46,7.96,12.13,18.79,23.53,38.06,34.21,57.83.09.17.05.38-.08.51l-6.95,6.58c-.14.14-.37.1-.48-.07-8.13-14.38-17.18-29.09-27.14-44.13-1.14-1.71-3.33-2.35-5.21-1.54l-.15.08c-1.88.88-2.59,3.19-1.54,4.98l27,45.6c.27.44.14,1.01-.28,1.32l-16.86,11.81c-.32.23-.77.12-.97-.22l-26.21-45.1c-1.12-1.93-3.63-2.54-5.52-1.34l-.18.11c-1.88,1.15-2.53,3.56-1.47,5.49l25.21,45.98c.15.26.05.59-.21.75l-21.58,12.77c-.56.34-1.3.12-1.59-.45l-23.93-46.66c-1.02-1.99-3.52-2.72-5.45-1.57l-.31.18c-1.94,1.15-2.65,3.6-1.62,5.61l23.86,46.52c.19.37.03.82-.35.99l-20.99,9.42c-.35.15-.77,0-.94-.35l-22.78-48.05c-.85-1.77-3.01-2.46-4.72-1.49l-.15.08c-1.88,1.03-2.66,3.32-1.78,5.27l21.47,47.86c.1.22,0,.48-.23.56l-17.9,6.53c-.49.18-1.02-.04-1.22-.52l-21.09-47.92c-.8-1.83-2.94-2.67-4.79-1.87l-.24.11c-1.93.84-2.83,3.05-2.04,5,6.34,15.68,11.56,28.24,15.67,37.67,1.48,3.4,2.98,6.55,4.49,9.47.15.3,0,.66-.33.74l-13.36,3.42c-.37.09-.75-.08-.91-.43-9.04-19.18-17.46-38.36-25.27-57.56ZM52.12,173.45c-.04-.19.11-.38.3-.4,4.09-.54,8.64-1.51,13.66-2.91,21.3-5.99,42.03-14.23,62.21-24.73.62-.33,1.28-.67,1.98-1.03.7-.36,1.36-.69,1.99-1.01,20.33-10.19,39.16-22.17,56.5-35.92,4.07-3.24,7.53-6.36,10.36-9.36.13-.14.36-.15.5,0,4.5,4.52,5.58,9.08,3.24,13.68-.8,1.55-2.59,3.42-5.36,5.61-18.73,14.77-39.42,28.08-61.03,39.13-21.62,11.04-44.52,20-67.46,26.53-3.4.96-5.97,1.32-7.69,1.06-5.1-.79-8.16-4.34-9.19-10.64ZM125.17,457.23c-4.58-15.39-8.49-31.63-11.74-48.72-5.53-29.14-6.02-59.77-4.35-87.53,1.29-21.46,2.92-40.19.33-60.64-2.77-22.01-13.57-43.56-24.55-64.08-.17-.31-.01-.71.34-.82,40.77-12.67,78.33-31.8,112.69-57.41.28-.21.68-.12.83.19,5.22,10.66,10.67,20.7,16.35,30.13,8.78,14.57,19.4,25.69,33.84,37.47,3.93,3.21,11.04,8.15,21.32,14.81,26.62,17.23,48.55,31.55,69.92,51.6,16.59,15.56,31.83,32.8,45.72,51.69.24.33.2.78-.09,1.05l-12.81,12.13c-.31.3-.82.23-1.07-.12-10.88-16.01-22.73-30.85-35.54-44.52-8.33-8.89-19.13-18.37-28.28-25.92-7.22-5.96-21.95-7.17-31.82-6.54-12.59.8-25.78,3.57-39.58,8.29-29.3,10.02-56.34,24.97-81.13,44.85-10.45,8.37-19.06,18.13-25.83,29.28-4.5,7.39-6.42,15.16-5.77,23.29.14,1.72.75,7.63,1.83,17.74,1.86,17.41,5.74,33.25,11.05,51.15,1.73,5.88,10.2,7.21,14.29,3.19,2.82-2.78,2.93-5.62,1.73-9.59-5.33-17.62-8.98-35.61-10.95-53.96-.03-.31.21-.59.53-.6l7.02-.2c3.72.33,24.09-2.64,24.09-2.64,1.95-.29,3.59-.64,4.93-1.03,38.32-11.12,72.78-28.48,103.38-52.06,8.51-6.56,15.92-14.36,22.22-23.41.98-1.41,1.91-3.21,2.79-5.4.15-.38.63-.49.93-.21,18.94,17.44,35.99,37.31,51.16,59.61.17.26.13.62-.13.81-25.54,20-52.72,37.69-81.55,53.06-16.01,8.53-32.44,16.51-49.3,23.95-19.16,8.44-37.62,15.36-55.39,20.75-15.43,4.68-30.89,8.35-46.36,11.01-.47.07-.92-.2-1.05-.65ZM177.88,352.82c-20.88,5.67-28.58,5.49-28.58,5.49l-7.53.22c-.61.02-1.04-.58-.85-1.15,4.5-13.74,17.12-25.43,29.06-34.4,27.6-20.76,58.73-37.09,91.63-44.59,6.44-1.47,13.05-2.24,19.82-2.31,4.33-.04,8.39.94,12.03,2.7.45.22.66.76.47,1.22-.91,2.29-1.98,4.74-3.69,6.74-7.73,9-16.43,16.5-26.48,23.68-26.26,18.75-54.89,32.88-85.87,42.39ZM166.14,567.23c-12.69-30.12-24.49-60.64-35.38-91.58-.24-.67.18-1.39.89-1.51,23.57-3.99,46.92-10.36,69.62-18.63,52.59-19.17,102.02-45.02,148.3-77.54,16.52-11.61,32.21-24.77,47.07-39.49.07-.08.2-.07.27.03,20.16,28.91,39.19,58.46,57.08,88.65,9.43,15.91,14.53,24.52,15.32,25.84,20.93,35.1,40.75,69.55,59.47,103.35.3.53.22,1.19-.2,1.63-12.41,13.34-26.18,25.4-41.32,36.18-66.48,47.32-138.46,82.96-215.93,106.92-14,4.33-27.73,7.55-41.17,9.67-.43.07-.85-.17-1.04-.56-22.09-46.47-40.16-88.87-62.96-142.94ZM507.25,601.46c8.52,16.41,16.51,33.27,23.98,50.56,6.61,15.31,12.15,30.42,13.86,47.05,1.79,17.33-4.93,32.76-17.2,45.02-6.05,6.05-12.57,11.57-19.55,16.55-15.77,11.26-32.38,20.73-49.46,29.37-17.08,8.66-34.53,16.47-52.93,22.54-8.15,2.69-16.46,4.68-24.91,5.97-17.15,2.65-33.56-1.05-46.48-12.74-12.41-11.21-21.31-24.61-29.76-38.99-9.54-16.25-18.41-32.66-26.61-49.24-.16-.34.02-.75.39-.86,12.12-3.36,23.88-7.19,35.3-11.48,29.88-11.22,57.73-23.37,83.54-36.46,25.81-13.09,52.07-28.36,78.79-45.83,10.21-6.67,20.25-13.9,30.13-21.69.3-.23.74-.14.92.2ZM572.39,641.94c9.73,21.91,18.32,44.02,19.59,67.22.58,10.64-1.5,20.58-6.23,29.84-4.54,8.88-11.77,17.84-19.15,25.04-11.14,10.87-23.14,20.6-36,29.21-20.06,13.41-41.05,25.39-62.97,35.94-9.21,4.43-18.86,8.77-28.96,13.03-23.18,9.77-47.65,17.85-72.48,20.26-16.59,1.61-33.53-1.34-47.15-11.35-7.84-5.76-15.06-12.84-21.65-21.23-11.67-14.86-19.58-28.33-30.25-46.6-10.46-17.91-18.87-35.2-29.79-56.45-.08-.15.02-.34.18-.37l23.18-4.7c.43-.08.85.13,1.03.52,10.3,21.54,21.37,41.86,33.21,60.96,7.76,12.53,16.17,24.36,26.73,33.94,16.08,14.61,34.81,20.81,56.18,18.6,13.02-1.35,25.82-4.29,38.4-8.84,34.23-12.38,66.44-28.69,96.64-48.91,5.34-3.58,11.42-8.23,18.25-13.95,14.11-11.81,25.67-26.58,29.57-44.4,2.54-11.54,2.37-23.31-.51-35.33-3.68-15.4-8.96-30.63-15.83-45.69-6.12-13.44-14.06-29.36-23.81-47.77-.36-.67-.2-1.51.39-2.01,6.26-5.39,11.66-10.7,16.19-15.93.29-.34.83-.27,1.03.12,10.03,19.3,23.6,44.94,34.21,68.86Z"/>
      <path class="cls-1" d="M258.39,488.41c4.34-2.23,6.05-7.55,3.83-11.89-2.23-4.34-7.55-6.05-11.89-3.83-4.34,2.23-6.05,7.55-3.83,11.89,2.23,4.34,7.55,6.05,11.89,3.83Z"/>
      <path class="cls-1" d="M230.72,514.11c4.63-1.88,6.92-6.99,5.12-11.41-1.8-4.42-7.01-6.47-11.63-4.59-4.63,1.88-6.92,6.99-5.12,11.41,1.8,4.42,7.01,6.47,11.63,4.59Z"/>
      <path class="cls-1" d="M348.68,610.94c16.85-13.42,26.56-35.2,18.95-56.16-.13-.33,0-.72.3-.91,4.33-2.76,9.93-4.79,14.29-7.89,29.41-20.89,37.56-65.36,14.88-93.73-9.8-12.25-22.14-17.63-37.02-16.16-12.6,1.25-25.14,8.33-33.72,17.48-15.55,16.56-21.84,36.11-18.87,58.66.05.32-.27.55-.57.44-.54-.21-.95-.33-1.24-.36-16.93-1.55-32.51,1.7-46.75,9.75-18.52,10.46-31.71,29.23-27.16,51.1,4.55,21.88,21.22,38.91,41.5,47.16,24.48,9.95,54.16,7.51,75.4-9.39ZM375.98,454.69c.09-.55.75-.79,1.18-.44,23.75,19.24,20.64,52.78,1.54,73.8-1.49,1.64-3.16,3.15-5,4.53-4.75,3.57-7.63,5.64-13.67,7.54-.23.07-.49,0-.65-.17l-6-6.35c-.24-.24-.31-.61-.18-.93,4.05-10.55,8.56-21.26,13.55-32.13,2.26-4.93,3.95-10.99,4.72-17.02,1.15-8.89,2.65-18.5,4.51-28.83ZM324.72,515.28c-5.23-17.48.02-35.24,11.42-48.92,6.99-8.38,15.78-13.45,26.34-15.21.49-.09.9.35.79.83-1.46,6.63-2.66,11.9-3.62,15.79-1.71,6.97-1.44,17.25-5.23,24.43-5.42,10.26-9.6,20.93-12.56,32-.07.26-.37.38-.59.24-4.84-3.04-9.79-5.5-14.87-7.36-.81-.3-1.44-.96-1.69-1.79ZM249.68,553.18c9.54-17.58,30.68-25.77,50.14-24.97,22.27.89,51.76,15.02,54.53,40.01.04.41-.32.72-.71.63-5.13-1.28-10.87-1.87-17.21-1.78-11.86.17-23.25-.46-34.15-1.88-3.84-.5-7.03-1.09-9.56-1.77-7.27-1.95-15.28-5.5-22.07-6.91-6.69-1.38-14.07-1.47-20.44-2.3-.49-.07-.76-.59-.53-1.03ZM246.88,566.92c-.07-.46.38-.83.82-.66,5.19,1.96,10.73,2.78,16.63,3.95,7.45,1.49,14.72,4.64,21.49,6.69,12.27,3.71,23.98,5.43,35.13,5.18,8.79-.19,18.99-.62,30.61-1.29.27-.01.46.11.57.38.07.17.05.36-.06.59-3.99,8.01-9.57,14.32-16.72,18.93-22.24,14.35-50.27,12.02-70.59-4.39-9.05-7.31-16.15-17.78-17.87-29.37Z"/>
      <path class="cls-1" d="M424.63,548.24h0c-4.32,2.22-6.03,7.52-3.81,11.84,2.22,4.32,7.52,6.03,11.84,3.81,4.32-2.22,6.03-7.52,3.81-11.84-2.22-4.32-7.52-6.03-11.84-3.81Z"/>
      <path class="cls-1" d="M406.44,582.29c-4.33,2.22-6.05,7.54-3.82,11.87,2.22,4.33,7.54,6.05,11.87,3.82,4.33-2.22,6.05-7.54,3.82-11.87-2.22-4.33-7.54-6.05-11.87-3.82Z"/>
    </g>
  </g>
</svg>