<?xml version="1.0" encoding="UTF-8"?>
<svg id="Capa_2" data-name="Capa 2" xmlns="http://www.w3.org/2000/svg" viewBox="0 0 787.34 827.39">
  <defs>
    <style>
      .cls-1 {
        fill: #fef1d1;
      }
    </style>
  </defs>
  <g id="Capa_1-2" data-name="Capa 1">
    <g>
      <path class="cls-1" d="M193.91,652.81c-18.31-.23-36.16-2.79-54.54-7.93-29.63-8.27-55.7-24.01-77.72-45.27-25.22-24.37-42.73-52.55-52.53-84.54C.08,485.51-2.24,455.28,2.17,424.38c5.32-37.31,18.49-71.77,39.51-103.39,36.89-55.49,94.06-96.15,156.17-118.55,26.99-9.74,61.26-17.45,85.62-23.99,23.35-6.27,45.46-15.12,66.33-26.56,31.17-17.08,57.93-43.32,69.55-77.15,6.37-18.54,10.39-36.02,14.96-53.64,1.1-4.24,2.12-7.21,3.06-8.91,4.74-8.49,13.71-10.69,23.28-11.67,8.74-.91,18.67-.62,29.8.87,15.18,2.04,29.87,5.87,43.18,13.31,8.49,4.74,14.43,11.84,14.26,21.93-.01,1.02-.75,5.15-2.21,12.41-1.81,9-4.33,21.4-7.56,37.19-2.28,11.18-4.02,25.99-2.76,37.67,2.76,25.92,16.99,48.73,33.75,68.14,17.03,19.75,35.28,38.27,54.76,55.57,13.7,12.16,35.15,29.91,53.06,45.96,37.76,33.8,66.38,73.48,85.87,119.05,31.19,72.91,36.29,156.43-5.89,226.49-9.39,15.61-19.88,29.79-31.45,42.56-.31.34-2.35,2.52-6.1,6.55-.62.66-1.11,1.43-1.46,2.26-11.92,28.59-33.04,56.45-57.62,76.09-20.21,16.15-42.87,26.68-67.98,31.6-8.24,1.6-17.15,2.12-25.99,3.15-.52.06-1.01.24-1.45.52-32.88,21.57-74.03,31.03-112.61,22.33-12.56-2.84-24.82-6.88-36.77-12.13-40.48-17.8-72.34-53.31-89.93-93.35-.28-.64-.9-1.05-1.59-1.06-10.5-.23-20.91-1.26-31.23-3.09-39.41-7.01-73.34-28.35-96.72-60.66-.48-.66-1.24-1.05-2.06-1.07ZM179.87,624.93c-9.85-23.07-15.97-46.88-18.35-71.44-2.52-26.06-2.12-50.37,1.2-72.94,7.64-52.02,26.84-99.57,57.61-142.66,16.5-23.11,35.31-44.28,56.4-63.52,26.33-23.99,54.43-44.64,84.3-61.94,2.87-1.66,5.42-2.69,7.65-3.07,10.35-1.78,18.65,8.75,12.62,17.97-.87,1.32-3.35,3.24-7.46,5.75-24.74,15.11-46.78,30.81-66.11,47.11-32.42,27.34-60.86,59.67-82.75,96.73-20.4,34.53-33.15,71.24-38.25,110.11-2.91,22.22-2.82,46.09.28,71.6,2.66,21.93,9.32,43.96,18.88,62.88,21.55,42.65,62.17,68.34,109.87,69.82.32,0,.57-.29.5-.59-4.05-18.61-5.17-37.58-3.37-56.93,1.53-16.48,5.82-33.43,12.87-50.85,7.18-17.75,15.36-33.26,24.54-46.53,4.12-5.93,9.84-11.42,16.78-13.81,12.8-4.36,26.13,3.81,34.9,12.37,5.98,5.83,11.75,11.93,17.3,18.3,9.04,10.39,18.19,20.83,27.43,31.33.84.96,1.96,1.63,3.2,1.92,8.44,1.98,16.36,4.39,24.81,5.99,26.84,5.07,53.88,5.64,81.12,1.7.57-.08,1.07-.42,1.36-.91,2.42-4.11,4.68-8.6,6.79-13.5,28.13-65.2,30.32-138.92,9.87-206.7-11.97-39.67-30.65-75.84-54.41-109.79-2.02-2.89-3.21-5.17-3.57-6.84-1.33-6.32,2.96-13.14,9.19-14.18,8.31-1.38,12.3,4.03,17.45,11.31,25.52,36.11,44.04,73.82,55.58,113.13,10.27,35,15.02,69.6,14.26,103.78-.89,39.93-8.85,78.73-23.87,116.4-.14.36.18.73.56.64,24.87-5.93,48.67-15.28,71.39-28.04,5.67-3.18,13.75-8.03,24.26-14.54,3.59-2.23,9.93-5.14,13.31-5.36,10.66-.67,18.55,3.09,23.67,11.27,4.55,7.25,7.95,16.37,10.22,27.36,3.33,16.13,3.82,32.4,1.48,48.83-.07.52.62.77.89.32,9.38-15.3,16.51-31.93,21.39-49.9,8.21-30.26,8.28-65.04,2.34-95.51-7.56-38.76-22.47-75.17-44.73-109.23-14.38-22-32.71-42.48-51.96-59.85-8.79-7.93-18.45-16.29-29.01-25.09-31.76-26.48-60.98-54.02-87.14-85.79-19.27-23.4-33.17-49.78-35.17-80.21-.29-4.27-.16-9.83.39-16.68.56-7.1,1.22-12.65,1.99-16.62,3.65-18.91,6.95-35.05,9.9-48.44.53-2.41-.39-4.19-2.77-5.34-13.32-6.48-28.46-9.48-42.93-9.92-4.73-.14-9.74.11-15.03.74-1.34.15-2.44,1.12-2.77,2.41-3.7,14.03-9.46,38.61-16.38,57.38-7,18.96-17.12,35.56-30.33,49.81-25.62,27.63-58.28,46.26-94.24,58.73-14.83,5.14-26.34,8.7-34.54,10.68-39.9,9.67-78.41,18.98-114.18,37.24-46.04,23.5-86.92,58.92-113.32,103.38-42.39,71.34-43.5,164.02,14.36,227.32,14.95,16.35,31.39,28.79,49.34,37.32,18.76,8.91,38.72,14.19,59.86,15.83.41.04.71-.38.55-.77ZM480.04,618.35c7.08,6.36,15,12.71,23.76,19.06,23.37,16.92,48.67,31.23,75.89,42.95,7.65,3.29,15.54,6.56,23.66,9.8,12.34,4.92,21.52,12.79,19.74,27.45-.54,4.45-1.29,8.06-2.26,10.85-5.14,14.81-12.52,28.62-22.12,41.45-.24.33.07.76.46.64,5.55-1.6,10.76-3.55,15.62-5.84,26.32-12.41,47.71-30.87,64.14-55.4,21.31-31.8,31.78-66.99,31.4-105.59-.09-10.12-1.47-19.92-4.12-29.43-.79-2.85-1.83-5.2-3.11-7.05-1.05-1.52-2.75-2.3-4.26-1.96-1.39.32-2.89,1.02-4.49,2.08-4.17,2.76-10.14,6.4-17.9,10.92-25.19,14.66-51.58,25.51-79.16,32.55-9.19,2.34-21.22,4.63-29.57,6.07-29.01,4.98-58.3,4.84-87.36.8-.37-.05-.59.41-.31.66ZM373.19,547.11c-1.83,1.68-3.18,3.19-4.06,4.55-15.78,24.22-27.47,52.14-31.25,80.59-7.65,57.42,19.19,111.54,66.07,144.68,13.9,9.83,29.72,16.97,47.46,21.42,17.59,4.41,34.86,5.05,51.83,1.91,17.4-3.22,33.53-9.81,48.37-19.77,21.09-14.13,36.06-32.79,44.91-55.97,1.84-4.79,3.24-10.25-2.12-12.22-5.82-2.13-13.63-5.27-23.42-9.43-57.48-24.39-108.22-62.12-148.77-109.21-17.05-19.79-27.49-31.78-31.33-35.98-4.06-4.42-10.75-11.65-16.63-11.05-.39.04-.78.2-1.07.48Z"/>
      <path class="cls-1" d="M527.61,767.21c-11.79,4.43-24.12,6.82-37.01,7.17-3.54.1-8.48-.37-11.29-2.98-5.84-5.43-4.5-13.49,2.32-17.31,1.16-.65,3.75-.99,7.77-1.02,10.39-.09,20.63-2.02,30.72-5.81,10.08-3.78,19.06-9.07,26.94-15.85,3.04-2.62,5.22-4.07,6.52-4.35,7.64-1.61,13.96,3.57,13.14,11.5-.39,3.82-3.81,7.43-6.54,9.68-9.92,8.22-20.78,14.54-32.57,18.97Z"/>
    </g>
  </g>
</svg>