<?xml version="1.0" encoding="UTF-8"?>
<svg id="Capa_2" data-name="Capa 2" xmlns="http://www.w3.org/2000/svg" viewBox="0 0 755.84 791.98">
  <defs>
    <style>
      .cls-1 {
        fill: #fef1d1;
      }
    </style>
  </defs>
  <g id="Capa_1-2" data-name="Capa 1">
    <g>
      <path class="cls-1" d="M661.16,122.03c-14.29,13.76-27.87,28.12-40.73,43.08-.28.32.07.8.46.64,15.99-6.3,32.02-8.54,48.09-6.73,8.84,1,25.43,6.56,18.28,19.17-.22.39-.47.77-.77,1.14-1.36,1.7-5.12,4.9-7.12,6.27-18.98,13.05-34.84,23.28-49.6,36.06-22.02,19.08-41.33,39.99-57.92,62.73-3.23,4.43-5.98,8.11-8.26,11.04-.32.41-.33.97-.04,1.4,3.11,4.47,2.97,9.1-.41,13.88-1.33,1.87-4.26,5.7-8.78,11.49-4.42,5.65-8.11,11.88-11.05,18.68-8.71,20.16-5.27,38.65,4.82,57.29,2.31,4.26,8.53,15.3,18.66,33.13,4.37,7.69,8.81,17.24,13.34,28.64,7.31,18.43,12.33,36.6,15.05,54.5,7.22,47.49-1.01,96.51-21.81,139.8-17.63,36.65-43.08,67.57-75.32,91.14-38.28,27.97-84.12,43.13-131.54,44.76-39.1,1.34-79.36-6.57-116.61-20.18-18.55-6.78-36.76-14.77-54.62-23.97-.52-.27-1.09.28-.83.8,2.3,4.81,3.62,9.31,6.49,14.05,2.75,4.52,4.44,7.08,5.06,7.68,2.91,2.8,5.3,5.1,7.16,6.91.24.24.46.51.62.81,4.65,7.92-.9,17.74-10.53,15.37-1.89-.47-3.95-1.77-6.19-3.91-10.87-10.44-16.47-23.16-21.56-38.09-2-5.89-4.58-11.17-7.73-15.84-.23-.35-.74-.33-.93.03-6.58,12.26-10.69,27.56-2.24,39.86,1.52,2.2,2.96,4.2,3.36,6.23.98,4.86-1.37,10.27-6.58,11.57-5.06,1.26-9.41-.83-13.05-6.26-11.66-17.42-11.7-38.34-2.95-57.08.26-.54-.3-1.12-.85-.87-7.18,3.28-13.85,8.13-20.55,11.93-16.32,9.25-36.81,12.3-54.36,5.14-5.51-2.24-9.73-9.3-5.08-14.56,2.83-3.21,6.11-4.46,9.84-3.74,2.14.42,4.8,1.9,7.38,2.15,10.35,1.04,19.38-.38,27.08-4.26,7.86-3.96,14.68-9.39,20.46-16.28.18-.22.08-.56-.2-.64-11.69-3.06-24.18-2.94-37.13-3.84-11.66-.81-22.41-4-32.27-9.57-2.32-1.32-3.92-3.08-4.81-5.3-2.08-5.2-.3-9.18,4.51-12.01,4.03-2.37,8.21-2.02,12.53,1.06.24.18.51.32.79.43,9.42,3.77,19.07,4.57,28.95,2.41.39-.08.53-.57.23-.85-22.08-20.16-41.25-42.82-57.52-67.98-20.86-32.28-34.54-67.6-41.04-105.97-8-47.18-1.34-95.36,19.62-138.3,17.69-36.24,44.48-69.34,78.62-91.72,30.25-19.83,63.56-31.87,99.94-36.11,11.32-1.32,20.94-2.09,28.85-2.32,6.89-.2,16.52-.14,28.88.17,7.82.2,17.41.85,28.76,1.96,13.74,1.33,23.54,2.28,29.42,2.83,7.95.75,13.26,1.17,15.91,1.28,18.55.73,37.49-1.65,52.41-13.49,8.44-6.71,15.55-14.41,21.32-23.11,2.79-4.19,5.27-5.88,9.44-7.15.48-.15.91-.49,1.17-.93,11.41-19.67,20.96-40.29,28.66-61.87,4.72-13.22,9.26-27.21,13.64-41.98,2.08-7,6.53-20.76,15.43-21.12,16.61-.67,21.59,32.58,22.2,44.77.32,6.34.32,12.74,0,19.2-.02.26.34.38.48.15,7.29-11.26,15.5-24.52,22.33-34.74,19.86-29.77,41.49-59.44,64.9-89.02,4.1-5.18,7.53-8.85,10.29-10.99,3.65-2.85,8.5-4.01,12.94-1.62,7.03,3.8,7.41,12.16,6.82,19.18-1.04,12.17-3.52,24.62-7.43,37.34-4.41,14.35-9.36,27.77-14.84,40.25-.18.41.32.77.65.46,30.9-28.01,68.27-52.08,107.58-64.95,14.05-4.6,28.02-7.94,41.94-6.61,2.27.22,4.62,1.05,7.03,2.5,8.56,5.12,6.29,14.06-.09,19.77-6.71,6.01-16.04,12.97-24.95,19.37-22.5,16.15-43.67,33.87-63.52,53.17-.07.07-.13.11-.2.11-.14,0-.26.06-.34.13ZM510.93,265.62c16.13-19.44,25.84-31.05,29.14-34.83,9.29-10.65,18.99-22.27,29.09-34.87,8.74-10.89,19.78-24.16,33.12-39.81,34.54-40.51,72.91-77.76,117.07-106.59.26-.17.19-.57-.12-.64-.33-.07-.74-.04-1.23.09-14.97,4.03-29.99,10.08-45.08,18.14-37,19.79-70.03,45.17-99.11,76.12-2.19,2.32-5.96,5.85-7.81,8.82-11.77,18.82-24.14,37.72-37.62,54.36-.37.45-.5,1.06-.35,1.62.61,2.31.66,4.68.16,7.11-1.28,6.23-4.38,14.57-6.94,20.78-3.75,9.09-7.33,18.91-10.74,29.47-.09.26.25.44.43.23ZM462.21,240.03c6.03-3.98,11.04-7.61,15.01-10.91,10.63-8.81,21.45-17.53,32.48-26.15,1.19-.92,3.08-1.85,5.67-2.8.52-.18.97-.53,1.27-1,31.16-46.29,56.15-91.26,71.66-141.46,2.85-9.2,4.97-17.33,6.36-24.38.09-.45-.5-.7-.76-.32-2.79,4-8.41,11.54-16.86,22.6-13.31,17.4-25.3,35.37-38.16,53.97-6.03,8.72-12.94,19.29-20.75,31.73-12.91,20.57-23.17,36.69-30.76,48.37-.29.44-.53.92-.73,1.42-6.31,16.4-14.59,32.58-24.83,48.53-.17.27.14.56.4.39ZM499.17,313.11c14.14-8.4,28.33-14.77,42.57-19.1.43-.13.78-.41,1.02-.78,3.53-5.62,5.97-9.65,7.31-12.1,1.61-2.93,3.34-5.63,5.2-8.09,16.13-21.41,34.21-41.35,54.26-59.84,14.07-12.99,30.12-24.85,48.15-35.59.21-.13.36-.32.43-.58.06-.26-.14-.52-.4-.5-19.98.96-40.16,8.32-57.79,18.44-4.96,2.85-9.54,6.21-13.72,10.1-3.55,3.3-7.71,7.2-12.47,11.71-1.56,1.47-7.56,7.97-17.98,19.48-10.25,11.33-23.92,25.22-32.56,34.04-5.57,5.7-13.01,14.58-19.48,20.29-.47.42-.8.99-.94,1.61l-4.4,20.32c-.1.46.41.84.81.59ZM420.04,264.11c-.16.49.38.92.82.67l19.97-11.55c.44-.25.78-.64.97-1.11.87-2.11,2.77-5.99,5.7-11.65,9.26-17.94,16.54-35,21.84-51.19,8.48-25.89,12.35-56.94,8.18-85.47-.06-.41-.64-.43-.74-.03-7.79,31.99-19.47,62.42-35.03,91.28-3.49,6.49-7.42,12.64-11.78,18.44-.51.68-.78,1.5-.81,2.35-.5,16.39-4.1,32.62-9.1,48.26ZM324.12,767.45s.03.08.04.13c0,.03.09.08.21.08,24.06,3.57,48.73,2.58,72.82-1.51,16.18-2.75,31.88-7.36,47.12-13.85,38.49-16.37,69.84-42.22,94.04-77.54,8.45-12.33,15.5-26.28,21.27-40.17,14.84-35.77,20.22-72.58,16.13-110.41-3.06-28.32-12.65-56.16-25.88-81.87-3.62-7.02-8.12-15.1-13.49-24.23-4.91-8.31-10-18.3-12.73-25.9-9.3-25.88-6.22-50.56,9.23-74.04.24-.37-.15-.84-.55-.65-13.13,6.19-26.84,13.41-39.1,22.19-7.54,5.41-17.8.01-16.87-9.53,2.33-24.08,7.67-47.77,16.02-71.08,3.14-8.75,6.37-17.01,9.72-24.76.16-.39-.29-.74-.62-.49-6.58,5.16-12.88,11.28-18.6,15.46-18.84,13.73-38.83,25.84-59.95,36.33-2.99,1.49-6.47,2.99-10.43,4.5-3.08,1.18-6.12,1.19-9.11.02-3.79-1.47-6.52-6.46-5.95-10.16.53-3.46.88-5.55,1.07-6.27,2.61-10.03,5.48-21.77,8.6-35.23.09-.38-.4-.64-.66-.36-13.4,13.86-29.72,22.06-48.97,24.58-8.05,1.05-16.38,1.3-24.99.75-14.64-.95-29.35-2.25-44.16-3.88-21.31-2.36-43.35-2.99-66.11-1.9-8.98.42-18.88,1.6-29.72,3.53-49.11,8.71-92.17,32.48-123.74,71.45-34.63,42.78-52.71,97.5-47.58,152.55,5.31,56.97,30.54,108.88,67.71,152.02,2.15,2.49,7.91,8.67,17.28,18.55,4.88,5.14,10,9.35,15.72,14.79,3.19,3.03,7.24,6.57,12.17,10.65,8.79,7.24,19.9,15.44,33.34,24.62,19.75,13.49,39.58,24.6,59.5,33.31,18.04,7.9,35.83,14.34,53.36,19.32.48.14.99.16,1.48.05l3.03-.65c.55-.12,1.1-.18,1.66-.19,14.94-.42,25.73-.87,32.37-1.35,13.82-1.01,28.27-3.86,43.36-8.55,38.63-12.01,71.73-32.56,99.3-61.65,13.24-13.97,24.53-29.27,33.87-45.9,19.47-34.64,30.63-75.44,31.13-115.67.36-29.49-4.17-60-10.62-89.27-.55-2.5,1.04-4.99,3.56-5.51l.31-.07c2.58-.54,5.12,1.08,5.73,3.65,3.68,15.88,6.19,27.07,7.52,33.57,3.37,16.5,5.4,33.06,6.08,49.67,1.38,33.87-4.4,67.27-17.33,100.21-9.61,24.47-23.05,46.97-40.32,67.52-20.7,24.64-45.02,44.24-72.95,58.81-26.44,13.8-54.47,21.77-84.09,23.92-.19.02-.31.23-.21.39Z"/>
      <path class="cls-1" d="M460.08,298.46c.25,1.3.09,2.49-.48,3.57-5.14,9.73-8.29,15.8-9.45,18.21-6.54,13.55-12.2,28.18-16.98,43.9-5.8,19.1-11.46,38.52-16.98,58.25-4.55,16.19-10.3,33.68-17.26,52.46-15.79,42.62-37.24,83.57-66.34,118.73-35.7,43.13-79.97,79.72-130.63,103.67-6.89,3.26-13.67,5.69-20.35,7.31-5.48,1.33-9.96-4.91-4.06-7.84,8.94-4.43,17.71-9.03,26.32-13.81,47.51-26.34,88.23-60.78,122.17-103.32,2.97-3.72,8.06-10.83,15.26-21.34,5.31-7.74,9.95-15.16,13.93-22.24,14.06-25.05,25.86-51.07,35.38-78.08,9.69-27.45,14.92-46.09,25.76-83.46,2.27-7.79,6.29-19.03,12.08-33.73,4.79-12.16,11.03-24.26,18.72-36.3,2.62-4.11,4.36-6.48,5.22-7.13,2.19-1.66,6.94-2.71,7.68,1.14Z"/>
      <path class="cls-1" d="M478.46,360.43c2.48.02,4.45,2.1,4.32,4.58-1.12,21.83-.98,36.41-1.15,72.05-.08,16.32-1.09,32.72-3.03,49.2-4.42,37.54-15.06,72.88-31.92,106.01-1.35,2.65-4.57,8.34-9.66,17.08-3.8,6.52-7.34,12.01-10.62,16.48-42.7,58.06-107.09,100.13-179.54,106.72-4.09.37-9.08.48-14.96.32-4.1-.11-9.11-.37-15.02-.79-2.62-.18-4.73-2.22-5.01-4.83l-.02-.16c-.26-2.39,1.6-4.47,4.01-4.5,33.64-.32,64.25-6.49,91.83-18.53,68.48-29.87,119.7-87.09,143.45-158.1,10.06-30.09,15.76-61.09,17.1-92.97.67-15.93,1.27-36.7,1.81-62.31.13-6.03,1.05-14.6,2.77-25.71.41-2.62,2.68-4.55,5.34-4.53h.29Z"/>
      <path class="cls-1" d="M133.1,664.17c-.2,3.08-3.67,4.47-6.07,2.87-1.63-1.07-2.81-2.71-3.55-4.92-1.92-5.72-3.37-12.4-4.36-20.03-5.76-44.57-1.69-87.75,14.02-130,14.41-38.77,36.43-73.92,66.24-103.16,25.63-25.13,55.45-45.67,87.71-61.73,12.46-6.2,25.6-12.23,39.42-18.09,24.72-10.47,39.46-16.84,44.23-19.11,4.33-2.06,9.32-4.78,14.98-8.16,5.01-2.99,9.01,2.47,5.59,7.09-.19.25-.41.47-.66.64-12.87,9.07-26.11,16.61-39.72,22.61-20.48,9.03-37.28,16.79-50.42,23.28-28.8,14.22-54.87,31.33-78.23,51.32-20.67,17.69-38.96,39.66-53.26,63.42-34.66,57.59-46.72,120.04-36.2,187.36.33,2.13.43,4.33.28,6.6Z"/>
      <path class="cls-1" d="M344.3,286.31l.04.19c.52,2.18-.72,4.4-2.86,5.1-3.73,1.22-6.76,2-9.07,2.35-24.99,3.73-46.21,7.51-63.66,11.34-30.15,6.63-58.36,17.73-84.62,33.3-37.85,22.45-68.87,56.41-87.25,96.59-24.16,52.81-29.15,110.28-15.64,166.34.48,2-.32,4.96-2.45,5.66-5.53,1.82-8.28-7.07-9.39-10.87-3.65-12.51-6.06-25.96-7.22-40.35-2.9-36.28,1.55-71.32,13.33-105.12,1.71-4.91,3.59-9.67,5.64-14.27,3.22-7.3,5.52-12.91,8.6-18.55,8.06-14.75,16.95-27.9,26.69-39.45,24.26-28.82,54.53-51.1,90.8-66.86,27.02-11.73,56.9-17.89,87.06-21.95,10.35-1.39,25.37-3.64,45.06-6.75,2.25-.35,4.4,1.08,4.92,3.3Z"/>
      <path class="cls-1" d="M159.96,683.88c-2.17,1.17-4.23.97-6.17-.62-.38-.3-.61-.74-.66-1.21-.28-2.38-.28-4.69,0-6.91,6.34-50.83,24.57-100.27,52.6-143.3,5.4-8.29,12.52-17.72,21.35-28.29,1.54-1.86,4.28-2.14,6.17-.66l.25.2c1.85,1.44,2.3,4.07,1.03,6.05-20.96,32.62-40.64,67.3-54.42,103.6-7.4,19.48-12.96,40.43-16.95,60.11-1.24,6.1-2.02,9.47-2.33,10.11-.19.38-.5.7-.87.9Z"/>
    </g>
  </g>
</svg>