<?xml version="1.0" encoding="UTF-8"?>
<svg id="Capa_2" data-name="Capa 2" xmlns="http://www.w3.org/2000/svg" viewBox="0 0 728.61 960.53">
  <defs>
    <style>
      .cls-1 {
        fill: #fef1d1;
      }
    </style>
  </defs>
  <g id="Capa_1-2" data-name="Capa 1">
    <g>
      <path class="cls-1" d="M711.6,455.81c18.6-29.48,21.28-67.35,11.28-100.39-8.39-27.73-24.1-51.45-43.78-72.11-7.09-7.45-13.64-14.54-19.64-21.27-7.59-8.52-13.89-18.04-18.91-28.54-7.33-15.34-8.97-34.81-6.4-51.77,1.96-12.99,5.32-26.04,10.07-39.15,3.76-10.39-4.74-15.74-14.02-15.89-.53-.01-1.06-.21-1.46-.56-1.34-1.17-2.93-3.2-4.85-4.35-7.92-4.76-16.05-6.14-24.39-4.15-.48.12-.99.07-1.43-.16-1.64-.82-2.88-1.45-3.72-1.88-5.75-2.98-15.37-1.76-17.39,5.47-6.89,24.73-15.65,51.11-34.43,68.59-12.77,11.89-29.02,19.69-46.17,23.08-26.37,5.21-44.64,7.83-64.99,17.43-.27.13-.59.07-.77-.16-6.37-7.55-13.17-14.61-21.77-23.01-12.17-11.89-21.33-25.64-27.46-41.26-3.78-9.64-7.91-20.89-12.38-33.77-3.46-9.99-8.07-20.84-13.83-32.56-5.72-11.64-11.73-21.77-18.03-30.38-22.37-30.53-54.34-53.52-90.74-63.17C227.54.84,208.1-.95,188.05.47c-25.8,1.84-49.39,9.13-70.8,21.88-.48.28-1.03.44-1.59.43-27.68-.25-51.54,9.12-71.59,28.12C25.82,68.19,13.26,91.39,6.61,115.42c-7.96,28.7-9.12,58.97-1.32,87.38,3.46,12.61,11.15,30.69,13.94,45.8,3.1,16.69,1.66,31.48-2.01,48.53-4.48,20.82-8.83,43.2-3.59,64.38,7.25,29.36,28.45,47.31,57.94,52.75,3.53.65,6.95-2.2,4-5.63-8.1-9.41-11.41-20.78-9.92-34.1.04-.35.53-.4.64-.07l1.37,4.01c.03.12.09.23.14.34,14.61,29.68,46.2,43.47,78.21,39.74.41-.05.74.35.61.74-4.33,13.37-6.57,26.8-6.74,40.31-.01.71-.38,1.37-.99,1.75-6.99,4.25-11.46,10.23-13.42,17.91-6.62,26.02,2.04,60.62,31.38,67.95.44.11.82.37,1.09.72,6.28,8.19,12.37,14.98,18.25,20.37,7.09,6.49,15.64,11.59,25.64,15.27l.07.02,3.59.72c.45.09.81.43.93.86,3.07,11.34,4.77,20.78,5.09,28.32.93,21.3-.81,39.59-3.46,62.69-.33,2.84-.25,4.83.23,5.98,1.7,4.07,6.7,5.19,12.55,7.58.38.15.57.58.43.97-9.83,26.07-21.25,56.99-31.6,89.18-9.3,28.97-19.36,58.31-30.19,88.02-2.07,5.67-1.34,7.68,2.87,11.43.28.25.17.72-.2.83l-4.44,1.22c-.23.07-.47.08-.7.04-9.27-1.46-16.66-1.53-22.18-.21-13.56,3.24-21.9,11.88-25.05,25.91-1.69,7.6.37,13.93,6.21,18.99,9.15,7.93,20.41,13.52,31.14,17.86,16.31,6.61,32.53,11.38,48.65,14.31,10.09,1.83,19.77,2.53,29.04,2.08,11.14-.55,16.28-8.63,18.91-18.51,2.14-7.99,3.19-16.27,3.14-24.86,0-.34.31-.58.63-.5,3.6.87,6.44.12,8.51-2.27.19-.21.32-.45.41-.7,4.42-11.28,14.35-36.5,29.79-75.66,6.35-16.13,10.04-26.08,16.68-42.26,2.45-5.98,4.95-11.34,7.49-16.09,12.55-23.34,26.04-46.38,41.69-73.55.25-.44.7-.73,1.2-.81l2.65-.38c.56-.08,1.11.19,1.41.67,14.78,23.64,29.47,45.77,44.05,66.38,9.47,13.39,20.73,24.58,33.77,33.59,8.73,6.03,17.82,12.12,27.27,18.28,22.38,14.6,44.58,29.2,66.58,43.79,2.81,1.88,3.87,2.13,6.94,1.35.59-.15,1.17.31,1.17.92.01,3.33-.46,5.73-1.96,8.72-9.84,19.46-5.25,45.25,20.77,46.5,6.32.32,13.77.47,20-.77,16.1-3.22,28.18-11.97,36.25-26.26,7.9-13.97,12.59-30.54,15.14-47.08,1.42-9.16,2.72-20.62-3.25-27.92-6.58-8.04-16.52-12.82-26.29-16.41-.6-.22-.94-.85-.79-1.47.92-3.76,1.11-8.49-2.04-11.26-27.26-23.84-56.94-47.79-85.73-71.5-.35-.29-.65-.62-.92-1-6.23-9.14-10.73-20.16-14.67-31.35-4.07-11.6-8.51-24.66-13.31-39.17-.12-.37-.01-.77.29-1.03,7.26-5.83,13.69-12.48,19.29-19.95,1.97-2.63,3.15-5.45,1.9-8.3-8.46-19.25-16.95-37.34-25.48-54.26-.16-.33.13-.71.49-.62,28.42,6.73,58.63,6.35,85.7-4.91.35-.14.73-.15,1.08-.04,8.35,2.76,17.72,4.29,28.1,4.59,20.94.6,40.49-4.32,58.65-14.74,23.31-13.38,39.47-32.84,48.48-58.38.97-2.76,1.65-5.19,2.03-7.3.06-.37.31-.7.64-.86,6.97-3.4,11.01-8.82,12.1-16.24.65-4.44-.01-8.39-2.01-11.87-.2-.34-.2-.76.02-1.09ZM127.54,365.8c-19.47-3.62-37.65-12.95-50.56-27.89-.23-.25-.2-.65.08-.87,6.23-5.01,9.63-11.07,10.22-18.19.76-9.17-2.28-16.78-9.13-22.83-5.57-4.92-13.55-6.74-20.61-4.67-.41.12-.84-.16-.89-.59-.4-3.18-1.32-10.33-2.76-21.45-.54-4.16-2.54-12.52-6.01-25.09-6.91-25.05-7.11-50.5-.59-76.36,3.22-12.76,8.1-24.62,14.63-35.58,5.73-9.62,13.57-19.33,23.16-24.86,1.83-1.06,3.33-1.33,5.48-.82,5.61,1.33,11.09,3.4,16.45,6.22,14.76,7.73,27.5,17.42,40.26,28.26,6.2,5.27,18.03,15.77,35.51,31.49,10.57,9.5,22.11,18.41,34.62,26.75,9.48,6.31,19.12,11.19,28.92,14.63.43.15.77.48.95.91,6.1,15.11,9.64,30.8,10.62,47.08.01.29.12.57.29.8,4.52,6,8.15-1.06,8.86-5.23,2.33-13.68,2.48-27.61.45-41.79-.09-.58.11-1.17.51-1.59,4.7-4.88,10.28-6.67,16.76-5.37,9.57,1.91,16.27,11.65,18.2,20.86,2.33,11.15.97,21.35-4.07,30.6-5.66,10.39-14.77,15.91-27.33,16.56-3.23.17-2.8,6.24-3.28,8.67-3.46,17.59-11.69,32.55-24.68,44.87-30.22,28.66-74.88,43.14-116.06,35.49ZM216.8,407.6s.01.05.01.09v3.46c.01.1-.07.19-.16.21-.1.02-.2-.03-.23-.13-3.96-11.05-7.17-22.44-17.34-28.7-.25-.16-.46-.39-.58-.67l-5.16-12.04c-.06-.14.01-.31.16-.35,23.42-7.27,47.19-20.92,62.89-40.25.1-.12.29-.1.36.04l3.81,8.88c.07.14.05.31-.03.44-1.96,2.98-4,5.56-6.13,7.72-8.47,8.63-18.27,16.9-29.39,24.84-3.05,2.18-5.66,5.36-7.82,9.53-3.93,7.61-2.56,18.8-.38,26.93ZM183.01,408.46c.09-.22.38-.26.53-.09,5.45,6.28,12.32,10.17,20.6,11.67.57.11.68.87.15,1.12l-29.54,14.44c-.2.1-.41-.08-.37-.29,1.96-9.18,4.83-18.13,8.63-26.86ZM163.24,456.33c-.02.48-.46.82-.93.71-4.36-1.02-8.71-.91-13.03.34-.43.12-.85-.21-.84-.65.82-22.85,8.44-48.93,25.36-65.03.48-.46.87-.78,1.18-.96.17-.11.4-.03.49.16l2.87,6.69c.17.4.15.86-.04,1.24-9.42,18.16-14.44,37.33-15.07,57.5ZM192.72,406c-2.03-1.48-3.39-2.99-4.09-4.53-3.67-8.04-6.33-15.87-8-23.46-.36-1.69.61-3.45,2.93-5.29.65-.51,1.61-.31,2,.43l1.56,2.95c.24.44.04.99-.43,1.19-3.61,1.52-1.55,5.97,1.15,7.65,7.01,4.4,10.16,5.67,13.48,12.37,1.71,3.44,3.92,8.26,6.63,14.47.17.39-.16.83-.59.74-5.21-.99-10.09-3.16-14.65-6.5ZM225.41,382.99c.91-1.62,3.22-3.83,6.93-6.63,1-.76,5.74-4.39,14.24-10.89,7.56-5.79,14.27-12.4,20.13-19.84.16-.22.5-.17.62.07,3.29,6.54,8.04,12.14,14.25,16.81.35.27.44.76.19,1.13-2.14,3.05-4.46,7.08-7.05,10.04-13.61,15.58-29.99,27.7-49.14,36.37-.28.13-.62-.07-.64-.38-.68-8.47-4.1-18.5.49-26.67ZM201.71,574.45c-6.1-2.59-11.56-5.76-16.36-9.52-8.11-6.34-15.05-13.84-20.82-22.5-.67-1-1.68-1.72-2.85-2.03-12.59-3.25-21.12-10.82-25.59-22.71-4.63-12.28-5.25-24.74-1.88-37.41.75-2.8,1.63-4.83,2.63-6.08,6.75-8.41,19.54-12.38,29.63-7.41,1.69.84,3.03,2.25,3.77,3.98l1.25,2.93c.59,1.37-.85,2.73-2.18,2.07-5.91-2.9-12.68-2.79-20.31.35-1.73.72-2.69,2.57-2.28,4.41l.07.28c.37,1.6,2.04,2.54,3.61,2.03,8.07-2.65,14.72-2.36,19.95.87.79.49,1.41,1.21,1.77,2.06l1.66,3.85c.55,1.27-.74,2.55-2.01,2-5.79-2.52-12.29-2.28-19.52.74-1.67.7-2.49,2.61-1.82,4.29l.02.05c.62,1.6,2.38,2.45,4.01,1.94,6.07-1.88,20.74-3.52,20.18,6.72-.05,1-1.03,1.69-1.99,1.42-4.93-1.4-10.42-.85-16.46,1.64-1.68.7-2.56,2.54-2.04,4.29l.07.25c.5,1.66,2.31,2.54,3.93,1.89,4.37-1.77,13.49-3.63,16.3,1.65,1.33,2.5-.48,4.93-2.42,6.48-.27.23-.67.26-.97.1l-1.71-.92c-.22-.11-.47-.16-.72-.13-2.79.31-10.73,2.51-11.23,6.04-.67,4.87,3.53,5.02,6.81,3.73.6-.24,1.29-.03,1.66.5,6.99,10.04,15.81,17.39,26.46,22.07.43.2.79.51,1.03.92,3.67,6.15,6.67,12.32,9.02,18.51.16.41-.25.82-.67.64ZM174.95,529.66l3.14-1.53c.16-.09.36-.01.45.15l4.41,9.03c.15.33-.24.63-.51.39l-7.66-6.73c-.43-.37-.34-1.07.17-1.32ZM234.55,942.17c-.84,2.95-2.39,5.48-4.67,7.61-.29.28-.65.48-1.05.6-7.96,2.29-16.53,1.42-24.48.24-25.54-3.8-51.58-11.77-73.89-24.83-4.41-2.57-11.04-7.07-12.28-12.2-.43-1.77-.28-4.63,2.32-4.12,3.9.77,7.66,2.05,11.3,3.84,5.16,2.54,11.43,5.52,18.82,8.93,16.01,7.42,32.65,13.06,49.92,16.93,11.25,2.52,22.46,3.37,33.63,2.53.25-.01.44.22.37.46ZM237.06,931.41c-.15.77-.77,1.37-1.56,1.51-4.73.78-9.37.97-13.92.57-19.58-1.71-38.9-7.33-57.34-14.63-8.66-3.44-21.23-9.87-27.54-12.68-4.85-2.17-9.96-3.97-14.91-4.75-.4-.07-.6-.51-.38-.85,6.01-9.34,15.91-12.27,26.83-11.69,7.74.41,14.54,3.52,20.38,9.33.6.6,1.52.77,2.29.43,1.85-.82,2.8-2.07,2.84-3.73.01-.38-.1-.75-.31-1.07-1.6-2.36-3.77-4.33-6.5-5.9-.33-.19-.31-.68.04-.82l4.08-1.76c.43-.19.91-.14,1.3.11,20.79,13.32,42.76,23.13,65.89,29.41.13.03.23.16.23.31.12,5.48-.35,10.88-1.41,16.22ZM340.92,707.23c-13.21,22.53-25.64,44.44-37.31,65.73-3.64,6.63-6.99,13.82-10.06,21.57-12.62,31.85-27.21,69.31-43.79,112.37-.32.83-1.19,1.32-2.06,1.15-7.06-1.37-13.97-3.27-20.73-5.67-20.95-7.48-40.57-17.48-58.85-30-.37-.26-.52-.73-.37-1.16,12.24-33.13,21.4-60.88,37.74-110.24,7.76-23.43,14.15-39.73,24.29-67.03.13-.36.53-.56.91-.44,31.23,10.23,63.46,14.79,96.71,13.7,3.8-.12,8.2-.28,13.22-.46.26-.01.43.27.29.49ZM612.79,823.43c6.35,4.31,7.44,11.02,6.75,18.32-1.65,17.47-5.83,33.3-12.53,47.5-1.71,3.62-4.55,7.88-8.51,12.79-10.88,13.44-30.8,16.76-46.68,13.45-5.4-1.13-9.16-4.14-11.3-9.04-.16-.39.25-.77.62-.58,5.87,3.07,14.79,3.27,22.06,2.81,14.73-.94,27.08-8.02,34.41-20.89,2.54-4.45,4.6-8.85,6.17-13.19,5.88-16.2,10.13-34.41,8.26-50.7-.04-.41.41-.69.75-.46ZM595.49,814.15l6.37,3.38c.61.33,1.06.91,1.21,1.59.99,4.54,1.38,8.81,1.17,12.81-.69,13.17-3.25,25.89-7.68,38.17-5.18,14.35-12.91,26.51-28.59,29.63-9.45,1.88-19.44,1.42-27.97-3.11-.38-.2-.62-.6-.62-1.03-.02-5.91,2.02-10.22,5.13-16.21.14-.26.25-.53.33-.83,1.05-3.86,1.29-7.59.74-11.17-.08-.52.23-1.01.72-1.19,14.49-5.06,26.22-13.78,35.18-26.16,5.83-8.04,10.15-16.53,12.97-25.46.13-.44.64-.64,1.05-.43ZM493.12,712.6c3.92,8.92,7.35,14.55,15.03,20.68,26.61,21.22,53.3,43.34,80.08,66.36.32.27.47.7.4,1.11-.92,6.05-2.7,12.1-5.33,18.15-7.49,17.23-19.6,29.84-36.33,37.83-4.01,1.91-8.29,3.09-12.85,3.55-.36.03-.72-.05-1.01-.26-23.03-15.88-46.83-31.7-71.43-47.46-6.62-4.24-13.8-9.41-20.33-13.88-7.96-5.43-14.6-10.93-19.92-16.49-5.54-5.77-12.51-15.16-18.38-23.7-12.07-17.57-24.27-35.97-36.62-55.19-.19-.29-.01-.68.34-.72,1.51-.17,2.87-.38,4.07-.63,28.6-5.99,55.37-16.41,80.29-31.28,7.94-4.73,14.85-9.41,20.74-14.03.34-.26.83-.11.96.29,5.95,18.14,12.29,37.45,20.3,55.67ZM492.78,623.12c.19.41.14.88-.12,1.25-1.45,2.09-3.1,4.1-4.94,6.03-13.78,14.49-30.21,26.87-49.27,37.16-16.44,8.87-33.19,15.83-50.25,20.89-31.8,9.45-64.52,12.3-98.17,8.55-23.97-2.67-49.52-8.16-72.15-17.93-.7-.29-1.11-1.03-1.01-1.78,2.47-18.74,4.26-36.74,3.93-55.38-.17-9.76-1.04-18.24-2.61-25.43-3-13.85-7.77-27.28-14.3-40.3-2.1-4.2-5.6-10.23-10.48-18.11-.97-1.56-3.21-5.9-6.72-13-2.21-4.49-3.17-9.97-5.24-13.7-.21-.37-.24-.83-.09-1.23,1.67-4.49,1.32-8.76-1.06-12.82-.22-.39-.26-.85-.12-1.28,1.51-4.25,1.09-8.68-1.25-13.29-.22-.44-.26-.94-.13-1.41,2.02-7.3.48-13.58-4.64-18.83-.31-.31-.47-.72-.47-1.15v-13.79c0-.96.55-1.84,1.41-2.28,14.84-7.43,28.81-14.68,41.91-21.73,4.63-2.49,8.25-3.91,13.64-6.4,13.87-6.44,26.44-14.75,37.72-24.92.2-.17.5.04.38.28-7.85,16.2-12.78,33.38-14.78,51.52-.07.53-.4,1-.89,1.21-10.02,4.31-13.81,11.8-11.37,22.49.1.43.01.87-.23,1.23-3.61,5.43-4.03,11.08-1.25,16.95.21.43.23.92.07,1.36-2.21,6.06-1.41,11.63,2.4,16.72.24.33.34.74.25,1.13-.84,3.9.18,7.62,3.05,11.16,5.08,6.25,11.64,9.18,19.68,8.78,2.42-.12,3.01.8,4.41,2.39.24.28.29.67.15,1l-1.44,3.33c-.24.56-.31,1.17-.19,1.77.32,1.49,2.14,2.8,3.15,3.77,1.77,1.68,3.85,2.44,6.26,2.28.33-.02.65.1.87.34,27.21,28.2,67.19,38.91,105.24,32.76,4.14-.67,7.56-1.12,10.26-1.34,14.85-1.24,27.44-7.67,35.06-20.49.11-.2.35-.27.56-.19,10.69,4.81,21.71,8.86,33.05,12.13.61.17,1.11.59,1.41,1.16,10.3,19.91,19.73,39.61,28.31,59.09ZM424.09,456.85c.21.43.01.94-.44,1.12-24.29,9.98-47.21,20.88-68.76,32.69-.63.35-1.39.44-2.07.24l-16.54-4.66c-.73-.21-1.33-.72-1.67-1.4l-16.53-33.83c-.99-2.02-3.47-2.8-5.44-1.71l-.19.1c-2.09,1.11-2.92,3.68-1.9,5.81l12.35,25.48c.19.39-.17.83-.59.71l-4.16-1.18c-.84-.23-1.52-.85-1.83-1.67-4.68-12.19-10.7-22.6-20.32-31.42-2.12-1.94-4.42-3.48-6.91-4.63-.24-.11-.36-.36-.31-.61,3.72-17.65,9.74-34.04,20.22-48.62,6.35-8.81,16.33-17.52,27.02-19.52,15.81-2.95,31.5,4.96,42.76,16.04,4.65,4.57,9.38,9.99,14.2,16.25,12.09,15.73,22.45,32.66,31.08,50.78ZM398.72,399.62c.04-.33.4-.49.69-.33l23.87,14.29c.41.25.58.76.38,1.21-2.03,4.64-3.31,9.19-3.85,13.66-.08.59-.85.74-1.15.23-5.9-10.22-12.45-19.76-19.66-28.64-.19-.23-.28-.37-.28-.43ZM291.19,458.84c1.12-.92.56-2.08,1.09-2.74.25-.31.71-.32.97-.03,7.68,8.43,13.31,18.11,16.88,29.04.41,1.27,1.6,2.21,3.55,2.84,17.58,5.64,31.72,9.92,42.42,12.84,2.63.71,7.29,2.24,13.98,4.58,6.21,2.17,12.6,5.16,19.16,8.95,1.83,1.06,4.19.34,5.09-1.58l.09-.19c.93-1.96.24-4.32-1.59-5.48-9.11-5.76-17.87-9.75-26.3-11.96-.5-.13-.58-.81-.12-1.04,16.34-8.39,32.11-15.87,47.3-22.44.47-.2,1,.01,1.21.47,5.03,11.37,8.7,22.82,11.03,34.34,2.33,11.54,2.64,25.8-2.36,36.46-12.16,25.96-43.62,21.62-65.58,13.51-21.14-7.82-40.83-18.87-59.06-33.16-.55-.43-1.24-.6-1.92-.48-9.95,1.77-18.98-.21-27.09-5.93-3.02-2.12-5.13-3.84-8.85-3.83-1.69,0-2.75.8-3.15,2.39-.07.27-.36.4-.61.28-2-1-3.54-2.12-4.63-3.36-2.42-2.76-3.23-6.81,1.11-8.39,1.75-.64,3.81-.98,6.16-1.03,1.44-.02,2.69-1,3.07-2.39.81-2.99-1.34-4.21-4.09-4.45-3.67-.33-7.03.32-10.08,1.95-.29.15-.67.02-.79-.28-.47-1.15-.85-2.29-1.13-3.43-1.77-6.93,8.31-8.17,13.08-7.71,1.91.19,3.64-1.11,4-2.99l.04-.28c.35-1.81-.91-3.55-2.74-3.79-5.32-.68-9.63-.22-12.93,1.39-.87.43-1.89-.21-1.89-1.18v-3.22c0-1.72.91-3.32,2.38-4.21,4.22-2.55,9.34-3.42,15.36-2.63,2,.26,3.82-1.16,4.07-3.15l.03-.24c.24-1.95-1.1-3.75-3.04-4.09-5.77-1-10.92-.53-15.45,1.41-.37.16-.8-.09-.83-.49-.52-6.12,4-9.62,9.73-10.69,9.24-1.72,18.25.89,26,6.04,2.2,1.46,4.45,1.99,6.41.37ZM432.04,453.79c-3.14-6.2-5.32-10.6-6.55-13.19-.17-.38-.25-.82-.21-1.24.84-7.45,2.48-14.57,4.9-21.35.13-.38.59-.56.94-.35,29.13,16.83,59.09,31.31,89.86,43.45.37.15.56.57.41.94-7.3,18.81-17.31,36.45-31.49,50.18-4,3.87-11.28,9.98-17.12,10.22-6.85.27-14.19-2.5-20.04-5.42-.88-.44-1.6-1.13-2.08-2-9.73-17.47-9.57-41.4-6.87-61.36.09-.69-.63-1.19-1.24-.86l-.73.38c-.37.2-.63.56-.72.97-3.03,15.13-3.12,29.73-.26,43.82.02.13-.04.25-.16.29-.12.04-.25-.01-.32-.12l-15.61-29.48c-.31-.58-.09-1.29.48-1.6,5.59-3.05,10.66-5.72,6.82-13.29ZM476.9,534.38c0,.47-.28.63-.85.46-9.29-2.75-14.98-4.48-17.05-5.18-1.8-.62-2.78-1.38-2.92-2.28-.07-.36.29-.63.62-.49,4.89,2.15,10.08,3.29,15.57,3.44.15.01.31.07.43.16l4.07,3.58c.09.09.14.2.14.32ZM445.48,524.29l-8.45-3.52c-.26-.12-.45-.36-.49-.64l-2.26-15.8c-.03-.24.11-.47.34-.55s.49.02.6.24l10.56,19.95c.1.19-.1.39-.29.32ZM357.35,565.64c-.01.08-.09.13-.16.12-29.4-2.84-54.04-12.08-74.3-33.96-.24-.25-.01-.67.33-.6,3.68.68,7.33.77,10.95.27.7-.1,1.41.09,1.97.52,18.77,14.44,39.14,25.59,61.11,33.46.08.02.12.11.1.19ZM550.31,556.67c-.28.23-.63.4-1.05.52-38.38,11.61-79.69,1.65-115.7-14.31-.19-.08-.28-.29-.22-.5,1.43-4.07,2.26-8.32,2.5-12.77.02-.41.46-.68.83-.49,4.14,2.01,8.13,3.72,11.97,5.14,17.16,6.36,32.51,11.14,50.45,13.3.47.05.93.17,1.36.35,15.85,6.19,32.37,8.83,49.54,7.91.47-.02.69.57.32.86ZM524.38,545.63c-.24-.05-.41-.26-.4-.51.01-.24.21-.45.45-.47,2.04-.2,4.01-.61,5.91-1.22,10.24-3.27,19.65-8.24,28.22-14.91.62-.48.64-1.4.07-1.91l-.37-.32c-.31-.26-.74-.29-1.07-.08-9.27,6.07-19.17,10.77-29.73,14.09-1.07.33-5.38,1.2-12.94,2.59-.67.12-1.34.1-2-.07-8.06-2.03-15.52-4.99-22.37-8.89-3.85-2.19-6.81-4.8-10.12-7.61-.2-.17-.15-.49.08-.6,6.77-3.34,12.21-7.99,17.54-13.61,12.77-13.48,22.56-30.35,29.97-47.73.09-.2.29-.28.49-.22,22.3,8.04,45.24,14.8,68.8,20.27.43.1.64.58.43.97-5.64,10.19-12.67,19.27-21.08,27.24-.39.37-.32,1.03.15,1.29l.37.22c.29.16.65.14.92-.05,10.47-7.75,18.57-17.01,24.3-27.77.19-.35.57-.55.96-.48l19.11,3.15c.22.04.35.27.26.48-17.15,38.87-54.01,65.09-97.95,56.16ZM691.05,489.12c-12.19,35.87-43.69,61.85-81.14,67.23-14.75,2.12-29.8,1.07-45.14-3.17-.35-.1-.35-.59,0-.69,11.2-3.05,21.97-8.25,31.12-15.41,15.64-12.24,27.21-27.71,34.7-46.42.16-.41.59-.67,1.04-.62,11.26,1.21,22.33,1.59,33.21,1.13.36-.01.61.35.48.68-3.28,8.24-8.46,16.59-15.56,25.06-.33.38-.02.97.48.92l.37-.03c.87-.1,1.68-.5,2.27-1.15,1.79-1.92,5.27-6.49,10.44-13.71,1.98-2.77,3.53-5.37,4.67-7.8.89-1.93,1.49-3.16,1.78-3.71.16-.32.5-.52.86-.53,6.52-.19,13.05-1.08,19.59-2.68.53-.13,1,.39.83.92ZM691.8,479.3c-4.79,1.2-9.02,1.96-12.7,2.29-26.92,2.39-53.69.53-80.32-5.59-15.38-3.53-28.86-7.15-40.44-10.84-58.37-18.62-109.89-45.94-166.5-79.92-2.34-1.41-5.52-3.18-9.52-5.31-.8-.43-1.55-.93-2.25-1.49-9.45-7.66-22.04-13.72-34.65-14.13-12.79-.41-23.81,3.64-33.06,12.14-7.79,7.16-14.2,15.85-19.22,26.07-6.64,13.51-11.23,27.98-13.78,43.42-.07.36-.45.58-.8.44-4.77-1.96-9.79-2.93-15.05-2.89-.46,0-.81-.39-.75-.85,1.85-15.16,6.08-30.09,12.66-44.79,6.8-15.15,16.44-28.97,29.29-37.53,21.28-14.16,45.57-11.27,68.37-.04,22.72,11.19,46.84,25.78,66.42,36.92,31.44,17.89,63.72,33.18,96.84,45.86,25.93,9.93,54.11,17.93,82.05,22.54,22.14,3.66,43.13,4.41,62.99,2.26,7.63-.82,14.06-2.14,19.31-3.96,1.18-.41,2.2-.87,3.08-1.37.55-.33,1.24,0,1.35.63,1.61,9.65-5.01,14.06-13.31,16.16ZM703.11,452.47c-2.5,3.69-7.97,4.22-12.75,5.44-.34.09-.61-.27-.46-.58,12.81-24.64,15.59-53.73,9.55-80.54-.44-1.93-1.25-3.65-2.44-5.16-.16-.21-.5-.12-.53.15-.28,2.5-.31,4.44-.08,5.8,4.59,27.02,2.58,55.35-11.17,80.32-.26.47-.73.79-1.25.85-13.69,1.76-27.39,1.99-41.12.69-.34-.03-.51-.41-.32-.69,5.61-7.87,9-17.05,12.13-26.7,4.56-14.04,7.13-28.65,7.72-43.84.91-23.49-3.92-45.69-14.5-66.59-2.25-4.46-4.46-8.19-6.62-11.19-.62-.87-1.9-.95-2.62-.15-.68.74-.48,1.85-.04,2.84,5.12,11.42,8.05,18.16,8.8,20.21,13.33,36.65,10.66,78.93-6.9,113.57-2.07,4.09-4.55,7.93-7.42,11.51-.23.29-.6.44-.96.37l-11.36-1.88c-.21-.03-.31-.26-.2-.44,5.91-9.1,10.4-20.48,13.48-34.16.19-.82-.19-1.66-.91-2.08l-.05-.03c-.64-.38-1.46-.04-1.66.68-3.58,13.32-8.48,24.79-14.72,34.4-.44.68-1.23,1-2.02.85l-18.57-3.75c-.2-.04-.29-.26-.2-.44,5.34-8.98,9.18-18.9,11.53-29.75.13-.59-.34-1.15-.94-1.11h-.05c-.7.04-1.31.51-1.53,1.18-3.16,9.93-7.41,19.29-12.74,28.08-.31.5-.91.74-1.47.6-16.41-4.13-33.03-9.36-49.84-15.68-.34-.13-.45-.56-.22-.84,1.02-1.26,1.84-2.46,2.47-3.61,10.06-18.45,16.36-36.41,22.49-57.98,8.59-30.26,10.67-61.13,6.23-92.11-.13-.93-.53-1.48-1.21-1.65-.86-.21-1.73.49-1.9,1.53-.25,1.61-.28,3.85-.07,6.72,3.34,44.62-6.1,89.68-25.49,129.6-2.67,5.5-5.53,10.58-8.57,15.25-.2.31-.56.45-.89.36-1.03-.26-3.15-1.05-6.35-2.37-24.23-9.96-47.02-20.7-68.38-32.25-.75-.4-1.17-1.24-1.03-2.09,3.83-22.49,11.72-43.72,23.65-63.66,3.14-5.27,5.44-9.13,6.91-11.61.3-.49.45-.84.47-1.04.08-.83-.86-1.35-1.53-.86-.87.65-1.94,1.85-3.21,3.61-15.04,20.99-26.07,46.6-29.7,72.58-.04.29-.36.46-.62.32l-13.6-7.21c-.45-.24-.7-.72-.65-1.22.97-10.5,3.35-21,7.13-31.48,9.44-26.21,24.14-48.8,44.1-67.78,2.52-2.41,5.13-4.9,7.81-7.48.11-.1.19-.23.23-.36l.52-1.48c.16-.47-.2-.96-.7-.94-1.95.07-3.67.67-5.16,1.81-28.97,22.22-49.46,55.67-58.22,90.66-1.24,4.97-2.01,9.39-2.3,13.24-.03.35-.4.55-.7.37l-27.63-15.95c-.51-.29-.79-.88-.68-1.46,1.19-6.54,3.02-13.44,5.5-20.72.19-.55-.15-1.13-.72-1.24h-.04c-.63-.13-1.27.17-1.56.75-3.11,6.05-5.39,12.48-6.82,19.29-.08.32-.43.48-.71.33l-22.24-11.78c-.12-.07-.14-.23-.04-.32,13.55-12.41,21.4-28.48,22.05-46.74.2-5.75-.03-10.8-.68-15.15-.05-.39.45-.6.67-.27,8.14,11.8,11.49,24.59,7.55,38.73-.39,1.4.43,2.85,1.83,3.27,1.11.33,2.25.11,3.43-.69,18.66-12.72,32.32-34,32.66-56.88.01-.7.33-1.34.86-1.79,9.59-8.01,20.1-14.59,31.52-19.76,2.89-1.3,12.44-5.67,28.64-13.09,2.33-1.07,6.84-3.6,13.53-7.6.72-.43,1.2-1.17,1.31-2l.03-.2c.08-.56-.51-.97-1.01-.72-10.01,5-16.05,7.92-18.11,8.75-21.05,8.48-39.47,15.38-56.53,28.11-.24.17-.57.02-.6-.27-1.02-9.75-3.92-18.82-8.72-27.22-.22-.38-.05-.87.35-1.06,10.52-4.81,21.35-8.31,32.49-10.48,18.24-3.55,35.01-6,51.74-12.94,18.57-7.69,34.05-21.02,44.43-38.32,9.62-16.05,14.92-33.24,20.72-51.91.14-.44.46-.8.87-.99,3.52-1.65,5.85,2.41,7.95,4.33.28.25.4.65.31,1.03-3.55,12.91-7.6,25.25-12.14,37.04-3.59,9.27-7.97,18.79-13.14,28.56-.47.87-.74,1.55-.83,2.02-.21,1.09,1.18,1.75,1.89.89,1.77-2.12,3.21-4.2,4.33-6.25,9.79-17.96,16.33-35.07,22.48-54.36.6-1.85.97-3.5,1.13-4.96.04-.39.5-.57.8-.32,2.14,1.82,4.5,3.11,7.08,3.88.52.15.82.7.68,1.22-1.14,3.96-2.08,7.57-2.83,10.83-.15.68.28,1.34.96,1.47.7.14,1.26-.12,1.69-.79,1.05-1.64,2.22-4.63,3.5-8.97.05-.19.13-.35.23-.51l1.47-2.32c.62-.97.34-2.27-.63-2.91l-9.43-6.22c-.55-.36-.35-1.2.29-1.29,7.18-1.03,13.62.83,19.33,5.55.47.38.36,1.12-.2,1.36l-3.2,1.37c-.26.12-.46.35-.5.63-.4,2.35,2.45,3.57,4.42,3.16.61-.12,1.11.47.89,1.06-2.39,6.26-4.25,11.01-5.6,14.24-.01.04-.76,2.16-2.23,6.36-.79,2.29-1.65,4.52-2.59,6.69-4.67,10.89-7.47,23.42-8.39,37.57-.05.79.39,1.51,1.11,1.81l.05.02c.61.26,1.29-.14,1.37-.8,1.51-12.5,4.44-24.63,8.78-36.39,3.76-10.21,9.38-21.12,13.41-30.9.44-1.08,1.57-1.71,2.73-1.53l3.58.6c.95.15,1.53,1.12,1.21,2.03-5.63,16.4-10.23,32.24-11.92,49.49-2.35,23.92,3.31,45.82,16.96,65.71,9.74,14.19,19.59,24.11,32.63,37.67,26.39,27.47,44.76,62.98,45.54,101.27.43,21.2-4.52,42.37-16.57,60.16Z"/>
      <path class="cls-1" d="M411.83,149.59l.19.11c2.05,1.19,4.67.5,5.86-1.55l11.26-19.35h0c1.19-2.05.5-4.67-1.55-5.86l-.19-.11c-2.05-1.19-4.67-.5-5.86,1.55l-11.26,19.35c-1.19,2.05-.5,4.67,1.55,5.86Z"/>
      <path class="cls-1" d="M427.81,164.63l.1.17h0c1.28,2.05,3.98,2.67,6.03,1.39l18.69-11.68c2.05-1.28,2.67-3.98,1.39-6.03l-.1-.17h0c-1.28-2.05-3.98-2.67-6.03-1.39l-18.69,11.68c-2.05,1.28-2.67,3.98-1.39,6.03Z"/>
      <path class="cls-1" d="M155.23,197.29c.36-.01.72-.09,1.05-.23,5.59-2.27,11.51-3.8,17.56-3.71,6.05.08,11.93,1.75,17.46,4.17.33.14.68.23,1.04.25,2.73.17,4.35-.97,4.85-3.44,1.59-7.83-18.29-10.03-23.24-10.08-4.95-.07-24.88,1.6-23.49,9.47.44,2.48,2.03,3.67,4.76,3.57Z"/>
      <path class="cls-1" d="M68.01,216.02c4.02-1.87,8.61-2.81,13.76-2.83,2.2,0,4-1.77,4.05-3.96v-.29c.05-2.26-1.6-4.2-3.84-4.49-6.55-.88-12.3.51-17.92,3.15-5.62,2.64-10.36,6.17-13.88,11.77-1.2,1.91-.76,4.43,1,5.84l.23.17c1.72,1.37,4.22,1.11,5.64-.58,3.29-3.95,6.95-6.88,10.96-8.78Z"/>
      <path class="cls-1" d="M612.35,256c-2.55-8.64-4.16-18.47-5.48-28.47-.1-.81-.39-1.38-.85-1.72-.65-.49-1.6-.07-1.67.75-.76,9.75,1.43,21.3,4.17,30.58,2.74,9.28,7.18,20.16,13.12,27.93.5.65,1.53.5,1.81-.27.2-.54.13-1.17-.22-1.91-4.33-9.11-8.32-18.24-10.89-26.88Z"/>
      <path class="cls-1" d="M195.66,230.41c-1.4.9-2.17,1.73-2.33,2.48-1.55,7.33-5.73,12.06-12.55,14.18-4.88,1.52-9.5.8-13.87-2.17-2.05-1.4-3.39-3.75-4.61-5.2-.26-.32-.61-.56-1-.71-3.96-1.47-7.82,1.35-6.13,5.45,2.56,6.23,8.74,10.52,15.23,11.81,9.88,1.97,18.51-.91,25.91-8.63.5-.53,1.31-.64,1.94-.27,1.9,1.11,3.82,1.92,5.76,2.41,5.18,1.32,7.51-4.99,2.93-7.53-1.95-1.08-3.75-1.93-5.39-2.56-.35-.13-.53-.5-.44-.85.98-3.52,1.15-9.57-4.46-8.78-.36.04-.7.17-.99.37Z"/>
      <path class="cls-1" d="M546.15,235.69c-.48-.38-1.17-.34-1.6.1-10.94,11.32-22.8,21.46-35.6,30.4-.7.49-2.01,1.76-3.94,3.81-.24.26-.14.69.2.82,2.07.79,3.71.73,4.9-.15,13.13-9.8,27.49-20.82,36.32-33.52.32-.45.22-1.07-.21-1.41l-.07-.04Z"/>
      <path class="cls-1" d="M92.55,253.73c-.24.26-.41.58-.52.92-.78,2.49-1.01,4.36-2.37,6.29-4.55,6.51-12.92,7.75-19.14,2.83-2.31-1.83-3.72-6.48-6.62-6.87-2.12-.29-3.64.38-4.55,2.02-.17.32-.28.67-.32,1.03-.24,2.15.36,4.09,1.81,5.83.23.27.23.67.01.95l-4.03,4.96c-.24.29-.38.64-.43,1.03-.22,2,.4,3.43,1.84,4.28,3.15,1.87,6.37-1.48,8.19-3.87.35-.46.98-.58,1.48-.28,5.69,3.46,11.64,4.11,17.84,1.93,7.95-2.8,12.76-8.35,14.42-16.64,1.06-5.25-3.92-8.42-7.62-4.39Z"/>
      <path class="cls-1" d="M203.93,266.22c-14.17,3.03-23.22,16.86-20.21,30.86,3.01,14.01,16.93,22.91,31.09,19.87,14.16-3.03,23.22-16.86,20.21-30.86-3.01-14.01-16.93-22.91-31.09-19.87Z"/>
      <path class="cls-1" d="M158.55,304.62c1.39-2.89,2.65-6.85-.41-9.11-1.85-1.35-3.78-1.07-5.79.85-.26.25-.47.56-.6.89-3.04,8.01-8.26,13.78-17.31,15.28-9.05,1.52-15.86-2.24-21.35-8.81-.23-.28-.52-.5-.85-.65-2.53-1.16-4.45-.8-5.76,1.08-2.16,3.13.32,6.46,2.57,8.74,7.11,7.19,16.94,10.13,26.86,8.48,9.92-1.66,18.25-7.64,22.65-16.74Z"/>
      <path class="cls-1" d="M689.81,346.73h0c-.24-.67-.98-1.02-1.65-.78l-.06.02c-.67.24-1.02.98-.78,1.65l4.8,13.32c.24.67.98,1.02,1.65.78l.06-.02h0c.67-.24,1.02-.98.78-1.65l-4.8-13.32Z"/>
      <path class="cls-1" d="M193.31,457.58c-5.65,1.26-9.13,7.16-7.79,13.18,1.34,6.02,7.01,9.87,12.65,8.61,5.65-1.26,9.13-7.16,7.79-13.18-1.34-6.02-7.01-9.87-12.65-8.61Z"/>
      <path class="cls-1" d="M211.71,528.32c-4.79,3.2-5.92,9.89-2.53,14.94,3.38,5.05,10,6.55,14.78,3.35,4.79-3.2,5.92-9.89,2.53-14.94-3.38-5.05-10-6.55-14.78-3.35Z"/>
      <path class="cls-1" d="M292.84,587.46c-5.05,3.19-6.48,9.97-3.22,15.15,3.27,5.18,10.01,6.78,15.06,3.59,5.05-3.19,6.48-9.97,3.22-15.15-3.27-5.18-10.01-6.78-15.06-3.59Z"/>
      <path class="cls-1" d="M234.89,594.14c-4.95,2.98-6.43,9.57-3.32,14.72,3.1,5.15,9.62,6.91,14.57,3.92,4.95-2.98,6.43-9.57,3.32-14.72-3.1-5.15-9.62-6.91-14.57-3.92Z"/>
      <path class="cls-1" d="M706.01,871.79c1.01-.82,1.29-2.25.65-3.39h-.01c-.6-1.09-1.99-1.46-3.04-.82-13.4,8.06-27.04,13.74-40.92,17.04-8.97,2.13-13.73,3.27-14.3,3.43-1.59.44-2.44,2.17-1.79,3.69l.05.11c.72,1.69,2.49,2.67,4.31,2.4,14.15-2.17,27.09-6.24,38.82-12.21,6.33-3.21,11.74-6.63,16.22-10.24Z"/>
      <path class="cls-1" d="M711.2,898.61c-.36-1.21-1.65-1.88-2.84-1.46-13.53,4.66-27.66,7.4-42.39,8.21-1.29.08-2.4.93-2.81,2.15-.67,2,.1,3.38,2.31,4.13.24.09.49.13.74.13,14.36.04,30.52-2.88,43.6-9.84,1.19-.63,1.77-2.01,1.39-3.29v-.03Z"/>
    </g>
  </g>
</svg>