<?xml version="1.0" encoding="UTF-8"?>
<svg id="Capa_2" data-name="Capa 2" xmlns="http://www.w3.org/2000/svg" viewBox="0 0 762.6 932.32">
  <defs>
    <style>
      .cls-1 {
        fill: #fef1d1;
      }
    </style>
  </defs>
  <g id="Capa_1-2" data-name="Capa 1">
    <g>
      <path class="cls-1" d="M760.62,330.97c-5.04-27.4-20.09-54.64-44.92-68.65-.19-.11-.27-.34-.19-.54,11.37-28.08,17.36-58.95,19.01-88.91.87-15.72.04-31.74-2.47-48.06-1.1-7.12-3.07-14.57-5.9-22.35-4.08-11.23-11.18-19.07-22.33-21.55-12.59-2.82-28.7-1.34-38.85,7.59-5.02,4.43-7.14,10.07-6.38,16.93.51,4.66,2.84,7.43,5.24,11.64,2.87,5.03,5.02,10.72,6.46,17.08,3.21,14.16,3.94,28.34,2.2,42.53-2.58,21.06-8.98,41.4-20.79,57.99-.31.42-.83.58-1.32.42-12.57-4.22-25.61-5.59-39.12-4.13-9.82,1.07-19.56,3.31-29.24,6.72-.31.11-.66-.07-.74-.39-7.88-30.07-25.32-52.3-52.31-66.68-.39-.2-.58-.64-.46-1.06,7.87-26.63,11.53-53.97,10.96-82.01-.35-17.7-2.92-34.74-7.71-51.1-1.92-6.57-4.52-12.98-7.81-19.23-4.29-8.18-11.13-14.67-19.71-16.29-12.5-2.34-24.07-.27-34.72,6.19-6.19,3.76-9.67,9.09-10.45,15.98-.39,3.47.07,6.1,1.37,7.91,9.39,13.11,15.12,28.03,17.2,44.77,3.09,24.9-.73,51.59-13.4,73.34-.22.39-.64.6-1.09.56-4.93-.46-10.62-1.92-16.34-1.87-16.14.15-30.6,3.43-43.38,9.84-26.24,13.15-47.19,32.93-62.85,59.34-10.51,17.74-19.28,37.02-26.31,57.85-9.5,28.1-17.94,58.28-26.93,85.31-11.39,34.23-24.69,67.73-39.91,100.51-17.48,37.65-38.45,72.77-62.91,105.35-30.22,40.24-67.16,75.55-110.8,105.93-11.35,7.9-23.67,16.07-36.97,24.51-7.44,4.72-14.13,10-20.08,15.83-11.03,10.8-20.49,26.7-15.21,42.65,5.25,15.9,24.7,21.94,39.85,22.76,19.6,1.06,40.81-2.75,59.94-7.54,12.73-3.18,22.87-6.02,30.41-8.51.23-.08.55-.07.86-.05-.12-.15-.08-.38.11-.44,18.61-6.23,37.1-13.52,55.5-21.86,49.42-22.41,95.87-48.67,139.3-80.73,6.52-4.82,12.72-9.8,18.6-14.93.12-.11.31-.11.44,0,.12.12.13.31.04.44-8.04,11.22-15.8,23-24.05,33.81-30.05,39.31-63.81,74.39-101.28,105.24-21.8,17.95-40.81,32.3-57.03,43.05-17.25,11.45-30.52,20.81-39.79,28.1-12.27,9.65-25.65,25.3-26.78,41.59-1.37,19.75,14.46,31.67,32.36,34.88,15.39,2.75,31.47,1.59,47.03-1.12,44.38-7.71,87.31-22.24,129.08-40.84,84.78-37.75,161.34-88.84,229.7-153.28,23.7-22.34,46.9-47.22,69.58-74.64,23.74-28.71,44.25-55.86,61.54-81.44,23.23-34.38,43.25-69.21,60.06-104.47,8.13-17.03,14.6-32.17,19.4-45.43,4.74-13.05,9.03-28.5,12.87-46.33,3.94-18.31,4.4-35.72,1.37-52.22ZM656.14,262.34c4.95-3.09,8.53-5.47,12.17-10.27,14.9-19.74,22.32-41.48,26.39-66.03,2.62-15.75,2.71-31.98.3-48.71-1.64-11.36-5.33-22.09-11.07-32.2-.13-.24-.01-.55.26-.63,5.42-1.59,16.19-2.54,19.12,3.68,4.11,8.73,6.13,19.51,7.3,29.52.61,5.29.97,10.21,1.07,14.75.71,29.8-3.67,58.95-13.14,87.44-3.17,9.55-6.2,17.83-9.1,24.85-1.53,3.71-1.29,7.2.71,10.47.36.59-.03,1.36-.71,1.41-13.34,1.15-24.51-3.12-33.5-12.81-.42-.44-.31-1.16.2-1.48ZM472.28,175.6c5.52-4.24,9.98-9.66,13.4-16.26,11.55-22.37,16.88-46.15,15.99-71.34-.77-21.78-5-43.78-17.37-60.9-.35-.48-.16-1.17.39-1.4,4.81-2.07,13.92-3.55,18.02.51.24.24.44.52.59.83,5.09,10.12,8.69,22.11,10.8,35.96,2.8,18.36,3.26,36.52,1.37,54.49-1.96,18.56-6.1,37.86-12.42,57.89-1.14,3.61-.86,6.98.83,10.12.21.39-.05.87-.5.91-11.75.97-22.13-2.35-31.12-9.96-.27-.23-.27-.64.01-.86ZM283.51,659.94c-33.24,21.85-68.09,40.97-104.54,57.35-.03.01.01.04.05.05.03.02.07.01.12-.01.03-.01.04,0,.04.04,0,.03-.03.05-.05.07-8.87,3.74-13.93,5.85-15.2,6.36-1.9.76-3.17,1.12-3.82,1.07-.38-.03-.73.2-.86.55-.19.49-.87.77-2.06.82-1.61.08-2.22,1.8-4.03,1.4-.28-.05-.55.13-.59.43,0,.11-.02.21-.03.31,0,.07-.05.13-.13.15-3.72.64-6.41,2.58-9.89,3.65-2.14.66-4.12,1.35-5.94,2.06-6.22,2.41-12.9,4.62-20.03,6.62-.04.01-.08.04-.11.07s-.03.04.01.03c.07-.03.15-.02.23.01.05.03.04.09-.01.11-5.07,1.41-9.85,2.26-14.08,3.67-5.66,1.89-13.94,3.92-24.85,6.1-10.37,2.07-21.5,3.05-33.38,2.93-6.66-.07-25.8-2.19-19.15-14.24,4.12-7.46,11.7-14.08,18.34-18.85,3.83-2.75,13.26-9.01,28.31-18.77,39.99-25.93,75.91-55.87,107.13-91.68,18-20.61,34.38-42.41,49.14-65.39,15.04-23.4,29.42-49.77,43.15-79.12,10.96-23.45,23.27-54.39,36.93-92.81,8.86-24.94,18.46-60.33,27.12-86.09,10.96-32.68,25.65-65.63,51.2-89.17,14.24-13.13,33.62-24.08,53.41-26.09.44-.04.86.21,1.02.62,2.18,5.36,4.11,9.09,5.79,11.19,11.5,14.37,26.01,23,43.51,25.88,14.03,2.32,27.66-.44,40.9-8.28.31-.19.71-.15.98.08,14.77,12.34,23.65,28.19,26.65,47.53.07.44-.13.89-.51,1.13-26.28,16.61-45.03,39.73-60.52,66.54-10.29,17.8-20.47,40.55-30.53,68.25-16.05,44.22-24.16,66.56-24.33,67.02-3.45,9.41-10.67,27.27-21.67,53.6-4.74,11.34-14.61,32.37-29.62,63.1-.28.56-.63,1.09-1.06,1.56-31.6,34.59-67.68,64.3-107.04,90.16ZM734.65,385.87c-6.36,26.87-16.84,53.25-28.72,78.07-17.72,37.02-39.06,73.7-63.92,109.41-34.88,50.07-74.05,97.94-117.96,140.03-50.44,48.35-106.27,89.5-167.47,123.46-1.01.56-1.75.9-2.2.99-.09.03-.17.09-.15.16.02.04.02.08.01.09,0,.04-.03.08-.08.09-25.5,13.83-51.46,26.59-78.16,36.93-.21.09-.42.22-.58.39-.19.2-.35.32-.48.38-4.58,1.89-7.6,3.06-9.07,3.52-2.08.64-5.12,1.78-9.14,3.4-4.64,1.86-10.64,3.99-18.01,6.37-14.45,4.69-27.96,8.54-40.53,11.56-13.34,3.2-73.96,15.91-76.35-3.2-.35-2.77,2.5-8.63,4.56-11.34,4.85-6.43,11.8-12.81,20.87-19.13,1.07-.75,10.7-7.35,28.92-19.78,47.22-32.27,89.72-68.94,127.51-110.02,10.49-11.4,21.04-24.03,31.64-37.87,24.41-31.87,45.96-64.62,64.66-98.25,25.03-45.04,46.64-91.85,64.83-140.43,9.13-24.38,18.78-50.68,28.94-78.88,3.33-9.26,8.43-21.19,15.3-35.77,8.44-17.92,18.98-34.45,31.62-49.61,9.93-11.91,22.39-22.04,37.38-30.38,14.26-7.93,29.84-12.08,45.75-11.8.5.01.91.39.97.89,1.24,12.42,12.38,25.22,22.01,32.1,8.17,5.83,16.76,9.76,25.77,11.77,15.19,3.39,29.36,1.01,42.49-7.12.35-.23.82-.16,1.09.16,13.83,15.72,21.28,34.36,22.36,55.91.66,13.34-1.06,26.03-3.87,37.91Z"/>
      <path class="cls-1" d="M133.03,761.66s.03-.03.03-.04c-.01-.01-.03-.03-.04-.03-.14,0-.29,0-.45,0,.02.02.02.04.04.05.11.08.25.09.42.01Z"/>
      <path class="cls-1" d="M423.93,225.71c18.35,17.33,40.43,26.5,66.26,27.51,12.61.49,24.01-1.33,34.2-5.46,2.28-.92,3.82-1.9,4.62-2.93,3.41-4.35,2.65-9.97-2.26-12.89-2.07-1.23-3.97-1.55-5.7-.98-6.6,2.17-12.66,3.44-18.17,3.82-24.45,1.7-45.83-5.24-64.14-20.84-2.98-2.54-4.86-4.93-7.46-7.85-.32-.36-.71-.66-1.14-.89-7.47-3.82-13.38.36-13.83,8.59-.03.52.08,1.03.3,1.49,1.94,4.18,4.38,7.66,7.31,10.43Z"/>
      <path class="cls-1" d="M698.29,336.09c-8.38,2.58-18.19,3.02-29.43,1.32-23.35-3.54-43.81-13.86-61.41-30.96-2.61-2.54-4.89-5.42-6.85-8.61-2.11-3.45-5.15-5.3-9.14-5.55-.4-.01-.79.01-1.18.11-4.58,1.15-7.38,4.08-8.4,8.8-.51,2.35-.28,4.36.68,6.05,2.75,4.8,5.66,8.84,8.72,12.11,21.34,22.78,51.3,37.91,82.81,38.91,11.64.36,21.82-1.17,32.89-5.23.54-.2,1.02-.5,1.45-.87,4.02-3.61,4.72-9.49.98-13.77-2.63-3.01-6.35-3.78-11.14-2.3Z"/>
      <path class="cls-1" d="M363.81,724.9c-4.64-.85-8.47.64-11.49,4.49-7.53,9.57-14.27,17.53-20.2,23.88-38.99,41.78-83.66,76.28-134.02,103.49-.16.09-.45.16-.86.22-.17.03-.32.16-.35.34-.02.11-1.64,1.13-4.88,3.08-3.13,1.89-2.93,7.67,1.02,8.28.7.11,2.03-.23,3.99-1.01,68.2-27.25,124.82-69.92,169.86-128,1.93-2.49,2.9-4.62,2.9-6.4,0-4.84-2-7.62-5.98-8.36Z"/>
    </g>
  </g>
</svg>