<?xml version="1.0" encoding="UTF-8"?>
<svg id="Capa_2" data-name="Capa 2" xmlns="http://www.w3.org/2000/svg" viewBox="0 0 819.15 878.71">
  <defs>
    <style>
      .cls-1 {
        fill: #dc7736;
      }
    </style>
  </defs>
  <g id="Capa_1-2" data-name="Capa 1">
    <g>
      <path class="cls-1" d="M777.94,309.77h0s0,0,0,0h0Z"/>
      <path class="cls-1" d="M701.93,568.97c.17-1.55.26-3.4.34-5.35.16-3.66.36-8.21,1.34-10.62,1.66-4.15,3.75-7.21,6.21-9.1,4.92-3.81,9.35-7.42,13.27-10.81,18.01-15.57,27.57-35.13,28.39-58.16.18-5.03-.4-10.49-.91-15.31-.21-1.92-.41-3.77-.55-5.49-.74-9.02,1.65-16.45,7.33-22.72,2.77-3.07,6.82-6.19,10.74-9.2,2.5-1.93,4.89-3.78,6.81-5.49,17.22-15.37,27.07-36.37,26.34-56.2-.38-10.19-2.54-20.14-6.5-29.67-.2-4.17.91-7.54,3.37-10.33,7.07-8,12.59-16.93,16.39-26.57,8.29-20.93,5.32-46.54-7.53-65.25-9.55-13.92-24.69-23.48-41.74-26.44l-3.85-8.11c.32-3.67,2.3-6.59,4.39-9.67,1.03-1.53,2.01-2.98,2.74-4.4,8.37-16.18,9.62-32.35,3.75-48.03-4.58-12.3-12.55-22.22-23.66-29.49l-1.68-1.07c-2.2-1.37-8.01-5-8.24-7.15-.26-2.35-.45-5.86-.59-10.54-.44-14.8-4.47-28.93-12.01-42.02-12.54-21.7-36-36.99-61.21-39.88-18.01-2.07-37.24,2.4-52.77,12.24l-5.27,3.44c-3.38,2.2-7.46,3.4-15.14-2.71-16.02-12.92-38.42-17.81-59.78-13.1-16.14,3.54-29.84,11.82-40.71,24.61-2.46,2.89-4.46,5.95-6.44,8.99-1.01,1.54-2.01,3.1-3.07,4.58-5.01,7.03-11.05,10.39-18.45,10.27-1.42-.03-4.2-.4-9.49-2.04-23.78-7.38-48.03-3.14-68.23,11.93-13.66,10.16-22.03,23.78-24.88,40.46-.63,3.7-1.11,6.2-1.11,6.87-4.78,4.8-9.12,7.76-12.9,8.83-4.59,1.28-9.02.73-13.3.19-1.61-.2-3.13-.39-4.55-.48-26.89-1.63-53.13,14.24-65.34,39.48l-1.46,3.17c-1.52,3.4-3.26,7.26-5.33,9.67-3.86,4.5-8.72,6.97-14.85,7.53-22.45,2.06-41.47,14.37-50.87,32.91-4.43,8.74-6.64,18.5-6.57,29.05.08,13.38-.58,23.45-9.92,31.33-2.4,2.02-5.6,3.78-9,5.64-3.6,1.97-7.31,4.02-10.49,6.62-16.65,13.66-23.58,31.45-20.63,52.89.49,3.49,1.51,9.52,3.06,18.08,2.02,11.12-.28,23.53-6.64,35.9-6.31,12.29-13.38,24.04-21.05,34.92-17.7,25.12-30.14,42.83-37.35,53.16-14.78,21.18-28.25,43.61-40.03,66.66-6.71,13.15-11.2,24.74-16.38,38.51C4.98,610.63-.51,639.99.04,666.4c.2,9.39.84,17.29,1.91,23.49,1.98,11.54,3.98,19.78,6.09,25.21,2.49,6.38,5.06,12.12,7.66,17.06-2.78,3.09-4.42,5.96-5.89,10.11-2.28,6.57-2.91,13.8-1.87,21.5,1.03,7.58,2.87,14.07,5.46,19.31,9.9,19.95,23.7,37.76,41.02,52.93,6.19,5.43,13.33,10.78,21.29,15.99,2.92,1.91,5.96,3.81,9.09,5.68,6.95,4.14,31.18,16.73,51.46,4.96.8-.46,1.54-.88,2.23-1.27,35.25,18.31,77.34,22.23,121.88,11.33,21.8-5.33,42.84-12.9,62.54-22.48,23.98-11.67,44.47-23.11,60.9-34.02,14.62-9.71,26.16-17.69,35.24-24.35,20.12-14.72,42.86-32.85,62.4-49.72,20.72-17.86,35.65-30.68,44.79-38.48,8.73-7.42,16.9-12.07,24.97-14.22,3.73-.98,8.29-1.48,12.71-1.96,2.14-.23,4.22-.45,6.15-.73,19.68-2.83,36-13.78,44.8-30.02,1.19-2.24,2.75-5.2,4.65-8.92,3.12-6.17,7.62-10.52,13.77-13.31,2.76-1.27,6.19-2.13,9.48-2.97l3.55-.92c32.07-8.87,52.33-31.32,55.6-61.61ZM597.45,641.36l-1.34,2.66c-8.33,16.37-24.94,20.25-34.04,21.09-.62.05-3.02.29-7.26.7-9.86.98-19.31,4.24-28.09,9.72-6.96,4.33-13.2,8.91-18.57,13.59-30.84,26.98-56.08,48.32-75.04,63.42-23.88,19.02-46.16,35.02-66.2,47.56-17.11,10.72-31.3,18.83-42.15,24.14-8.51,4.15-18.11,8.53-28.81,13.14-5.17,2.22-9.44,3.87-12.8,4.93-2.44.78-4.77,1.63-7.11,2.49-3.34,1.23-6.73,2.47-10.58,3.49-14.81,3.84-26.94,6.21-36.07,7.03-15.49,1.42-30.57.93-44.83-1.43-8.89-1.48-18.82-4.44-29.51-8.83-2.3-.94-4.67-2.15-7.07-3.61-1.62-.98-3.09-1.75-4.54-2.52-1.73-.92-3.39-1.84-5.32-3.08-9.16-6.2-17.54-13.04-24.9-20.31-1.46-1.47-3.09-2.28-4.73-2.37-3.26-.2-5.98,1.07-7.45,3.47-1.57,2.57-1.42,6.1.42,9.21,4.15,7.04,9.19,13.41,15.06,19.04-9.89-.06-20.11-5.6-26.08-9.51l-.12-.08c-17.71-11.63-32.92-25.84-45.21-42.27-8.25-11-17.23-29.6-14.83-40.55,3.52,4.06,7.51,7.85,11.94,11.31,3.2,2.46,6.41,4.4,9.57,5.69,3.05,1.27,6.46.65,8.69-1.41.05.22.09.44.15.67.7,3.1,2.78,5.53,5.64,6.58,2.75.97,5.84.41,8.3-1.53l1.41-1.42.44-.87c.98-1.93,1.78-4.13,2.55-6.34.72-2.05,1.4-4.1,2.39-5.82,5.75-10.12,16.88-18.99,29.77-23.72,4.1-1.5,10.98-3.69,20.65-6.56,33.88-10.08,67.41-23.66,99.65-40.36,6.36-3.31,12.75-7,18.97-10.98l7.99-5.03c5.9-3.68,11.55-7.22,16.35-10.6,35.84-25.27,70.58-52.01,103.25-79.49,26.92-22.65,46.27-47.78,57.47-74.7,5.03-12.04,9.04-25.41,11.95-39.73,1.69-8.34,2.78-17.8,3.84-26.94.68-5.87,1.35-11.63,2.14-16.82.21-1.32.06-2.65-.49-3.91-.9-2.06-2.85-3.46-5.12-3.61-2.32-.17-4.52.97-5.71,2.91-.74,1.15-1.33,2.42-1.75,3.76-2.89,8.99-4.88,15.72-6.03,20.53-2.68,10.98-4.99,19.84-6.93,26.61-4.83,16.63-11.69,32.72-20.36,47.82-3.35,5.79-7.59,11.82-12.62,17.91-11.3,13.66-23.67,26.06-36.71,36.85l-.66.55c1.16-2.93,2.27-5.93,3.33-8.99,2.43-6.99,4.13-14.9,5.06-23.48,1.25-11.57,1.84-19.32,1.81-23.7-.17-14.58.66-29.06,2.44-43.08.28-2.12-.64-4.22-2.4-5.45-1.97-1.55-4.04-1.42-6.76-.06-1.85.94-3.25,2.62-3.87,4.65-2.59,8.82-4.47,17.4-5.54,25.5-.95,7.06-1.93,16.38-3,27.96-1.04,11.66-4.49,24.83-10.55,40.27-3.88,9.93-9.28,20.02-16.06,30.03-1.37,2.02-2.41,3.45-3.21,4.27-.9.95-1.66,1.89-2.41,2.79-.83,1.02-1.61,2.03-2.7,2.95-5.13,4.36-10.51,8.59-15.77,12.6,8.66-19.92,12.03-40.9,9.54-60.62-.31-2.37-1.97-4.34-4.27-5.06-2.28-.69-4.78,0-6.32,1.74-1.18,1.29-1.91,2.92-2.17,4.84-3,21.66-8.6,40.72-16.2,55.12-4.46,8.42-9.66,16.63-15.46,24.39-3.07,4.11-6.29,7.64-9.57,10.48-1.47,1.29-5.48,4.16-16.2,10.52-.85.5-7.87,4.22-21.03,11.17-10.9,5.74-22.09,11.02-33.44,15.75,8.13-8.74,15.76-16.79,22.92-24.19,4.9-5.06,8.29-8.87,10.38-11.67,4.47-5.98,7.35-10.27,8.83-13.12,4.06-7.87,6.84-16.48,8.5-26.3,1.28-7.73,4.72-13.47,10.48-17.57,2.14-1.53,5.22-2.97,8.19-4.39,2.4-1.12,4.73-2.23,6.66-3.37,13.46-7.91,21.11-19.4,22.74-34.15.4-3.68.08-7.99-.21-11.79-.12-1.57-.24-3.07-.28-4.38-.3-8.63,1.77-20.37,13.29-27.25,1.87-1.11,4.03-2.01,6.18-2.92,2.35-1.01,4.7-2.01,6.75-3.18,11.43-6.53,18.05-16.79,19.68-30.5.28-2.3.44-4.58.59-6.81.25-3.62.47-7.03,1.24-10.4,3.06-13.35,10.78-21.98,23.63-26.4,2.16-.74,4.42-1.12,6.71-1.53,2.93-.53,5.89-1.08,8.77-2.12,13.35-4.84,22.52-14.52,27.21-28.79.67-2.04,2.1-7.56,4.29-16.56,4.47-18.47,21.81-31.05,42.13-30.57,1.91.04,4.16.38,6.49.7,3.46.48,7.03.98,10.26.85,10.44-.44,17.09-5.1,24.4-12.46,6.7-6.76,15.55-11.65,22.57-12.47,9.18-1.08,16.12,2.92,24.89,7.99l3.22,1.85c9.46,5.39,19.32,5.46,29.33.19,10.96-5.78,21.32-7.95,30.79-6.44,7.92,1.25,26.7,5.8,30.17,20.82.6,2.64,2.07,4.88,4.58,6.18,4.99,2.9,9.56,6.64,13.45,11.09,9.93,11.35,8.01,29.34,3.34,41.3-2.28,5.9-3.45,9.89-3.68,12.52-.85,9.56,2.35,15.81,6.96,23.57,1.67,2.84,2.96,6.07,3.8,9.6,2.61,11.07,1.97,21.65-1.88,31.48-3.83,9.75-9.96,15.77-17.98,21.81-1.77,1.34-4,2.76-6.37,4.28-4.55,2.93-9.71,6.25-13.49,9.98-5.48,5.45-9.37,11.67-11.53,18.49-1.23,3.83-1.75,8.42-2.21,12.47-.21,1.86-.4,3.61-.65,5.05-1.89,10.9-6.28,20.25-13.06,27.81-6.5,7.28-15.41,13.08-24.46,15.92-5.59,1.75-8.94,2.77-10.07,3-9.21,1.83-14.56,2.98-16.07,3.42-16.55,4.9-29.4,16.43-34.34,30.86l-.85,2.45c-2.69,7.92-4.82,14.16-10.05,19.42-5.18,5.22-11.08,8.9-17.57,10.94-5.13,1.61-10.75,2.63-15.43,2.78l-1.15.04c-4.23.14-10.63.35-15.35,1.89-9.2,2.99-16.31,8.45-21.15,16.24-8.25,13.3-19.88,17.98-37.73,15.2-6.85-1.07-14.36-1.8-22.76.15-9.28,2.12-18.41,6.44-27.12,12.81-11.32,8.3-25.95,19.72-39.12,30.53-10.4,8.53-21.97,16.46-33.15,24.14l-5.48,3.76c-11.35,7.8-23.55,14.19-35.06,19.95-8.42,4.21-17.32,7.99-26.46,11.22-4.89,1.73-10.2,3.04-15.34,4.33-2.61.64-5.18,1.28-8.28,2.13-4.86,1.25-7.1,3.91-6.64,7.93.35,3.07,2.83,5.48,5.9,5.74,10.37.83,22.11-.59,34.9-4.26,16.48-4.75,32.5-11.42,47.57-19.8,5.82-3.25,16.86-9.57,25.3-15.49,3.84-2.69,10.55-7.5,20.13-14.39,9.05-6.51,18.05-13.63,26.63-20.41,6.81-5.39,13.35-10.57,19.44-15.06,7.35-5.42,15.33-9.12,23.71-11.02,5.11-1.16,11.82-.39,17.21.23,3.07.36,5.82.67,7.96.66,20.81-.02,36.98-8.68,46.75-25,1.73-2.88,4.58-5.35,8.48-7.35.67-.35,2.84-1.17,8.57-1.55,3.84-.23,7.41-.52,10.77-.83,15.37-1.47,28.89-7.91,40.16-19.13,8.48-8.46,13.12-19.6,15.51-27.44,1.05-3.43,2.28-6.16,3.69-8.16,6.62-9.49,17.45-11.75,28.91-14.14,6.35-1.33,12.92-2.7,18.79-5.39,8.8-4.03,16.63-8.93,23.39-14.63,13.6-4.79,26.82-11.2,39.28-19.05,7.31-4.59,14.16-10.24,20.32-16.8,1.62-1.71,2.84-3.53,3.62-5.37,1.06-2.51.28-5.41-1.88-7.06-1.98-1.56-5.17-1.66-7.34.02-2.87,2.25-6.12,4.61-9.74,7.06-7.54,5.08-15.53,9.32-23.9,12.66,1.19-2.73,2.2-5.53,2.99-8.39,1.16-4.14,1.62-8.13,2.06-12,.21-1.87.42-3.74.72-5.63,1.2-7.64,4.36-13.17,9.65-16.93,1.88-1.35,3.96-2.72,6.09-4.13,4.4-2.91,8.94-5.93,12.82-9.25,13.25-11.27,21.94-25.73,25.59-42.53,4.57-4.01,8.63-7.67,12.13-10.97,11.84-11.16,21.45-24.41,28.58-39.38,1.99-4.17,3.87-8.96,5.59-14.22.57-1.72.37-3.61-.54-5.19-.93-1.6-2.52-2.76-4.32-3.12-2.65-.55-5.24.66-6.73,3.14-2.19,3.57-5.18,8.19-8.95,13.89-7.3,11.05-15.97,20.98-25.82,29.57-1.69-8.75-5.36-16-10.5-24.25-.74-2.22-.88-4.81-.35-7.8,2.52-5.57,4.38-10.99,5.31-15.79,5.2-4.86,11.14-9.42,15.91-13.08,2.3-1.75,4.28-3.28,5.71-4.47,3.89-3.27,7.98-6.12,12.17-8.44,20.19-11.38,40.69-24.66,53.76-44.62,1.53-2.3,2.09-4.57,1.66-6.71-.43-2.32-2.1-4.18-4.36-4.91-2.22-.7-4.64-.13-6.28,1.47-4.06,3.88-9.73,8.85-17.02,14.93-4.67,3.93-9.85,7.57-15.42,10.9,3.38-10.43,3.99-21.43,1.82-32.83-2.71-14.15-2.58-21.87,5.41-30.22,1.12-1.17,3.9-3.4,10.78-7.36,5.6-3.21,10.41-6.48,14.3-9.71,14.71-12.2,22.22-27.53,22.39-45.64,13.52,5.29,21.74,15.02,25,29.63,3.47,15.63.45,29.67-9.26,42.94l-6.41,8.77c-.87,1.17-1.32,1.8-1.33,1.81-5.66,8.12-7.36,16.92-5.02,26.2.34,1.3,1.32,4.25,2.97,8.8,2.26,6.23,3.24,13.57,2.63,19.66-1.46,14.58-8.72,27.12-21.56,37.27-3.2,2.53-7.04,5.75-11.51,9.67-11.45,10.02-17.54,22.4-18.1,36.79-.14,3.74.33,7.73.79,11.6.3,2.53.6,4.96.64,7.02.22,10.62-1.19,19.74-4.22,27.09-3.67,8.92-9.54,16.69-17.4,23.1-1.49,1.19-2.99,2.34-4.48,3.47-3.61,2.75-7.34,5.59-10.34,8.87-4.64,5.06-8.11,10.7-10.33,16.75-1.76,4.74-1.83,9.74-1.9,14.15-.03,2.26-.05,4.49-.33,6.61-1.41,10.76-5.68,19.96-12.7,27.31-9.62,10.11-22.01,13.4-35.16,16.88-11.78,3.13-21.35,9.78-28.44,19.72-2.39,3.37-4.16,6.9-6.03,10.63ZM143.32,412.65c3.1-4.84,13.38-21.89,15.86-37.75,1.73-11.03,1.6-21.37-.4-30.73-1.57-7.36-2.4-13.25-2.46-17.47-.13-12.49,4.4-21.88,13.86-28.71,1-.73,3.38-2.2,9.01-5.07,9.34-4.77,17.01-11.79,21.01-19.25,4.23-7.84,6.48-16.15,6.68-24.68.02-.81.03-5.05.04-12.67,0-4.35.87-8.98,2.56-13.75,4.36-12.27,16.16-21.41,30.8-23.86l3.43-.53c5.32-.78,11.93-1.75,17.51-4.41,5.92-2.81,10.91-7.06,14.81-12.61,2.65-3.77,4.41-7.8,6.11-11.71.68-1.56,1.35-3.11,2.07-4.59,4.58-9.46,11.34-16.36,20.62-21.06,9.14-4.6,18.94-6.05,31.74-4.7,3.82.41,7.53.29,11.07-.31-2.01,1.09-4.28,2.04-6.77,3.07-3.63,1.51-7.4,3.07-11.12,5.46-17.72,11.34-27.68,27.9-29.61,49.24-.35,3.9-.32,9.71.11,17.75.48,8.88-1.42,16.76-5.79,24.08-3.91,6.56-10.09,11.71-16.12,13.44-8.31,2.4-13.3,3.93-15.25,4.71-2.7,1.09-5.33,2.32-7.88,3.71,2.01-10.96,4.74-21.51,8.14-31.41.57-1.56.41-3.29-.41-4.74l-1.82-2.37-2.08-.38c-5.18-.97-8.71,4.48-10.34,7.8-6.43,13.08-11.11,25.99-13.91,38.4-.45,2.02-1.34,6.24-2.74,12.91-6.96,10.2-10.47,21.77-10.42,34.4,0,4.86-.06,8.38-.19,10.55-.77,12.1-6.12,20.44-16.35,25.53-3.9,1.94-7.95,4.08-11.96,6.73.43-7.31,1-19.11,1.72-35.42.15-3.43-1.25-5.53-2.43-6.66-1.42-1.35-3.41-1.96-5.34-1.58-1.94.38-3.58,1.69-4.39,3.53-1.67,3.86-2.89,8.48-3.64,13.72-2.55,17.84-4.47,31.56-5.72,41.13-.48,3.56-1,5.75-2.69,8.59-3.88,6.54-6.55,13.86-7.92,21.71-1.32,7.5-.78,14.72-.26,21.71.48,6.43.93,12.5,0,18.62-1.69,11.02-5.43,21.15-11.14,30.12-3.86,6.05-8.04,11.9-12.41,17.38l-11.14,13.92c-27.27,34.01-48.81,60.87-66.59,96.02-6.42,12.7-12.06,26.67-16.76,41.55-4.11,13.02-6.38,25.73-6.74,37.76-.1,2.54.29,4.78,1.09,6.62.96,2.21,3.02,3.63,5.41,3.68,2.36.08,4.56-1.23,5.6-3.3.9-1.76,2.3-5.61,2.68-7.71,2.32-12.21,7.08-26.47,14.15-42.4,12.42-28.03,27.52-52.99,48.98-80.96,11.76-15.33,25.01-31.94,39.4-49.4,2.76-3.35,6.86-8.99,12.2-16.75,4.14-6.03,8.05-13.17,11.6-21.26,3.36-7.63,5.55-15.89,6.49-24.54.6-5.42.16-11.95-.27-18.25-.22-3.3-.44-6.46-.46-9.11-.12-18.05,7.34-31.42,22.78-40.89,9.39-5.75,14.24-8.74,14.53-8.93,7.89-5.11,13.82-12.4,17.62-21.69,3.2-7.81,4.87-15.95,4.96-24.18l.03-2.85c.03-6.77.06-12.12,2.36-17.48,4.48-10.53,14.7-19.75,26.01-23.47,3.9-1.29,7.22-2.28,9.98-2.95,21.6-5.39,37.9-26.74,39.65-51.91.25-3.72.28-9.69.09-17.73-.07-3.06.39-7.41,1.38-12.92,1.81-10.07,9.68-20.6,19.6-26.23,1.44-.83,5.09-2.43,10.84-4.78,22.02-8.96,25.05-30.39,27.71-49.3l.8-5.48c1.35-9,5.1-16.84,10.81-22.65,13.36-13.54,31.34-18.27,52-13.66,12.31,2.75,13.63,2.85,14.24,2.9,13.71,1.1,25.61-3.19,35.37-12.76,3.27-3.2,6.2-7.43,9.01-11.52,1.75-2.52,3.45-5,5.15-7.05,8.9-10.73,19.8-16.64,33.33-18.06,7.77-.81,14.87-.06,21.07,2.19,1.83.67,5.55,2.41,12.82,6.85.39.25,1.92,1.37,4.62,3.36,12.52,9.13,25.97,9.45,38.95.75,5.49-3.67,9.57-6.06,12.13-7.1,16.15-6.61,31.23-6.63,46.11-.06,8.79,3.9,16.19,9.21,22.01,15.83,10.57,12.03,15.15,26.29,15.34,47.69.07,7.64,2.9,14.47,8.44,20.31l1.57,1.32c1.82,1.24,3.6,2.39,5.34,3.48,4.15,2.68,7.81,5,10.72,7.93,11.28,11.45,13.9,25.51,7.82,41.81-.93,2.51-2.73,5.3-4.47,8-1.24,1.92-2.42,3.77-3.3,5.45-3.9,7.49-4.26,14.93-1.06,22.08,2.25,5.03,3.66,8.43,4.22,10.17,4.56,14.42,1.27,29.3-8.6,38.82-3.48,3.34-7.28,6.24-11.33,8.6-5.68,3.33-9.18,5.44-10.5,6.32-13.59,9.07-21.02,21.85-22.09,37.98-.29,4.27.64,9.18,1.53,13.93.56,2.99,1.13,5.93,1.31,8.5,1.14,16.79-4.69,31.65-16.82,42.96-2.81,2.62-6.02,5.31-9.61,8.06-2.72-13.35-11.3-28.18-25.46-34.35l-.71-2.02c-2.35-6.78-5.93-12.25-10.93-16.74-21.32-19-50.07-22.85-75.39-10.21l-1.21.6c-6.13,3.11-9.02,4.47-12.81,1.45-7.16-4.95-13.66-8.51-19.39-10.41-15.62-5.2-33.93-1.79-48.98,9.1-3.2,2.32-5.86,5.04-8.94,8.21l-3.37,3.41c-2.5,1.47-4.92,2.3-7.71,2.47-10.28-1.46-12.69-1.66-13.71-1.66-13.75.11-26.31,3.73-37.34,10.78-13.81,8.85-22.91,21.79-27.02,38.49-.52,2.1-.94,4.18-1.36,6.19-1.77,8.66-3.04,14.91-10.39,19.4-2.82,1.73-7.21,2.72-11.1,3.59-1.61.37-3.16.72-4.53,1.1-22.86,6.3-37.13,20.94-42.41,43.51-1.06,4.51-1.42,8.83-1.75,12.63-.72,8.59-1.25,14.79-8.29,20.46-1.68,1.37-4.86,2.73-7.67,3.93-2.26.97-4.42,1.91-6.07,2.87-16.43,9.52-25.08,26.16-24.36,47.22.37,10.14.7,19.72-6.73,26.19-3.85,3.37-6.18,4.86-7.44,5.5-9.94,5.12-12.28,6.48-13.17,7.06-15.04,9.81-19.11,24.6-21.25,39.09-.07.48-.18.89-.35,1.25-.77,1.77-2.01,4.85-3.71,9.28-1.56,4.03-3.95,7.08-7.27,11.31l-2.64,3.4c-1.62,2.13-3.62,4.46-5.94,6.99-6.03,6.57-12.64,13.51-19.82,20.79-11.06,11.21-20.27,21.71-29.86,34.03-.32.43-.81.75-1.32.91-10.09,3.03-18.85,5.83-26.29,8.44-10.55,3.69-21.34,8.12-30.51,15.23.99-16.02,4.08-31.01,9.24-44.65.9-2.37,1.75-4.8,2.62-7.27,1.56-4.46,3.17-9.05,5.18-13.68,9.72-22.38,22.83-44.83,40.08-68.64,13.72-18.95,28.1-37.5,42.73-55.12,3.47-4.17,16.2-18.95,38.2-44.37,18.95-21.9,40.07-44.31,60.5-65.99,28.54-30.3,58.26-58.79,73.44-73.07,10.93-10.27,25.29-23.02,42.71-37.92,2.46-2.11,4.37-3.6,5.75-4.44,19.98-12.16,41.02-22.04,62.51-29.36,21.35-7.26,44.28-11.68,76.64-14.81,7.09-.68,13.01-.82,17.61-.4,12.79,1.13,23.73,3.2,35.48,6.74,11.57,3.5,19.97,5.95,25.2,7.38,6.56,1.8,14.86,3.06,24.63,3.75,3.3.27,6.33-1.75,7.38-5,.55-1.72.35-3.6-.55-5.16-.91-1.55-2.4-2.66-4.16-3.03-12.14-2.69-15.5-3.74-16.45-4.13-9.3-3.82-18.45-7.25-27.37-10.23,13.28-3.32,26.59-7.42,39.73-12.25,10.81-3.98,19.99-8.61,30.45-14.34,1.74-.94,2.91-2.59,3.2-4.55.3-1.94-.31-3.87-1.65-5.28-1.82-1.9-4.48-2.55-7.11-1.66-21.27,7-38.01,11.46-57.7,16.54-27.84,7.2-59.24,10.52-86.29,12.83-4.17.36-8.38.91-12.57,1.68-2.02.37-4.09.62-6.25.89-3.14.39-6.46.8-10.07,1.56-7.13,1.5-12.76,2.74-16.89,3.69-4.91,1.16-9.87,2.51-14.81,4.05,26.72-20.22,54.88-40.28,83.97-59.85,1.18-.78,2.5-1.55,3.83-2.35,1.59-.93,3.2-1.89,4.65-2.87.43-.29.84-.5,1.26-.66,14.88-5.74,27.72-9.72,38.13-11.82,12.23-2.47,25.89-4.71,40.59-6.64,12.59-1.68,24.98-4.94,36.83-9.69,2.9-1.16,5.5-2.56,7.79-4.14,1.46-1.04,2.4-2.64,2.55-4.4.15-1.75-.47-3.46-1.73-4.73-1.83-1.81-4.34-2.44-6.94-1.78-14.49,3.54-26.41,5.63-35.41,6.22-10.78.7-22.57,1.82-35.07,3.32-.79.1-1.57.2-2.35.3,8.83-7.1,17.29-14.53,27.16-23.28,13.51-11.99,25.83-24.5,36.62-37.15,2.45-2.87,6.46-8,12-15.34,1.02-1.32,1.45-2.98,1.22-4.65-.23-1.66-1.13-3.19-2.57-4.29-2.65-1.71-6.15-1.65-8.46.56-14.98,14.23-31.1,28.73-47.86,43.08-7.1,6.09-13.64,11.44-19.59,16.03l-7.6,5.94c-6.24,4.89-12.26,9.62-18.98,14.42-12.9,9.22-25.45,17.92-37.49,26.01,2.65-4.79,5.09-9.76,7.32-14.86,4.27-9.83,7.93-20.73,11.48-31.29,1.31-3.89,2.61-7.75,3.92-11.49,4.12-11.8,10.14-23.26,17.9-34.12,1.25-1.78,1.82-3.59,1.69-5.35-.16-2.26-1.66-4.26-3.64-5.05-2.08-.88-4.46-.51-6.2.98-6.1,5.26-11.39,11.33-15.77,18.05-5.99,9.24-10.98,18.51-14.85,27.55-.81,1.89-3.62,9.13-8.43,21.7-3.15,8.16-7.26,16.97-12.26,26.21-2.72,5.05-5.68,9.84-8.82,14.25-5.24,7.4-8.58,12.05-10,13.92-1.84,2.41-4.77,5.72-8.77,9.95-1.99,2.13-5.31,4.89-9.85,8.25-22.03,16.26-35.61,26.43-40.37,30.22-19.96,15.85-39.29,31.87-57.47,47.61-12.22,10.57-23.12,20.49-32.38,29.47-.86.84-1.8,1.73-2.81,2.64,1.54-4.77,3.14-10.01,4.78-15.7.87-3.03,3.65-9.32,5.52-12.48,1.1-1.87,1.97-3.66,2.82-5.41,1.01-2.09,1.98-4.11,3.41-6.19,8.89-12.85,17.95-23.4,29.37-34.2,5.96-5.65,12.8-12.3,20.49-19.95,14.21-14.15,25.67-28.3,34.04-42.07,4.53-7.48,9.15-16.75,13.74-27.56,2.04-4.87,4.36-11.91,7.09-21.54,3.82-13.48,7.54-24.57,11.08-32.97.56-1.34.8-2.58.72-3.81-.18-2.64-1.93-4.85-4.47-5.56-2.52-.75-5.18.11-6.76,2.21-5.16,6.8-9.61,14.69-13.21,23.43-1.55,3.76-3.04,7.64-4.51,11.53-2.19,5.78-4.4,11.59-6.91,17.09-8.92,19.62-20.71,37.73-35.02,53.83-8.46,9.52-16.16,17.39-22.87,23.41-11.74,10.51-21.76,20.35-30.24,31.42.24-4.38.35-8.92.48-14.26.1-4.29.21-9.14.43-14.92.37-10.47,1.74-20.67,4.07-30.34.39-1.68.04-3.45-.97-4.85l-2.22-2.28-2.1-.16c-2.51-.21-4.76.99-6.17,3.26-2.39,3.83-3.34,7.15-4.67,11.75l-1.31,4.44c-1.32,4.33-2.2,7.99-2.66,11.22-1.02,7.15-1.64,11.82-1.84,14.02-2.06,21.73-3.56,36.14-4.48,43.27-2.22,17.13-6.61,34.74-13.05,52.33-2.43,6.61-6.01,13.65-9.2,19.74-2.1,4.06-4.65,7.54-8.25,11.32-6.66,7-14.94,15.64-24.83,25.9,3.06-12.83,4.84-25.93,5.32-39.14.17-4.46.03-9.41-.13-14.35-.12-4.09-.26-8.18-.18-11.94.15-7.03,1.41-14.64,3.76-22.61.73-2.48-.09-4.21-.65-5.03s-1.27-1.51-2.04-2.02h0c-2.27-1.59-5.58-1.22-7.39.88-1.15,1.28-2.17,2.93-3.07,4.88-4.31,9.44-6.81,19.7-7.41,30.51-.88,15.93-2.06,28.12-3.55,36.22-2.28,12.66-4.52,22.22-6.65,28.41-3.36,9.72-7.36,18.86-11.89,27.14-1.74,3.18-4.17,6.49-7.24,9.89l-13.42,14.79c-17.07,18.78-36.4,40.07-52.62,59.84-22.43,27.33-41.06,50.86-59.08,76.89-12.4,17.91-23.58,37.84-33.2,59.25-5.27,11.69-9.37,23.04-12.19,33.74-3.21,12.15-5.46,23.99-6.71,35.19-1.09,9.82-.54,20.35,1.61,31.88-.52,1.6-1.01,3.29-1.39,5.08-.04-.04-.09-.1-.14-.15-9.5-10.18-17.27-20.63-23.07-31.07-10.67-19.22-15.24-39.14-14.8-64.59.24-14.13,1.97-27.78,5.12-40.57,2.93-11.83,5.96-24.07,10.27-35.08,7.76-19.85,16.67-38.53,26.46-55.55,16.28-28.22,32-50.31,53.77-80.89l10.28-14.46c1.96-2.78,6.87-10.33,14.73-22.65ZM365.21,476.91h0s.06-.03.1-.06c-.03.02-.07.04-.11.06Z"/>
      <path class="cls-1" d="M230.07,762.82c16.12-10.94,30.53-21.57,42.82-31.59,11.45-9.33,24.35-20.25,39.43-33.39,5.85-5.12,11.27-9.23,16.1-12.23,18.3-11.39,37.03-19.63,55.64-24.49,14.97-3.89,31.75-7.19,49.89-9.78,3.33-.46,5.12-2.35,6.03-3.84l1.37-3.3-1.13-2.28c-.89-1.79-2.62-2.97-4.61-3.17-20.77-1.96-41.32-.32-60.94,4.84-.98.23-1.99.69-3.35,1.55-1.07.05-2.24.23-3.54.53,3.1-3.01,6.13-5.93,9.09-8.81,6.27-6.08,12.25-11.88,18.15-17.49,2.08-1.98,4.44-3.85,7.01-5.56,9.71-6.41,15.25-10.03,16.63-10.82,17.99-10.55,37.43-18.76,57.8-24.41,13.81-3.84,29.25-7.23,45.89-10.04,6.7-1.13,13.9-2.74,21.4-4.78,3.25-.89,5-2.68,5.88-4.03,1.26-1.93,1.32-4.37.15-6.36-1.18-2-3.35-3.13-5.66-2.95-17.23,1.32-26.45,2.02-27.64,2.11-13.02.93-22.18,1.91-28.03,2.96-14.51,2.61-28.71,6.57-42.48,11.82,12.91-13.14,23.05-23.38,30.43-30.73.22-.21,1.22-1.31,3.56-3.77,5.21-3.36,10.75-7.01,16.6-10.96,4.19-2.84,11.25-6.87,20.98-11.97,8-4.21,17.3-8.16,27.15-12.34,11.79-4.99,23.98-10.17,34.47-16.09,7.15-4.04,15.04-9.83,23.43-17.18,1.69-1.48,2.81-3.24,3.33-5.26.5-2.02-.07-4.13-1.53-5.62-1.42-1.54-3.51-2.11-5.44-1.69-1.16.22-2.25.65-3.18,1.23-13.57,8.22-27.49,14.97-41.37,20.03-8.21,2.98-14.47,5.42-21.74,8.24l-10.18,3.94-.12.05c3.23-3.48,6.43-6.78,9.56-9.89,14.72-14.6,25.05-25.05,31.03-31.33,9.73-10.22,22.82-25.77,38.9-46.22,1.89-2.37,2.39-5.51,1.37-8.35-.7-1.95-2.29-3.39-4.32-3.9-2.02-.48-4.13.09-5.64,1.53-5.77,5.54-11.38,11.09-17.09,16.77-6.18,6.13-12.48,12.38-19.25,18.85-11.8,11.27-21.3,20.48-28.43,27.56,3.31-10.58,5.65-21.47,7.01-32.53.72-5.95,1.18-9.6,1.39-11,1.33-9.15,3.61-19.28,6.76-30.06.89-2.88-.41-5.92-3.19-7.3-2.73-1.33-5.98-.5-7.71,1.97-7.5,10.63-11.51,25.34-12.89,31.16l-2.14,9.19c-2.69,11.67-5.02,21.74-8.11,31.51-5.28,16.6-12.7,32.66-22.07,47.74-3.28,5.27-7.07,9.63-10.03,12.85-8.11,8.82-14.37,15.62-18.82,20.37-3.32,3.53-6.93,7.15-10.51,10.74-3.32,3.33-6.62,6.64-9.66,9.85-5.03,5.33-10.01,10.44-14.97,15.32-4.54,4.48-8.85,8.96-13.13,13.41-4.01,4.19-8.01,8.35-12.17,12.47-7.94,7.9-22.84,22.54-44.72,43.97-27.65,27.08-55.33,51.81-73.75,68.05-8,7.06-15,12.88-20.8,17.29-3.58,2.74-6.8,5.31-9.93,7.8-4.81,3.85-9.4,7.52-14.81,11.34-8.61,6.05-18.65,12.74-29.82,19.88-10.36,6.61-22.24,12.84-35.32,18.5-17.14,7.43-35.32,12.58-54.03,15.33-2.53.37-4.51,1.9-5.46,4.22-.67,1.68-.59,3.56.24,5.15.49.96,1.23,1.77,2.12,2.35.58.38,1.22.66,1.89.83,2.72.67,5.79,1.04,9.13,1.11,5.28.1,12.86-.65,23.18-2.28,7.11-1.13,14.69-3.12,22.52-5.91,14.62-5.22,27.63-10.98,38.63-17.11,4.99-2.78,15.4-8.58,22.73-13.57Z"/>
      <path class="cls-1" d="M385.67,749.09c-1.77-2-4.8-2.54-7.31-1.25-6.83,3.7-13.75,8.16-20.44,12.48-4.97,3.2-9.84,6.34-14.45,9.03-16.31,9.47-29.47,16.82-39.07,21.8l-25.96,12.94c-5.03,2.49-9.39,4.48-13.13,5.94-7.65,3-16.63,6.61-26.97,10.84-3.39,1.41-4.68,3.74-5.16,5.46l-.43,3.4,4.13,4.12,2.4-.23c10.49-1.01,20.84-3.43,30.78-7.19l13.11-4.99c9.38-3.57,19.06-8.03,28.77-13.27,20.1-10.84,39.48-23.09,57.61-36.39,4.86-3.55,10.12-8.03,15.63-13.32,2.87-2.75,3.06-6.61.5-9.35Z"/>
    </g>
  </g>
</svg>