<?xml version="1.0" encoding="UTF-8"?>
<svg id="Capa_2" data-name="Capa 2" xmlns="http://www.w3.org/2000/svg" viewBox="0 0 870.74 797.61">
  <defs>
    <style>
      .cls-1 {
        fill: #fef1d1;
      }
    </style>
  </defs>
  <g id="Capa_1-2" data-name="Capa 1">
    <g>
      <path class="cls-1" d="M869.28,260.45c-4.89-22.13-16.14-40.27-33.75-54.42-10.49-8.44-22.23-13.52-35.6-13.77-.97-.03-1.83-.59-2.23-1.45-5.43-11.45-13.57-20.29-24.43-26.52-18.21-10.45-37.54-13.2-57.98-8.26-.36.08-.71-.16-.77-.54-2.81-22.13-16.04-40.82-34.98-52.67-22.6-14.15-47.08-19.01-73.43-14.58-4.13.7-7.54,1.83-10.62,2.15-.43.05-.82-.27-.85-.7-2.55-32.77-24.17-59.73-54.26-71.55-25.87-10.18-51.58-9.65-77.13,1.59-9.89,4.35-19.12,11.6-26.3,19.05-.46.47-1.22.4-1.59-.15-14.39-22.2-40.42-35.54-66.3-38.05-21.81-2.11-42.22,1.71-61.23,11.46-9.81,5.03-18.22,11.51-25.22,19.43-7.09,8-12.79,16.99-17.09,26.98-.67,1.57-1.12,3.09-1.36,4.56,0,.01-.01.03-.03.01-.01,0-.03-.01-.03-.03v-.36s-.03-.07-.07-.07c-.03,0-.07.01-.08.05-2.61,8.1-4.05,15.47-4.33,22.12-.01.39-.38.66-.75.58-9.29-2.09-15.63-3.08-19.01-2.98-8.72.27-17.4,2.24-26.04,5.91-8.06,3.42-14.88,8.66-20.45,15.72-1.79,2.28-3.32,4.23-4.6,5.83-.31.39-.87.47-1.29.19-14.94-10.54-31.64-14.15-50.08-10.83-6.97,1.25-13.21,3.39-18.72,6.4-7.95,4.35-15.32,10.57-22.13,18.64-2.26,2.68-4.29,5.8-6.1,9.35-2.83,5.59-4.45,8.96-4.85,10.1-2.21,6.2-3.58,14.43-4.1,24.68-.03.47-.42.82-.89.81-4.53-.12-12.42-.12-17.66.94-19.65,3.98-35.45,13.7-47.41,29.17-31.52,40.81-13.01,94.33,35.94,108.28.77.21,1.02,1.18.47,1.75-5.31,5.42-9.67,10.56-14.06,17.13-12.82,19.29-19.61,41.57-20.38,66.85-.78,25.49,6.29,47.89,21.22,67.23,13.39,17.35,30.91,28.33,52.57,32.93.62.13,1.09.63,1.18,1.25.86,5.43,2,10.79,3.41,16.07,24.07,89.95,83.57,165.81,166.73,207.83,33.5,16.93,68.49,26.44,104.97,28.54.5.03.91.4.99.89,5.42,30.09,33.03,42.82,60.43,47.31,22.94,3.75,45.37,2.94,67.29-2.43,23.33-5.72,43.28-20.53,47.97-44.91.11-.54.58-.94,1.13-.95,5.7-.22,11.56-.77,17.59-1.64,18.2-2.62,36.39-7.09,54.57-13.38,10.13-3.51,19.9-7.49,29.31-11.93,35.66-16.87,67.54-39.62,95.65-68.25,6.91-7.04,14.93-16.76,21.18-24.51,23.17-28.75,41.24-61.52,54.23-98.31,12.42-35.15,19.15-71.81,18.45-108.22-.21-11.15-.46-18.14-.75-20.98-1.28-12.19-2.62-21.89-4.03-29.1-2.8-14.31-7.51-28.45-14.11-42.42-.3-.63.16-1.37.86-1.37,18.96-.05,33.36-7.28,43.23-21.69,8.81-12.89,10.96-29.86,7.67-44.75ZM400.51,165.83c4.75,4.5,11.02,8.05,18.81,10.67,5.52,1.87,11.99,2,17.66,3.31,5.68,1.32,11.53,3.98,17.56,7.98,20.69,13.77,28.78,43,7.65,61.06-5.46,4.66-13.8,8.21-18.34,13.14-5.66,6.15-7.95,13.79-6.88,22.9.55,4.61,3.37,10.41,4.25,14.31,2.73,12.12-3.28,24.78-12.43,32.44-5.48,4.6-10.9,7.27-17.29,10.19-16.16,7.34-28.16,17.54-29.99,36.39-.6,6.29,1.63,13.37,1.68,19.75.13,17.57-7.44,30.9-22.72,39.99-6.06,3.6-16.15,6.02-22.35,9.72-10,5.97-17.08,14.88-21.24,26.74-.12.34-.51.48-.82.31l-22.08-12.74c-.32-.19-.54-.5-.62-.85-2.04-9.33-5.23-18.13-9.57-26.4-11.43-21.83-26.91-39.98-46.45-54.46-.47-.35-.75-.91-.75-1.49.05-11.89,4.1-19.55,11.62-28.54,14.94-17.87,26.79-32.3,46.05-43.87,10.62-6.38,22.12-11.6,34.48-15.67,10.88-3.57,21.4-7.99,31.56-13.25,10.75-5.56,19.39-12.25,28.68-20.24,3.39-2.91,6.25-6.1,8.6-9.57,4.36-6.41,3.49-11.61-2.62-15.59-1.16-.75-2.66-.62-3.67.32l-16.92,16c-.2.2-.43.38-.67.52-1.42.9-3.73,2.54-6.92,4.92-3.82,2.86-10.66,6.67-20.55,11.44-.17.09-.34.21-.47.36-.18.19-.32.3-.42.34-7.28,2.77-13.05,4.84-17.29,6.22-.16.05-.27.16-.24.24.02.04.03.07.04.09.01.05-.01.11-.05.12l-19.04,5.91c-.34.11-.66.26-.97.46-2.19,1.41-3.64,2.23-4.37,2.46-1.69.52-3.23,1.15-4.62,1.88-8.01,4.25-15.07,8.45-21.18,12.62-10.05,6.84-18.52,15.44-27.05,24.62-.39.42-1.08.04-.94-.51,1.25-4.94,2.78-9.66,4.57-14.18,9.76-24.54,23.31-46.92,40.19-66.97,7.87-9.33,12.98-15.65,15.36-18.93,9.23-12.82,16.56-27,22.01-42.54,1.48-4.23,2-7.93,3.52-10.96,1.21-2.43,1.95-7.73,1.2-9.65-.68-1.76-2.07-3.16-4.18-4.22-.48-.24-1.01-.38-1.55-.4-2.47-.09-4.68.7-6.62,2.38-.99.85-2.12,2.88-3.37,6.07-3.21,8.17-7,16.6-11.37,25.29-5,9.96-10.74,18.79-18.07,27.45-.77.91-3.35,3.87-7.74,8.88-23.96,27.34-40.98,55.89-50.97,89.76-.17.56-.98.54-1.1-.04-2.13-10.24-2.92-20.42-2.37-30.54.13-2.46.74-6.23,1.81-11.3,1.02-4.76.86-6.85-2.36-9.74-3.83-3.43-10.19.13-12.51,3.64-1.34,2.02-2.43,4.51-3.27,7.44-2.41,8.4-3.34,17.1-2.78,26.08,1.03,17.02,4.11,29.43,9.19,50.87.2.83.24,1.71.12,2.55l-2.11,15.56c-.04.31-.38.5-.66.36l-16.92-7.79c-.38-.17-.62-.54-.63-.95-.22-4.61-.97-8.77-2.24-12.48-6.75-19.7-17.45-36.91-30.5-53.56-.77-.99-1.14-2.6-1.12-4.85.13-10.91,5.94-21.28,13.84-28.46,5.87-5.32,13.21-8.9,13.57-18.61.74-20.4,7.32-36.29,23.81-49.14,9.73-7.58,19.51-12.23,31.16-14.47,1.56-.3,4.12-.86,7.67-1.68,15.13-3.49,27.17-13.83,33.38-27.2.82-1.78,1.94-5.38,3.33-10.79,4.8-18.57,15.16-33.77,31.56-43.09,12.11-6.87,23.57-8.33,37.64-6.6,7.83.97,14.77,4.02,20.81,9.15,6.95,5.91,11.76,15.28,9.55,24.56-.6,2.54-1.29,5.64-2.08,9.3-2.84,13.17,1.71,26.69,11.1,35.57ZM556.05,149.09s.06.04.08.06c4.63,5.22,12.34,5.98,19.34,8.01,16.02,4.64,25.84,14.97,29.45,31,1.99,8.79,2.71,14.81,6.11,20.49,5.07,8.47,12.65,13.42,22.75,14.85,7.09.99,12.37,2.1,15.82,3.32,11.85,4.17,22.02,12.01,25.71,24.58.22.71-.09,1.48-.75,1.85-14.07,7.81-23.63,19.26-28.68,34.33-1.93,5.75-2.65,12.54-2.16,20.37.25,4.15.39,6.65.4,7.51.47,23.83-10.31,40.55-32.36,50.16-.43.19-.9-.16-.85-.63,3.41-26.94-2.86-51.89-13.96-76.97-7.31-16.51-16.66-31.75-28.04-45.71-9.02-11.07-14.11-17.35-15.26-18.84-9.15-11.77-15.04-24.63-20.96-42.27-2.33-6.93-5.91-17.36-10.75-31.27-3.05-8.75-14.73-10.43-15.64.54-.12,1.4.23,3.64,1.05,6.73,7.97,30.37,16.12,57.58,34.4,81.19,7.46,9.64,12.54,16.29,15.22,19.97,9.41,12.85,17.47,27.18,24.19,43,6.19,14.56,9.92,28.47,11.19,41.75.64,6.69.34,15.42-.89,26.18-.05.52-.5.93-1.03.93h-17.95c-.77,0-1.41-.58-1.49-1.34-.71-6.58-2.56-13.11-5.56-19.58-9.27-19.93-18.11-38.93-39.99-47.93-4.06-1.68-6.2-2.52-6.44-2.54-2.62-.26-6.52,1.25-7.71,3.9-2.57,5.72.55,8.8,5.63,11.45,6.76,3.51,13.2,7.77,17.86,13.91,6.04,7.95,10.82,17.12,14.35,27.51,2.82,8.29,4.29,12.55,4.41,12.79.16.32-.05.7-.42.73-.3.03-1.9.13-4.82.3-19.36,1.11-35.64,7.04-48.83,17.79-12.44,10.13-20.11,24.02-22.99,41.67-.05.35-.42.55-.74.42-6.41-2.66-31.23-11.41-37.48-6.97-4.11,2.92-5.37,8.92-1.1,12.48,1.25,1.04,3.4,1.81,6.44,2.32,12.23,2.06,22.9,5.51,32.72,13.09,2.11,1.63,3.45,3.2,4,4.7,2.92,7.89,5.8,15.16,4.85,24.54-1.38,13.63-14.78,23.84-28.51,22.86-7.34-.52-16.35-2.92-24.39-2.23-24.51,2.1-44.01,16.06-53.09,39.06-.23.56-1.01.63-1.32.11-11.62-19.35-26.01-36.26-43.19-50.73-.2-.16-.3-.43-.26-.69,1.62-10.18,6.54-17.86,14.75-23.04,3.2-2.02,6.97-3.21,12.07-5.17,24.77-9.57,38.93-27.45,42.48-53.64.95-7.05.11-12.3-.74-19.79-1.32-11.56,3.22-19.69,13.8-24.56,8.84-4.07,16.69-8.53,24.6-14.65,15.22-11.76,24.12-31,20.3-50.04-.36-1.81-1.72-6.21-4.1-13.2-1.04-3.06-.45-6.12,1.76-9.16.31-.43.71-.79,1.18-1.06,10.1-5.89,16.86-10.25,23.66-18.79,14.97-18.76,14.43-44.89,1.3-64.46-10-14.89-24.05-24.53-42.17-28.93-2-.48-5.76-1.12-11.29-1.89-8.2-1.16-12.48-3.31-18.03-8.98-7.2-7.36-5.83-17.13-1.77-25.49.32-.66.83-1.21,1.46-1.57,10.74-6.28,24.38-8.48,35.92-3.82,2.66,1.07,4.55,1.73,5.66,1.99,7.36,1.73,12.43-4.58,17.17-8.92,6.96-6.37,18.02-9.98,26.81-10.43,16.52-.85,30.39,5.03,41.6,17.63,2.13,2.4,3.98,5.9,5.85,9.06h0s5.84,17.28,9.36,20.2ZM375.04,726.55c-29.53-.64-57.87-6.81-85.03-18.5-48.92-21.06-89.34-52.76-121.26-95.11-26.56-35.25-44.56-74.35-53.99-117.29-.07-.34.15-.66.48-.7,5.89-.89,11.7-1.32,17.43-1.29,15.94.09,26.87,10.78,33.28,25.33.46,1.04,1.95,5.05,4.47,12.03,4.06,11.24,10.68,20.8,19.86,28.67.9.77,1.51,1.84,1.69,3.01.72,4.33,1.91,8.67,3.57,13.03,6.14,16.04,15.1,31.7,26.9,46.98,10.1,13.09,20.43,24.13,31.01,33.12,10,8.51,23,17.44,39.01,26.78.46.27.97.43,1.49.47,2.55.21,4.74-.5,6.57-2.14,5.43-4.85,1.41-10.99-1.28-16.15-.79-1.52-1.67-3.7-2.65-6.54-4.53-13.21-8.52-27.51-11.96-42.89-.48-2.18-.85-4.43-1.1-6.77-.04-.38-.16-.74-.34-1.06-1.26-2.42-3.23-4.03-5.89-4.82-.4-.12-.82-.15-1.22-.11-5.45.57-8.13,3.84-8.05,9.81.15,11.49,1.89,23.17,5.23,35.02.13.46-.38.82-.77.55-11.3-7.98-20.92-19.26-30.76-31.12-10.35-12.5-18.88-26.45-25.58-41.87-.19-.42.23-.86.66-.71,15.61,5.21,30.84,5.28,48.64,4.02,36.15-2.54,57.52,18.42,74.76,46.53,6.49,10.6,11.31,21.61,14.46,33.04,1.46,5.29,2.86,12.51,4.19,21.69,2.73,18.66,5.19,32.4,16.82,45.51.52.59.09,1.52-.69,1.49ZM386.56,703.79c-6.4-10.62-6.56-19.93-8.37-34.32-2.03-16.18-6.65-31.12-13.85-44.83-7.53-14.32-16.23-26.66-26.09-37.02-20.63-21.65-45.91-31.51-75.84-29.59-7.21.47-13.37.62-18.48.46-21.37-.67-39.69-9.41-51.09-27.48-1.09-1.73-2.91-6.25-5.46-13.57-3.04-8.73-6.62-15.8-10.76-21.19-13.16-17.13-31.82-24.16-53.74-22.37-3.66.3-7.1.56-10.32.78-15.38,1.07-29.43-2.93-42.15-11.99-21.12-15.04-31.5-40.1-31.81-65.64-.39-31.82,14.11-71,45.32-84.76,3.72-1.64,4.54-7.94,2.49-11.65-2.61-4.7-5.82-6.53-11.19-7.51-3.32-.61-7.86-1.64-13.61-3.1-13.87-3.52-24.82-10.79-32.85-21.8-5.47-7.51-8-16.3-7.59-26.38.61-14.93,6.98-27.72,19.11-38.35,10.76-9.43,23.44-14.11,38.05-14.03,4.93.03,9.55.75,13.88,2.16,6.07,1.98,10.98-.51,13.4-6.15,1.87-4.35-1.32-8.83-2.28-13.05-1.53-6.67-.76-14.05,2.32-22.12,3.56-9.33,8.8-16.59,15.72-21.81,7.56-5.7,15.84-8.92,24.85-9.66,14.41-1.19,26.52,3.65,36.32,14.51,2.28,2.53,4.27,4.02,5.99,4.47,5.93,1.56,11.76-2.31,13.05-8.49.05-.26.13-.51.24-.74,3.82-8.54,8.76-14.66,14.82-18.36,15.92-9.72,32.09-9.82,48.51-.31,6.49,3.75,10.16,5.65,11.02,5.7.54.03.87.58.66,1.06-1.7,3.81-3.44,9.04-5.2,15.69-1.47,5.55-2.93,9.35-4.39,11.41-4.89,6.92-11.56,11.05-19.99,12.4-32.79,5.26-56.06,22.69-69.81,52.28-.15.32-.59.36-.79.08-7.9-11.02-17.68-19.64-29.33-25.87-5.13-2.74-9.48-1.86-13.03,2.63-.31.39-.5.85-.55,1.33-.34,3.05.44,5.11,2.35,6.18,15.45,8.72,26.79,23.54,33.97,39.22,1.04,2.28,1.37,4.73.99,7.36-.08.56-.38,1.07-.81,1.42-10.37,8.36-18.23,16.92-22.57,29.74-.13.4-.66.52-.97.21l-6.79-6.79c-.26-.26-.4-.58-.44-.93-.77-6.72-2.09-12.81-3.96-18.26-3.06-8.88-6.06-11.81-14.7-6.53-.89.54-1.37,1.56-1.24,2.59l1.38,10.53c.04.28-.27.5-.52.36-10.33-5.41-20.39-9.12-30.19-11.13-9.04-1.85-13.28,8.88-3.72,13.11,6.54,2.89,11.22,5.06,14.03,6.5,31.16,15.86,55.08,44.11,70.03,75.11,2.76,5.72,4.97,11.48,6.62,17.27.08.3-.17.58-.47.52-8.48-1.52-16.76-2.5-24.83-2.94-7.18-.39-16.68.54-28.51,2.79-3.01.58-5.11,1.57-6.3,2.96-4.64,5.46-2.18,11.43,4.51,13.58.81.25,2.92.13,6.33-.36,11.34-1.64,23.9-.51,37.02,1.87,29.49,5.35,54.62,18.4,75.4,39.14,12.52,12.5,24.17,28.53,29.16,45.28.12.43.13.89.01,1.33-.42,1.53-1.6,3.36-1.83,4.61-1.03,5.46.99,9.56,6.06,12.32,11.53,6.25,19.2,10.54,23,12.86,26.05,15.9,46.64,36.29,62.72,62.82,16.43,27.08,27.63,59.28,30.1,91.18,1.64,21.12-.07,42.34-2.36,63.02-.04.32-.46.43-.63.15ZM522.81,746.69c-3.15,10.05-9.66,17.28-19.51,21.67-14.94,6.68-30.82,8.43-47.58,8.3-16.76-.12-32.6-2.1-47.45-8.99-9.79-4.54-16.19-11.86-19.19-21.96-.19-.62.13-1.26.74-1.49,20.99-7.91,43.86-12.82,66.23-12.66s45.16,5.4,66.03,13.61c.6.24.91.89.73,1.5ZM566.72,123.01c-1.41-2.18-2.67-4.44-3.76-6.8-1.21-2.61-2.76-5.24-4.41-7.29-18.33-22.6-48.36-33.06-76.69-24.25-10.1,3.14-18.66,8.41-25.66,15.79-.44.47-1.13.62-1.75.39-14.73-5.59-29.06-5.07-43.01,1.55-.4.2-.89,0-1.05-.42-7.27-18.68-23.6-30.27-43.05-34.29-17.58-3.64-35.02-1.38-52.31,6.77-.08.03-.09.13-.04.19.15.14.25.24.3.28.03.03-.04.08-.12.09-1.49.31-2.35.56-2.59.73-7.44,5.23-12.29,8.86-14.55,10.9-4.84,4.34-8.99,9.11-12.46,14.3-.26.38-.83.32-1.01-.09-8.12-18.42.3-41.52,13.46-55.29,17.4-18.19,41.59-26.61,66.72-24.63,24.52,1.91,44.34,13.44,57.13,34.63.48.8,1.12,2.41,1.89,4.82,1.75,5.44,4.96,9.11,10.96,9.3,3.2.1,5.95-1.38,8.25-4.42,3.21-4.23,5.11-8.34,9.08-12.39,10.49-10.67,23.17-17.24,38.05-19.71,21.03-3.49,44.65,1.14,61,15.28,16.45,14.22,25.88,35,22.27,56.77-.05.34-.07.66-.04.99.46,4.34,2.78,7.39,6.97,9.14,2.67,1.11,5.07,1.14,7.22.09,24.54-12.11,53.87-11.11,77.95,3.05,16.04,9.42,26.55,23.77,28.51,42.38.14,1.37.17,5.39.08,12.05-.02,1.13.95,2.86,2.92,5.19,6.42,7.59,14.86.01,22.48-2.2,11.03-3.22,22.09-2.89,33.18.98,11.34,3.95,26.95,15.61,26.24,28.97-.02.4.02,1.06.14,1.45,1.08,3.56,3.28,5.99,6.61,7.28,5.27,2.03,9.26-1.88,14.81-1.8,3.74.06,7.08.73,10.01,2.02,18.11,7.93,31.3,26.11,36.97,44.92,8.85,29.32-7.44,52.63-39.06,45.7-2.58-.56-5.48.23-8.69,2.39-5.93,4-8.7,9.54-8.3,16.64.04.73.23,1.44.56,2.1,3.27,6.32,7.23,12.56,9.35,18.02,3.77,9.69,6.35,17.49,7.74,23.39,8.23,35.02,8.77,70.62,1.61,106.81-4.76,24.06-11.83,46.97-21.23,68.72-6.23,14.41-12.65,26.68-19.27,36.8-.35.53-.69,1.18-1.02,1.96-.34.81-.6,1.44-.63,1.48-5.39,8.38-10.25,15.59-14.57,21.63-4.68,6.58-10.47,13.5-17.39,20.76-2.59,2.74-4.52,6.18-7.24,9.03-7.49,7.85-16.05,15.68-25.69,23.49-.72.58-3.14,2.76-7.26,6.53-2.03,1.86-4.65,3.83-7.85,5.89-.38.23-.73.5-1.06.79-2.53,2.25-4.98,3.96-7.32,5.15-.38.2-.73.44-1.02.75-1.42,1.47-3.22,2.69-5.37,3.65-1.9.86-3.97,2.21-6.22,4.04-1.55,1.28-3.47,2.17-5.75,2.66-.51.12-.99.3-1.46.55-12.23,6.66-20.25,10.99-24.07,12.98-.05.03-.07.08-.01.12.05.04.15.05.2.03.13-.06.2-.09.23-.08h.01c-5.52,2.87-10.72,4.9-15.6,6.1-.09.03-.09.04,0,.05.15.02.27.05.35.11.23.13.19.47-.07.55-.91.27-1.71.65-2.38,1.16-.15.12-.32.2-.51.27l-12.83,4.37-.31.07c-3.37.31-6.59,1.19-9.66,2.63-.05.03-.05.09,0,.11.12.04.26.05.43.04.04,0,.07.03.08.05,0,.04-.01.07-.05.08-2.44.55-4.72,1.11-6.85,1.69-3.47.94-5.71,1.47-6.72,1.6-2.72.35-5.26.85-7.62,1.49-5.37,1.45-10.57,2.03-16.7,2.94-4.13.61-7.18.96-9.14,1.06-7.86.41-12.89.83-15.09,1.26-.79.16-1.63.07-2.38-.26-1.33-.57-6.52-2.41-15.59-5.5-7.55-2.57-14.99-4.49-22.32-5.76-.56-.09-.77-.79-.34-1.17,12.04-10.58,20.88-26.22,27.33-40.74,5.39-12.14,8.09-24.63,8.12-37.46,0-.77.12-2.02.31-2.77,1.6-6.41,4.61-12.43,8.18-20.88,4.02-9.49,5.93-19.26,5.71-29.31-.07-3.24-1.05-6.23-4.04-7.83-5.82-3.1-9.93,2.14-11.42,7.65-1.08,4.04-3.82,12.17-8.21,24.39-.12.36-.62.4-.81.07-6.55-11.71-15.52-20.95-26.93-27.72-1.77-1.06-3.6-1.29-5.48-.71-8.02,2.47-6.42,9.74-1.67,14.77,4.87,5.15,8.7,9.65,11.48,13.49,14.9,20.61,14.62,42.8,3.35,64.59-3.6,6.98-7.7,13.63-12.31,19.95-4.29,5.89-9.26,12.18-14.9,18.87-.51.62-1.3.93-2.11.85-21.58-2.26-42.81.65-64.18,6.32-.47.12-.87-.34-.69-.78.98-2.36,1.68-4.9,2.1-7.61,1.3-8.17,2.59-20.63,3.87-37.37,2.59-33.77-3.51-68.1-15.65-99.39-.4-1.05-.66-2.15-.74-3.27-.76-9.92.76-18.66,4.56-26.24,6.48-12.93,16.97-20.54,31.47-22.84,7.97-1.26,16.1.9,24.16,1.48,32.95,2.42,56.7-25.3,50.64-57.77-.95-5.08-3.65-11.57-5.63-16.54-5.67-14.24-1.49-29.91,8.48-40.73,12.62-13.68,32.99-18.79,51.37-17.86,8.55.42,14.96.83,19.23,1.22,6.21.56,15.31-.23,19.73-.79,11.84-1.52,22.26-4.9,31.26-10.13,20.1-11.71,31.7-29.5,34.8-53.39.23-1.78.26-6.72.08-14.81-.16-7.16.02-12.08.54-14.77,3.02-15.63,16.78-27.1,32.36-29.32,5.78-.82,12.25-1.03,18.31.34,5.53,1.26,10.77,2.67,15.72,4.22,5.46,1.7,10.46,1.41,14.98-.89,5.51-2.79,11.87-7.08,17.43-5.79,12.6,2.91,23.29,6.13,32.06,9.66,1.65.66,3.83.22,6.54-1.33,5.44-3.1,3.55-9.42-1.06-12.3-10.33-6.45-21.69-10.26-34.08-11.42-.36-.03-.52-.46-.28-.73,3.14-3.42,5.91-6.64,8.29-9.65,4.03-5.09,3.04-11.52-4.19-12.83-.59-.11-1.2,0-1.72.31-9.16,5.24-16.26,12.79-25.07,21.82-1.08,1.11-3.49,2.32-7.24,3.63-.46.16-.94.17-1.4.01-12.52-4.17-24.8-7.52-38.34-5.71-.73.09-1.41-.34-1.63-1.03-2.03-6.49-5.23-12.38-9.58-17.67-11.31-13.76-26.09-20.68-43.86-23.19-8.06-1.13-13.52-3.25-15.37-10.94-1.83-7.58-2.67-14.07-5.51-20.87-7.06-16.92-19.94-28.29-38.65-34.09-2.55-.79-4.88-1.25-7.01-1.41h0s-9.32-14.4-9.32-14.4Z"/>
      <path class="cls-1" d="M776.44,505.71c-2.13-1.5-4.11-1.95-5.94-1.33-2.55.87-4.31,2.03-5.28,3.48-6.46,9.75-13.98,18.44-22.56,26.09-12.94,11.52-26.78,20.96-41.53,28.31-.44.22-.84.3-1.2.23-.47-.11-.71-.62-.48-1.03,6.41-12.29,12.27-25.18,17.56-38.67,9.18-23.42,17.08-47.42,23.7-72.02,9.39-34.88,14-72.94,10.95-109.51-.29-3.52-1.65-6.07-4.1-7.65-3.59-2.32-8.2-.56-10.41,2.47-.31.42-.54.89-.66,1.4-.56,2.34-.95,4.83-1.17,7.47-1.56,19.68-3.29,37.4-5.19,53.16-3.59,29.7-12.13,60.08-21.19,89.55-.15.48-.83.47-.97-.01-3.44-12.23-9.66-20.55-17.91-32.22-9.12-12.91-13.09-27.68-13.57-43.51-.11-3.37-1.34-5.48-4.22-6.76-2.38-1.05-6.13.78-7.47,2.63-1.24,1.74-2.19,4.37-2.82,7.9-3.86,21.58,4.94,40.32,17.63,59.18,11.48,17.07,14.85,36.58,10.1,58.51-1.13,5.2-4.14,10.06-5.76,14.5-.31.87-1.68,3.13-4.1,6.77-1.52,2.29-2.89,4.56-4.11,6.8-2.88,5.32-6.22,10.35-10,15.09-1.55,1.95-3.55,5.5-4.89,7.36-14.81,20.59-33.75,40.15-56.84,58.68-2.74,2.19-5.35,4-7.83,5.43-.51.3-1.08-.26-.82-.78,13.37-27.01,21.27-54.34,21.31-84.94,0-2.32.58-4.62,1.67-6.66,2.39-4.48,5.76-9.99,10.1-16.53,1.9-2.88,3.53-6.89,4.9-12.05.07-.28.11-.55.11-.83-.05-4.08,2.55-8.87-.34-13.01-.28-.39-.67-.69-1.12-.85-3.88-1.38-6.79-.23-8.72,3.45-3.87,7.36-6.92,13.15-9.15,17.36-.31.59-1.2.5-1.36-.15-4.17-16.21-11.88-29.74-21.38-44.05-5.97-8.99-9.79-19.36-11.46-31.11-.22-1.59-.5-3.31-.82-5.15-1.73-9.85-11.6-5.4-12.85,1.18-2.85,14.92,2.19,31.34,9.5,44.56,4.14,7.47,9.18,15.43,12.27,22.6,19.42,45.26,1.56,96.76-21.02,136.94-3.06,5.46-8.21,13.92-15.44,25.36-.19.28-.31.6-.38.94-.94,4.9.54,8.51,4.43,10.84,5.32,3.18,13.17-3.31,17.91-5.82,1.59-.85,3.16-1.75,4.72-2.7,28.59-17.41,54.5-38.5,77.75-63.29,1.99-2.12,7.57-8.68,16.74-19.69.35-.42.74-.78,1.17-1.12,6.32-4.74,11.2-8.21,14.62-10.43,8.99-5.81,18.92-11.72,29.79-17.72,6.54-3.61,12.67-8.04,17.98-11.52,9.27-6.09,18.8-14.46,28.59-25.1,5.1-5.55,9.66-12.8,13.68-21.75,1.8-3.99,1.38-7.79-2.15-10.29Z"/>
    </g>
  </g>
</svg>