<?xml version="1.0" encoding="UTF-8"?>
<svg id="Capa_2" data-name="Capa 2" xmlns="http://www.w3.org/2000/svg" viewBox="0 0 776.41 807.86">
  <defs>
    <style>
      .cls-1 {
        fill: #fef1d1;
      }
    </style>
  </defs>
  <g id="Capa_1-2" data-name="Capa 1">
    <g>
      <path class="cls-1" d="M752.41,233.78l3.35-16.51c-.1-.62.29-1.05.76-1.2,19.78-15.06,25.83-40.68,13.46-62.43-.93-1.63-1.95-3.21-3.05-4.72-6.96-9.56-16.96-15.97-27.98-18.76.19-10.44-3.14-20.97-10.27-30.1-1.16-1.48-2.4-2.89-3.71-4.23-14.71-15.01-37.45-18.84-56.68-10.36-1.63.64-3.19,1.47-4.62,2.48-1.17.83-2.34,1.66-3.5,2.49-2.14,1.53-4.4,2.91-6.74,4.12l-6.6,3.41c-1.26.65-2.7.88-4.1.61-6.97-1.35-13.6-.75-19.9,1.77-.04-6.55-1.87-12.73-5.52-18.56-.75-1.2-1.06-2.63-.91-4.04l.81-7.39c.29-2.62.76-5.22,1.41-7.77.36-1.39.71-2.77,1.06-4.16.43-1.7.64-3.45.65-5.2.99-21-10.77-40.82-30.07-49.14-1.72-.74-3.48-1.39-5.28-1.93-23.94-7.26-47.59,4.3-57.91,26.92-.04.49-.37.97-1,1.01l-15.37,6.92c-10.38,4.67-18.46,13.54-21.51,24.5-.8,2.89-1.29,5.85-1.44,8.79-.55,10.69,1.61,20.77,6.47,30.23.26.5.15,1.11-.26,1.5-4.81,4.55-7.77,10.01-8.9,16.37-1.57,8.86-.97,17.22,1.8,25.08,2.09,5.92,4.6,12.29,8.27,17.14l10.61,15.87,10.35,14.78c.77,1.11.94,2.52.43,3.77-2.49,6.08-10,23.62-10.19,24.05l-13.33,26.8c-13.21-7.86-23-11.45-25.76-12.39-.03-.06-.07-.12-.1-.18-.23,0-.47-.02-.7-.08-25.02-6.86-49.48-4.97-73.37,5.67-16.22,7.22-30.8,17.07-44.91,28.02-39.49,30.64-77.13,65.06-110.82,99.62-13.21,13.54-25.01,26.52-35.4,38.95-11.74,14.04-23.36,29.09-34.86,45.15-5.63,7.86-11.8,17.19-18.52,27.97-20.81,33.4-37.85,67.73-49.51,104.18-8.09,25.24-12.71,50.9-11.59,76.76.91,20.9,6.14,39.97,12.71,58.64,1.01,2.87,1.3,5.29.86,7.28-.07.33-.2.64-.38.92-4.7,7.32-13.7,11.98-22.03,13.68-5.95,1.21-11.65.93-17.09-.86-1.24-.41-3.13-1.41-5.66-2.98-5.9-3.66-13.51,1.38-11.6,8.44,1.4,5.2,7.21,8.95,11.78,11.03,7.18,3.27,14.78,4.4,22.81,3.39.52-.07.88.5.59.94-.71,1.1-1.53,2.12-2.47,3.04-11.91,11.85-26.5,20.17-43.6,18.67-4.53-.4-8.55-1.5-12.06-3.29-1.16-.59-4.2-2.78-9.12-6.54-.21-.16-.43-.29-.67-.39-3.93-1.7-8.62-1.12-10.76,2.96-3.83,7.32,7.49,17.59,12.51,20.74,3.05,1.91,5.04,3.36,7.88,4.63,13.36,5.97,27.29,8.61,41.81,7.93,20.14-.95,38.81-6.91,56.01-17.89,4.89-3.12,8.57-6.34,13.67-10.28,1.61-1.25,5.33-4.99,11.18-11.23,1.2-1.28,3.05-2.15,5.57-2.59.35-.05.71-.05,1.07.02,11.59,2.35,19.35,3.84,23.28,4.47,36.13,5.82,71.87-1.14,103.99-18.01,13.03-6.85,24.25-13.66,33.64-20.43,20.7-14.94,40.25-31.01,58.65-48.22,16.48-15.42,34.13-33.58,52.93-54.48,19.03-21.16,37.05-43.15,54.04-65.97,21.41-28.75,41.02-59.33,58.54-90.28,9.22-16.27,17.4-32.58,24.54-48.92,5.85-13.38,11.25-28.52,13.65-43.87,3.41-21.79.53-42.41-8.57-61.89-4.45-7.22-9.08-13.86-13.8-19.98l24.42-19.93c.38-.28,15.83-11.48,21.21-15.25,1.11-.78,2.52-.93,3.78-.42l16.7,6.83,17.82,6.84c5.53,2.51,12.31,3.56,18.54,4.28,8.28.97,16.57-.29,24.86-3.78,5.95-2.5,10.62-6.6,14-12.3.29-.49.86-.73,1.4-.59,10.3,2.65,20.61,2.53,30.92-.36,2.84-.8,5.62-1.93,8.26-3.35,10.02-5.4,16.88-15.24,19.15-26.39ZM604.25,140.69l7.73-3.59c.92-.42,1.61-1.2,1.94-2.13,4.13-11.85,15.04-21.09,28.04-18.9,2.67.46,4.29,1.67,6.94,2.88.42.18.85.29,1.3.32,3.81.18,6.66-.93,8.55-3.34,7.02-8.93,15.33-14.23,24.93-15.9,7.13-1.24,13.65-.37,19.56,2.6,11.29,5.67,18.48,17.82,16.1,30.58-1.01,5.46-3.39,10.45-7.14,14.97-2.18,2.63-4.57,4.5-7.67,6.99-2.86,2.32-4.5,5.5-4.38,8.88.04,1.19.76,2.92,2.16,5.19,3.61,5.87,3.95,11.97,1.03,18.3-3.34,7.23-11.05,12.2-18.75,13.75-6.81,1.37-13.77,1.52-20.89.42-2.48-.38-4.97.49-7.47,2.61-.7.6-1.86,2.58-3.46,5.93-2.63,5.51-6.64,9.38-12.01,11.62-9.2,3.83-22.28,2.15-32.17-.79-4.83-1.42-9.16-3.04-13.72-3.74-2.42-.37-4.51-.51-5.25-1.29-.19-.21-.19-.54.03-.73,6.56-5.74,13.52-11.13,20.87-16.19.31-.22.7-.27,1.06-.15,4.05,1.44,8.99,2.3,14.8,2.59,8.05.41,13.06.59,15.02.53,3.06-.08,7.29-.61,7.58-4.34.25-3.31-1.39-5.24-4.93-5.79-6.79-1.07-13.49-1.81-20.09-2.23-.46-.03-.62-.63-.23-.88,7.95-5.38,17.16-11.2,27.62-17.46,1.67-1,2.65-2.72,2.94-5.17.59-5.04-4.36-5.77-8.09-4.34-2.06.8-4.42,1.93-7.06,3.41-9.15,5.11-17.73,10.1-25.71,14.95-.36.21-.81-.07-.76-.49.4-3.57,1.01-7.12,1.83-10.66.65-2.78.48-5.06-1.95-6.71-3-2.06-6.98.11-7.82,3.11-1.85,6.49-2.52,13.27-2.02,20.34.04.58-.21,1.14-.68,1.49l-23.05,17.11c-.22.16-.52.05-.6-.21-4.9-16.97-3.46-34.52,8.52-47.4,2.94-3.17,6.67-4.28,10.47-5.76.83-.32,1.56-.84,2.11-1.52,1.39-1.67,2.36-3.84,2.89-6.51.2-1.05.89-1.92,1.86-2.37ZM548.66,275.79c-4.04,3.62-7.04,6.43-9.01,8.44-2.54-2.78-5.08-5.41-7.61-7.92l22.6-24.72c.33-.33,13.99-13.66,18.77-18.17.98-.93,2.36-1.29,3.67-.96l10.46,2.59c.31,2.94.79,5.9,1.45,8.86.15.69-.14,1.41-.74,1.79-13.97,8.94-27.17,18.97-39.6,30.1ZM541.94,179.9c-.27.03-.48-.22-.41-.48l7.66-27.66c.16-.56.59-1,1.15-1.17,6.78-2.08,12.86-5.15,18.25-9.21,2.5-1.87,3.09-6.36.09-8.42-2.42-1.67-4.61-1-6.96.6-3.01,2.04-6.1,3.89-9.29,5.55-.37.2-.8-.13-.73-.54,1.65-9.2,3.22-18.99,4.69-29.37.42-3,.64-5.61.64-7.82,0-3.99-2.47-8.34-6.96-5.98-2.18,1.15-3.44,2.68-3.77,4.6-2.07,12.02-4.19,22.7-6.34,32.06-.1.45-.72.52-.91.1-2.76-6-5.87-11.98-9.31-17.94-1.79-3.1-4.19-3.94-7.18-2.51-3.38,1.61-2.35,5.75-1.32,8.63.65,1.85,2.62,6.46,5.91,13.82,2.36,5.32,4.95,9.61,7.75,12.87.24.29.34.67.24,1.04-2.07,8.68-4.6,17.12-7.59,25.3-.1.27-.4.4-.67.29-1-.41-1.88-2.31-3.1-4.43-2.29-4-5.36-7.47-8.43-11.46-6.3-8.17-12.58-19.77-12.32-29.73.16-5.82,2.33-10.95,6.52-15.39,2.55-2.7,3.98-4.49,4.28-5.36,1.08-3.1,1-5.74-.25-7.91-3.58-6.24-5.96-12.79-7.13-19.64-1.32-7.75.53-16.73,6.07-22.44,4.85-5,10.66-6.88,17.44-5.63,2.62.49,4.5.54,5.62.15,3.2-1.11,5.57-3.78,6.71-7.29,1.21-3.79,2.1-6.7,3.76-9.67,2.87-5.12,6.67-9.14,11.39-12.05,11.05-6.82,24.97-4.48,34.33,4.01,4.9,4.44,8.06,10.21,9.47,17.31,1.9,9.56-.05,19.22-5.86,28.98-1.57,2.63-1.58,5.69-.03,9.18.19.41.44.78.77,1.1,2.08,2.03,3.8,3.11,5.19,5.43,6.73,11.34,2.04,24.84-7.53,32.97-.75.64-1.22,1.57-1.29,2.58l-.56,8.5c-.02.26-.07.5-.14.74-1.93.56-3.9,1.05-5.78,1.87-4.53,1.99-8.08,4.32-10.67,6.98-8.19,8.42-13.54,18.7-16.05,30.84-.2.96-.38,1.92-.54,2.88-5.26,1.96-10.93,3.18-16.82,3.7ZM514.75,244.99c8.11-14.58,14.98-29.67,20.61-45.27.25-.67.88-1.11,1.59-1.12,7.31-.02,14.32-1.04,21.05-3.02.63,6.77,2.2,13.45,4.73,20.06.25.66.07,1.41-.47,1.88-12.53,10.87-24.13,22.72-34.81,35.53-4.3,5.16-7.2,8.86-8.71,11.12-3.57-2.98-7.07-5.71-10.46-8.19,1.54-2.36,3.7-6.02,6.47-11.01ZM556.57,365.37c-.26,9.42-2.75,20.01-5.87,29.95-2.34,7.42-6.5,17.93-10.23,25.79-11.57,24.41-23.46,46.56-35.68,66.44-31.8,51.77-68.71,100.12-110.73,145.06-30,32.08-62.77,62.14-98.64,86.98-15.18,10.51-32.23,19.65-50.88,26.2-23.36,8.21-48.16,9.68-72.57,5.28-10.11-1.83-16.49-2.94-19.13-3.33-5.79-.86-11.14-.12-16.04,2.22-2.06.98-4.5,2.93-7.31,5.85-2.69,2.8-5.12,5.24-7.28,7.34-12.05,11.7-25.98,19.38-41.78,23.04-.47.11-.85.12-1.12.03-.3-.11-.36-.5-.11-.69,16.29-11.78,28.77-26.85,37.45-45.22,2.84-6,3.96-11.61,3.37-16.81-1-8.96-4.6-17.79-7.57-27.17-7.39-23.36-8.38-47.96-4.24-72.18,2.39-13.96,5.98-27.83,10.76-41.61,7.39-21.32,16.85-42.55,28.38-63.69,18.1-33.19,38.77-63.28,62.3-92.55,12.83-15.96,28.05-32.82,45.66-50.58,16.58-16.72,32.96-32.48,49.13-47.26,20.01-18.3,41.51-36.03,64.48-53.21,11.25-8.41,24.76-16.89,38.3-21.98,23.41-8.82,48.87-7.03,71.23,3.9,21.07,10.31,39.57,25.45,54.34,43.62,15.31,18.83,24.42,40.15,23.77,64.6ZM711.66,247.4c-6.94.37-13.85-.5-20.73-2.61-2.39-.74-4.99-.24-7.77,1.5-.78.49-2.21,2.28-4.28,5.36-3.41,5.07-7.93,8.32-13.57,9.76-9.65,2.45-22.35-1.11-31.71-5.45-4.57-2.11-8.63-4.34-13.03-5.69-2.34-.72-4.38-1.16-5.01-2.04-.16-.24-.11-.56.14-.72,2.68-1.73,5.41-3.39,8.18-5.01,2.8.12,5.62.09,8.34.01,8.33-.24,16.35-2.7,24.05-7.36,5.53-3.34,9.55-8.08,12.06-14.2.22-.52.74-.84,1.3-.78,10.58,1.13,20.76-.49,30.54-4.85,2.7-1.2,5.28-2.72,7.68-4.51,9.13-6.8,14.49-17.53,15.11-28.9l.92-16.82c-.19-.6.14-1.08.58-1.3,4.61-4.72,8.14-10.03,10.58-15.65,3.4.89,6.54,2.33,9.42,4.36,10.34,7.25,15.7,20.31,11.49,32.6-1.79,5.25-4.87,9.84-9.24,13.77-2.54,2.28-5.18,3.79-8.6,5.81-3.17,1.88-5.25,4.79-5.63,8.15-.13,1.18.33,3,1.39,5.45,2.72,6.34,2.17,12.42-1.64,18.25-4.35,6.67-12.7,10.46-20.55,10.88Z"/>
      <path class="cls-1" d="M458.94,356.4c-3.77-.36-7.45,2.39-7.54,6.43-.05,2.29.54,4.04,1.77,5.24,5.98,5.82,15.24,13.76,27.79,23.82,12.55,10.05,22.32,17.37,29.3,21.94,1.44.94,3.27,1.14,5.5.59,3.93-.97,5.8-5.15,4.63-8.76-.64-1.94-2.18-3.79-4.63-5.55-6.89-4.95-15.43-11.5-25.62-19.67-10.18-8.16-18.44-15.06-24.77-20.71-2.25-2.01-4.39-3.12-6.43-3.32Z"/>
      <path class="cls-1" d="M464.21,428.09c-3.02-2.42-7.43-1.92-9.85,1.1l-.23.28h0c-2.42,3.02-1.92,7.43,1.1,9.85l35.3,28.2c3.02,2.42,7.43,1.92,9.85-1.1l.23-.28c2.42-3.02,1.92-7.43-1.1-9.85l-35.3-28.2h0Z"/>
      <path class="cls-1" d="M236.47,590.1c-5.98-5.82-15.24-13.76-27.79-23.82-12.55-10.05-22.32-17.37-29.3-21.94-1.44-.94-3.27-1.14-5.5-.59-3.93.97-5.8,5.15-4.63,8.76.64,1.94,2.18,3.79,4.63,5.55,6.89,4.95,15.43,11.5,25.62,19.67,10.18,8.16,18.44,15.06,24.77,20.71,2.25,2.01,4.39,3.12,6.43,3.32,3.77.36,7.45-2.39,7.54-6.43.05-2.29-.54-4.04-1.77-5.24Z"/>
      <path class="cls-1" d="M235.27,528.98l.23-.28h0c2.42-3.02,1.92-7.43-1.1-9.85l-35.3-28.2c-3.02-2.42-7.43-1.92-9.85,1.1l-.23.28c-2.42,3.02-1.92,7.43,1.1,9.85l35.3,28.2c3.02,2.42,7.43,1.92,9.85-1.1Z"/>
    </g>
  </g>
</svg>