<?xml version="1.0" encoding="UTF-8"?>
<svg id="Capa_2" data-name="Capa 2" xmlns="http://www.w3.org/2000/svg" viewBox="0 0 900.56 458.64">
  <defs>
    <style>
      .cls-1 {
        fill: #fef1d1;
      }
    </style>
  </defs>
  <g id="Capa_1-2" data-name="Capa 1">
    <g>
      <path class="cls-1" d="M67.91,263c-7.31,3.66-14.32,9.75-19.19,18.88v-22.23H0v136.12h48.72v-58.17c0-7.31.61-21.62,10.96-31.06,7-6.4,15.84-7.31,22.23-7.31,11.88,0,18.57,3.65,21.01,4.87v-45.99c-6.39-.3-8.53-.61-9.74-.61-9.14,0-17.97,1.52-25.27,5.48Z"/>
      <path class="cls-1" d="M229.93,272.75c-5.78-6.39-18.88-17.66-40.8-17.66-19.49,0-37.46,7.61-49.03,19.18-10.96,10.96-21.01,28.93-21.01,54.51,0,20.4,6.39,35.93,19.49,49.94,16.45,17.35,34.41,21.62,49.03,21.62,13.4,0,31.06-3.96,42.33-19.49v14.92h48.72v-136.12h-48.72v13.09ZM222.32,349.49c-6.09,6.09-14.01,9.44-21.93,9.44s-16.75-4.26-21.93-9.14c-6.09-5.78-9.44-14.32-9.44-22.23,0-7,3.04-15.84,9.75-22.23,7-6.7,15.23-8.83,21.32-8.83,10.35,0,17.35,4.57,21.92,8.83,7.61,7.31,9.44,15.84,9.44,22.23,0,10.96-4.87,17.66-9.14,21.93Z"/>
      <path class="cls-1" d="M254.1,180.34c-4.77,0-11.21,1.67-16.69,6.91-5.25,5.01-7.63,11.92-7.63,17.4,0,6.2,2.62,12.87,7.39,17.4,4.05,3.81,10.73,7.15,17.16,7.15s12.4-2.62,17.17-7.39c3.34-3.34,7.15-8.58,7.15-17.17,0-5-1.43-11.68-7.39-17.4-3.58-3.34-9.06-6.91-17.16-6.91Z"/>
      <path class="cls-1" d="M405.07,267.71c-10.05-12.79-24.66-19.49-41.72-19.49s-35.63,7-48.42,19.79c-11.27,11.27-20.71,29.23-20.71,52.68,0,29.54,14.92,46.9,21.93,53.9,15.23,14.92,32.89,18.88,46.59,18.88,8.83,0,27.1-1.83,42.33-17.67v82.83h48.72v-205.86h-48.72v14.92ZM397.15,342.92c-5.78,5.78-13.7,9.14-21.92,9.14s-16.14-3.35-21.62-9.14c-5.18-5.18-9.44-13.4-9.44-21.62,0-7.61,3.35-16.45,9.44-22.54,5.48-5.79,13.09-9.14,21.62-9.14s16.14,3.35,21.92,9.14c6.09,6.09,9.44,14.92,9.44,22.54s-4.26,16.44-9.44,21.62Z"/>
      <path class="cls-1" d="M598.51,328.91c0,6.09-.91,13.08-7,19.17-5.48,5.18-11.26,5.78-17.34,5.78s-12.17-.92-17.04-5.18c-6.39-5.78-7.31-14.3-7.31-19.78v-107.41h-.11s0-83.06,0-83.06c0-13.05-.61-25.8-12.75-37.95-8.2-8.2-20.95-14.57-40.07-14.57-8.5,0-18.52,1.21-27.93,6.68-5.77,3.34-11.54,8.8-15.18,13.36V3.34h-48.57v221.32h48.57v-72.86c0-10.93,3.95-18.22,8.2-22.16,5.46-4.86,12.45-5.77,17.61-5.77,4.86,0,10.93.61,15.48,5.77,5.46,6.07,6.07,16.39,6.07,26.41v68.61h0v113.07c0,13.08,2.44,25.26,12.78,36.21,16.13,17.34,41.08,19.47,61.47,19.47,18.56,0,41.99-1.83,58.72-19.17,12.17-12.48,13.08-24.95,13.08-36.51v-84.89h-48.68v76.07Z"/>
      <path class="cls-1" d="M749.81,255.69c-26.8,0-44.46,8.83-55.73,19.79-11.88,11.57-20.4,29.84-20.4,52.68,0,25.88,11.27,42.63,20.1,51.47,16.75,16.75,38.37,20.71,56.34,20.71,29.54,0,45.37-9.14,55.42-18.88,10.05-9.74,14.32-20.4,16.45-28.02h-46.59c-2.13,4.26-5.48,7.31-8.53,9.14-6.09,3.35-14.62,3.66-15.84,3.66-10.96,0-17.06-3.66-20.1-6.7-5.78-5.78-8.53-15.53-8.53-22.84h101.4v-5.17c0-15.23-2.43-38.98-21.62-57.25-16.14-15.23-36.54-18.58-52.38-18.58ZM723.92,308.68c.91-6.09,3.96-10.96,7.31-14.62,5.18-5.18,11.57-7.31,19.8-7.31,4.87,0,13.7.91,20.1,7.31,3.65,3.65,6.7,9.44,7.92,14.62h-55.12Z"/>
      <rect class="cls-1" x="851.84" y="173.77" width="48.72" height="222"/>
      <path class="cls-1" d="M350.26,229.21c10.02,0,20.65-1.22,33.7-7.59v-40.68c-8.8,7.59-17.91,9.11-24.89,9.11-12.45,0-20.34-5.46-24.89-10.32-5.77-6.38-8.5-15.18-8.5-22.77s2.73-16.7,9.41-23.38c4.86-4.86,12.14-9.41,23.68-9.41,10.32,0,18.82,4.25,25.2,8.8v-40.68c-12.14-6.07-23.07-7.59-31.57-7.59-23.07,0-41.89,8.5-54.65,20.65-13.66,13.36-21.86,32.48-21.86,52.52s8.2,38.25,20.95,50.7c9.71,9.41,27.02,20.65,53.43,20.65Z"/>
      <path class="cls-1" d="M647.16,229.21c29.45,0,45.24-9.11,55.25-18.82,10.02-9.71,14.27-20.34,16.39-27.93h-46.45c-2.13,4.25-5.46,7.29-8.5,9.11-6.07,3.34-14.57,3.64-15.79,3.64-10.93,0-17-3.64-20.04-6.68-5.77-5.77-8.5-15.48-8.5-22.77h101.09v-5.16c0-15.18-2.43-38.86-21.56-57.08-16.09-15.18-36.43-18.52-52.22-18.52-26.72,0-44.33,8.8-55.56,19.74-11.84,11.53-20.34,29.75-20.34,52.52,0,25.81,11.23,42.5,20.04,51.31,16.7,16.7,38.25,20.65,56.16,20.65ZM628.34,123.26c5.16-5.16,11.54-7.29,19.73-7.29,4.86,0,13.66.91,20.04,7.29,3.64,3.64,6.68,9.41,7.89,14.57h-54.95c.91-6.07,3.95-10.93,7.29-14.57Z"/>
      <path class="cls-1" d="M764.64,21.55c-10.93,14.57-12.45,30.06-12.45,44.63v22.77h-17v39.77h17v95.94h48.57v-95.94h34v-39.77h-34v-19.13c0-6.68.3-17,5.47-22.77,2.13-2.43,6.37-5.16,13.66-5.16,2.73,0,8.5.61,15.18,4.55V4.55c-6.98-2.73-14.27-4.55-23.38-4.55-16.09,0-34.61,4.86-47.06,21.55Z"/>
    </g>
  </g>
</svg>