<?xml version="1.0" encoding="UTF-8"?>
<svg id="Capa_2" data-name="Capa 2" xmlns="http://www.w3.org/2000/svg" viewBox="0 0 900.56 161.3">
  <defs>
    <style>
      .cls-1 {
        fill: #fef1d1;
      }
    </style>
  </defs>
  <g id="Capa_1-2" data-name="Capa 1">
    <g>
      <g>
        <path class="cls-1" d="M13.64,101.28c-2.68,0-6.29.94-9.36,3.88-2.94,2.81-4.28,6.69-4.28,9.76,0,3.48,1.47,7.22,4.15,9.76,2.27,2.14,6.02,4.01,9.63,4.01s6.96-1.47,9.63-4.15c1.87-1.87,4.01-4.82,4.01-9.63,0-2.81-.8-6.55-4.15-9.76-2.01-1.87-5.08-3.88-9.63-3.88Z"/>
        <path class="cls-1" d="M67.6,128.69c5.62,0,11.58-.68,18.91-4.26v-22.83c-4.94,4.26-10.05,5.11-13.97,5.11-6.98,0-11.41-3.07-13.97-5.79-3.24-3.58-4.77-8.52-4.77-12.78s1.53-9.37,5.28-13.12c2.73-2.73,6.81-5.28,13.29-5.28,5.79,0,10.56,2.38,14.14,4.94v-22.83c-6.81-3.41-12.95-4.26-17.72-4.26-12.95,0-23.51,4.77-30.66,11.58-7.67,7.49-12.26,18.23-12.26,29.47s4.6,21.46,11.75,28.45c5.45,5.28,15.16,11.58,29.98,11.58Z"/>
      </g>
      <path class="cls-1" d="M125.68,85.17c0-6.13,2.21-10.22,4.6-12.44,3.07-2.73,6.98-3.24,9.88-3.24,2.73,0,6.13.34,8.69,3.24,3.07,3.41,3.41,9.2,3.41,14.82v38.5h0v.18h27.32v-1.95h-.06s0-46.6,0-46.6c0-7.32-.34-14.48-7.15-21.29-4.6-4.6-11.75-8.18-22.48-8.18-4.77,0-10.39.68-15.67,3.75-3.24,1.87-6.47,4.94-8.52,7.49V1.87h-27.26v124.18h27.26v-40.88Z"/>
      <g>
        <path class="cls-1" d="M433.37,51.52c-4.1,2.05-8.03,5.47-10.77,10.6v-12.47h-27.34v76.38h27.34v-32.64c0-4.1.34-12.13,6.15-17.43,3.93-3.59,8.89-4.1,12.47-4.1,6.66,0,10.42,2.05,11.79,2.73v-25.8c-3.59-.17-4.78-.34-5.47-.34-5.13,0-10.08.85-14.18,3.07Z"/>
        <path class="cls-1" d="M524.27,56.99c-3.25-3.59-10.59-9.91-22.89-9.91-10.94,0-21.02,4.27-27.51,10.76-6.15,6.15-11.79,16.23-11.79,30.59,0,11.45,3.59,20.16,10.94,28.02,9.23,9.74,19.31,12.13,27.51,12.13,7.52,0,17.43-2.22,23.75-10.94v8.37h27.34V49.65h-27.34v7.35ZM520,100.05c-3.42,3.42-7.86,5.3-12.3,5.3s-9.4-2.39-12.3-5.13c-3.42-3.25-5.3-8.03-5.3-12.47,0-3.93,1.71-8.89,5.47-12.47,3.93-3.76,8.54-4.95,11.96-4.95,5.81,0,9.74,2.56,12.3,4.95,4.27,4.1,5.3,8.89,5.3,12.47,0,6.15-2.73,9.91-5.13,12.3Z"/>
        <path class="cls-1" d="M622.54,54.16c-5.64-7.18-13.84-10.94-23.41-10.94s-19.99,3.93-27.17,11.11c-6.32,6.32-11.62,16.4-11.62,29.56,0,16.57,8.37,26.31,12.3,30.24,8.54,8.37,18.45,10.6,26.14,10.6,4.95,0,15.21-1.03,23.75-9.91v46.48h27.34V45.79h-27.34v8.37ZM618.1,96.37c-3.25,3.25-7.69,5.13-12.3,5.13s-9.06-1.88-12.13-5.13c-2.91-2.91-5.3-7.52-5.3-12.13,0-4.27,1.88-9.23,5.3-12.64,3.07-3.25,7.35-5.13,12.13-5.13s9.06,1.88,12.3,5.13c3.42,3.42,5.3,8.37,5.3,12.64s-2.39,9.23-5.3,12.13Z"/>
        <path class="cls-1" d="M731.08,88.51c0,3.42-.51,7.34-3.93,10.75-3.07,2.9-6.32,3.25-9.73,3.25s-6.83-.51-9.56-2.9c-3.59-3.24-4.1-8.02-4.1-11.1v-42.85h-27.32v47.8c0,7.34,1.37,14.17,7.17,20.32,9.05,9.73,23.05,10.93,34.49,10.93,10.41,0,23.56-1.03,32.95-10.76,6.83-7,7.34-14,7.34-20.49v-47.63h-27.32v42.68Z"/>
        <path class="cls-1" d="M815.98,47.43c-15.04,0-24.95,4.95-31.27,11.11-6.66,6.49-11.45,16.75-11.45,29.56,0,14.52,6.32,23.92,11.28,28.88,9.4,9.4,21.53,11.62,31.61,11.62,16.57,0,25.46-5.13,31.1-10.6,5.64-5.47,8.03-11.45,9.23-15.72h-26.14c-1.2,2.39-3.08,4.1-4.78,5.13-3.42,1.88-8.2,2.05-8.89,2.05-6.15,0-9.57-2.05-11.28-3.76-3.25-3.25-4.78-8.71-4.78-12.82h56.9v-2.9c0-8.54-1.37-21.87-12.13-32.12-9.06-8.54-20.5-10.42-29.39-10.42ZM801.45,77.16c.51-3.42,2.22-6.15,4.1-8.2,2.91-2.91,6.49-4.1,11.11-4.1,2.73,0,7.69.51,11.28,4.1,2.05,2.05,3.76,5.3,4.44,8.2h-30.93Z"/>
        <rect class="cls-1" x="873.23" y="1.46" width="27.34" height="124.56"/>
      </g>
      <path class="cls-1" d="M234.19,128.61c16.52,0,25.38-5.11,31-10.56,5.62-5.45,8.01-11.41,9.2-15.67h-26.06c-1.19,2.38-3.07,4.09-4.77,5.11-3.41,1.87-8.18,2.04-8.86,2.04-6.13,0-9.54-2.04-11.24-3.75-3.24-3.24-4.77-8.69-4.77-12.78h56.72v-2.9c0-8.52-1.36-21.8-12.09-32.03-9.03-8.52-20.44-10.39-29.3-10.39-14.99,0-24.87,4.94-31.17,11.07-6.64,6.47-11.41,16.69-11.41,29.47,0,14.48,6.3,23.85,11.24,28.79,9.37,9.37,21.46,11.58,31.51,11.58ZM223.63,69.16c2.9-2.9,6.47-4.09,11.07-4.09,2.73,0,7.67.51,11.24,4.09,2.04,2.04,3.75,5.28,4.43,8.18h-30.83c.51-3.41,2.22-6.13,4.09-8.18Z"/>
      <path class="cls-1" d="M300.11,12.09c-6.13,8.18-6.99,16.86-6.99,25.04v12.78h-9.54v22.31h9.54v53.83h27.26v-53.83h19.08v-22.31h-19.08v-10.73c0-3.75.17-9.54,3.07-12.78,1.19-1.36,3.58-2.9,7.67-2.9,1.53,0,4.77.34,8.52,2.56V2.55c-3.92-1.53-8-2.55-13.12-2.55-9.03,0-19.42,2.73-26.4,12.09Z"/>
    </g>
  </g>
</svg>