<?xml version="1.0" encoding="UTF-8"?>
<svg id="Capa_2" data-name="Capa 2" xmlns="http://www.w3.org/2000/svg" viewBox="0 0 687.78 787.92">
  <defs>
    <style>
      .cls-1 {
        fill: #fef1d1;
      }
    </style>
  </defs>
  <g id="Capa_1-2" data-name="Capa 1">
    <g>
      <path class="cls-1" d="M596.72,562.77c7.85,7.33,19.89,15.18,37.68,15.18,10.47,0,24.6-3.66,36.64-15.18,11.52-10.99,16.75-26.17,16.75-38.2,0-13.6-5.76-28.26-16.22-38.2-8.9-8.37-23.55-15.7-37.68-15.7s-27.22,5.76-37.69,16.22c-7.33,7.33-15.7,18.84-15.7,37.69,0,10.99,3.14,25.64,16.23,38.2Z"/>
      <path class="cls-1" d="M326.86,340.05c-3.22-.26-6.46-.42-9.68-.33-19.32.51-37.85,4.15-53.39,12.56-16.85,8.42-32.99,22.46-44.22,43.51v-51.23h-112.28v313.69h112.28v-134.04c0-16.84,1.4-49.82,25.26-71.57,16.14-14.74,36.5-16.84,51.23-16.84,15.95,0,27.79,2.84,36.02,5.76,9.09,3.23,18.46,5.46,28.07,6.25h0c3.72.3,7.47.49,11.2.37,19.04-.59,37.29-4.24,52.62-12.54,16.85-8.43,32.99-22.46,44.22-43.51v51.23h112.28V129.66h-112.28v134.04c0,16.84-1.41,49.82-25.27,71.57-16.14,14.74-36.5,16.84-51.23,16.84-15.46,0-27.08-2.67-35.27-5.5-9.59-3.31-19.47-5.74-29.58-6.57h0Z"/>
      <path class="cls-1" d="M417.2,470.67c-21.99,0-45.32,2.67-73.98,16.66v89.31c19.33-16.66,39.32-20,54.65-20,27.32,0,44.66,12,54.65,22.66,12.67,14,18.66,33.33,18.66,49.99s-6,36.66-20.66,51.32c-10.67,10.66-26.66,20.66-51.99,20.66-22.66,0-41.32-9.33-55.32-19.33v89.31c26.66,13.33,50.65,16.67,69.32,16.67,50.65,0,91.97-18.66,119.97-45.32,29.99-29.32,47.99-71.31,47.99-115.3s-17.99-83.98-45.99-111.31c-21.33-20.66-59.32-45.32-117.3-45.32Z"/>
      <path class="cls-1" d="M359.96,197.09c12.04,11.51,26.17,15.18,36.64,15.18,17.79,0,29.82-7.85,37.68-15.18,13.09-12.56,16.23-27.22,16.23-38.2,0-18.84-8.37-30.35-15.7-37.69-10.47-10.46-24.08-16.22-37.69-16.22s-28.78,7.33-37.68,15.7c-10.46,9.94-16.22,24.6-16.22,38.2,0,12.04,5.23,27.22,16.75,38.2Z"/>
      <path class="cls-1" d="M16.22,301.56c8.9,8.37,23.55,15.7,37.68,15.7s27.21-5.76,37.68-16.22c7.33-7.33,15.7-18.84,15.7-37.69,0-10.99-3.14-25.64-16.23-38.2-7.85-7.33-19.89-15.18-37.67-15.18-10.47,0-24.6,3.66-36.64,15.18C5.23,236.14,0,251.32,0,263.35c0,13.6,5.76,28.26,16.22,38.2Z"/>
      <path class="cls-1" d="M270.58,317.26c21.99,0,45.32-2.67,73.98-16.66v-89.31c-19.33,16.66-39.32,20-54.65,20-27.32,0-44.66-12-54.65-22.66-12.67-14-18.67-33.33-18.67-49.99s6-36.66,20.66-51.32c10.67-10.66,26.66-20.66,51.99-20.66,22.66,0,41.32,9.33,55.32,19.33V16.67C317.9,3.33,293.91,0,275.24,0c-50.65,0-91.97,18.66-119.97,45.32-29.99,29.32-47.99,71.31-47.99,115.3s17.99,83.98,45.98,111.31c21.33,20.66,59.32,45.32,117.3,45.32Z"/>
      <path class="cls-1" d="M327.82,590.83c-12.04-11.51-26.17-15.18-36.64-15.18-17.79,0-29.82,7.85-37.68,15.18-13.09,12.56-16.23,27.22-16.23,38.2,0,18.84,8.37,30.35,15.7,37.69,10.47,10.46,24.08,16.22,37.69,16.22s28.78-7.33,37.68-15.7c10.46-9.94,16.22-24.6,16.22-38.2,0-12.04-5.23-27.22-16.75-38.2Z"/>
    </g>
  </g>
</svg>