<?xml version="1.0" encoding="UTF-8"?>
<svg id="Capa_2" data-name="Capa 2" xmlns="http://www.w3.org/2000/svg" viewBox="0 0 612.6 935.33">
  <defs>
    <style>
      .cls-1 {
        fill: #fef1d1;
      }
    </style>
  </defs>
  <g id="Capa_1-2" data-name="Capa 1">
    <g>
      <path class="cls-1" d="M612.47,219.75c-.82-3.36-3.22-6.24-7.19-8.65-13.14-7.96-28.5-12.07-44.06-14.52-8.64-1.36-16.17-1.27-22.58.26-4.78,1.14-6.99,4.53-8.05,9.65-.54,2.63-3.22,13.45-8.04,32.46,0,.05-.01.11-.02.16v2.93c0,.49-.15.98-.42,1.39-3.08,4.58-2.7,8.95,1.15,13.11.22.24.31.57.25.89l-1.87,8.72c-.1.47-.78.5-.92.04-2.66-8.38-4.81-15.96-6.45-22.76-2.38-9.82-3.34-21.9-3.52-34.77-.06-4.25-.33-11.77-.81-22.55-1.62-36.79-12.17-70.61-31.65-101.46-20.12-31.89-47.88-55.84-83.28-71.83C375.17,3.85,350.85-1.3,330.17.29c-11.93.92-23.43,3.95-34.5,9.1-.41.19-.9.24-1.35.14-4.18-1.01-8.62-1.65-13.31-1.94-38.3-2.41-74.74,15.97-100.88,43.04-16.2,16.79-28.83,35.69-37.89,56.72-5.4,12.54-9.44,24.27-12.11,35.19-4.5,18.38-7.37,38.05-8.62,59.02-1.27,21.29-3.23,41.88-5.87,61.76-.62,4.67-1.61,9.93-2.95,15.79-1.89,8.25-3.18,13.44-3.87,15.58-3.38,10.42-5.71,17.42-7,21-2.85,7.91-4.89,14.98-6.1,21.21-3.25,16.62-3.56,36.31,4.48,51.38,9.95,18.62,25.53,30.37,46.75,35.26,1.93.44,11.02,2.45,14.65.84,1.13-.5,1.45-1.94.63-2.87-9.02-10.26-13.81-22.3-14.38-36.13-.2-4.82-.43-7.63.4-11.37.06-.25.41-.23.45.02,5.17,34.85,34.64,56.25,68.8,56.71,4.99.07,10.29-.16,15.9-.69.52-.05.95.42.85.94-1.33,7.17-2,13.84-2.02,20.02,0,1.56.4,6.05,1.21,13.48.39,3.58,1.17,8.02,2.35,13.32,2.4,10.77,5.97,22.41,10.73,34.9.52,1.37.8,2.96.82,4.76.03,2.28.07,7.66.14,16.12.04,3.95-.99,7.56-1.3,10.89-.03.34-.11.68-.25.99-.85,1.97-1.43,3.19-1.74,3.64-3.25,4.92-6.37,9.94-9.37,15.05-3.24,5.3-6.3,10.72-9.17,16.27-11.44,22.1-20.71,45.09-27.81,68.95-1.06,3.32-1.98,6.69-2.77,10.11-.72,3.08.34,5.5,3.16,7.27,1.45.9,2.79,1.73,4.09,2.52-2.63,8.71-5.13,16.79-7.48,24.22-3.31,10.44-7.16,20.73-12.64,29.34-.23.36-.5.67-.82.95-25.88,22.69-52.59,45.64-77.06,68.4-2.83,2.65-2.51,7-1.56,10.44.16.57-.14,1.16-.68,1.38-8.92,3.59-17.95,8.28-23.79,15.89-5.3,6.9-3.77,17.43-2.2,25.85,2.83,15.18,7.63,30.34,15.31,43,7.85,12.95,19.24,20.68,34.19,23.19,5.78.97,12.65.62,18.47.14,23.97-1.9,27.47-25.82,17.84-43.5-1.47-2.71-1.97-4.92-2.06-7.98-.02-.56.5-1,1.05-.88,2.85.63,3.82.37,6.36-1.45,19.88-14.09,39.94-28.18,60.17-42.29,8.54-5.95,16.75-11.83,24.64-17.64,11.78-8.68,21.85-19.33,30.2-31.95,12.43-18.77,24.9-38.86,37.43-60.25.89.07,1.78.15,2.67.22,14.65,23.69,27.36,43.97,39.24,64.53,2.48,4.31,4.94,9.19,7.37,14.63,6.59,14.74,10.28,23.81,16.59,38.51,15.36,35.69,25.24,58.68,29.64,68.96.1.23.23.45.4.63,1.98,2.14,4.62,2.76,7.91,1.85.3-.08.59.13.6.44.2,7.92,1.41,15.54,3.61,22.85,2.71,9.04,7.68,16.35,17.97,16.54,8.57.15,17.48-.77,26.73-2.75,14.79-3.16,29.62-8.03,44.48-14.59,9.78-4.31,20.01-9.79,28.22-17.36,5.24-4.84,6.96-10.74,5.19-17.7-3.3-12.85-11.25-20.58-23.85-23.19-5.13-1.06-11.95-.79-20.45.82-.21.04-.43.03-.65-.02l-4.13-1c-.35-.09-.46-.52-.21-.76,3.78-3.58,4.39-5.45,2.32-10.63-10.83-27.11-20.95-53.89-30.36-80.35-9.78-27.49-20.39-53.9-29.75-76.65,1.51-.63,3-1.29,4.48-1.98l.99-.46c2.54-1.17,3.94-3.94,3.38-6.68v-.06c-2.25-10.91-4.93-23.49-8.07-37.76-.06-.29.22-.53.5-.43,17.99,6.59,36.36,10.72,55.1,12.39,7.79.69,16.16.18,23.5-1.28,12.03-2.39,18.02-12.29,20.78-23.52,4.67-19.02,9.96-39.71,15.89-62.08,2.73-10.32,5.47-21.38,8.25-33.17.11-.47.53-.81,1.02-.81,4.54.01,8.8-1.32,12.78-4,10.93-7.36,16.49-19.45,18.27-32.5,1.6-11.83-1.84-27.6-14.67-31.76-.32-.1-.5-.43-.42-.76,1.07-4.52,3.15-12.92,6.26-25.21,2.71-10.7,4.63-21.29,5.76-31.78,1.85-17.16.04-33.62-3.66-49.44-2.28-9.77-3.8-16.48-4.56-20.13-3.59-17.15-3.38-34.16.62-51.04,1.45-6.11,2.55-10.64,3.31-13.58.08-.32.33-.56.64-.67,5.46-1.87,8.05-5.72,7.76-11.57-.01-.34.04-.67.17-.99.41-.99,1.05-1.87,1.38-2.93,1.18-3.71,3.59-12.3,7.22-25.78,1.45-5.38,2.33-9.3,2.63-11.75.07-.56.03-1.14-.1-1.7ZM227.04,304.87c-12.81,6.82-28.43,3.65-38.97-5.86-9.26-8.36-13.42-18.87-12.47-31.51,1.33-17.54,17.61-28.01,33.93-20.05.52.25.87.77.91,1.35.11,1.56.29,2.95.52,4.17,3.46,17.93,8.91,34.93,16.36,51.01.15.33.02.71-.29.89ZM236.47,235.56c.06-.62.28-1.22.63-1.74,15.49-22.61,27.18-47.5,37.15-73.92,9.67-25.59,16.96-44.01,21.89-55.24,0-.01,2.67-6.05,8.01-18.11.22-.49.88-.6,1.25-.21.67.7,1.35,1.2,2.04,1.49.39.16.84.16,1.24,0,27.9-11.16,55.43-.42,79.02,15.08,12.71,8.35,24.81,18.23,36.29,29.65,17.32,17.24,32.47,36.26,45.43,57.05.2.34.34.71.41,1.1.74,4.15,2.49,11.26,3.55,17.77,2.62,16,5.34,30.91,8.16,44.74.15.76.18,1.46.07,2.11-.03.17-.26.21-.34.05-2.6-5.14-4.32-8.08-5.13-8.82-10.05-9.12-22.65-8.05-32.13,1.05-9.99,9.58-11.8,26.98-3.28,38.29,10.42,13.82,33.77,13.62,39.98-4.39.05-.15.2-.24.36-.21.15.03.26.17.25.33-.2,3.12-1.44,6.11-2.47,9.15-7.85,23.17-24.67,42.58-45.74,54.81-30.75,17.84-64.43,23.33-99.37,19.39-13.7-1.54-26.87-4.82-39.51-9.84-16.14-6.4-30.07-16.17-41.78-29.3-.5-.57-.91-1.23-1.17-1.93-6.13-16.2-11.59-33.28-13.59-50.56-1.61-13.96-2.48-25.51-1.24-37.82ZM452.22,411.74c8.48,4.22,18.02,8.02,28.6,11.42,28.27,9.09,56.33,15.47,84.17,19.13,5.4.71,11.27,1.05,17.61,1.01.41-.01.72.39.61.8l-.71,2.83c-.13.51-.59.87-1.13.86l-8.98-.16c-6.44-.4-12.86-1.08-19.26-2.03-30.21-4.47-59.58-12.11-88.12-22.93-2.29-.87-6.46-2.81-12.53-5.82-1.99-.63-2.31-2.26-.94-4.87.13-.24.43-.34.68-.22ZM445.1,408.59c-.38.68-1.14.97-1.68.66-.54-.31-.67-1.11-.28-1.78.38-.68,1.14-.97,1.68-.66.54.31.67,1.11.28,1.78ZM424.16,429.59c3.3,9.38,5.62,18.34,6.95,26.89.23,1.48.1,3.15-.38,5.03-6.6,25.87-14.04,55.83-22.31,89.87-.14.56-.63.96-1.22.97-4.98.06-9.93.85-14.86,2.36-.28.09-.58.07-.85-.05l-1.97-.92c-13.18-8.13-26.05-16.77-38.61-25.93-.36-.26-.42-.76-.14-1.11,3.73-4.49,6.49-11.69,4.23-17.31-1.5-3.74-3.13-7.25-4.87-10.52-.6-1.12-.88-2.39-.81-3.65.34-5.65.12-11.46-.65-17.42-1.74-14.43-4.23-26.72-7.46-36.87-3.09-9.74-5.17-16.45-6.22-20.14-.17-.59.1-1.22.64-1.51.59-.32,1.4-.44,2.43-.36,8.81.6,16.12.86,21.93.78,12.36-.18,23.07-.65,33-4.74,4.52-1.87,8.82-4.93,12.88-9.2,3.46-3.65,5.08-8.32,4.59-13.38-.04-.44.42-.76.83-.55,7.99,4.11,15.24,9.26,21.74,15.44,2.22,2.11,5.14,5.58,8.76,10.41.2.26.26.59.18.92l-6.12,24.04c-.09.36-.61.37-.71.01l-4.2-14.69c-.55-1.92-2.56-3.03-4.48-2.47l-.29.08c-1.66.55-2.56,2.37-1.97,4.03ZM430.47,590.3c4.77,2.66,9.54,5.1,14.3,7.31,4,1.85,3.45,6.48-.53,7.59-5.52,1.52-14.51-1.45-19.3-3.87-2.75-1.39-4.2-2.11-4.33-2.17-1.13-.49-2.5.11-3.1,1.37-.65,1.34-.36,2.43.85,3.26,6.67,4.58,13.74,6.94,21.24,7.08,1.2.02,1.68,1.56.71,2.27l-2.77,2.03c-1.68,1.23-3.76,1.79-5.83,1.57-7.13-.77-12.65-2.37-16.57-4.81-1.1-.68-2.54-.36-3.24.72l-.05.07c-.65,1.01-.26,2.36.83,2.86,5.22,2.42,9.78,3.9,13.68,4.44.6.08.65.93.07,1.09-1.13.32-2.55.53-4.26.63-1.99.12-3.43.14-4.31.06-15.39-1.52-28.5-7.7-39.35-18.54-.71-.71-1.82-1.23-3.33-1.56-7.32-1.63-14.61-3.2-21.89-4.69-12.56-4.22-23.07-8.3-31.54-12.26-11.99-5.61-22.34-14.15-31.06-25.63-2.72-3.56-4.51-7.34-7.06-10.61-.46-.59-.41-1.44.12-1.96,11.55-11.46,24.92-19.8,40.1-25.02,3.81-1.31,7.72-2.2,11.72-2.67.43-.05.86.15,1.1.52l7.88,12.24c.11.18.26.33.43.45,13.47,9.81,27.33,19.16,41.59,28.03,4.58,3.91,7.51.32,11.79-.34,9.21-1.44,18.44-1.13,27.7.91,3.32.74,8.15,3.2,4.37,7.3-3.01,3.25-8.35,3.99-12.74,4.93-1.09.23-1.89.98-2.41,2.26-1.77,4.39,12,13.36,15.18,15.13ZM272.96,553.16c1.65,1.85,3.18,1.96,4.59.34.32-.36.89-.36,1.2.01l2.07,2.5c.4.47.11,1.21-.51,1.28-3.15.34-7.17.32-9.72-1.64-1.54-1.18-2.52-2.13-2.96-2.85-4.02-6.56-8.05-14.38-12.08-23.48-.32-.72-.3-1.55.04-2.28,1.56-3.26,3.75-6.52,6.57-9.79,10.71-12.32,23.95-21.49,39.7-27.51,9.31-3.56,22.02-6.59,31.98-4.69,1.27.24,2.35,1.07,2.92,2.23l11.68,23.58c.03.07.06.13.07.2.82,3.67.16,7.03-1.97,10.09-.21.29-.63.29-.85.01l-2-2.73c-.25-.35-.14-.85.24-1.05,1.96-1,3.59-3.48,1.38-5.27-.57-.46-1.58-.72-3.04-.79-5.32-.26-11,.5-17.04,2.29-19.31,5.71-35.92,16.37-49.81,32-1.38,1.56-2.32,3.07-2.8,4.55-.5,1.18-.39,2.18.33,2.99ZM400.28,372.79c-1.8-.8-3.39,1.35-3.98,2.5-.25.5-1.01.31-.99-.25.06-1.57.17-3.35.33-5.35.11-1.38.98-1.84,2.6-1.37,1.82.53,6.13,4.16,6.04,6.74-.21,6.41-.31,12.84-.29,19.29,0,1.61-.39,4.08-1.48,5.42-5.46,6.74-11.12,9.13-19.06,11.54-.32.1-.65-.15-.65-.49.05-6.85,1-13,2.87-18.45.35-1.04,1.04-1.93,1.95-2.55,3.62-2.43,9.25-5.93,12.33-9.65,1.7-2.06,3.58-5.91.32-7.38ZM388.2,380.64c0,.67-.36,1.31-.96,1.64-6.78,3.84-10.06,9.82-9.83,17.94.01.32-.27.58-.59.56l-.75-.05c-.95-5.97-3.84-10.6-8.67-13.9-2.64-1.95-6.05-3.53-10.23-4.72-10.78-3.08-21.43-6.46-31.94-10.13-.31-.11-.48-.43-.4-.76v-.02c.07-.27.34-.43.61-.38,21.74,3.92,41.35,3.61,62.16-.3.3-.06.58.17.58.48v9.64ZM348.92,386.88c6.1,1.58,10.53,2.95,13.3,4.1,6.86,2.85,8.97,13.66,10.07,20.88.06.4-.22.77-.62.81-11.09.99-21.36-.84-32.69-4-13.21-3.69-25.82-9.53-37.83-17.52-4.07-2.71-7.87-5.64-11.39-8.79-.37-.32-.54-.82-.47-1.31l2.67-18.66c.07-.46.57-.71.98-.47,6.68,3.89,12.9,8,19.64,11.34,11.91,5.89,24.03,10.43,36.35,13.62ZM242.61,474.1c-3.45-16.73-3.82-35.43,1.67-51.29,5.49-15.88,16.03-27.89,31.61-36.06.73-.39,2.92-1.53,6.56-3.41.27-.14.61-.03.77.24,2.56,4.72,8.53,9.08,13.94,12.78,10.84,7.4,22.6,13,35.28,16.81.43.13.51.71.12.95-3.62,2.16-4.81,5.1-3.59,8.82,3.25,9.89,5.17,15.79,5.75,17.69,4.22,13.79,7.02,28.03,8.41,42.72.04.37-.47.53-.64.2-.52-1.01-1.11-1.9-1.77-2.68-.94-1.11-2.39-1.56-3.36-2.5-.26-.24-.45-.54-.57-.88-4.9-13.26-10.9-26.34-17.99-39.24-.89-1.62-2.86-2.33-4.58-1.62l-.17.07c-1.61.66-2.32,2.56-1.51,4.11,6.15,11.91,11.81,24.23,16.99,36.97.04.1-.03.2-.14.2-9.07-.22-17.81,1.08-26.23,3.92-15.25,5.13-28.77,13.33-40.57,24.6-2.64,2.52-4.98,5.3-7.02,8.36-.2.3-.64.3-.86,0-.5-.72-.56-2.57-1.03-3.75-4.75-11.96-8.43-24.3-11.06-37.02ZM202.28,660.09c4.14-14.86,9.1-29.48,14.88-43.86,5.58-13.39,9.37-22.02,11.39-25.88,6.97-13.39,14.23-25.98,21.76-37.76,2.1-3.28,2.69-5.42,2.89-9.29.04-.72,1.03-.91,1.32-.24,1.63,3.7,3.85,7.83,6.66,12.38,4.29,6.97,10.58,9.72,18.86,8.25,1.34-.24,2.68-.47,4.04-.69.35-.06.71.09.91.37,8.15,11.24,18.5,19.97,31.04,26.17.64.37.88.93.73,1.67-3.01,15.11-4.53,22.81-4.58,23.11-5.19,29.93-9.53,57.02-13.01,81.28-.08.58-.63.98-1.21.87-28.31-5.43-55.1-13.35-80.64-26.43-5.2-2.66-10.1-5.64-14.69-8.95-.31-.22-.44-.61-.34-.99ZM157.77,894.52c-1.83,4.58-5.22,7.47-10.17,8.67-14.56,3.5-33.03,1.01-43.45-11.08-3.8-4.41-6.53-8.26-8.21-11.55-6.59-12.91-10.9-27.39-12.92-43.46-.84-6.71-.03-12.93,5.71-17.09.31-.22.74.02.71.4-1.27,15.09,3.18,31.76,9.06,46.54,1.58,3.96,3.6,7.96,6.07,11.99,7.13,11.67,18.72,17.85,32.34,18.29,6.72.22,14.94-.23,20.27-3.23.34-.19.73.15.59.52ZM157.97,885.45c-7.74,4.42-16.95,5.13-25.72,3.67-14.56-2.43-22.03-13.43-27.22-26.52-4.44-11.2-7.16-22.86-8.17-35-.31-3.68-.07-7.63.71-11.85.12-.64.52-1.18,1.07-1.5l5.78-3.3c.37-.21.85-.04.98.36,2.86,8.16,7.09,15.86,12.69,23.12,8.62,11.16,19.69,18.87,33.2,23.13.46.15.75.59.7,1.08-.41,3.32-.07,6.75,1,10.28.08.27.19.52.33.76,3.04,5.44,5.04,9.35,5.19,14.81.01.39-.2.77-.54.96ZM280.38,754.11c-5.17,8.05-11.33,16.91-16.28,22.39-4.75,5.28-10.72,10.55-17.91,15.78-5.9,4.3-12.38,9.28-18.36,13.38-22.24,15.24-43.76,30.51-64.55,45.82-.27.2-.6.29-.93.27-4.22-.29-8.2-1.25-11.96-2.9-15.66-6.9-27.19-18.19-34.59-33.87-2.6-5.51-4.41-11.04-5.44-16.59-.07-.38.06-.78.34-1.04,24.05-22,48.04-43.17,71.99-63.5,6.91-5.88,9.92-11.17,13.28-19.51,5.36-13.29,9.77-27.17,13.81-40.66,2.32,1.32,4.25,2.34,5.73,3.04l15.62,7.37c25.5,10.54,52.51,17.96,79.59,21.16-10.21,16.96-20.33,33.26-30.34,48.86ZM542.77,889.09c-1,4.77-6.99,9.1-10.98,11.6-20.21,12.68-44.01,20.78-67.46,25.01-7.3,1.31-15.18,2.36-22.59.48-.37-.1-.7-.27-.98-.52-2.16-1.9-3.67-4.2-4.52-6.89-.07-.22.1-.44.33-.43,10.33.45,20.65-.64,30.96-3.29,15.83-4.06,31.02-9.74,45.57-17.04,6.72-3.36,12.42-6.29,17.11-8.78,3.3-1.75,6.74-3.04,10.32-3.86,2.39-.54,2.6,2.1,2.26,3.74ZM497.07,866.81c-2.48,1.53-4.42,3.4-5.83,5.63-.18.3-.27.64-.25.99.08,1.54.99,2.66,2.72,3.36.72.3,1.56.11,2.1-.46,5.22-5.52,11.4-8.58,18.53-9.19,10.06-.84,19.27,1.58,25.08,10.02.21.31.04.72-.33.8-4.55.86-9.21,2.66-13.62,4.8-5.75,2.77-17.16,9.06-25.05,12.48-16.8,7.26-34.46,12.99-52.48,15.13-4.18.5-8.47.46-12.86-.13-.73-.1-1.32-.63-1.48-1.34-1.13-4.89-1.72-9.87-1.76-14.92,0-.13.08-.25.2-.29,21.16-6.46,41.15-16.13,59.95-29.01.35-.24.8-.3,1.19-.14l3.81,1.5c.33.12.36.57.06.75ZM457.87,750.77c16.48,45.07,25.73,70.42,37.96,100.63.15.39.03.82-.31,1.08-16.51,12.07-34.32,21.86-53.44,29.35-6.16,2.41-12.48,4.35-18.96,5.82-.8.19-1.62-.24-1.93-1-16.52-39.25-31.05-73.39-43.6-102.42-3.05-7.06-6.35-13.59-9.89-19.61-11.03-18.74-22.76-38-35.17-57.77l15.99.48c27.39.04,55.37-3.58,81.66-11.46,1.76-.53,3.49-1.1,5.22-1.71,9.08,22.22,15.14,36.55,22.47,56.6ZM445.09,683.02c.12.55-.19,1.12-.73,1.31-29.54,10.31-61.02,16.02-92.59,16.13-10.1.04-16.64-.03-19.64-.2-9.02-.52-17.76-1.34-26.23-2.46-.2-.03-.33-.21-.3-.4,1.71-9.24,3.21-21.74,4.99-32.75,1.61-9.98,5.69-33.74,12.24-71.29.03-.19.23-.3.41-.22,16.16,7.17,33,12.37,50.52,15.62.42.08.82.29,1.12.6,9.12,9.47,19.47,14.01,32.18,17.51.61.17,1.2.42,1.73.77,7.88,4.96,16.69,9.3,26.43,13.03.4.15.69.49.79.92l9.09,41.44ZM539.92,617.03c-.97,3.71-2.12,8.08-3.47,13.12-1.82,6.77-5.12,14.53-12.62,16.7-11.52,3.35-25.04,2.18-36.77.34-21.75-3.44-42.84-9.84-63.27-19.2-.44-.2-.3-.88.19-.88,2.13-.01,3.98-.36,5.55-1.03.67-.29,1.45-.29,2.12.02,14.38,6.53,29.67,11.45,45.86,14.75,11.1,2.27,22.13,3.16,33.08,2.69,7.94-.34,16.47-2.52,19.69-10.75,1.28-3.28,2.6-8.14,3.95-14.56.18-.87.76-1.59,1.55-1.95l2.1-.97c1.13-.51,2.35.51,2.03,1.71ZM543.12,605.44l-.49,1.94c-.2.78-.88,1.34-1.67,1.39-6.97.46-11.99.55-15.04.27-22.02-1.98-44.04-6.45-66.06-13.41-13.18-4.18-23.79-9.26-34.33-16.33-.35-.23-.5-.68-.35-1.09.01-.03.22-.06.62-.07,5.99,2.83,10.47,4.81,13.42,5.92,18.61,7.05,37.66,12.59,57.16,16.6,8.4,1.73,16.83,2.99,25.3,3.78,9.01.95,14.72,1.19,17.11.75,1.31-.24,2.45-.47,3.42-.69.56-.12,1.06.39.92.95ZM565.75,515.59c0,.13-.03.26-.06.39l-21.69,85.21c-.07.26-.28.46-.54.5l-2.22.39c-6.41.3-11.09.31-14.04.02-33.21-3.26-65.19-11.42-95.94-24.49-.88-.25-1.24-.65-1.09-1.19.03-.13.12-.23.24-.28,4.03-1.85,6.56-4.74,7.61-8.65,3.18-11.91-14.56-14.88-22.2-14.61-.31.01-.54-.28-.47-.58,11.62-46.4,18.18-72.6,19.69-78.62,4.57-18.22,9.39-36.36,14.46-54.39,14.1,6.42,26.85,11.34,38.24,14.74,16.53,4.93,34.47,9.24,53.8,12.91,9.82,1.86,18.62,3.08,26.39,3.66l12.98.72c.21.02.36.22.31.43-4.7,19.12-7.4,29.84-8.1,32.14-.54,1.8-1.93,4.93-2.41,7.12-1.57,7.29-4.58,16.15-4.98,24.56ZM593.59,494.58c-.66,13.23-8.4,30.75-23.21,33.58-.37.07-.68-.29-.53-.64l3.02-7.2c.24-.59.31-1.25.21-1.88-1.24-7.24,2.48-13.77,3.83-20.82,1-5.24,2.13-9.19,3.4-11.85.07-.14.11-.29.14-.44l1.98-10.55c.16-.88,1.12-1.35,1.91-.95,7.35,3.69,9.62,13.36,9.24,20.76ZM587.32,366.93c2.99,13.68,3.92,26.69,2.8,39.03-.83,9.22-2.64,19.13-5.42,29.73-.16.61-.72,1.05-1.37,1.05h-2.74c-.58,0-1.02-.55-.87-1.12,1.64-6.22,2.84-11.49,3.62-15.83,2.95-16.56,2.78-33.5-.5-50.81-1.61-8.53-3.39-17.44-5.33-26.73-.88.89-1.47,1.87-1.78,2.96-.09.31-.31.57-.6.72-4.36,2.13-9.25,3.6-14.69,4.43-13.28,2.02-26.89,2.02-40.83,0-.55-.08-.8-.76-.44-1.24.16-.23.23-.43.21-.59-.03-.28-.36-.42-.58-.24-.34.28-.62.36-.87.24-6.08,10.85-12.52,20.04-19.31,27.58-7.32,8.12-13.04,16.38-17.16,24.78-.94,2.38-2.07,4.64-3.38,6.79-.46.76-.91,1.2-1.33,1.33-1.2.36-2.45-.64-2.6-2.09-.61-5.96,2.21-13.41,4.59-18.87,2.88-8.08,6.56-15.1,11.03-21.04,5.22-6.93,10.5-13.94,15.85-21.02l-10.76-5.04c-7.07,8.01-12.74,15.09-17,21.24-8.86,12.81-15.39,27.69-19.57,44.64-.14.54-.76.82-1.24.53l-2.62-1.51c-.48-.28-.73-.85-.6-1.39,3.06-13.79,8.2-26.67,15.43-38.61,8.8-14.57,21.75-27.4,32.63-41.33,15.3-19.58,23.17-40.84,28.66-65.4.07-.3.36-.49.66-.42,17.91,3.84,28.9,6.37,32.99,7.58,9.34,2.79,16.23,4.76,20.69,5.91.59.15.96.78.8,1.37-1.33,4.86-2.79,11.16-4.37,18.89-2.83,13.82-2.96,29.55-.79,42.55.42,2.48,2.69,13.14,6.81,31.96ZM594.04,264.39c-.26,1.62-1.21,2.78-2.87,3.48-.38.17-.83.17-1.22,0-16.54-6.94-34.49-11.32-52.52-14.59-1.97-.36-3.95-.32-5.95.12-1.04.23-2.21-.25-3-1.25-4.28-5.29,1.68-7.04,5.77-6.71,5.89.48,10.53,1.09,13.91,1.83,9.65,2.11,19.45,4.65,29.42,7.59,4.73,1.4,9.24,3.17,13.54,5.32,1.28.64,2.2,1.62,2.76,2.95.17.39.22.83.15,1.25ZM604.4,220.79c-.25.34-.75.52-1.5.53-6.77.15-13.36-.57-19.8-2.18-7.71-1.92-14.04-3.44-18.99-4.55-2.66-.59-4.57-1.58-6.6-2.28-.42-.15-.86-.22-1.3-.21-1.46.02-2.71.11-3.74.26-1.18.18-1.87,1.46-1.41,2.62.41,1.04,1.11,1.74,2.1,2.09,11,3.95,23.63,6.88,37.9,8.79,4.15.56,8.36.64,12.64.24.32-.03.58.27.49.58l-7.79,28.29c-.11.41-.59.58-.94.33-1.95-1.4-3.98-2.52-6.09-3.35-7.61-3.01-17.2-5.98-28.76-8.89-6.94-1.75-12.78-2.44-20.15-3.87-2.56-.5-5.95-.66-10.17-.48-.39.01-.68-.35-.59-.72l7.13-27.99c.14-.53.75-.8,1.23-.51l5.85,3.37c1.16.66,2.63.05,2.96-1.24l.25-1.02c.26-1.04-.27-2.11-1.26-2.53l-5.98-2.5c-.81-.34-.83-1.48-.03-1.84,1.75-.81,3.49-1.22,5.23-1.25,16.98-.25,34.99,4.33,50.24,10.97,3.3,1.44,6.2,3.19,8.72,5.26.66.54.82,1.45.35,2.06Z"/>
      <path class="cls-1" d="M401.95,177.17c.92.32,2.06.18,3.41-.41,5.7-2.51,11.31-3.96,17.38-3.86,6.07.11,11.62,1.76,17.23,4.48,1.33.64,2.46.82,3.39.53,2.54-.76,3.77-3.98,2.06-6.11-4.29-5.36-15.94-7.3-22.53-7.42-6.59-.12-18.3,1.4-22.79,6.61-1.78,2.07-.66,5.33,1.84,6.18Z"/>
      <path class="cls-1" d="M276.55,208.3c.31-.08.61-.24.86-.46,5.36-5.12,11.77-9.51,18.35-11.96,6.57-2.45,14.3-3.32,21.7-2.96.33.01.65-.06.95-.2,4.71-2.43,2.97-7.48-1.85-8.22-7.5-1.16-16.69.55-23.83,3.21-7.14,2.66-15.21,7.38-20.14,13.16-3.16,3.72-1.17,8.68,3.98,7.43Z"/>
      <path class="cls-1" d="M442.04,219.91c-1.66,10.62-12.49,16.56-22.44,12.76-2.51-.95-4.76-2.94-6.76-5.95-1.26-1.89-3.79-2.46-5.72-1.26l-.04.03c-2,1.24-2.65,3.85-1.46,5.88,8.4,14.45,26.69,14.46,37.96,3.96.93-.87,2.15-3.04,3.19-4.07.29-.29.76-.32,1.09-.07,2.06,1.53,6.62,4.08,9.02,2.21,2.86-2.23,1.82-5.33-.94-6.91-1.39-.8-3.09-1.62-5.11-2.47-.5-.21-.74-.8-.54-1.3.56-1.42.71-2.92.42-4.52-.46-2.62-3.18-4.66-5.74-3.24-1.84,1.03-2.55,2.48-2.94,4.95Z"/>
      <path class="cls-1" d="M304.98,256.15c-7.1-.3-12.67-3.93-16.71-10.89-.54-.94-1.55-1.51-2.63-1.5-3.78.03-5.44,1.93-4.98,5.72,0,.1.04.19.09.28l1.53,2.82c.31.58.18,1.3-.32,1.72l-5.78,4.81c-.14.12-.25.27-.33.44-1.18,2.67-.64,4.61,1.63,5.82,3.43,1.83,8.16-2.7,10.76-5.17.29-.27.74-.31,1.08-.08,5.51,3.72,11.78,5.43,18.8,5.13,11.16-.46,19.33-5.74,24.53-15.83.82-1.58,1.46-4.93,1.19-6.64-.63-3.92-5.2-4.39-7.73-1.86-.25.25-.44.58-.52.95-2.21,9.4-11.26,14.66-20.59,14.27Z"/>
      <path class="cls-1" d="M287.46,333.91c17.46-2.58,29.63-18.25,27.15-34.99-2.48-16.75-18.64-28.24-36.1-25.65-17.46,2.58-29.63,18.25-27.15,34.99,2.48,16.75,18.64,28.23,36.1,25.65Z"/>
      <path class="cls-1" d="M349.13,297.85c8.81,8.35,21.3,11.42,33.09,9.33,11.79-2.09,22.45-9.27,27.86-20.15,1.25-2.52,2.67-6.22.12-8.26-1.71-1.36-3.5-1.34-5.4.07-.26.2-.45.46-.57.77-4.01,10.32-12.48,17.57-23.44,19.51-10.96,1.94-21.41-1.94-28.72-10.26-.22-.24-.49-.42-.81-.52-2.26-.67-3.96-.07-5.09,1.79-1.69,2.78.92,5.78,2.96,7.71Z"/>
      <path class="cls-1" d="M409.3,436.46c-4,1-6.35,5.42-5.24,9.88,1.11,4.46,5.26,7.26,9.26,6.26,4-1,6.35-5.42,5.24-9.88-1.11-4.46-5.26-7.26-9.26-6.26Z"/>
      <path class="cls-1" d="M357.73,441.09c-4.18,1.62-6.16,6.59-4.41,11.09,1.75,4.5,6.55,6.83,10.74,5.21,4.18-1.62,6.16-6.59,4.41-11.09-1.75-4.5-6.55-6.83-10.74-5.21Z"/>
      <path class="cls-1" d="M454.79,470.72c.51,1.41,2.03,2.18,3.47,1.78,2.2-.62,4.38-1.67,6.54-3.16.26-.18.61-.12.81.14l4.15,5.66c.75,1.03,2.18,1.25,3.21.49l.25-.18c1.14-.84,1.39-2.44.56-3.58-2.14-2.96-3.75-5.4-4.16-8.54-.1-.76.71-1.28,1.36-.88,1.34.86,3.58,1.94,4.74.01.59-.97.87-1.72.82-2.23-.03-.32-.17-.63-.4-.87-1.19-1.19-2.75-1.81-4.67-1.85-.66-.02-1.04-.77-.65-1.31,1.38-1.96,1.01-3.46-1.12-4.49-2.87-1.38-3.41.98-4.23,3.02-.14.36-.56.54-.93.4l-2.69-1.02c-1.28-.48-2.7.14-3.21,1.4l-.16.45c-.5,1.41.29,2.95,1.73,3.34l3.1.86c.67.18.97.99.55,1.56-1.99,2.75-4.52,4.63-7.61,5.64-1.32.43-2.01,1.86-1.54,3.16l.06.18Z"/>
      <path class="cls-1" d="M478,479.11l.55.14c1.5.38,3.01-.55,3.33-2.05l1.18-5.49c.06-.27.33-.44.6-.37l2.28.62c1.14.31,2.34-.24,2.82-1.32,1.39-3.03-1.79-3.93-3.98-4.17-.29-.03-.48-.31-.4-.59l1.61-5.92c.4-1.49-.49-3.01-1.98-3.38l-.21-.05c-1.49-.38-3,.52-3.37,2.01l-4.34,17.38c-.35,1.41.5,2.84,1.91,3.19Z"/>
      <path class="cls-1" d="M494.33,468.26l9.31,2.26c.19.05.29.25.23.43-2.6,7.72-7.75,12.87-15.44,15.46-1.44.48-2.16,2.1-1.55,3.49l.07.17c.64,1.47,2.31,2.19,3.82,1.65,10.6-3.79,17.04-11.32,19.31-22.6.26-1.31-.54-2.6-1.83-2.92l-12.66-3.24c-1.38-.35-2.8.44-3.21,1.81l-.02.05c-.45,1.5.44,3.07,1.96,3.44Z"/>
      <path class="cls-1" d="M520.05,465.35l-.8-.2c-1.33-.34-2.67.46-3.01,1.79l-8.74,34.31c-.34,1.33.46,2.67,1.79,3.01l.8.2c1.33.34,2.67-.46,3.01-1.79l8.74-34.31c.34-1.33-.46-2.67-1.79-3.01Z"/>
      <path class="cls-1" d="M550.64,472.67c-8.38-1.64-14.18-2.8-17.39-3.48-1.21-.26-2.43.4-2.86,1.56v.04c-.43,1.08.21,2.29,1.35,2.54l14.25,3.17c.53.11.87.65.73,1.19l-.09.33c-.12.44-.57.72-1.02.61l-15.25-3.28c-.6-.13-1.21.24-1.37.84l-2.06,7.51c-.2.72.14,1.49.81,1.83,3.53,1.81,9.88,2.74,19.33,4.77,1.24.27,2.47-.47,2.81-1.7l.12-.45c.28-1.02-.35-2.07-1.39-2.3l-14.76-3.17c-.5-.11-.85-.58-.79-1.1l.03-.28c.08-.58.63-.97,1.21-.85,7.65,1.63,12.34,2.62,14.08,2.97,1.68.34,2.69-.31,3.02-1.95.26-1.26.65-2.85,1.19-4.76.55-1.99.2-3.62-1.93-4.04Z"/>
      <path class="cls-1" d="M476.92,494.03l2.95-10.03c.41-1.41-.39-2.89-1.8-3.3l-17.12-5.04c-1.41-.41-2.89.39-3.3,1.8l-2.95,10.03c-.41,1.41.39,2.89,1.8,3.3l17.12,5.04c1.41.41,2.89-.39,3.3-1.8ZM473.59,485.24l-1.09,3.95c-.08.31-.4.49-.7.41l-10.48-2.67c-.3-.08-.49-.38-.42-.69l.86-4.01c.07-.32.4-.52.71-.44l10.71,2.73c.31.08.5.41.41.72Z"/>
      <path class="cls-1" d="M550.08,493.09l-26.15-5.7c-1.27-.28-2.52.53-2.79,1.79l-.05.24c-.28,1.27.53,2.52,1.79,2.79l26.15,5.7c1.27.28,2.52-.53,2.79-1.79l.05-.24c.28-1.27-.53-2.52-1.79-2.79Z"/>
      <path class="cls-1" d="M544.48,499.24l-18.22-4.17h0c-1.34-.31-2.68.53-2.99,1.88l-1.89,8.26c-.31,1.34.53,2.68,1.88,2.99l18.22,4.17c1.34.31,2.68-.53,2.99-1.88l1.89-8.26h0c.31-1.34-.53-2.68-1.88-2.99ZM540.33,503.66l-.61,2.9h0c-.05.22-.27.37-.49.32l-11.33-2.39c-.22-.05-.37-.27-.32-.49l.61-2.9h0c.05-.22.27-.37.49-.32l11.33,2.39c.22.05.37.27.32.49Z"/>
      <path class="cls-1" d="M521.13,520.19c-2.43-.55-5.12,2.12-6,5.99-.89,3.87.37,7.45,2.79,8,2.43.55,5.12-2.12,6-5.99.89-3.87-.37-7.45-2.79-8ZM522.05,527.76c-.68,2.65-2.35,4.52-3.71,4.17-1.36-.36-1.91-2.79-1.22-5.44.68-2.65,2.35-4.52,3.71-4.17,1.36.36,1.91,2.79,1.22,5.44Z"/>
      <path class="cls-1" d="M498.97,567.2c-.43.49-.49,1.13-.15,1.43.34.29.96.13,1.39-.36.43-.49.49-1.13.15-1.43-.34-.29-.96-.13-1.39.36Z"/>
      <path class="cls-1" d="M462.05,507.17c.21-.61.02-1.21-.56-1.8-2.03-2.07-3.97-1.81-5.8.78-.71.99-.68,2.33.04,3.3l2.36,3.14c.62.84.52,2-.23,2.72l-.15.14c-.71.63-1.81.51-2.38-.26-.72-.99-1.09-1.5-1.13-1.53-.69-.47-1.59.19-1.34.99,1.57,4.95,8.01,3.96,7.45-1.39-.19-1.81-1.82-3.01-2.83-4.39-.82-1.11-.15-2.68,1.21-2.86.67-.09,1.3.33,1.89,1.26.38.59,1.26.54,1.47-.09Z"/>
      <path class="cls-1" d="M468.2,520.21l.09-.36c.15-.58-.27-1.16-.87-1.2-1.05-.07-2.01-.33-2.88-.8-.31-.17-.5-.5-.49-.86.04-.9.26-1.77.66-2.61.15-.31.49-.47.83-.38l3.25.83c.28.07.56-.15.56-.44v-.39c0-.59-.4-1.11-.98-1.26l-2.12-.54c-.61-.15-.99-.79-.84-1.4l.31-1.23c.14-.54.69-.87,1.23-.72l3.46.89c.42.11.84-.21.84-.65v-.31c0-.59-.4-1.11-.98-1.26l-4.42-1.13c-.64-.16-1.29.22-1.45.87l-2.7,10.6c-.19.76.26,1.52,1.02,1.71l4.59,1.18c.38.09.78-.14.88-.52Z"/>
      <path class="cls-1" d="M474.7,511.55c.55-.74,1.65-.76,2.24-.05l1.28,1.54c.33.4.98.29,1.16-.19.27-.7.08-1.4-.56-2.11-2-2.21-4-2.18-5.99.07-.81.91-.93,2.23-.31,3.26.46.77,1.38,1.92,2.77,3.44.66.73.91,1.46.73,2.19-.32,1.33-1.96,1.8-2.9.85-.11-.11-.63-.67-1.54-1.68-.55-.61-1.56-.12-1.42.68.98,5.6,8.75,4.08,7.77-1.82,0-.06-.03-.11-.07-.15l-3.35-4.04c-.4-.48-.42-1.19-.04-1.69l.24-.3Z"/>
      <path class="cls-1" d="M486.16,525.74h.29c.51-.03.93-.45.95-.98.11-3.91-.07-7.79-.52-11.64-.08-.7-.66-1.25-1.37-1.28-.24-.01-.47.07-.7.25-1.29,1.01-3.71,6.16-6.37,10.96-.2.36,0,.82.4.92l.39.06c.38.06.76-.1.99-.42l1.01-1.49c.31-.45.88-.65,1.4-.51l2.05.56c.5.14.85.59.85,1.11v1.81c0,.35.28.64.63.64ZM485.12,519.73l-.04.15c-.05.22-.27.35-.49.29l-1.29-.32c-.22-.06-.35-.28-.3-.5l.04-.15c.54-2.15,1.45-3.79,2.01-3.63h.04c.56.15.58,2.01.03,4.17Z"/>
      <path class="cls-1" d="M497.54,527.63c-.17.6.13,1.25.71,1.51l.23.1c.45.06.88-.24.97-.69.75-3.68,1.52-7.51,2.34-11.5.15-.76-.47-1.44-1.2-1.31-.38.07-.68.27-.93.61-1.18,1.66-2.42,3.6-3.72,5.82-.12.2-.42.15-.47-.07-.33-1.29-.5-3.25-.51-5.89,0-1.57-.59-2.38-1.76-2.42-.44-.01-.84.28-.96.7l-3.04,11.07c-.14.49.17,1,.66,1.1l.36.08c.46.1.93-.19,1.03-.65l1.33-6.18c.05-.26.29-.43.55-.4.26.02.46.24.46.5v4.35c0,1.24,1.6,1.72,2.29.7l2.34-3.42c.13-.19.38-.26.59-.16.2.1.31.33.25.55l-1.54,5.6Z"/>
      <path class="cls-1" d="M510.37,517.96l-4.4-1c-.61-.13-1.22.24-1.36.86-.21.6-.71,2.37-1.51,5.32-.8,2.95-1.26,4.73-1.38,5.36-.19.59.14,1.23.74,1.42l4.3,1.37c.57.18,1.2-.11,1.41-.67l.09-.23c.14-.53-.19-1.08-.73-1.2l-2.7-.6c-.6-.14-.97-.76-.81-1.35l.49-1.8c.16-.58.8-.89,1.35-.63,2.11.95,3.24.95,3.38.02.35-.88-.63-1.44-2.93-1.69-.6-.06-1-.64-.85-1.23l.49-1.8c.15-.6.79-.95,1.37-.77l2.64.85c.52.17,1.09-.13,1.23-.66l.04-.25c.1-.59-.28-1.16-.88-1.29Z"/>
      <path class="cls-1" d="M528.93,523.41c.12-.5-.18-1.01-.68-1.14l-.08-.02c-.5-.12-1.01.18-1.14.68l-2.81,11.27c-.13.5.18,1.01.68,1.14l.08.02h0c.5.13,1.01-.18,1.13-.68l2.81-11.27h0Z"/>
      <path class="cls-1" d="M533.91,535.17l-2.73-.39c-.43-.06-.72-.49-.61-.92l2.41-9.45c.1-.41-.1-.85-.49-1.02l-.44-.19c-.35-.15-.77.05-.86.42l-2.9,11.4c-.14.53.15,1.09.66,1.3,1.81.72,3.44,1,4.89.86.67-.06.92-.52.73-1.38-.07-.32-.33-.57-.66-.62Z"/>
      <path class="cls-1" d="M504.91,564.62c-3.46-2.55-7.4-3.37-11.81-2.46-.29.06-.49-.28-.3-.51,3.15-3.84,4.5-8.28,4.06-13.31-.19-2.2-1.07-3.91-2.62-5.13-.4-.32-.93-.44-1.44-.34-5.27,1.04-9.29,3.67-12.05,7.87-.22.33-.69.34-.93.02-1.65-2.35-3.75-4.55-6.3-6.6-5.08-4.09-6.1,6.63-6.15,9.76,0,.33-.26.61-.59.64-1.96.23-3.06,1.72-3.31,4.46-.85,9.41,6.02,18.07,16.09,14.48.34-.12.72.01.9.32,3.17,5.48,7.93,7.06,14.3,4.73,4.46-1.63,10.43-6.2,11.33-11.03.2-1.12-.24-2.25-1.16-2.92ZM481.54,566.09c-.08.82-1.23.92-1.45.13l-2.33-8.14c-.04-.15-.19-.25-.35-.23-.16.03-.27.16-.27.32.04,2.33,2.07,6.82.1,9.12-.3.35-.2.89.19,1.11l.68.39c.98.56.79,2.03-.3,2.33-8.69,2.34-13.05-5.8-11.7-13.17.14-.77,1.18-.9,1.5-.19l2.13,4.67c.11.23.39.34.62.23l.31-.14c.15-.07.22-.24.16-.39-1.14-2.9-1.9-11.37.33-15.54.15-.29.52-.37.79-.18,6.1,4.45,10.39,11.93,9.58,19.67ZM481.83,555.06c-.24-.5-.23-1.1.03-1.58,2.37-4.32,5.88-7,10.53-8.06.29-.07.6.05.76.3,2.92,4.49-.29,11.77-3.16,15.87-.4.58-2.18,1.66-5.33,3.26-.3.16-.66-.06-.66-.4,0-3.3-.73-6.42-2.18-9.38ZM503.52,567.82c-3.29,6.37-13.75,13.58-19.91,6.13-.14-.18-.08-.44.13-.53l6.87-2.99c.47-.21.51-.87.06-1.13l-.26-.15c-.11-.07-.25-.08-.38-.03l-5.95,2.34c-.74.29-1.35-.61-.82-1.19,4.42-4.72,9.58-6.7,15.48-5.94,1.56.19,2.99.72,4.29,1.58.63.42.85,1.24.49,1.91Z"/>
      <path class="cls-1" d="M470.18,565.2c-.39.32.06,1.55,1.03,2.74.96,1.2,2.06,1.9,2.46,1.59.39-.32-.06-1.55-1.03-2.74-.96-1.2-2.06-1.9-2.46-1.59Z"/>
      <path class="cls-1" d="M57.72,880.63c-.53-.12-4.96-1.04-13.29-2.75-12.9-2.65-25.65-7.5-38.24-14.55-.99-.56-2.26-.18-2.78.83h-.01c-.55,1.09-.26,2.4.7,3.12,4.24,3.21,9.32,6.2,15.26,8.99,11,5.17,23.05,8.56,36.17,10.16,1.69.2,3.29-.76,3.91-2.34l.05-.1c.56-1.42-.27-2.99-1.76-3.35Z"/>
      <path class="cls-1" d="M42,897.1c-13.62-.33-26.73-2.46-39.34-6.37-1.11-.35-2.28.3-2.58,1.43v.03c-.31,1.2.26,2.45,1.37,3,12.27,6.05,27.26,8.28,40.51,7.84.23,0,.46-.05.68-.14,2.02-.76,2.69-2.05,2.02-3.88-.42-1.12-1.47-1.87-2.66-1.9Z"/>
    </g>
  </g>
</svg>