<?xml version="1.0" encoding="UTF-8"?>
<svg id="Capa_2" data-name="Capa 2" xmlns="http://www.w3.org/2000/svg" viewBox="0 0 763.8 945.91">
  <defs>
    <style>
      .cls-1 {
        fill: #fef1d1;
      }
    </style>
  </defs>
  <g id="Capa_1-2" data-name="Capa 1">
    <g>
      <path class="cls-1" d="M334.74,896.07c.61-.17.95-.33,1.02-.5.17-.36.51-.68.95-.87,1.72-.74,3.51-2.16,5.37-4.25,1.22-1.38,2.22-2.47,3.01-3.27,9.34-9.47,14.18-24.21,15.18-37.04.45-5.73.71-8.92.76-9.58.46-5.24-.45-9.63-1.04-14.78-.07-.62-.91-.75-1.15-.18-3.54,8.36-8.69,15.28-15.46,20.76-4.47,3.61-8.99,6.47-13.57,8.59-4.22,1.96-9.36,3-15.42,3.14-1.34.03-3.11-.85-5.31-2.62-5.18-4.17-3.13-11,1.4-14.79.45-.37.99-.61,1.55-.69,14.3-2.16,25.94-13.07,28.53-27.05,2.71-14.59-2.81-29.2-14.75-38.27-.42-.31-.94-.45-1.45-.38-28.1,4.12-55.66,2.67-82.66-4.35-20.72-5.4-39.62-13.72-56.7-24.96-39.59-26.07-67.74-66.49-76.7-112.92-4.89-25.31-3.97-51.06,2.75-77.27,3.9-15.2,9.23-29.04,16.01-41.52,9.92-18.24,22.7-35.78,38.28-51.14,7.99-7.88,16.4-15.33,25.2-22.36.66-.53.95-1.39.77-2.2-3.88-16.86-10.85-31.73-20.89-44.6-9.78-12.53-27.81-25.59-44.17-23.48-5.25.69-12.7,2.68-17.85,2.9-21.3.84-39.07-9.08-49.52-27.35-6.54-11.42-7.89-25.12-4.41-37.75.1-.36-.08-.74-.41-.88-20.92-9.43-36.08-23.95-45.49-43.59-10.25-21.39-11.45-46.21-2.92-68.27,9.41-24.35,28.21-42.21,53.39-49.74,5.98-1.78,12.8-3.09,20.46-3.91,9.24-.99,20.19.43,32.84,4.24.28.08.55-.13.53-.41-.91-19.14,4.23-35.49,15.41-49.05,14.04-17.04,37.24-26.56,59.34-23.55,24.78,3.39,45.63,20.48,54.03,43.83.12.32.54.41.77.16,26.99-29.15,71.97-28.71,97.7,1.99,10.43,12.45,16.93,26.99,19.5,43.64,2.86,18.51,1.37,37.05-4.48,55.64-4.92,15.63-12.27,30.2-22.05,43.72-7.5,10.37-16.14,20.28-23.59,31.08-10.2,14.77-14.22,34.19-13.09,52.02.11,1.68.67,6.21,1.67,13.61,1.55,11.31,6.08,22.25,10.2,33.44.15.38.52.61.91.56,4.79-.65,11.52-1.24,20.21-1.78,29.16-1.83,57.3,2.31,84.44,12.42.91.34,1.91.1,2.57-.58,1.6-1.64,3.72-2.92,6.35-3.82.33-.11.63-.32.85-.6.41-.53,1.58-1.31,3.49-2.33,2.28-1.23,5.66-3,10.12-5.3,14.78-7.64,30.71-13.81,47.79-18.52,1.5-.41,2.94-.94,4.33-1.57.4-.18.66-.57.7-1.01.99-15.89-.28-30.64-3.79-44.26-5.97-23.14-21.86-42.9-42.57-54.78-7.32-4.2-13.77-8.07-19.34-11.61-21.76-13.79-41.5-34.25-52.25-57.9-3.36-7.37-5.8-13.83-7.33-19.38-2.12-7.6-3.28-16.26-3.48-25.96-.39-18.97,7.01-38.96,19.67-53.18,6.16-6.91,13.7-12.24,22.61-15.99,15.23-6.38,31.11-7.07,47.64-2.07,3.49,1.05,6.89,2.25,10.2,3.6.33.14.67-.14.63-.48-2.47-18.18.78-35.15,9.74-50.9C485.17,12.34,511.78-2.16,538.55.26c29.7,2.69,52.77,23.33,61.5,52.17.1.36.56.5.85.27,7.72-6,17.46-11.98,26.85-14.52,3.24-.87,5.97-2.34,9.4-2.94,26.47-4.65,49.56,1.83,69.28,19.45,8.29,7.41,14.86,16.11,19.72,26.11,9.43,19.49,12.57,40.31,9.13,61.66-3.61,22.38-13.58,41.75-29.93,58.11-.38.38-.45.96-.19,1.41,9.33,17.19,8.84,35.65-1.14,52.45-7.83,13.21-19.81,21.77-35.92,25.69-2.53.62-4.97.99-7.34,1.14-2.63.16-6.86.3-9.8,1.3-29.97,10.01-39.42,48.04-39.3,75.98.01,3.33.21,6.23.61,8.72.07.4.36.74.75.84,35.56,9.19,68.16,26.13,94.5,51.38,31.64,30.29,52.4,73.02,55.67,116.98,2.62,35.21-2.95,68.48-16.7,99.82-7.94,18.1-18.47,34.73-31.58,49.9-13.37,15.47-28.22,28.45-44.55,38.94-3.45,2.22-5.28,3.21-5.48,2.98h0c.2-.03.35-.04.47-.04.23,0,.36.28.19.44-.9.89-2.2,1.49-3.89,1.82-.23.02-.26.34-.04.41l.38.13s.02.02,0,.03l-9.98,4.88c-.14.07-.26.15-.36.25-1.38,1.46-2.84,2.3-4.38,2.51-.45.06-.88.25-1.25.53-1.39,1.07-2.79,1.71-4.19,1.94-.58.09-1.17.27-1.72.53-12.96,6.07-27.71,9.83-41.2,13.75-1.55.45-4.03.95-7.42,1.48-.27.04-.51.19-.65.42-2.41,3.62-3.38,8.89-2.92,15.83.52,7.87,3.02,14.51,7.49,19.94,4.88,5.92,12.59,10.19,20.58,9.12,2.47-.33,4.6.3,6.39,1.88,6.33,5.58,4.13,13.19-2.83,16.4-1.93.9-4.48,1.28-7.66,1.15-13.6-.57-24.46-6.29-32.58-17.17-7.84-10.48-11.07-22.53-9.7-36.16.04-.47-.58-.68-.81-.27-4.78,8.24-6.82,17.18-6.11,26.82.54,7.21,4.44,16.88,6.42,21.74,3.76,9.26,9.51,17.92,17.25,25.98,8.18,8.54,21.93,16.19,33.81,15.18,3.93-.32,9.44-3.2,14.19.06,4.24,2.91,5.41,6.92,3.51,12.03-.34.89-1.73,2.29-4.18,4.18-.34.28-.74.48-1.15.62-21.36,7.2-45.29-1.92-60.44-17.45-.42-.42-1.12.04-.88.58,2.01,4.63,3.56,8.32,4.66,11.08,9.61,24.37,28.09,47.21,54.2,53.36.39.1.78.14,1.18.16,3.7.14,6.49.8,8.36,1.97,4.51,2.84,7.09,8.57,4.72,13.82-2.89,6.38-8.42,8.9-16.59,7.56-27.25-4.47-53.16-20.15-72.51-40.33-18.81-19.61-32.08-42.22-39.8-67.84-3.65-12.15-6.28-23.24-7.89-33.28-1.06-6.62-2.57-14.3-4.54-23.02-2.27-10.06-7.59-19.01-16.05-25.02-1.92-1.36-5.39-2.71-10.41-4.05-12.58-3.35-20.12-5.5-22.64-6.44-7.67-2.88-15.13-5.97-22.37-9.27-.5-.23-1.08-.19-1.54.12-3.99,2.69-8.24,5.15-10.37,8.59-4.57,7.38-4.64,13.04-4.03,21.5.12,1.8.48,4.58,1.1,8.35,4.41,27.53,1.39,53.08-9.07,76.65-11.39,25.64-29.81,46.74-55.26,63.3-2.4,1.57-5.36,3.04-8.85,4.41-2.71,1.05-5.7,2.43-8.98,4.12-1.76.9-6.32,2-13.7,3.3-.46.08-.94.08-1.41.01-7.15-1.05-10.96-4.85-11.43-11.41-.39-5.5,3.12-10.33,8.17-11.52,8.59-2.01,14.9-4.46,18.94-7.33.02-.02.02-.04,0-.06l-.33-.21s-.03-.06,0-.07ZM204.89,260.73l-10.31-44.69c-.14-.6-.18-1.21-.1-1.82.78-6.47,7.06-9.02,12.08-5.08,1.21.95,2.22,3.24,3.04,6.87,1.2,5.3,4.58,18.12,10.15,38.48.17.62,1.04.71,1.31.12,3.56-7.5,7.89-18.78,11.79-20.57,3.63-1.68,6.41-.84,8.36,2.53,1.28,2.21,1.66,3.95,1.15,5.24-3.24,8.04-6.98,15.46-11.23,22.28-1.93,3.1-5,5.97-6.38,7.88-.32.44-.43.99-.29,1.53l7.63,29.12c.09.37.56.47.81.19,2-2.31,4.22-4.05,6.66-5.22,12.72-6.12,21.29-15.97,25.71-29.55,2.45-7.53,2.63-15.12.55-22.77-.13-.49-.32-.96-.58-1.42-2.34-4.12-5.1-7.62-8.3-10.5-.39-.36-.69-.81-.87-1.3-1.04-2.87-1.29-5.57-.73-8.11.11-.49.28-.98.53-1.42,4.21-7.57,5.88-15.86,5-24.88-1.49-15.19-15-29.95-31.14-27.24-.48.08-.98.05-1.44-.08-4.53-1.29-7.24-3.68-8.13-7.18-.28-1.12.11-4,1.18-8.63,2.82-12.21,1.49-23.68-4-34.4-10.3-20.12-33.77-31.07-55.06-21.23-19.88,9.16-27.96,30.89-24.07,52.05,1.64,8.91,8.41,20.17,15.54,25.74.36.28.78.48,1.24.56,3.59.65,5.88,1.49,6.89,2.52,4.59,4.67,5.09,9.49,1.51,14.46-.43.59-1,1.08-1.67,1.38-12.86,5.86-19.6,15.46-20.23,28.79-.57,12.4,3.97,22.54,13.64,30.39,1.45,1.18,2.45,3,3.02,5.46.27,1.2.05,3.25-.65,6.15-5.96,24.75,21.19,41.2,42.64,39.91,5.73-.35,10.54.74,14.42,3.26.35.22.78-.09.68-.48l-6.91-29.97c-.13-.56-.54-1.03-1.08-1.22-10.04-3.72-19.6-9.39-28.68-17.02-2.6-2.19-3.05-6.02-1.02-8.73l.26-.35c2.2-2.96,6.32-3.69,9.39-1.65l16.88,11.17c.41.27.94-.1.83-.58ZM473.69,173.12c1.82,6.29,3.51,8.6,8,13.51,6.23,6.82,4.78,10.68.62,17.81-.21.36-.38.74-.51,1.13-2.11,6.46-1.95,13,.49,19.62,0,.03.03.02.04,0,.01-.03,0-.07,0-.11-.01-.07.02-.11.09-.11.07,0,.15.04.17.1,1.57,3.19,3.36,6.8,5.03,8.79,6.75,8.07,15.18,13.64,25.29,16.71,4.56,1.39,10.62,1.64,14.66,2.24,2.48.37,4.51,1.33,6.09,2.86.27.25.71.05.69-.32l-1.38-29.72c0-.31-.16-.6-.42-.79-10.7-8.08-17.44-13.47-20.22-16.19-4.32-4.19-9.71-9.54-5.74-14.99,2.64-3.62,6.66-3.07,9.92-.36,5.8,4.79,11.07,9.4,15.82,13.82.27.26.74.06.72-.32l-2.05-44.29c-.01-.19,0-.37.06-.56,1.1-3.98,5.56-7.93,9.87-5.89,4.05,1.92,4.92,4.5,5.2,9.5.39,6.96,1.32,19.63,2.77,38.02.03.35.34.59.68.53.28-.06.58-.26.89-.62,7.6-8.67,12.18-13.9,13.73-15.69,2.59-2.99,5.46-3.25,8.61-.79,2.96,2.32,3.36,5.32,1.19,9-5.76,9.77-14.8,18.71-23.2,26.29-.31.28-.49.68-.49,1.1.06,9.6.65,17.93,1.76,25.01.22,1.35-.65,3.4.18,4.78.21.35.73.35.93-.01,1.37-2.36,6.41-3.79,12.79-6.42,3-1.23,6.97-3.62,11.91-7.16,13.58-9.73,23.05-27.02,18.49-43.88-.3-1.11-1.31-3.27-3.03-6.47-2.76-5.13-1.3-9.07,2.11-14.49,3.4-5.39,5.34-11.66,5.82-18.82.99-14.66-8.7-29.38-23.19-32.73-2.94-.68-5.28-1.13-7.04-1.35-.39-.04-.79-.17-1.15-.37-8.41-4.6-6.8-13.71-.04-18.74.51-.38.94-.86,1.26-1.42,15.45-26.53,6.65-62.23-22.83-74.41-8.46-3.5-16.67-4.29-24.63-2.37-8.96,2.15-16.22,6.05-21.78,11.69-13.41,13.58-18.56,30.26-15.45,50.03,1.31,8.35,4.19,15.51,8.65,21.47.43.56,1.01.99,1.66,1.24,5.37,1.99,9.89,7.57,8.12,13.46-1.59,5.25-4.14,6.32-9.73,7.89-19.13,5.38-26.17,24.73-21.82,43.06.02.11.16.13.21.04.07-.11.11-.23.12-.34,0-.04.06-.04.07,0ZM282.2,211.17c-.18-.23-.35-.3-.51-.22-.06.03-.09.07-.09.14.05,4.54-1.54,8.24-3.29,12.96-.17.49-.1,1.04.19,1.46,4.17,6.19,7.29,10.55,9.12,17.33,3.14,11.55,2.59,22.98-1.64,34.3-.03.07-.04.13-.05.2l-1.6,12.87c-.03.2.11.39.29.43.19.06.39-.04.48-.22,3.91-8.91,9.04-17.53,15.4-25.86,8.29-10.84,12.98-17.03,14.09-18.57,15.03-20.94,23.52-46.6,22.03-72.37-.98-16.78-7.55-34.16-20.55-45.35-8.08-6.95-16.19-9.39-26.65-10.05-3.1-.19-6.98.49-11.62,2.04-14.62,4.88-26,15.61-29.89,30.47-.14.52.15,1.07.67,1.25,16.86,5.73,27.61,17.39,32.25,35,2.09,7.92,2.56,15.99,1.4,24.19,0,.01-.01.02-.01,0ZM141.97,299.62c-2.53-4.93-3.97-7.78-4.32-8.53-3.54-7.85-4.41-15.88-2.61-24.08.11-.52-.04-1.05-.37-1.43-7.13-7.95-11.71-15.41-13.75-22.39-5.82-19.91-1.64-37.34,12.54-52.3.43-.46.42-1.17-.04-1.6-4.07-3.97-7.65-8.59-10.74-13.87-.3-.54-.75-.99-1.29-1.29-20.88-11.94-47.87-13.66-68.44-.72-19.04,11.97-28.6,29.37-28.7,52.21-.02,4.95.6,9.72,1.86,14.32,5.45,19.81,17.11,34.46,34.97,43.96,8.34,4.45,21.08,3.84,20.84,16.23-.02.72-.17,1.43-.46,2.1-1.81,4.1-3.15,6.15-3.91,10.2-2.62,13.92,1.58,24.56,12.62,31.93,6.68,4.47,15.56,5.75,23.69,3.99,4.87-1.05,10.25-2.32,14.62-2.47,10.23-.33,23,2.12,31.88,7.88.43.28.93-.23.64-.65-9.42-13.46-18.88-26.52-28.37-39.2-11.66-15.56-24.39-30.48-37.76-46.31-.27-.33-.48-.73-.6-1.14-1.16-4.3,1.23-9.37,5.71-9.93,2.34-.29,4.26.36,5.76,1.95,12.52,13.35,24.41,27.26,35.67,41.73.09.12.25.14.37.08v-.02c.24-.13.34-.42.21-.66ZM619.66,209.25c-.03.2.11.39.31.43.2.04.4-.07.47-.26,1.09-3.14,2.73-7.11,4.91-11.9,8.37-18.35,15.74-33.51,22.12-45.47,1.95-3.65,4.92-9.72,9.51-9.12,3.75.5,6.02,2.6,6.81,6.31.2.93.07,1.89-.36,2.75-11.3,22.28-22.61,46.33-31.75,69.4-.18.46.25.94.72.8,1.72-.52,3.38-1.25,4.99-2.17,7.15-4.1,11.03-6.28,11.66-6.56,1.66-.73,3.29-.27,4.88,1.39,2.79,2.91,2.91,5.79.38,8.66-1.76,1.99-4.89,4.3-9.38,6.92-7.19,4.2-13.34,7.44-18.44,9.72-.92.41-1.62,1.18-1.95,2.14l-13.35,39.91c-.08.23.03.49.24.59.22.12.48.07.63-.13,7.34-9.47,16.39-16.36,27.14-20.67,5.41-2.17,12.31-2.64,18.93-3.39,14.7-1.68,28.28-13.05,29.34-28.53.64-9.28-2.36-17.57-9.01-24.85-.35-.39-.65-.84-.85-1.34-1.1-2.75-1.05-5.81.16-9.18.59-1.66,2.56-3.84,5.9-6.54,22.87-18.45,31.99-49.03,27-77.38-2.85-16.22-12.42-32.63-25.79-42.4-28.11-20.55-60.41-9.72-82.21,14.62-.35.39-.57.88-.65,1.41-1.02,7.77-3.51,15.01-7.46,21.73-.28.47-.1,1.08.39,1.32,10.82,5.26,18.77,13.31,23.85,24.17,7.76,16.62,6.29,34.63-2.81,50.3-.54.93-.6,2.06-.18,3.04,3.41,7.89,4.69,15.98,3.85,24.28ZM475.36,263.52c.4.36,1.02-.06.83-.57l-4.08-11.07c-.08-.19-.17-.38-.31-.55-6.43-8.67-10.75-17.95-12.97-27.81-.14-.6-.39-1.17-.76-1.67l-21.52-28.77c-.38-.51-.5-1.16-.32-1.77.77-2.68,2.63-4.88,5.57-6.61.54-.32,1.19-.41,1.8-.24,5.56,1.51,12.82,12.58,15.86,17.6.23.37.76.3.9-.1l1.08-3.24c.26-.79.09-1.66-.47-2.3-7.76-8.9-11.84-19.21-12.23-30.91-.59-17.78,5.78-32.37,19.13-43.76.33-.29.35-.78.04-1.09-12.44-12.29-32.04-20.08-49.33-15.1-11.3,3.26-19.74,9.9-25.32,19.91-13.09,23.48-7.85,51.76,5.68,73.96,9.67,15.88,23.87,29.63,42.59,41.26.43.27,7.47,4.52,21.13,12.74,4.23,2.54,8.62,6.53,12.7,10.11ZM214.58,423.51l21.44-10.96c.27-.14.4-.44.33-.73-.8-3.3-1.36-5.42-1.69-6.35-7.28-20.53-16.2-40.39-26.77-59.58-.08-.14-3.28-5.87-9.6-17.19-.2-.38-.61-.62-1.03-.63-13.8-.34-26.74-4.29-37.79-12.22-2.27-1.62-4.76-3.3-7.47-5.05-.22-.15-.52.02-.5.29.03.91.35,1.82.97,2.75,4.68,7.01,7.79,11.49,9.32,13.43,3.36,4.28,10.09,14.37,20.21,30.28,12.79,20.12,24.49,42.16,31.64,65.54.12.4.57.58.94.4ZM270.33,301.34c-.1-.34-.54-.42-.76-.15-5.89,7.66-13.56,13.17-23.02,16.54-.45.16-.74.59-.74,1.07.21,12.58.48,20.11.81,22.57,2.71,20.02,8.85,38.69,15.66,59.71.25.73,1.01,1.14,1.75.92l19.33-5.69c.43-.13.66-.59.51-1.01-1.03-2.94-3.06-9.08-6.08-18.4-2.73-8.44-4.9-19.75-5.5-26.72-.79-9.33-1.44-22.46-1.95-39.41-.08-2.56-.09-4.12-.02-4.69.27-2.23.27-3.81,0-4.75ZM608.77,237.31c-.27-.12-.59,0-.71.27-1.52,3.23-4.31,6.91-8.37,11.03-9.7,9.84-19.74,16.39-30.13,19.66-.72.23-1.26.83-1.41,1.58-4.59,23.45-7.17,44.19-7.76,62.22-.11,3.09.15,12.72.79,28.87.01.26.22.48.47.49l22.92,1.7c.46.03.84-.32.84-.78.34-26.5,3.39-52.14,9.15-76.93,1.77-7.63,6.59-23.49,14.46-47.58.07-.21-.03-.43-.24-.51h-.02ZM515.34,363.57c-.01.41.36.74.76.68l20.05-2.57c.33-.04.58-.34.56-.68-1.04-17.25-3.35-35.63-6.95-55.14-2.03-11.05-5.06-19.68-7.94-30.84-.19-.73-.85-1.25-1.61-1.29-8.72-.32-17.99-3.63-26.05-7.3-.5-.23-1.01.29-.77.79,7.39,15.76,13.1,32.68,17.14,50.76,1.09,4.87,1.91,9.58,2.47,14.13,1.48,12.1,2.57,21.02,2.35,31.46ZM134.42,564.91c-.01-.06-.02-.14-.04-.24,0-.07-.06-.11-.14-.08-.06.03-.13.11-.15.2-2.74,12.35-4.18,24.3-4.33,35.84-.15,11.18,1.48,23.04,4.86,35.58,9.91,36.66,30.9,65.89,62.99,87.69,30.21,20.52,68.85,30.64,106.1,28.24,10.87-.7,17.29-1.04,19.26-1.04,10.81.06,20.09,2.61,27.83,7.66,17.19,11.21,25.64,34.23,30.1,53.23.49,2.08.85,4.59,1.1,7.55.05.61.28,3.15.68,7.62.67,7.44.51,14.23-.48,20.38-.08.48.54.77.85.39.65-.81,1.35-2.1,2.1-3.88,6.62-15.76,9.75-31.25,9.39-46.49-.22-9.31-.85-17.07-1.89-23.28-1.21-7.28-1.73-12.12-1.57-14.52.96-14.46,5.37-26.91,16.55-36.23.33-.27.31-.79-.05-1.03-30.78-21.18-53.61-48.48-68.49-81.92-9.44-21.21-14.53-43.34-15.25-65.73-1.24-38.55,8.09-74.26,27.99-107.11,10.61-17.5,23.49-32.89,38.65-46.17.58-.52.35-1.46-.39-1.65-21.3-5.62-42.99-7.6-65.05-5.96-38.44,2.85-73.63,14.61-105.59,35.29-20.87,13.5-38.79,29.93-53.76,49.28-14.22,18.39-26.27,41.63-31.21,64.64-.11.53-.11,1.07.02,1.64,0,.04,0,.09-.02.13s-.05.04-.06,0ZM656.5,705.51c2.61-2.22,5.02-3.97,7.24-5.25,2.64-1.53,4.93-3.11,6.87-4.76,3.06-2.62,5.28-4.36,6.67-5.24.18-.12.32-.3.39-.5.19-.7.66-1.39,1.42-2.07,5.52-4.99,10.02-8.98,14.26-13.83,28.4-32.51,43.66-70.01,45.76-112.5.38-7.59.11-16.13-.81-25.6-.98-10.11-2.46-18.51-4.43-25.21-6.37-21.69-15.99-40.65-28.85-56.9-26.91-33.94-65.54-55.63-108.52-63.95-22.88-4.44-45.15-5.35-66.79-2.74-3.18.38-4.95.61-5.3.68-4.52.98-9,1.06-13.34,1.96-18.1,3.75-35.34,9.35-51.73,16.79-49.86,22.62-91.69,64.87-105.48,118.72-6.4,25.01-7.48,51.1-1.67,76.17,5.87,25.34,16.92,47.85,33.15,67.5,21.6,26.14,47.65,44.19,78.16,54.17,2.93.96,8.65,2.74,17.18,5.36,8.7,2.66,14.23,4.65,16.6,5.96,16.47,9.1,24.89,23.8,28.5,41.62,4.57,22.59,6.09,32.21,9.48,45.01,4.17,15.72,9.5,30.61,16.96,44.42.08.15.26.22.42.16.17-.06.25-.23.21-.4-1.3-4.81-3.42-9-4.76-13.74-4.38-15.57-6.88-31.03-7.51-46.37-1.25-31.13,7.11-60.11,40.46-70.24,7.1-2.16,18-3.34,26.49-6.37,1.47-.52,6.2-2.14,14.21-4.85,4.25-1.44,7.65-3.52,12.04-5.14.42-.15.83-.35,1.21-.6,2.08-1.37,3.9-2.39,5.46-3.07,4.46-1.95,8.48-4.57,11.69-6.41,2.29-1.31,3.76-2.23,4.4-2.77Z"/>
      <path class="cls-1" d="M283.83,578.18c3.08,1.84,4.39,5.25,3.36,8.74-.86,2.92-3.13,4.98-6.8,6.19-27.81,9.17-53.89,15.56-82.34,18.15-9.26.84-17,1.06-23.22.64-4.6-.31-7.36-2.65-8.3-7.03-.54-2.54-.01-4.72,1.59-6.54,2.42-2.73,4.68-3.34,8.52-3.07,3.37.23,7.42.22,12.16-.03,10.43-.54,21.17-1.83,32.21-3.87,19.33-3.57,38.22-8.37,56.68-14.4,1.78-.58,3.84-.18,6.16,1.21Z"/>
      <path class="cls-1" d="M709.92,530.14c-.64,2.72-1.97,4.57-4,5.55-25.02,12.08-53.28,18.3-80.83,22.62-8.05,1.27-12.34,1.93-12.86,1.99-14.71,1.8-29.8,2.86-45.26,3.2-8.16.18-11.08-9.85-4.96-14.61,1.34-1.05,3.77-1.62,7.28-1.7,12.28-.28,26.42-1.45,42.41-3.51,4.77-.61,8.2-1.15,10.28-1.63,7.51-1.69,16.46-2.01,23.24-3.74,21.02-5.38,35.68-8.71,50.69-15.45,3.42-1.53,6.01-2.05,7.78-1.57,3.53.95,5.62,3.42,6.27,7.4.09.49.06.99-.04,1.46Z"/>
      <path class="cls-1" d="M197.1,641.2c8.59-1.09,16.11-2.7,22.56-4.82,4.41-1.45,7.39-1.94,8.93-1.49,6.96,2.08,9.2,10.32,2.54,14.48-2.69,1.67-7.17,3.28-13.46,4.83-6.41,1.57-12.57,2.73-18.47,3.49-5.91.76-12.16,1.17-18.75,1.25-6.47.08-11.22-.35-14.25-1.29-7.49-2.37-7.39-10.9-1.17-14.65,1.38-.83,4.38-1.1,9.01-.81,6.79.43,14.48.1,23.07-1Z"/>
      <path class="cls-1" d="M685.69,593.98c-8.75,2.38-17.78,4.06-27.09,5.04-6.39.67-13.38-.47-13.99-8.22-.03-.42,0-.85.13-1.26,1.34-4.69,4.03-7.1,8.08-7.24,10.12-.35,19.63-1.74,28.53-4.16,8.9-2.43,17.8-6.08,26.7-10.92,3.56-1.93,7.1-1.22,10.64,2.14.31.29.57.64.76,1.03,3.41,6.97-2.03,11.51-7.88,14.18-8.51,3.89-17.13,7.03-25.88,9.43Z"/>
    </g>
  </g>
</svg>