<?xml version="1.0" encoding="UTF-8"?>
<svg id="Capa_2" data-name="Capa 2" xmlns="http://www.w3.org/2000/svg" viewBox="0 0 830.33 974.9">
  <defs>
    <style>
      .cls-1 {
        fill: #fef1d1;
      }
    </style>
  </defs>
  <g id="Capa_1-2" data-name="Capa 1">
    <g>
      <path class="cls-1" d="M818.99,544.23c-7.74-7.11-17.03-10.87-27.86-11.28-7.43-.28-14.49.59-21.16,2.63-.44.13-.82-.32-.6-.72,8-14.9,13.87-29.9,14.09-46.76.38-29.27-19.09-54.52-51-47.1-19.18,4.45-35.52,21.6-44,38.52-.22.43-.78.55-1.16.24-8.82-7.33-18.9-8.56-30.24-3.66-.38.16-.77-.23-.58-.61,4.92-10.06,10.85-19.6,17.79-28.62l.38-.4,7.3-6.18.08-.06c11.58-7.43,22.77-13.72,31-24.39.29-.38.67-.68,1.1-.88l8.58-4.02c.4-.19.88-.21,1.29-.04,12.63,5.09,24.63,5.5,37.64.79,12.32-4.46,21.85-12.65,28.6-24.57,12.62-22.29,10.67-48.95-7.5-67.28-.62-.63-.79-1.58-.41-2.39,10.65-22.87,6.17-50.42-11.93-67.92-12.05-11.65-26.45-16.81-43.2-15.48-.54.05-1.03-.26-1.24-.74-6.29-14.46-19.17-26.05-33.43-31.36-20.25-7.53-42.31-3.43-58.69,10.5-2.37,2.02-4.41,3.88-6.12,5.57-.28.28-.71.37-1.07.22-16.53-6.51-32.19-5.65-46.97,2.58-9.31,5.18-17.62,14.36-22.16,23.61-4.65,9.46-6.15,19.6-4.51,30.41.13.92-.16,1.86-.8,2.54-6.29,6.61-10.98,11.76-13.68,21.32-7.95,28.15,10,55.81,37.14,64.52.39.12.67.46.72.85.34,2.49,1.34,8.35,2.99,17.57.83,4.57,1.32,10.67,1.52,14.61.02.45-.57.61-.79.22-2.38-4.25-6.96-12.17-11.99-13.8-9.03-2.95-10.62,5.52-12.18,12.36-2.34,10.33-4.12,21.21-5.32,32.65-.05.49-.63.71-1,.39-3.94-3.42-11.4-8.09-16.54-7.07-9.41,1.87-5.89,13.19-3.87,20.52.71,2.6,1.43,7.67,2.14,15.19,1.23,13.07-1.91,30.11-10.67,41.08-7.59,9.5-15.11,15.15-27.33,22.67-6.01,3.68-12.06,7.87-18.14,12.56-.32.24-.74-.07-.62-.44,14.07-41.91,27.15-83.79,37.71-126.1,6.35-25.49,12.12-49.21,14.73-69.34,1.23-9.47,1.63-16.96,1.2-22.49-2.14-27.95-15.16-49.05-39.05-63.29-.29-.17-.43-.52-.33-.85,3.71-11.85,8.89-22.55,15.54-32.08,3.35-4.79,7.3-8.38,12.01-11.55,6.79-4.55,16.19-10.54,28.18-17.96,15.52-9.6,26.71-25.69,22.95-44.77-.08-.45.11-.9.5-1.14,16.05-10.11,29.69-28.54,29.16-47.97-.3-11.19-4.48-19.89-12.55-26.12-16.66-12.84-38.06-6.08-51.8,7.25-.41.4-1.09.21-1.26-.34-.19-.61-.22-1.16-.08-1.63,1.72-5.91,3.1-11.55,4.15-16.9,3.35-17.24-.44-37.25-14.24-48.85-9.41-7.89-19.95-10.28-31.6-7.14-15.55,4.17-26.65,18.49-30.92,33.41-2.64,9.25-3.76,18.81-3.33,28.68.01.4-.21.75-.56.91-7.21,3.21-12.14,8.24-14.79,15.09-.13.35-.61.41-.82.1-4.62-6.81-10.3-11.67-17.05-14.57-9.44-4.06-20.69-3.25-28.65,2.57-17.66,12.92-17.88,36.68-6.18,54.26,3.37,5.06,6.9,9.46,10.61,13.19.19.19.26.5.13.74-6.04,12.34-5.74,24.13.91,35.38,5.33,8.99,16.78,16.64,21.26,21.76,10.51,12.02,16.2,26.93,17.07,44.73.02.43-.29.78-.72.82-29.52,2.39-51.27,16.6-65.25,42.65-.22.41-.83.4-1.03-.02-7.05-14.59-18.03-22.48-32.94-23.67-5.05-.41-8.12-.91-9.2-1.52-5.21-2.93-5.91-8.9-7.24-15.67-1.6-8.19-5.22-15.51-10.88-21.94-9.58-10.9-21.83-15.26-36.75-13.09-4.32.63-8.38,2.62-12.96,4.16-4.62,1.56-8.07.06-11.45-3.48-5.94-6.22-12.38-11.9-20.42-15.27-15.02-6.28-32.76-4.02-45.08,6.39-8.52,7.2-14.3,17.83-15.5,28.56-.65,5.82-1.08,9.36-1.29,10.62-.78,4.71-5.79,7.39-10,9.76-.11.06-.21.12-.29.18l-3.31,2.58c-.33.24-.75.3-1.13.15-7.02-2.92-14.45-4.08-22.31-3.48-15.04,1.16-26.53,10.04-33.76,23.1-1.19,2.16-2.53,5.5-4.02,10.04-1.25,3.82-5.17,10.33-9.98,8.81-19.6-6.19-39.66-.52-51.1,16.75-9.1,13.73-7.67,28.81-2.65,43.68,1.48,4.41.51,8.01-2.93,10.78-11.3,9.08-19.76,19.61-23.38,33.42-5.68,21.73,1.4,42.19,20.51,54.82,2.29,1.51,6.23,3.68,11.83,6.51,5.87,2.98,7.37,6.74,6.35,13.76-.84,5.81-1.28,9.41-1.3,10.79-.49,26.25,18.03,41.05,42.5,45.2,4.59.78,7.8,3.14,9.63,7.09,2.34,5.06.17,13.95,1.02,18.55.08.41-.1.84-.45,1.07-.04.02-2.23,1.31-6.58,3.87-18.81,11.05-31.25,25.59-30.55,48.32.15,4.74.67,11.63,1.55,20.69,7.14,73.45,37.07,140.79,87.15,195,10.05,10.88,20.12,20.55,30.2,29.01,30.21,25.34,64.92,45.2,104.12,59.58.35.12.58.45.61.82.04.7.08,2.86.12,6.47.19,19.3,12.1,32.12,28.62,40.03,11.87,5.68,24.91,9.98,39.14,12.9,24.49,5.01,49.16,7.19,74.23,8.18,30.42,1.2,61.4-.67,92.95-5.62,16.46-2.58,32.42-6.99,47.86-13.24,13.87-5.61,25.74-14.35,31.65-28.17,2.96-6.89,2.82-14.21,2.68-22.28-.01-.45.27-.86.69-1.02,31.87-11.99,63.01-29.95,89.3-52.01,41.3-34.67,72.63-76.48,93.97-125.41,15.2-34.82,24.33-72.74,27.41-113.75.02-.34.19-.66.47-.86,10.94-8.07,20.42-20.12,22.27-33.62,1.8-13.09-1.46-25.68-10.87-34.33ZM653.73,421.62c5.44-4.74,12.7-10,21.81-15.8.44-.28,1.01-.22,1.38.15,4.51,4.57,9.61,7.55,15.3,8.94.68.17.83,1.07.23,1.45-6.35,4-11.37,7.32-15.07,9.97-9.15,6.56-16.7,14.31-22.66,23.24-6.83,10.25-12.31,20.19-16.43,29.83-.59,1.38-2.1,5.5-4.53,12.38-4.11,11.67-7.68,19.8-7.24,29.86.01.22-.23.35-.41.23-12.97-9.07-23.03-20.49-24.59-36.65-1.28-13.18,3.69-28.33,9.05-40.5,1.22-2.76,1.85-4.86,1.9-6.32.52-15.39-16.31-7.93-22.87-3.98-.29.18-.66-.04-.65-.38.18-6.12,2.25-11.1,3.49-16.55,2.64-11.68,3.16-23.14,1.56-34.38-.71-4.88-1.94-10.7-3.69-17.47-.03-.13.05-.27.18-.3l10.05-1.89c.22-.04.44.09.51.29,3.18,8.31,8.2,11.84,15.6,16.6.33.21.51.57.5.96-.31,5.83-.65,12.1-1.03,18.81-.19,3.46,3.07,10.19,7.52,6.06,1.8-1.66,3.39-4.28,4.77-7.84,2.43-6.28,3.98-10.6,4.62-12.97.12-.43.55-.69.99-.62,4.87.86,9.89.37,15.05-1.46.54-.19,1.14.05,1.41.55,1.69,3.08,4.02,5.71,7.01,7.87.33.23.41.68.21,1.02-1.85,3.1-4.3,6.84-7.35,11.23-3.98,5.73-5.98,9.71-9.77,16.25-4.26,7.34-6.77,15.49-7.53,24.45-.17,2.07,1.28,3.92,3.32,4.25l.36.05c1.79.28,3.48-.9,3.82-2.68h0c.73-3.76,2.65-9.67,4.28-13.13l.96-2.04c1.78-3.8,4.51-7.07,7.94-9.49h0ZM575.59,347.45c-13.44-7.05-23.99-19.75-23.54-35.85.19-7.12,2.34-13.56,6.45-19.3,2.6-3.65,6.79-6.21,9.3-9.25.75-.91.94-2.32.57-4.25-3.62-18.97,2.08-33.37,17.1-43.2,12.19-7.98,25.04-8.62,38.56-1.95,2.72,1.35,4.59,2,5.61,1.97,1.8-.05,3.58-.59,5.33-1.62.27-.16.51-.39.69-.65,7.86-11.22,18.51-17.77,31.94-19.66,2.69-.37,5.17-.43,7.42-.16,16.75,1.97,29.05,10.39,36.9,25.26.57,1.07,1.73,3.85,3.48,8.32.85,2.19,4.15,2.93,6.78,2.2,2.64-.73,5.34-1.05,8.1-.97,37.02,1.18,52.97,40.8,34.16,70.41-.21.33-.3.71-.29,1.1.07,1.65.62,2.95,1.63,3.91,3.66,3.42,6.64,6.61,8.96,9.57,9.39,12.01,10.23,29.49,3.54,43.02-5.1,10.31-13.79,18.66-24.61,22.32-10,3.38-20.08,2.07-30.27-3.92-.28-.16-.58-.27-.9-.3-1.9-.24-3.29,0-4.16.75-10.86,9.15-22.14,9.76-33.84,1.83-.78-.52-.62-1.7.26-2.02,3.26-1.18,9.6-5.43,7.64-9.59-1.19-2.54-4.65-1.28-7.51-.58-12.35,2.99-23.68-4.54-28.43-15.42-.24-.54-.63-1-1.14-1.3-2.12-1.25-4.39-1.39-7.01-.01-11.49,6.04-24.83,1.95-33.27-7.11-2.96-3.16-3.78-5.82-6.23-10.58-1.63-3.15-5.28-2.65-8.52-1.35-8.19,3.29-16.43,2.75-24.73-1.61ZM564.5,425.12c1.95-8.94,3.22-16.82,3.83-23.65.05-.49.71-.61.91-.16,6.07,13.09,7.62,27.06,4.66,41.9-.04.16-.08.32-.17.45l-5,8.66c-.13.23-.48.22-.59-.03l-4.89-10.9c-.16-.35-.23-.74-.21-1.13.41-7.53.89-12.58,1.45-15.14ZM497.01,536.46c18.77-11.95,36.63-23.32,44.5-45.45,5.96-16.75,6.36-33.87,1.22-51.34-.15-.5.46-.88.84-.51,9.54,9.29,15.26,20.58,17.15,33.88.31,2.13,1.49,3.55,3.54,4.27,7.11,2.49,8.21-4.58,10.47-10.39,3.72-9.64,10.2-16.85,19.45-21.64.38-.19.78.21.6.58-6.55,13.27-9.27,27.31-8.17,42.12.32,4.4,1.7,9.74,4.13,16.04,7.27,18.89,24.72,29.02,40.04,40.44,26.43,19.71,44.21,48.63,40.49,82.44-1.4,12.71-5.94,24.61-13.64,35.71-.56.79-1.4,1.34-2.35,1.52l-26.05,4.9c-.33.06-.56-.32-.35-.58,14.7-19.03,19.35-44.27,14.07-67.78-2.6-11.6-8.47-23.64-17.61-36.11-1.33-1.83-3.82-2.35-5.79-1.23l-.15.09c-1.86,1.06-2.42,3.49-1.2,5.26,10.34,15.03,15.99,30.25,16.98,45.67.73,11.31-.94,20.72-4.38,31.43-2.51,7.78-8.79,19.64-15.78,25.22-.27.21-.57.34-.9.38l-31.76,3.7c-.36.05-.61-.37-.4-.67,2.92-4.28,5.42-8.99,7.51-14.15,6.83-16.9,9.27-34.33,7.33-52.29-1.3-12.07-4.22-24.76-8.76-38.08-2.99-8.79-8.4-20.51-11.1-30.36-3.87-14.15-4.37-28.06-4.19-43.48.02-2.48-.83-4.39-2.57-5.73-1.13-.86-2.88-.19-3.54,1.36-.96,2.26-1.59,5.03-1.9,8.3-1.61,17.49.64,34.67,6.74,51.55,6.73,18.62,11.84,31.7,14.76,49.46,4.26,25.81-.16,54.25-16.56,74.88-.39.49-.96.79-1.58.84l-52.54,3.99c-1.01.07-2.01-.27-2.75-.96-25.36-23.94-24.7-62.71-10.48-92.01,6.26-12.88,14.29-24.81,24.11-35.79,5-5.6,10.93-13.51,14.97-19.06,5.51-7.56,9.53-16.41,12.06-26.55.61-2.43-.01-5-1.67-6.89l-.1-.12c-1.22-1.38-3.47-.94-4.08.8-2.86,8.23-5.19,13.89-6.99,17-3.19,5.52-5.83,9.88-7.91,13.08-1.41,2.17-4.58,6.13-9.52,11.9-7.76,9.06-14.36,17.54-19.81,25.42-6.72,9.7-12.03,20.3-15.94,31.79-9.3,27.3-5.84,59.33,13.97,81.22.22.24.06.62-.27.63l-22.59.75c-.68.02-1.36-.18-1.91-.57-13.48-9.53-22.68-22.65-27.61-39.34-1.56-5.28-2.12-7.95-1.53-13.08.79-6.87.83-13.38.13-19.52-.77-6.73.3-12.16,2.19-17.57,3.8-10.84,9.05-20.4,15.77-28.68,8.57-10.58,18.24-18.24,31.43-26.65ZM311.75,523.94c-5.48-11.45-8.73-21.48-9.65-32.91-.02-.34.36-.56.63-.34,9.49,7.86,17.38,16.24,23.68,25.13.37.52.91.89,1.52,1.07,1.6.47,3.35.53,5.25.2.41-.07.79-.27,1.1-.55,6.52-6.18,12.11-10.96,19.8-13.75,3.22-1.16,6.92-2.29,11.1-3.38.41-.11.73.34.51.71-5.74,9.21-10.83,16.98-15.25,23.33-2.74,3.92-3.67,7.31.99,9.89,9.3,5.18,16.88,12.09,22.73,20.74.19.29-.06.67-.4.61-9.13-1.7-17.66-4.19-25.59-7.47-2.94-1.22-5.13-1.52-6.58-.9-2.19.92-3.43,2.73-3.71,5.4-1.01,9.74-3.43,19.15-7.24,28.23-.22.51-.97.51-1.18,0-3.75-8.89-6.12-17.71-7.13-26.45-.62-5.39-1.35-7.85-6.24-8.84-1-.2-2.53.13-4.6,1.01-8.09,3.4-16.4,5.33-24.95,5.78-.4.02-.66-.43-.43-.75,3.69-5.22,7.93-9.78,12.73-13.7.75-.62,4.06-2.76,9.95-6.44,2.59-1.61,4.3-3.82,2.97-6.61ZM295.1,520.39l-16.02-5.03c-.21-.07-.19-.38.02-.41l12.58-2.36c.5-.1.99.22,1.11.71.54,2.17,1.53,4.22,2.97,6.17.34.47-.12,1.11-.67.92ZM285.77,528.21c.6.24,1.04.3,1.31.18.32-.12.52-.15.61-.09.3.22.32.68.01.91-7.46,5.76-13.34,12.95-17.63,21.56-4.27,8.58-2.84,14.7,7.29,15.09,6.47.24,11.33.09,14.57-.46,6.55-1.13,12.42-2.41,17.61-3.85.19-.05.38.06.41.26,1.78,10.57,5.41,20.86,10.9,30.87,2.92,5.32,6.45,10.48,12.33,7.28,1.58-.86,3.11-2.39,4.58-4.6,6.39-9.64,10.4-20.29,12.05-31.94.04-.29.33-.49.62-.4,6.68,1.89,13.93,3.6,21.77,5.12,7.03,1.36,24,4.82,21.66-8.6-.1-.52-.32-1.02-.66-1.44-.45-.56-2.09-3.09-4.92-7.59-6.01-9.59-13.69-17.3-23.04-23.15-.41-.26-.56-.8-.3-1.24l1.11-1.91c.29-.51.91-.73,1.46-.51,33.59,13.33,59.3,45.82,63.97,81.78,3.53,27.09-3.59,54.25-19.08,76.34-.24.35-.65.56-1.07.56-41.72-.38-83.49-2.85-125.33-7.41-27.16-2.96-54.22-7.11-81.17-12.44-2.86-.56-5.4-1.21-7.62-1.96-.56-.19-1.01-.61-1.26-1.14-3.49-7.49-5.79-14.1-6.9-19.82-2.88-14.87-2.57-29.49.94-43.85,9.27-37.98,36.18-66.41,73.61-77.52.54-.16,1.11-.05,1.55.29,5.57,4.36,12.91,6.77,20.63,9.67ZM430.51,682.12c3.63-6.08,6.73-12.71,9.31-19.91.12-.34.58-.37.74-.05,3.65,7.13,8.45,13.74,14.38,19.81.23.23.06.63-.27.63h-23.9c-.24,0-.4-.27-.27-.49ZM527.97,133.26c8.42-11.85,13.3-26.77,9.49-41.28-.07-.23-.01-.49.16-.66,6.92-7.69,19.58-16.61,30.47-14.14,14.93,3.4,16.39,19.18,11.24,31.21-5.16,12.11-14.12,19.22-24.61,26.69-2.71,1.93-2.45,6.81-1.58,10.26,3.81,15.22-8.9,27.19-20.6,34.1-8.9,5.27-16.62,10.36-23.17,15.3-.32.24-.74-.1-.58-.46l7.11-16.21c.11-.27.26-.52.43-.77l2.82-4.02c.17-.24.36-.46.58-.66,10.25-9.66,15.56-25.67,8.19-38.51-.15-.27-.13-.6.05-.85ZM471.73,165.71c-.07.35-.11.7-.13,1.06-.33,4.76-1,10.26-2,16.51-2.7,16.94-4.51,27.79-5.42,32.54-1.83,9.52-3.22,17.65-4.2,24.41-.02.19-.21.33-.4.29l-6.84-1.07c-.26-.04-.44-.28-.41-.54,3.02-25.3,1.95-48.84.74-75.77-.05-.95-.4-1.85-1.02-2.57-6.38-7.39-10.39-18.86-2.99-27.16,1.55-1.74,2.85-3.18,3.91-4.31,2.09-2.23,3.38-5.12,3.44-8.17.01-.66-.03-1.2-.14-1.61-2.81-10.75-4.98-17.05-4.45-26.16.49-8.6,4.38-16.1,12.39-18.81,4.28-1.45,5.67-3.64,5.57-7.7-.45-17.76,3.1-36.01,16.74-46.88,5.11-4.05,12.12-6.34,18.29-4.13,12.56,4.51,17.27,19.05,17.16,31.64-.08,10.68-2.96,19.93-6.39,30.98-1,3.19,2.2,6.71,4.48,8.82,5.71,5.32,6.11,15.15,3.77,22.28-2.18,6.62-5.52,13.4-9.66,18.81-1.95,2.54-1.9,5.72-.18,8,6.35,8.41,4.67,17.72-1.8,25.46-1.94,2.32-5.2,5.82-9.78,10.5-.82.83-1.3,1.93-1.38,3.09-.24,3.7-.82,6.05-2.51,9.5-9.24,18.81-16.79,38.61-22.64,59.4-.13.51-.69.82-1.2.65l-6.99-2.19c-.56-.17-.86-.75-.71-1.31,1.72-5.95,2.9-10.76,3.55-14.45,3.28-18.6,6.47-35.86,9.58-51.78.86-4.39,1.28-8.7,2.21-13.95l2.17-14.15,3.97-25.24c.34-2.19-1.11-4.26-3.29-4.69l-.24-.05c-1.92-.24-3.71,1.01-4.13,2.91-1.97,8.98-3.59,17.79-4.84,26.42-.54,3.76-1.63,6.99-2.64,10.95-.06.22-.11.45-.15.67l-1.45,7.79ZM424.32,176.65c-10.34-8.8-23.18-20.65-12.45-35.27,2.04-2.77,3.07-4.49,3.11-5.15.19-3.3-.01-4.98-2.75-7.42-11.16-9.97-22.11-25.76-16.21-41.34,1.74-4.6,4.81-7.79,9.2-9.57,14.07-5.68,26.1,12.6,31.09,23.1,1.47,3.08,2.69,6.52,3.65,10.32,1.01,3.97,2.17,7.35,3.48,10.14.21.45.09.99-.32,1.29-2.47,1.93-4.55,4.32-6.22,7.18-.18.32-.65.29-.8-.04-6.24-13.31-10.22-20.02-11.94-20.14-1.22-.08-2.31.21-3.29.86-.88.6-1.14,1.84-.6,2.9,4.45,8.78,8.38,17.96,11.79,27.55.2.56.28,1.16.25,1.76-.23,5.46.57,10.08,2.39,13.85,2.53,5.23,4.02,8.73,4.47,10.48.24.92.38,1.89.41,2.85l.92,27.64c.01.29-.39.38-.5.11-3.32-8.19-8.82-15.22-15.71-21.09ZM363.81,429.88c11.46-2.01,22.76-1.35,33.92,2,1.46.44,2.93-.08,4.41-1.55.29-.29.5-.66.61-1.05,1.61-5.9-4.8-7.41-9.6-8.66-9.31-2.43-18.92-2.64-28.82-.61-.57.12-1.11-.34-1.07-.92,1.4-28.31,4.18-56.42,8.32-84.35,1.31-8.84,3.03-17.03,5.14-24.56.18-.64.66-1.16,1.29-1.39,13.93-5.05,27.8-4.87,41.61.52,1.83.72,5.45-.68,6.49-2.73,2.14-4.21-2.13-7.12-5.82-8.41-12.41-4.35-25.1-4.9-38.05-1.64-.4.1-.74-.29-.6-.67,2.82-7.2,6.91-13.98,12.25-20.35,12.17-14.53,28.17-21.67,48.01-21.42,32.27.39,61.5,17.39,68.83,50.44,1.57,7.1,2.04,14.21,1.4,21.32-.01.12-.15.19-.26.13-9.04-5.39-18.9-8.81-29.58-10.26-2.63-.36-4.76-.34-6.4.05-3.25.78-4.31,5.01-1.97,7.53.63.68,2.02,1.18,4.15,1.5,10.36,1.52,23.77,5.88,32.37,12.4.29.22.44.58.38.95l-3.4,21.63c-.06.4-.52.61-.86.38-18.9-12.73-41.7-17.43-64.53-15.47-2.63.23-4.65,2.43-4.64,5.07v.24c.02,2.56,2.14,4.59,4.7,4.49,21.81-.84,43.99,3.91,61.83,16.61.3.22.45.58.38.95-1.53,7.24-2.96,13.56-4.27,18.96-6.63,27.09-14.22,54.31-22.77,81.66-.06.18-.27.26-.43.15-13.77-8.78-29.15-12.76-46.16-11.95-2.65.12-4.73,2.34-4.7,5v.23c.04,2.65,2.19,4.78,4.84,4.81,15.55.11,29.78,4.08,42.68,11.9.33.19.47.58.36.95l-23.05,73.3c-.11.35-.28.68-.5.96-3.98,5.13-7.4,10.87-10.27,17.23-.19.44-.82.41-1-.02-11.8-28.7-33.67-51.57-62.6-63.6-.74-.3-1.03-1.2-.62-1.89,2.41-4.04,4.37-7.81,5.87-11.32,1.34-3.11,1.91-5.51,1.7-7.2-.57-4.81-4.03-7.17-8.77-6.89-5.31.3-9.83.62-14.53,2.23-.34.11-.71-.13-.71-.5-.1-4.12-.02-8.42.24-12.9,1-17.34,1.86-31.17,2.58-41.51.06-.9.73-1.63,1.62-1.79ZM153.1,313.02c5.15-7.75,8.81-11.85,5.93-21.48-1.33-4.42-3.07-10.16-2.76-14.21.6-7.81,3.76-14,9.49-18.56,3.16-2.53,9.18-5.78,11.83-9.32,2.97-3.98,4.55-8.44,4.75-13.36.61-15.54,7.72-29.89,24.28-33.09,9.81-1.89,20.43,2.03,27.24,8.84,4.09,4.1,6.78,6.66,8.08,7.68,7.46,5.89,15.5,7.17,24.1,3.85,3.2-1.24,5.68-2.11,7.44-2.59,15.54-4.3,29.24,7,32.25,22.04,1.14,5.74,2.2,9.95,3.18,12.63,3.92,10.86,12.24,15.21,23.32,16.36,3.93.41,5.89.61,5.9.61,15.36,3.66,21.99,16.22,23.5,31.13.06.54.01,1.07-.12,1.59-.95,3.5-2.15,8.99-3.6,16.47-5.07,26.25-7.78,57.15-10.25,88.01-1.04,12.93-2.42,40.31-4.15,82.13-.01.37-.19.69-.5.9l-10.53,7.24c-.35.24-.81.2-1.1-.1-4.05-4.2-8.39-9.75-12.54-13.42-5.35-4.72-10.83-8.91-16.42-12.57-11.11-7.28-16.38,3.04-14.6,12.74.83,4.5,1.42,8.42,1.78,11.74.04.38-.26.71-.63.72-10.29.2-20.14,1.73-29.56,4.58-.44.13-.91.01-1.23-.33-10.25-10.78-16.21-22.38-10.26-37.46,5.52-13.98,5.97-25.84-5-36.76-9.72-9.69-26.21-9.21-30.67-24.89-.89-3.11-1.39-5.52-1.48-7.23-.3-5.14-.54-8.17-.73-9.11-2.54-13.11-10.13-21.66-22.77-25.64-1.14-.37-5.66-1.22-13.56-2.56-22.53-3.82-33.48-27.08-20.58-46.56ZM106.5,284.24c4.32-17.97,19.09-27.58,37.21-22.46.41.12.64.56.5.96-1.44,4.04-2.36,8.32-2.79,12.84-.66,7.12,1.66,13.98,4.11,21.3.3.91.07,1.91-.61,2.58l-3.36,3.36c-.27.27-.72.22-.93-.1-7.76-11.88-18.91-17.75-33.45-17.6-.46.01-.8-.43-.69-.86ZM85.43,508.64c-11.46-1.95-21.32-6.11-27.08-15.83-4.59-7.76-4.61-15.88-2.81-24.73,2.36-11.63-1.22-20.88-12.04-26.7-4.78-2.57-11.44-5.61-15.72-9.43-11.09-9.87-14.63-22.26-10.61-37.15,2.62-9.67,9.24-17.6,17.51-24.41,6.46-5.33,10.54-11.44,9.95-20.12-.32-4.51-2.23-8.66-3.41-12.75-5.46-19.07,5.79-38.39,27.09-37.23,3.65.2,8.31,1.16,13.97,2.86.72.22,2.89.41,6.51.57,1.29.06,2.57-.11,3.8-.5,4.38-1.37,7.09-2.22,8.14-2.54,14.41-4.49,25.39,3.82,32.88,15.42.22.35.29.78.21,1.18-3.68,16.23-.68,30.05,9.02,41.45,7.56,8.88,18.16,14.15,29.9,15.7,12.39,1.62,21.16,5.66,22.67,19.46.61,5.52.93,8.48.96,8.9,1.05,11.68,7.87,20.99,18.03,26.83,9.81,5.65,22.26,6.94,21.92,21.24-.1,4.38-2.06,8.59-3.61,13.33-5.11,15.66-.67,32.6,9.98,44.76.24.28.16.72-.18.88-8.53,3.97-15.98,8.3-22.37,12.98-1.01.75-4.17,3.41-9.46,7.98-2.99,2.58-5.89,5.5-8.71,8.77-21.5,24.99-31.54,54.49-30.12,88.5.02.39-.34.71-.73.62-12.46-2.54-22.85-9.53-25.51-22.22-1.16-5.55-.29-12.22-1.22-17.41-1.18-6.6-4.51-11.97-10-16.11-3.44-2.59-7.13-3.4-11.11-5.21-12.27-5.59-16.42-15.2-15.89-27.98.2-4.88.16-8.26-.13-10.14-1.78-11.55-10.36-19-21.83-20.96ZM97.05,564.51c.18-.09.39-.01.47.16,5.49,10.12,14.12,14.65,25.26,18.97,3.25,1.26,5.53,4,6.83,8.21.13.44.18.89.17,1.35-.18,4.92-.58,12.35.61,17.24,5.15,21,23.3,31.9,43.64,34.04.21.02.38.17.44.38l3.09,11.04c.04.11-.06.21-.17.18-16.85-4.18-33.07-9.14-48.65-14.87-13.76-5.05-26.21-11.14-37.36-18.27-4.54-2.9-8.91-6.75-13.11-11.55-17.43-19.97,1.28-38.18,18.78-46.89ZM564.43,936.8c-17.26,9.38-37.99,14.18-56.65,17.04-22.93,3.52-46.37,5.09-70.35,5.17-23.99.1-47.42-1.3-70.39-4.64-18.67-2.73-39.44-7.36-56.77-16.62-9.64-5.16-16.42-14.07-16.2-25.62,0-.35.35-.6.68-.49,35.56,11.2,72.24,17.58,110.04,19.12,11.46.47,22.31.69,32.54.65,10.23-.04,21.07-.34,32.53-.89,37.78-1.83,74.41-8.47,109.89-19.95.33-.11.68.13.68.49.3,11.55-6.4,20.51-16,25.74ZM784.23,661.23c-8.45,38.14-23.39,75-45.32,107.93-17.65,26.48-37.96,49.4-60.93,68.77-31.37,26.44-66.38,45.89-105.01,58.36-54.53,17.6-112.99,22.01-171.24,18.86-74.03-3.99-147.77-25.99-206.8-71.68-15.04-11.63-28.06-23.45-39.05-35.46-46.81-51.16-74.66-111.28-83.56-180.35-.05-.38.4-.61.68-.35,5.79,5.22,12.14,9.82,19.03,13.79,24.38,14.03,52.88,22.73,80.9,29.97,10.7,2.76,20.49,4.99,29.36,6.71,39.55,7.62,75.3,12.73,107.24,15.33,34.57,2.82,66.72,4.49,96.45,5.01,32.79.58,64.64.18,95.53-1.18,59.36-2.62,119.05-9.04,175.99-21.63,10.86-2.4,23.32-5.76,37.37-10.08,18.55-5.71,34.75-12.24,48.59-19.58,10.1-5.37,18.24-10.93,26.25-18.27.29-.27.75-.01.69.38-1.78,11.67-3.85,22.83-6.21,33.45ZM714.98,556.05c4.97-19.54,12.16-38.48,21.81-56.18.07-.13.14-.26.22-.4.04-.08.04-.17,0-.25-3.35-6.55-6.91-3.67-9.15-.03-7.15,11.55-13.23,24.16-18.25,37.81-5.39,14.64-9.55,36.28-13.41,49.63-3.27,11.28-5.94,19.99-8.02,26.14-.16.47-.85.39-.89-.11-2.46-36.82-24.21-65.01-54.19-85.69-1.67-1.14-2.22-3.44-.34-4.97.74-.59,1.65-1.05,2.72-1.36.41-.12.76-.38,1.02-.72,1-1.3,2.54-2.15,4.62-2.55.74-.14,1.29-.74,1.42-1.48,1.13-6.19,3.89-12.26,8.28-18.22,2.68-3.63,5.41-6.09,8.19-7.37,8.74-4.04,16.1-2.74,22.38,4.66.33.38.4.92.17,1.39-6.48,12.96-9.01,27.85-7.57,44.67.26,2.92,2.47,5.28,5.37,5.72h.1c2.51.39,4.69-1.72,4.41-4.24-1.54-13.56.62-26.62,6.49-39.19.18-.4.47-.74.83-.99.31-.21,1.16-.62,2.57-1.22,1.53-.65,2.84-2.7,3.51-4.5,6.16-16.4,17.6-32.14,34.01-39.31,4.49-1.96,8.61-2.88,12.35-2.75,22.25.73,26.74,26.6,23.27,43.92-2.34,11.66-6.49,22.44-12.45,32.33-4.29,7.12-7.3,12.51-9.03,16.16-1.24,2.6-1.01,7.01,1.53,9.16,2.21,1.88,4.7,2.26,7.46,1.13,2.22-.91,5.69-2.43,10.4-4.58,5.87-2.65,12.32-4.31,19.37-4.97,12.38-1.14,26.42,4.47,30.05,17.35,3.55,12.55-3.44,25.01-12.75,33.13-11.96,10.44-23.39,13.03-41.19,18.66-1.14.37-3.42,1.45-6.82,3.25-6.86,3.64-7,8.58-6.75,15.78.02.63-.34,1.2-.92,1.45-21.76,9.23-44.39,16.44-67.88,21.63-.32.07-.56-.27-.4-.55,2.69-4.62,4.81-9.85,8.04-15.03,6.14-9.88,14.76-19.48,25.85-28.81,9.69-8.15,19.65-14.82,29.88-20.02,8.04-4.1,17.94-8.11,29.71-12.05,2.03-.68,3.22-2.79,2.75-4.88l-.05-.19c-.46-2.07-2.45-3.42-4.54-3.1-9.22,1.4-17.94,4.16-26.14,8.26-9.95,4.97-15.14,7.58-15.59,7.82-10.24,5.61-19.2,12.39-26.87,20.36-.4.41-1.08-.01-.89-.55,4.5-12.73,8.12-24.96,10.89-36.7l4.45-17.5Z"/>
      <path class="cls-1" d="M296.37,375.95c.17.13.41-.02.35-.23-6.99-22.76-18.3-44.39-33.83-62.32-7.17-8.28-16.09-15.56-23.27-24.45-7.35-9.1-14.9-19.14-16.53-30.11-.41-2.79.99-4.19,3.33-5,.4-.13.85-.11,1.24.06,1.85.84,3.01,1.7,3.49,2.6,5.98,11.38,11.21,21.27,20.15,30.02,13.54,13.24,21.3,19.67,29.39,31.04.12.17.38.09.39-.12.61-12.75-.61-25.25-3.66-37.48-.76-3.08-.41-5.38,1.06-6.89,3.16-3.25,6.71-.32,7.63,3.09,2.69,9.86,4.23,19.15,4.62,27.88.35,7.84.26,16.22-.27,25.15-.09,1.5.28,2.99,1.05,4.28,8.96,15.1,15.53,31.9,19.73,50.41.12.56.9.62,1.11.1,5.74-14.15,10.4-28.72,11.01-44.46.19-4.79,0-12.61-.57-23.46-.11-2.32,1.7-4.3,4.03-4.38h.19c2.35-.09,4.41,1.57,4.82,3.89,3.46,19.7,1.79,38.76-5,57.2-3.6,9.78-6.94,19.58-10.02,29.4-.5,1.58-.61,3.26-.34,4.9,2.58,15.59,3.14,32.27,1.67,50.04-.24,3.04-2.97,5.27-6,4.92l-.24-.02c-3.09-.35-5.39-3.05-5.25-6.17.88-19-.45-36.18-3.99-51.55-.9-3.9-2.72-7.76-5.46-11.57-9.46-13.16-21.67-21.61-36.29-28.44-13.56-6.33-20.49-9.58-20.8-9.76-4.67-2.68-14.1-7.63-8.29-13.24,1.21-1.17,2.61-1.33,4.21-.47,9.01,4.75,17.86,8.99,26.53,12.69,11.71,5.01,21.56,11.26,29.57,18.73,1.83,1.7,3.23,2.94,4.22,3.71Z"/>
      <path class="cls-1" d="M117.6,401.55c.37.12.67-.32.41-.62-2.11-2.48-4.66-5.81-7.64-9.99-4.33-6.07-11.65-19.05-18.01-27.24-1.35-1.73-4.14-5.28-8.36-10.66-1.51-1.92-1.33-4.66.4-6.38l.17-.18c1.66-1.63,4.3-1.68,6.01-.11,5.31,4.88,9.31,9.37,11.97,13.46,10.21,15.69,20.35,31.85,32.59,44.07,1.4,1.4,6.65,5.75,15.74,13.05,7.86,6.32,15.03,12.98,21.5,19.98.15.16.4.04.38-.18-1.75-12.95-4.96-25.35-9.63-37.2-.22-.56-.34-1.17-.37-1.78-.12-3.82-1.72-8.52,1.98-10.88,1.22-.78,2.8-.71,3.94.18,1.74,1.34,2.5,3.29,2.28,5.85-.04.4.05.79.23,1.14.72,1.38,2.49,3.65,3.36,5.85,6.33,16.08,8.43,33.26,10.6,50.86.11.83.4,1.62.88,2.31,5.78,8.46,12.33,17.1,17.07,26.14,5.24,10,9.65,18.87,13.24,26.64.73,1.57,1.31,5.11.06,7.06-1.54,2.39-4.01,3.37-7.41,2.95-1.08-.13-2.03-.8-2.53-1.78l-6.52-12.81c-.16-.32-.38-.6-.64-.83-4.82-4.26-9.35-7.95-13.59-11.09-18.59-13.69-40.83-20.13-64.04-23-2.12-.27-4.58-.71-7.37-1.34-4.82-1.1-7.89-1.44-10.59-4.75-.28-.35-.45-.78-.46-1.22-.11-2.44.86-4.24,2.9-5.4.46-.26.99-.37,1.51-.29,12.66,1.76,23.7,3.56,33.11,5.39,17.26,3.37,32.79,9.79,46.61,19.28.37.26.82-.19.56-.56-5.81-8.45-12.3-17.22-19.46-26.31-6.05-7.68-13.35-15.06-21.89-22.12-6.14-5.09-12.07-9.02-17.78-11.79-12.83-6.24-24.18-9.8-39.88-14.83-1.4-.45-2.85-1.51-4.34-3.19-.27-.3-.45-.67-.52-1.07-.28-1.74.18-3.26,1.4-4.55,2.17-2.31,7.07-.68,9.64.22,13.04,4.51,20.54,7.09,22.5,7.73Z"/>
      <path class="cls-1" d="M317.44,527.5c1.52-5.95,8.2-9.39,14.93-7.67,6.73,1.71,10.96,7.93,9.43,13.88-1.52,5.95-8.2,9.39-14.93,7.67-6.73-1.71-10.96-7.93-9.43-13.88ZM324.96,529.48c-.56,2.14.95,4.39,3.38,5.03,2.42.63,4.85-.6,5.4-2.74.56-2.14-.95-4.39-3.38-5.03-2.42-.63-4.85.6-5.4,2.74Z"/>
    </g>
  </g>
</svg>