<?xml version="1.0" encoding="UTF-8"?>
<svg id="Capa_2" data-name="Capa 2" xmlns="http://www.w3.org/2000/svg" viewBox="0 0 482.14 940.27">
  <defs>
    <style>
      .cls-1 {
        fill: #fef1d1;
      }
    </style>
  </defs>
  <g id="Capa_1-2" data-name="Capa 1">
    <g>
      <path class="cls-1" d="M52.13,180.97c1.58,4.18,4.52,6.91,8.84,8.2,4.79,1.43,9.62,1.52,14.47.27l7.53-1.43c.23-.05.47.03.65.19,2.82,2.68,5.36,5.5,7.61,8.44,4,5.25,7.31,10.03,9.91,14.34,2.09,3.46,6.75,1.82,7.59-1.59.06-.24.05-.5-.04-.74-1.04-2.8-1.94-4.82-2.7-6.05-4.33-7-9.54-13.85-15.63-20.56-.36-.4-.48-.96-.31-1.47,2.33-6.92,3.7-14.65,1.08-21.51-1.76-4.62-4.78-7.8-9.06-9.54-.28-.12-.47-.37-.5-.67-.72-8.34-4.62-14.21-11.7-17.62-3.57-1.73-7.4-1.8-10.95-.19-.37.17-.81.09-1.11-.19-3.23-3.07-6.95-5.13-11.16-6.17-4.76-1.18-10.81-1.02-14.67,2.39-7.49,6.63-6.3,19.79.95,26.04l.11.36c.06.23.04.47-.08.69-4.18,7.72-1.59,16.08,4.98,21.36,3.63,2.91,8.16,4.58,13.6,5,.26.02.5.19.59.44ZM104.11,206.65c.16.27,0,.62-.33.66l-.11.02c-.41.05-.81-.15-1.04-.5-5.15-8.11-10.94-15.67-17.38-22.7l-2.63-3.46c-.11-.13-.04-.33.13-.38.24-.07.53-.03.89.11,7.18,6.61,14.01,15.36,20.47,26.25ZM36.31,158.68c.38-1.7,1.02-3.2,1.92-4.49.55-.8.46-1.87-.22-2.56-2.69-2.68-4.58-5.84-5.66-9.49-1.6-5.4.59-11.67,6.77-13.09,6.64-.2,12.21,2.06,16.72,6.77,1.19,1.25,1.98,1.38,3.48.44,3.34-2.1,6.76-1.93,10.26.5,4.94,3.41,7.29,8.35,7.07,14.81-.02.64.35,1.21.94,1.45l4.21,1.7c6.17,5.38,6.58,11.83,5.09,19.03-.49,2.39-.78,3.86-.87,4.42-.06.37-.51.52-.77.26l-7.42-7.42c-.38-.38-.6-.9-.62-1.44l-.1-3.63c.1-3.23.01-5.29-.26-6.18-.43-1.41-1.25-2.28-2.46-2.62-.9-.25-1.76.49-1.65,1.42l.92,7.87c.04.32-.35.5-.57.28l-7.43-7.42c-.25-.25-.39-.57-.43-.92l-1.22-11.51c-.12-1.12-1.13-1.93-2.25-1.8l-.21.02c-.86.1-1.48.88-1.38,1.74l.84,7.08c.04.3-.33.48-.54.26l-12.32-12.33c-.57-.57-1.48-.57-2.04,0l-.74.74c-.56.56-.58,1.46-.05,2.05l8.63,9.59c.14.15,0,.4-.2.36l-6.06-.98c-1.02-.16-1.91.7-1.77,1.73v.08c.14,1.12,1.01,2.01,2.13,2.18l10.06,1.45c.24.04.46.15.62.31l8.42,8.42c.2.2.03.53-.25.5l-13.69-2.08c-1.04-.15-2.01.56-2.16,1.59l-.05.29c-.09.6.29,1.19.89,1.34,4.33,1.11,8.34,1.77,12.02,1.98,2.12.78,4.1,1.08,5.92.88.71-.08,1.41.19,1.9.7l9.19,9.82c.2.12.33.26.41.42.13.26-.05.57-.33.57-6.91.33-14.01,3.79-20.6-.11-3.11-1.84-3.44-3.32-4.38-6.47-.18-.58-.71-.98-1.32-.98-9.82.06-20.47-6.31-18.38-17.52Z"/>
      <path class="cls-1" d="M111.92,156.38c-2.12.62-3.29,2.98-2.61,5.28.67,2.29,2.94,3.64,5.06,3.02,2.12-.62,3.29-2.98,2.61-5.28-.67-2.29-2.94-3.64-5.06-3.02Z"/>
      <path class="cls-1" d="M210,171.87c2.21.7,4.67-.79,5.48-3.35.82-2.56-.32-5.2-2.53-5.91-2.21-.7-4.67.79-5.48,3.35-.82,2.56.32,5.2,2.53,5.91Z"/>
      <path class="cls-1" d="M248.07,185.17c0,3.47,2.82,6.29,6.29,6.29,3.47,0,6.29-2.82,6.29-6.29h0c0-3.47-2.82-6.29-6.29-6.29-3.47,0-6.29,2.82-6.29,6.29ZM255.99,185.14h0c0,.92-.75,1.67-1.67,1.67s-1.67-.75-1.67-1.67.75-1.67,1.67-1.67,1.67.75,1.67,1.67Z"/>
      <path class="cls-1" d="M210.13,297.88c1.49-2.78,3.46-6.21,2.76-9.42-.45-2.04-1.42-3.88-2.91-5.52-1.4-1.69-2.97-3.26-4.71-4.73-10.5-8.84-22.6-16.03-34.74-22.57-12.62-6.8-24.83-12.63-36.62-17.48-.33-.13-.5-.48-.43-.82l.67-3.2c.06-.29.29-.53.57-.61,3.83-1.05,11.03-5.09,11.91-9.64.28-1.47.64-2.56,1.07-3.29,2.66-4.5,3.85-10.92.16-15.21-.19-.22-.33-.51-.36-.81-.69-5.03-1.35-8.6-5.36-12.12-1.25-1.09-2.4-1.57-3.44-1.42-3.66.53-7.66,4.83-9.09,7.75-.15.32-.58,1.26-1.29,2.82-.16.36-.44.67-.78.88-2.76,1.66-4.02,4.17-3.78,7.54.05.71-.07,1.43-.35,2.09-1.06,2.44-1.54,4.11-1.44,5.03.63,5.78,2.97,10.71,7.01,14.77.26.26.37.64.29.99l-.5,2.41c-.05.24-.3.38-.53.29l-14.29-5.31c-11.53-4.26-23.43-7.49-35.71-9.68-4.61-.83-8.38-1.11-11.31-.85-2.71.24-4.71.76-6.02,1.55-1.52.92-2.47,1.79-2.86,2.6-11.64,24.42-5.52,55.1,10.29,75.86,14.99,19.7,38.34,31.68,62.7,35.63,31.61,5.12,63.69-8.98,79.09-37.52ZM127.53,215.66c.27-.25.42-.61.4-.98-.21-3.04-1-7.72,2.95-8.3.41-.06.74-.38.83-.78.82-3.91,2.89-7.13,6.22-9.66.26-.2.6-.28.91-.22.63.1,1.22.54,1.76,1.3,1.98,2.8,2.89,5.94,2.73,9.41-.07,1.41,2.03,1.55,2.36,3.22.69,3.47-.09,6.49-2.32,9.07-.14.16-.23.36-.29.57-.11.42-.14.85-.1,1.31.36,3.61-4.76,6.96-7.51,8.25-.25.12-.52-.1-.46-.37l1.6-7.65c.12-.6.54-1.11,1.11-1.35,1.7-.73,3.24-2.11,2.67-4.05-.08-.26-.4-.35-.6-.15l-.95.95c-.58.58-1.56.05-1.39-.74l1.98-9.6c.22-1.08-.43-2.14-1.49-2.43l-.11-.03c-1.02-.3-2.08.33-2.31,1.36-.98,4.54-1.76,7.84-2.34,9.91-.5,1.76-.92,3.78-1.29,6.08-.54,3.39-.84,5.44-.91,6.14-.03.29-.39.39-.57.16-1.93-2.42-5.76-8.77-2.9-11.4ZM64.02,226.05c1.84-1.09,5.04-.88,8.84-.54,4.06.36,8.46,1.12,13.19,2.26,9.48,2.3,18.63,4.96,27.45,7.99l14.12,5.45c.32.12.53.44.52.78-.06,1.64.74,2.4,2.39,2.3.15,0,.29-.06.42-.15l.94-.64c.22-.15.51-.17.75-.06l18.61,8.48,24.13,12.73c9.75,5.46,18.66,11.42,26.74,17.86,1.95,1.56,3.59,3.53,4.91,5.9.5.89.2,1.61-.58,2.11-4.25,1.32-8.94.88-13.43.09-14.75-2.59-27.54-6.84-41.48-12.03-18.99-7.08-37.05-15.35-54.17-24.81-3.97-2.2-7.99-4.61-12.07-7.23-7.74-4.98-13.13-8.55-18.41-14.11-1.45-1.53-2.57-3.15-3.35-4.87-.25-.55-.05-1.21.48-1.52ZM60.88,273.11c-3.85-13.25-4.15-26.41-.89-39.49.09-.38.6-.47.82-.14,3.68,5.51,10.1,10.25,15.56,13.91,3.37,2.4,6.24,4.29,8.59,5.69,26.47,15.68,54.14,28.1,83.01,37.25,7.28,2.31,14.37,4.13,21.28,5.46,4.18.81,10.12,1.65,14.58.74.34-.07.6.29.41.59-13.1,20.78-35.22,33.47-59.96,33.44-18.27-.02-36.28-5.97-51.43-16.07-15.32-10.21-25.98-24-31.98-41.4Z"/>
      <path class="cls-1" d="M162.56,207.79c2,.58,4.14-.72,4.78-2.9.64-2.19-.46-4.44-2.46-5.02-2-.58-4.14.72-4.78,2.9-.64,2.19.46,4.44,2.46,5.02Z"/>
      <path class="cls-1" d="M425.05,565.82c.45.62,1.12.99,2.01,1.11,28.38,3.69,60.14-13.81,54.4-46.78-1.26-7.22-4.55-14.24-7.49-21.4-3.45-8.4-5.62-17.19-6.52-26.38-1.45-14.9-.28-31.51-.39-44.29-.1-12.14-1.52-23.92-4.24-35.34-6.63-27.86-23.95-52.17-49.73-65.16-14.6-7.36-29.84-9.94-45.73-7.73-.37.05-.75,0-1.08-.19-13.98-7.32-28.7-9.1-44.15-5.34-16.85,4.11-31.4,12.59-43.63,25.45-9.61,10.09-16.86,21.22-21.75,33.38-2.47,6.14-4.26,11.33-5.37,15.58-4.49,17.17-10.45,32.3-22.38,43.86-8.43,8.17-15.18,14.73-18.75,25.22-1.89,5.24-2.37,10.45-1.45,15.64.07.38-.36.64-.67.42-3.61-2.66-7.47-5.13-11.57-7.41-2.53-1.4-4.99-1.59-7.38-.56-.31.13-.67.03-.86-.25l-12.94-19.06c-.17-.25-.23-.55-.17-.84,1.22-6.04.81-12.05-1.34-17.88-1.11-3.02-1.68-4.59-1.73-4.73-1.37-4.38-1.08-10.57-1.96-14.95-.65-3.28-3.4-6.13-6.96-6.07-7.45.1-9.67,9.16-9.43,14.84.02.29-.33.46-.56.28-6.92-5.59-13.1-12.28-19.49-18.07-2-1.81-4.04-3.11-6.12-3.9-3.49-1.32-6.07-.5-7.76,2.47-.14.24-.38.4-.65.43-.57.05-1.72-.53-2.61-.6-4.61-.32-8.2,3.04-7.01,7.79.1.39-.12.78-.49.92-5.18,1.84-3.98,8.82-1.41,12.16.24.3.22.74-.04,1.03-3.8,4.28-.84,9.9,1.95,14.03,8.77,12.97,20.08,23.13,33.93,30.49,2.96,7.37,6.03,14.72,9.21,22.06,4.32,9.98,9.17,19.64,14.54,28.97,6.89,12.32,15.37,23.27,25.46,32.85.19.18.26.46.17.71-.97,2.75-1.58,5.59-1.83,8.51-.19,2.22.71,4.15,2.7,5.82,10.12,8.45,20.61,16,31.47,22.65.19.12.29.33.24.55-1.45,6.53-2.32,13.17-2.62,19.9-.26,8.44-.45,16.91-.55,25.39-.1,8.14-.46,13.5-1.09,16.08-7.24,29.73-14.46,59.88-19.28,90.35-.47,2.95-.81,5.52-1.01,7.68-.34,3.66,4.35,5.64,7.3,7,.29.14.46.46.39.77-2.1,9.77-4.16,20.99-6.18,33.64-1.4,8.81-2.47,18.76-3.21,29.86-1.63,24.7-2.85,48.57-3.68,71.61-.12,3.48-.36,5.17,2.67,6.58.33.15.37.6.08.82-9.47,6.99-20.85,16.8-20.39,29.72.31,8.6,8.65,12.58,16.18,13.85,16.29,2.75,34.1-1.33,48.6-8.41,6.68-3.26,10.88-6.21,11.28-14,.28-5.6-.25-11.52-1.6-17.76-.11-.5.2-.99.7-1.11,1.82-.43,3.1-1.31,3.84-2.66.14-.26.23-.53.27-.82,1.58-11.68,2.48-18.14,2.7-19.4,3.15-17.27,6.34-34.49,9.57-51.67.74-4.01,1.36-7.96,2.56-11.84,4.3-13.88,8.86-27.67,13.67-41.38.11-.15.22-.27.33-.36.11-.08.26-.11.46-.11,6.14.16,12.47.17,19.01.04.18,0,.35.09.43.25,7.72,14.02,15.69,26.15,25.52,40.99,5.93,8.94,12.18,17.73,18.74,26.37,13.77,18.12,28.14,35.96,43.09,53.53,1.7,1.99,2.86,3.61,5.15,3.59.68,0,1.27.03,1.78.09.26.03.44.28.39.53-.31,1.48-.55,2.45-.71,2.91-2.6,7.08-4.34,11.94-5.22,14.58-2.39,7.2-2.42,16.69,3.93,21.57,3.44,2.65,7.44,4.04,12.01,4.18,11.08.34,20.76-3.18,29.02-10.54,4.77-4.34,8.9-9.86,12.39-16.56,4.25-8.13,6.95-15.43,8.1-21.9,1.19-6.62-.54-12.33-5.18-17.14-2.78-2.88-5.52-5.47-8.23-7.78-.33-.28-.4-.75-.19-1.12,1.82-3.2,1.67-6.26-.46-9.19-12.67-21.85-25.51-43.59-38.5-65.24-1.36-2.28-2.36-4-3.34-6.18-4.35-9.78-9.06-21.05-14.13-33.79-.09-.23,0-.5.23-.61,4.28-2.12,8.37-4.82,12.27-8.1,1.21-1.02,1.85-2.21,1.9-3.59,0-.24-.02-.48-.1-.7-9.85-29.25-22.49-56.93-36.5-84.42-.4-.77-.6-1.62-.6-2.47-.09-17.83,9.55-33.09,14.63-49.17,3.72-11.81,3.92-25.81-2.08-37.04-.12-.23.09-.5.34-.43,10.32,2.96,21.31,3.14,31.44-1.6,11.08-5.18,18.09-13.78,21.02-25.79.02-.1.12-.18.23-.17.1,0,.19.09.2.2.15,1.41.31,3.17.48,5.29.68,8.68-2.32,16.65-8.37,23-.6.63-.66,1.61-.14,2.34ZM260.8,403.38c.33-.09.58-.08.77.02.21.11.29.37.19.58-4.64,8.99-8.42,18.08-11.34,27.28-.12.39-.67.4-.81,0-3.46-10.37-.6-24.62,11.19-27.88ZM223.97,486.14c.09-.22.12-.47.09-.71-.64-4.19-2.13-12.02,1.43-14.79.78-.6,1.88-.5,2.5.23.53.62.9,1.48,1.12,2.58,1.1,5.54,2.49,10.13,4.18,13.77,2.13,4.62,3.33,7.75,3.97,11.74.39,2.48.69,5.1.91,7.86.08.93.5,1.79,1.2,2.41,14.79,13.12,30.41,24.89,46.87,35.3,6.46,4.09,13.71,7.16,21.75,9.22.5.13.88.52.98,1.01,2.53,11.41.64,23.83-2.99,34.78l-2.07,5.68c-.08.21-.3.33-.52.28-11.65-2.76-22.6-7.55-32.84-14.37l-8.98-6.66c-2.44-2.39-4.87-4.74-7.31-7.07-3.02-2.88-5.41-5.28-7.18-7.2-8.67-9.4-16.93-19.15-24.78-29.26-.91-1.18-1.56-2.7-2.74-3.21-3.37-1.46-7.32-2.3-10.68-3.9-9.98-4.76-18.77-11.58-26.35-20.45-.93-1.09-1.56-2.31-1.91-3.65-.2-.78.23-1.54.91-1.58.15-.01.44.06.87.22.2.07.39.19.54.34,3.46,3.39,7.25,6.56,11.4,9.51.91.65,2.17.49,2.89-.37l.09-.1c.74-.89.62-2.22-.29-2.94-4-3.2-8.75-7.25-14.25-12.15-1.58-1.4-5.58-6.26-2.68-7.67.78-.38,1.46-.28,2.05.29,5.18,5.09,10.75,9.77,16.72,14.04.53.39,1.22.35,2.07-.12.51-.28.8-.79.86-1.52.08-.73-.13-1.29-.64-1.68-6.89-5.39-13.32-11.19-19.3-17.41-.35-1.83.11-3.39,2.36-2.95,1,.2,1.87.5,2.62.9l12.14,10.06,5.89,4.53c.81.62,1.98.43,2.54-.42l.36-.54c.59-.88.4-2.05-.43-2.71l-4.52-3.56c-4.27-3.38-8.79-6.89-12.39-11.01-.45-.52-.5-1.05-.46-1.69.76-.89,1.97-1.07,3.62-.53,1.5.56,2.94,1.31,4.33,2.24,3.25,2.18,6.48,4.36,9.71,6.55,5.93,4.15,10.34,6.85,13.22,8.1,1.46.64,2.5.17,3.13-1.4ZM271.25,528.45c0-.12.05-.22.18-.3.2-.12.4-.11.6.05.09.07.1.16.04.29-.19.42-.81.39-.82-.04ZM345.3,522.92c-1-1.67-.92-2.53-.43-4.06.08-.25.34-.38.58-.29.33.12,1.24.84,2.73,2.15,1.12.99,1.41,1.76,1.15,3.41-.9,5.6-1.73,10.74-2.49,15.42-.1.64-.5,1.19-1.08,1.49-4.31,2.25-8.8,3.82-13.48,4.73-2.37.46-5.03.52-7.98.19-5.6-.63-9.09-1.17-13.38-.92-.3.02-.59.11-.85.26-.75.44-1.44,1.06-2.07,1.87-.29.38-.79.53-1.24.4l-2.3-.68c-.26-.08-.4-.36-.29-.61,1.24-2.81,2.87-5.89,4.87-9.23,3.6-6,7.8-5.8,15.38-6.42,4.69-.39,9.77-1.24,15.21-2.55,2.24-.53,7.5-2.08,5.66-5.17ZM338.81,522.02c-.08.39-.39.69-.77.75l-17.13,2.91c-7.24-.06-12.69,2.8-16.35,8.58-2.14,3.37-3.74,6.88-4.8,10.52-.05.18-.24.28-.42.22l-.2-.08c-.31-.12-.5-.44-.43-.77.82-4.41,1.06-8.74.71-13-.46-5.52-4.75-9.4-8.89-12.95-.22-.19-.32-.49-.26-.77l1.38-6.39c.12-1.02.49-1.4,1.1-1.15,15.07,6.32,30.62,8.49,46.65,6.53.29-.03.54.23.48.52l-1.07,5.09ZM285.85,513.38c-.09.36-.32.66-.63.85-2.25,1.44-2.43,3.3-.54,5.59,1.2,1.46,3.81,3.98,7.82,7.58.19.16.34.35.47.56,2.3,3.59,1.5,9.88.99,14.22-.04.38-.47.57-.79.36l-14.73-9.82c-.22-.15-.42-.34-.57-.57-.91-1.39-1.17-2.91-.77-4.57.77-3.17,1.61-6.31,2.53-9.43l1.06-4.39c.09-.36.29-.68.57-.92,1.22-1.03,2.75-1.79,4.58-2.28.36-.09.57.05.64.44l-.64,2.39ZM301.35,601.3l-1.94,3.01c-.26.4-.87.26-.92-.22l-.43-3.69c-.04-.33.27-.6.6-.5l2.44.72c.29.09.42.43.26.68ZM199.05,553.47l-1.84,2.08c-.33.38-.94.02-.77-.45.46-1.31.67-2.39.63-3.22-.02-.29.33-.46.56-.27l1.39,1.22c.19.17.21.46.04.65ZM149.63,464.13c-.97-2.38-.88-4.11-3.8-5-13.86-7.52-25.06-17.96-33.61-31.3-.75-1.17-1.23-2.31-1.45-3.41-.15-.79.39-1.55,1.19-1.67,1.77-.26,3.48,1.86,4.55,3.11,2.16,2.54,4.47,4.95,6.93,7.24,1.22,2.11,3.77,2.99,4.9.5.4-.88.33-1.48-.22-1.81-3.92-4.01-7.72-7.99-11.4-11.95-.27-.29-1.47-1.01-3.6-2.17-.26-.15-.48-.36-.64-.62-1-1.7-1.67-3.2-2.02-4.49-.29-1.06.3-2.12,1.26-2.24.85-.1,1.56.15,2.13.75,4.73,5.07,9.46,10.03,14.19,14.87.81.82,2.15.77,2.9-.11l.08-.09c.77-.91.71-2.27-.13-3.11-3.97-3.97-7.98-8.27-12.02-12.89-1.27-1.46-2.75-2.56-3.85-3.59-.98-.92-1.19-2.3-.47-3.12,1.87-2.15,6.34,2.25,7.65,3.72,4.45,5,8.68,9.53,12.7,13.6.82.83,2.17.8,2.95-.07l.08-.09c.79-.88.78-2.22-.02-3.08-5.44-5.82-9.34-10.08-11.7-12.78-.92-1.05-1.62-2.04-2.11-2.95-.45-.84.32-1.82,1.25-1.59.81.21,1.67.63,2.57,1.27,1.87,1.34,3.89,3.07,6.06,5.18,7.27,7.1,12.77,13.19,20.58,17.52.25.14.53.21.81.22,1.3.01,2.31-.59,3.04-1.81.14-.24.21-.51.2-.79-.06-3.28-.17-12.81,3.89-14.25.25-.09.51-.12.77-.09,1.19.11,1.88,1.21,2.08,3.3.59,6.26.73,11.33,2.8,16.7,1.79,4.43,2.48,9.08,2.09,13.95-.17,2.12-.32,4.14-.46,6.08-.04.59.12,1.18.45,1.67l14.58,21.48c.17.26-.04.6-.35.55-4.59-.71-8.29,2.81-7.6,7.38.11.75.5,1.32.53,1.86.02.26-.1.51-.31.67-2.41,1.82-3.37,4.3-2.87,7.44.44,2.07,1.52,4.2,3.22,6.4.09.11.09.26,0,.37-3.01,4.26-1.43,8.68,1.6,12.3,8.77,10.45,20.92,19.72,34.16,23.74.35.11.5.51.3.82l-10.71,16.62c-.26.4-.81.48-1.18.17-11.97-10.46-21.81-22.75-29.53-36.87-1.16-2.12-2.33-4.23-3.52-6.34-6.91-13.46-13.21-27.2-18.93-41.24ZM207.2,745.65c-.22-.12-.35-.37-.32-.63l.9-6.73,1.46-10.4c.65-1.22,1.01-2.83,1.1-4.83,4.83-24.91,10.36-49.68,16.58-74.29.82-3.26,1.22-8.67,1.21-16.21l.66-30.72c.54-5.73,1.06-9.67,1.56-11.8,2.1-8.96,5.23-17.53,9.37-25.72.16-.3.23-.64.23-.98,0-1.2-.28-2.03-.84-2.5-1.46-.8-2.71-.7-3.75.27-3.16,5.95-5.83,12.18-8,18.67-.09.28-.43.4-.67.24-9.48-5.87-18.52-12.38-27.11-19.55-.23-.19-.23-.55,0-.74,2.23-1.81,4.18-3.83,5.86-6.06,4.02-5.36,7.71-10.96,11.06-16.81.5-.86.87-1.66,1.13-2.39.08-.23.39-.28.53-.09,9.36,12.34,19.29,23.97,29.79,34.87.22.23.3.57.2.88-3.9,11.67-6.79,23.66-8.68,35.96-1.55,10.3-2.54,19.52-2.98,27.66-.69,12.79-1.58,24.39-2.65,34.81-2.92,28.27-5.88,58.58-7.45,84.8-.02.24-.26.41-.49.33-6.63-2.1-12.87-4.78-18.72-8.04ZM186.2,916.45c.63-1.51,1.62-3.01,2.96-4.5,4.41-4.9,9.35-9.34,14.83-13.34.16-.11.36-.13.53-.06,12.88,5.48,28.5,5.28,41.95,1.8.26-.06.5.11.53.37l.91,7.63c.07.6-.21,1.19-.72,1.53-10.26,6.65-22.23,11.25-34.3,13.18-8.01,1.28-19.84,1.48-26.2-4.36-.62-.57-.81-1.46-.5-2.24ZM248.36,916.35l-.96,3.79c-.06.26-.16.5-.31.73-.84,1.32-2.41,2.6-4.73,3.84-12.7,6.8-29.36,10.78-44.16,9.58-1.95-.15-5.05-.89-9.3-2.2-3.61-2-5.34-4.72-5.19-8.16.02-.35.44-.51.68-.26,1.67,1.71,3.81,2.92,6.44,3.64,4.31,1.4,8.5,2.08,12.55,2.02,12.48-.17,24.67-3.14,36.55-8.93,2.75-1.34,5.54-2.5,7.74-4.46.31-.27.78.02.68.42ZM255.96,865.4l-4.11,26.06c-.11.7-.59,1.29-1.25,1.53-4.81,1.79-9.97,3-15.46,3.65-11.66.67-22.64-.23-33.09-5.88-.43-.23-.69-.69-.67-1.19,1.01-23.08,2.49-49.34,4.44-78.81,1.22-18.28,4.56-36.64,8.1-55.18.03-.17.22-.27.38-.2,2.91,1.32,5.85,2.42,8.81,3.32,3.53,1.07,6.21,2.35,9.57,3.27,15.35,4.18,30.91,6.69,46.66,7.52.48.03.67.23.59.6-4.59,11.74-8.27,23.99-12.01,36.03-1.4,4.53-2.57,9.03-3.5,13.49-.95,4.53-1.85,9.1-2.72,13.7l-5.72,32.07ZM441.45,872.54l1.82-2.77c.17-.26.53-.29.74-.08l2.75,2.75c.17.17.26.41.25.66-.25,3.52-.82,6.79-1.7,9.81-4.56,15.54-12.26,34.89-29.89,38.86-5.04,1.13-11.76,1.07-15.81-2.23-.2-.17-.3-.43-.26-.69.41-2.87.92-5.15,1.53-6.84,2.62-7.2,4.33-11.54,5.37-16.39l.26-.73c.09-.24.3-.4.56-.43,7.29-.84,13.87-3.28,19.74-7.31,5.58-3.83,10.47-8.7,14.66-14.61ZM399.99,925.84c2.09.97,4.22,1.56,6.38,1.78,21.48,2.17,33.66-14.04,40.45-31.79,2.22-5.81,4.38-11.7,4.99-17.47.04-.38.53-.5.74-.18,1.63,2.43,2.38,5,2.25,7.71-.19,4.11-1.76,8.56-3.34,13.02-2.47,6.97-6.24,13.71-11.3,20.22-7.3,9.38-19.66,14.95-31.65,13.39-3.79-.49-7.77-2.42-8.87-6.38-.06-.21.16-.39.35-.3ZM400.64,788.98c12.81,21.88,25.74,43.68,38.8,65.41.12.21.26.41.4.61l1.87,3.11c.44.74.5,1.64.14,2.42-1.7,3.74-3.81,7.21-6.34,10.41-9,11.36-21.76,18.84-35.98,18.02-.48-.03-.92-.26-1.23-.63-8.37-10.36-16.06-19.9-23.08-28.62-13.17-16.36-22.49-28.42-27.94-36.16-12.29-17.47-24.06-35.35-34.59-53.46-.13-.22.02-.51.28-.53,16.16-1.32,30.93-3.58,47.37-8.51,6.6-1.98,12.46-4.12,17.59-6.41l6.14-2.87c.39-.18.84,0,1,.39l7.73,18.67c3.57,9.3,6.18,15.35,7.82,18.15ZM369.79,615.57c-4.39,10.28-8.02,21.03-8.27,32.12-.05,2.15.1,3.7.43,4.64,0,.02.02.03.02.05.18.75,1.13,2.85,2.84,6.29,8.97,18.03,16.81,35.1,23.5,51.2,3.83,9.19,7.11,17.78,9.85,25.77.17.5,0,1.06-.44,1.36-8.55,6.05-18,11.02-28.35,14.91-12.15,4.57-24.2,7.74-36.16,9.51-29.4,4.35-58.45,3.67-87.16-2.05-4.7-.93-9.2-2.07-13.49-3.41-.25-.08-.42-.32-.4-.58,1.86-29.75,4.45-59.43,7.77-89.03.74-6.62,1.32-13.01,1.76-19.17.45-6.41.89-12.81,1.31-19.19.37-5.52.82-10.94,1.35-16.25,1.67-12.89,4.4-25.38,8.19-37.48.08-.26.4-.35.6-.17l5.76,5.07c.19.16.18.46-.02.61-1.77,1.45-2.53,3.42-2.29,5.91.34,2.36,1.51,4.02,3.49,4.97,3.56,1.7,7.41.25,9.32-3.08.12-.22.42-.29.64-.16,7.07,4.33,14.42,7.8,22.04,10.4.36.12.61.46.62.85.05,2.63.31,5.09.77,7.37.81,4.07,3.19,5.28,7.23,6.52,13.47,4.13,27.45,6.7,41.94,7.7,1.49.1,2.77-1.05,2.82-2.54v-.12c.06-1.51-1.08-2.79-2.59-2.91-13.33-1.04-26.37-3.4-39.1-7.09-.28-.08-.37-.43-.17-.64.55-.59,1.09-1.31,1.62-2.15,3.49-5.56,5.8-11.77,7.57-17.92,2.76-9.62,3.6-19.24,2.51-28.87-.31-2.72-.86-5.15-1.64-7.31-.03-.07.03-.15.11-.14l36.33,3.39c1.32.12,2.53-.8,2.74-2.11l.05-.31c.23-1.39-.77-2.67-2.16-2.8l-5.42-.5c-.27-.02-.33-.4-.09-.5,2.02-.91,3.6-1.95,4.76-3.13.2-.2.52-.25.77-.1,11.71,6.97,23.29,14.61,26.72,28.05,3.84,15.08-1.72,29.09-7.66,42.99ZM407.99,488.69c-5.06,2.49-11.11,3.05-15.87.13-.36-.22-1.32-.82-2.91-1.82-.95-.6-2.2-.4-2.91.48-9.24,11.29-21.09,18.51-35.55,21.66-25.51,5.55-52.26,1.22-73.66-13.96-13.5-9.58-23.13-25.3-23.71-42.06,0-.29.33-.46.55-.26,2.15,1.97,4.74,3.06,7.79,3.28,13.09.95,22.37-13.56,15-24.88-1.56-2.4-3.6-4.03-6.11-4.91-4.61-1.7-8.87-1.09-12.78,1.84-.22.16-.51-.06-.41-.31,3.89-9.92,8.31-19.64,13.25-29.17,5.61-10.81,12.83-20.38,21.65-28.72,12.3-11.72,26.67-19.58,43.13-23.58,4.42-1.07,8.53-1.3,12.33-.68.5.08.97.33,1.3.72,8.92,10.06,15.18,21.73,20.24,34.21,1.71,4.2,5.16,13.3,10.36,27.28,5.19,13.95,10.64,25.41,17.71,36.32.1.15.14.33.12.51-1.18,9.02-3.93,17.59-8.26,25.7-.11.21-.15.46-.1.69.29,1.43,1.14,2.16,2.53,2.21.27,0,.54-.06.77-.21,1.32-.86,2.45-1.83,3.4-2.92,4.31-4.93,8.04-10.16,11.19-15.67.17-.29.46-.5.8-.56,5.64-.94,10.01,1.85,12.27,6.99,4.75,10.78-2.42,22.89-12.12,27.68Z"/>
      <path class="cls-1" d="M124.42,349.81c-.69-3.09-5.65-2.4-5.11,1.55.68,4.89,2.33,9.95,4.17,15.2,1.84,5.24,3.7,10.23,6.23,14.48,2.03,3.42,6.34.88,4.95-1.98-2.34-4.79-4.34-9.56-6-14.32-1.66-4.75-3.07-9.73-4.24-14.94Z"/>
      <path class="cls-1" d="M142.8,356.59c-.13-.52-.44-.93-.91-1.25-2.6-1.74-4.68.83-4.01,3.56.9,3.66,2.09,7.46,3.56,11.42,1.47,3.96,3.06,7.62,4.76,10.98,1.27,2.51,4.52,3.1,5.35.09.15-.55.11-1.07-.12-1.55-2.18-4.5-3.85-8.29-4.99-11.37-1.15-3.08-2.36-7.03-3.65-11.87Z"/>
      <path class="cls-1" d="M291.19,390.41c2.86-1.12,5.93-1.53,9.22-1.24,3.29.29,6.24,1.23,8.86,2.83,1.74,1.06,3.55.78,4.14-1.11.33-1.08-.02-2.25-.89-2.96-3.32-2.69-7.37-3.77-11.64-4.15-4.28-.37-8.44,0-12.19,2.06-.98.55-1.53,1.64-1.39,2.76.26,1.97,1.99,2.56,3.89,1.81Z"/>
      <path class="cls-1" d="M369.73,406.71c-4.05-2.28-8.65-3.42-13.17-3.03-.52.05-1.18.54-1.98,1.47-.18.2-.28.46-.29.73-.09,1.87.69,2.84,2.35,2.89,3.8.11,7.26,1.05,10.37,2.8,3.11,1.75,5.7,4.22,7.76,7.41.9,1.39,2.13,1.56,3.69.51.22-.15.39-.37.47-.63.38-1.17.46-1.99.23-2.46-2.01-4.07-5.36-7.41-9.42-9.7Z"/>
      <path class="cls-1" d="M302.36,422.93c1.6-1.99-.1-4.59-2.68-4.08-1.16.22-2.2,1.56-2.91,2.22-.2.19-.43.35-.67.47-3.47,1.82-6.63,1.87-9.48.15-3.47-2.09-3.96-4.94-3.73-8.68.06-1.02-.71-1.96-1.84-2.25-1.88-.47-3.26,1.03-3.38,2.79-.06.92-.15,1.46-.26,1.63-.16.24-.4.41-.68.47-2.34.53-3.76,1.09-4.25,1.67-1.26,1.46-1.3,2.72-.12,3.79,1.35,1.22,3.96.12,5.44-.47.36-.15.76.04.88.4,1.95,5.6,9.01,7.75,14.39,7.08,3.79-.48,6.88-2.21,9.28-5.18Z"/>
      <path class="cls-1" d="M150.51,433.31c-3.44-1.78-7.04-2.91-10.88-2.47-1.01.12-1.84.84-2.11,1.83-.46,1.73.78,2.81,2.62,2.84,2.76.05,5.47.76,8.12,2.13,2.64,1.37,4.78,3.18,6.41,5.41,1.08,1.48,2.7,1.87,3.84.5.65-.78.76-1.87.27-2.77-1.85-3.39-4.84-5.69-8.28-7.47Z"/>
      <path class="cls-1" d="M361.03,448.97c.35-.17.77-.05.99.26l1.86,2.74c.77,1.14,2.3,1.48,3.49.78l.18-.11c1.15-.73,1.52-2.24.82-3.41-.72-1.22-1.5-2.18-2.32-2.87-.28-.23-.34-.64-.15-.94l1.36-2.1c.67-1.04.34-2.43-.73-3.06l-.17-.1c-1.05-.63-2.39-.41-3.18.51-3.75,4.33-8.09,5.4-13.01,3.2-3.44-1.54-5.15-4.32-5.12-8.34,0-1.41-1.15-2.55-2.56-2.53h-.07c-1.49.02-2.7,1.22-2.75,2.7-.52,11.12,11.92,17.79,21.37,13.24Z"/>
      <path class="cls-1" d="M325.55,458.78c-.83-1.09-2.39-1.31-3.48-.47-5.59,4.27-11.49,5.09-17.71,2.47-4.47-1.89-7.02-5.36-7.66-10.42-.17-1.34-1.37-2.3-2.71-2.18l-.17.02c-1.41.13-2.47,1.36-2.4,2.77.76,16.49,23.03,21.67,33.88,11.46,1-.95,1.12-2.49.3-3.58l-.05-.06Z"/>
      <path class="cls-1" d="M348.88,459.1c-7.39,4.87-9.52,14.67-4.76,21.89,4.76,7.22,14.61,9.12,22,4.25,7.39-4.87,9.52-14.67,4.76-21.89-4.76-7.22-14.61-9.12-22-4.25Z"/>
      <path class="cls-1" d="M256.75,621.73h0c-3.86,0-6.99,3.13-6.99,6.99h0c0,3.86,3.13,6.99,6.99,6.99h0c3.86,0,6.99-3.13,6.99-6.99h0c0-3.86-3.13-6.99-6.99-6.99Z"/>
      <path class="cls-1" d="M299.78,626.04c-3.87,0-7.01,3.14-7.01,7.01h0c0,3.87,3.14,7.01,7.01,7.01h0c3.87,0,7.01-3.14,7.01-7.01s-3.14-7.01-7.01-7.01Z"/>
      <circle class="cls-1" cx="253.75" cy="675.05" r="6.93"/>
      <path class="cls-1" d="M297.74,671.45c-3.88,0-7.03,3.15-7.03,7.03s3.15,7.03,7.03,7.03,7.03-3.15,7.03-7.03-3.15-7.03-7.03-7.03Z"/>
      <path class="cls-1" d="M82.06,23.05v2.94c0,.21.03.42.1.61,1.78,5.44,5.13,9.39,10.06,11.84.16.09.27.24.29.41.32,2.5.52,3.9.6,4.21.6,2.15,2.52,3.19,4.01,1.01.82-1.21.07-3.8.13-5.5,0-.29.16-.57.39-.74,3.73-2.72,6.24-6.42,7.53-11.11.07-.26.11-.54.1-.81-.08-5.5,1.31-10.03-3.27-14.29-.19-.18-.33-.4-.41-.65-1.35-4.23-3.31-7.36-5.86-9.37-2.49-1.96-4.76-1.83-6.79.39-2.61,2.85-4.18,6.09-4.71,9.73-.06.42-.24.81-.53,1.13-2.18,2.48-2.75,5.77-1.7,9.87.02.11.04.22.04.33ZM93.86,12.53c-1.05-.58-2.36,0-2.64,1.15-.21.85-.19,1.78.05,2.81l.63,16.2c0,.22-.26.36-.43.21-2.97-2.46-5.35-5.94-5.18-9.99.12-2.53-1.1-4.78.91-7.21,1.03-1.24.91-2.76,1.36-4.39.64-2.34,1.77-4.37,3.38-6.08.37-.4,1-.4,1.37,0,1.42,1.51,2.58,3.12,3.47,4.83.81,1.55.93,3.57,2.29,4.8,2.02,1.81,2.62,4.16,1.81,7.05-.2.72-.25,1.45-.15,2.18.42,3.1-1.86,6.79-3.9,8.85-.23.24-.64.07-.63-.26.08-5.74-.43-11.39-1.53-16.94.89-1.33.62-2.4-.83-3.21Z"/>
      <path class="cls-1" d="M11.3,50.11c.22.05.39.25.41.48.38,5.07,2.75,8.46,7.11,10.17,5.95,2.33,11.13,1.24,15.54-3.27.21-.21.54-.22.76-.02,4.34,4.03,7.83,8.57,10.47,13.61,1.5,2.87,3.35,4.55,6.39,3.04,3.23-1.61,6.93-4.21,11.1-7.81,1.97-1.7,3.01-3.72,1.74-5.94-.72-1.27-2.3-3.7-4.72-7.27-1.75-2.59-2.43-4.38-4.09-7.83-.14-.29,0-.64.29-.75,4.8-1.94,10.36-7.22,9.86-12.88-.13-1.49-.2-2.55-.22-3.17-.02-.3.02-.61.09-.91.49-2.02.69-3.3.6-3.83-1.12-6.99-5.19-11.1-12.21-12.33.02-1.51-.4-2.86-1.25-4.04-4.48-6.19-12.57-7.99-18.75-3.32-.21.15-.5.14-.69-.03-6.23-5.67-15.44-5.07-21.69.36-4.48,3.89-6.43,8.9-5.83,15.02.02.13.04.26.08.4l.95,3.25c-3.12,1.44-5.27,4.04-6.45,7.8-2.71,8.64,1.81,17.28,10.52,19.3ZM59.84,61.46c.32.45.25,1.06-.15,1.43-2.6,2.41-5.6,4.6-8.99,6.58-.28.16-.63.07-.78-.21-3.66-6.52-8.03-14.33-14.9-17.2-.35-.14-.52-.53-.39-.89l1.07-2.91c.09-.26.41-.36.63-.19l1.73,1.35c.2.16.47.21.72.13,1.08-.34,1.59-1.04,1.53-2.11,0-.12-.05-.25-.12-.36l-3.32-4.45c-.13-.17-.04-.41.17-.46,1.43-.3,2.74-1.04,3.93-2.22.28-.28.76-.17.89.21.48,1.37,1.37,2.76,2.7,4.18.19.21.47.31.75.27.83-.1,1.43-.7,1.78-1.81.07-.22.1-.45.09-.68-.06-1.24-.72-2.8-1.98-4.68-.4-.59-.33-1.3.22-2.11.12-.1.27-.16.44-.17.13-.01.27.04.43.15.93.66,1.98,1.05,3.13,1.16.17.02.34.16.5.43-.11,9.19,4.78,17.14,9.95,24.55ZM19.54,5.74c4.98-1.83,9.46-.49,13.43,4.04.6.68,1.67.69,2.27,0,3.35-3.73,8.01-4.71,12.02-1.47,2.13,1.71,2.94,4.07,2.42,7.06-.13.78.55,1.46,1.33,1.31,1.81-.35,3.45-.36,4.92-.03,5.44,2.69,6.96,6.76,4.58,12.19-.15.33-.13.71.03,1.03,2.21,4.21-2.02,8.48-5.49,10.25-.27.14-.6-.02-.66-.32-.39-1.98-.25-4.11.43-6.39-.64-.82-1.21-1.23-1.72-1.23-2.06-.02-3.94-.03-5.65-.05-.53,0-.96-.43-.97-.96-.05-2.7-1.9-3.33-3.97-2.35-.25.12-.41.36-.43.63l-.32,3.23c-2.45,3.97-6.13,6.08-11.02,6.33-.8.04-1.84-.18-3.13-.67-.91-.34-1.7-.13-2.36.64-.22.26-.32.6-.26.95.32,1.65.31,3.1,0,4.33-.18.7.39,1.37,1.11,1.31,1.35-.11,2.46-.63,3.32-1.55.45-.47,1.22-.33,1.48.26,1.95,4.57,1.27,8.36-2.04,11.38-.19.17-.39.31-.61.41-3.1,1.4-5.92,1.31-8.45-.27-2.99-1.86-4.06-4.51-3.19-7.99.26-1.01-.53-2-1.58-1.97-8.07.2-12.39-8.42-8.92-15.32,1.28-2.55,2.95-4.14,5.02-4.77,1.5-.46,2.51-1.5,1.73-2.88-1-1.78-1.6-3.08-1.8-3.9-.32-6.17,2.69-11.12,8.48-13.25Z"/>
      <path class="cls-1" d="M99.91,79.42c-2.8,8.67-5.27,17.87-7.41,27.63-1.08,4.94-1.9,10.08-2.46,15.42-.72,6.86,1.55,14.04,10.03,12.79.26-.04.5-.1.74-.2,2.67-1.1,4.8-2.43,6.4-4,12.56-12.3,23.28-26.03,32.17-41.21,2.88-4.92,4.13-9.77,3.76-14.56-.06-2.88-1.07-5.77-3.04-8.68-.13-.19-.05-.45.17-.53l8.03-2.8c.1-.04.2-.05.3-.05,1.63.08,2.83.21,3.94.05,4.48-.68,7.71-3.06,9.67-7.14.72-1.82.9-3.66.56-5.52-.06-.32.15-.63.47-.7,6.69-1.36,12.97-7.14,12.93-14.22-.03-6.07-5.34-9.95-11.16-9.77-.32,0-.61-.14-.8-.4-.37-.51-.53-1.27-.5-2.28,0-.21.07-.41.18-.58,1.94-3.16,2.81-6.45,2.6-9.87-.17-2.89-1.49-5.29-3.95-7.21-1.58-1.91-3.98-2.82-7.19-2.76-5.18.12-9.23,3.63-11.91,8.02-.19.29-.58.37-.87.16-2.68-1.97-5.43-2.49-8.25-1.56-7.09,2.32-9.11,10.89-7.92,17.38.05.25-.14.48-.4.49-2.61.07-4.6,1.32-5.96,3.73-3.52,6.22-.92,11.3,2.53,16.8.14.22.2.47.19.73l-.2,8.51c-13.75-1.46-19.17,11.58-22.65,22.33ZM133.13,67.65c.67-.33,1.47-.14,1.91.45,2.52,3.31,3.66,6.88,3.42,10.71l-1.39,3.39c-.12.3-.53.37-.74.13-1.4-1.53-3.12-2.68-5.14-3.44-.28-.11-.6-.09-.85.07-1.76,1.01-2.01,2.46-.1,3.71,1.88,1.22,3.54,1.96,4.99,2.21.39.06.6.49.43.84l-2.89,5.86c-.19.4-.74.49-1.05.17-1.58-1.56-3.45-2.82-5.62-3.76-.26-.12-.56-.12-.81,0-.96.42-2.18,1.28-1.59,2.56.99,2.17,4.24,3.63,6.26,4.27.32.1.44.49.23.75l-5.32,6.83c-.23.3-.67.33-.95.08-1.5-1.36-3.44-2.51-5.83-3.45-.25-.09-.52-.09-.76.03-.64.31-.9.84-.77,1.59.04.25.19.47.4.6l5.43,3.5c.37.24.46.74.19,1.09l-6.1,7.83c-.33.42-.91.52-1.36.24-1.56-.98-2.9-1.65-4.01-2.03-1.26-.43-2.23,1.14-1.29,2.08l2.68,2.68c.23.23.29.58.16.88-.37.81-.84,1.55-1.42,2.23-3.69,4.37-6.99,7.58-9.88,9.64-1.86,1.32-3.63,1.36-5.31.14-.21-.15-.38-.36-.48-.6-.66-1.53-.89-3.11-.71-4.75,1.87-16.79,6.31-33.81,12.02-49.46,1.36-3.73,3.77-8.34,6.9-10.57,2.45-1.76,5.43-2.53,8.93-2.32.9,1.86,1.7,3.03,2.42,3.51,2.36,1.59,5.62,3.49,8.02,2.29ZM128.85,61.77l6.69-11.58c.44-.77,1.3-1.1,1.91-.74l.09.05c.61.36.75,1.26.31,2.03l-6.69,11.58c-.15.26-.49.35-.75.2l-1.36-.79c-.26-.15-.36-.49-.2-.75ZM125.22,89.28c.05-.04.11-.05.17-.07-.06.02-.12.04-.17.07ZM125.84,89.14s.08.03.12.05c-.04-.01-.08-.04-.12-.05ZM129.62,93.47s-.08-.03-.12-.05c.04.01.08.04.12.05ZM124.64,32.89c.66-.91,1.7-1.31,2.49-.96,1.73.77,3.21.13,4.43-1.91.13-.22.13-.5,0-.72-.32-.52-.54-2.55-.67-6.1-.18-4.89,2.99-11.93,9.02-8.2.09.05.18.12.25.2l1.89,2.22c.19.22.44.37.72.43.89.2,1.68-.04,2.36-.72.86-.86,1.39-1.8,1.57-2.83,1.91-3.54,5.62-7.35,9.79-6.76,3.46.49,5.4,3.51,5.22,6.91-.14,2.75-1.46,5.37-2.75,7.87-.16.31-.12.68.08.96l1.3,1.74c.46.61.42,1.46-.09,2.04l-2.27,2.58c-.65.73-.58,1.85.16,2.5l.68.61c.7.61,1.74.6,2.42-.04l1.85-1.74c.18-.16.39-.27.63-.32,5.68-1.02,10.06,3.56,6.46,8.9-.99,1.47-2.39,2.79-4.21,3.97l-3.89,1.56c-.37.15-.72.35-1.02.61-.85.72-1.77,1.23-2.74,1.51-.51.15-.84.64-.79,1.16.26,2.63,1.99,5.85-1.46,8.24-2.39,1.65-4.94,2.28-7.65,1.87-.39-.05-.79-.02-1.15.12l-10.19,3.82c-.43.16-.82-.33-.57-.7l5-7.58c.15-.22.26-.45.34-.7l.7-2.07c.15-.43.5-.75.93-.86l2.93-.75c.22-.05.43-.15.61-.27l10.03-6.49c.97-.62,1.51-1.74,1.39-2.89l-.02-.2c-.1-.83-1.04-1.25-1.74-.8-1.4.92-3,2.19-4.92,3.12-3.81,1.84-6.95,3.51-9.44,5.02-.91.56-1.96-.5-1.38-1.41l3.4-5.28c.28-.43.69-.77,1.17-.96,2.54-1.02,4.65-2.38,6.33-4.08.6-.6.67-1.54.16-2.22l-.04-.05c-.46-.63-1.36-.74-1.96-.25-1.24,1.02-2.09,1.57-2.54,1.65-.42.08-.74-.36-.56-.74l5.26-10.68c.12-.24.14-.51.07-.77-.25-.88-.82-1.32-1.69-1.34-.27,0-.53.11-.71.31-1.19,1.29-2.21,2.73-3.06,4.35-4.42,8.34-7.16,13.49-8.22,15.45-.19.35-.72.19-.68-.21l1.32-14.06c.08-.84-.76-1.46-1.54-1.14l-.23.1c-1.12.39-1.94,1.32-2.17,2.48-.92,4.6-1.25,9.11-1.01,13.54.08,1.39.26,1.49,1.1,2.6.06.08.03.19-.05.23-1.5.72-2.49,1.58-2.95,2.57-1.45,3.13-3.06,6.34-4.85,9.64-.2.37-.77.21-.74-.21l.44-8.14c.06-1.15-.22-2.29-.8-3.29-2.27-3.87-4.8-8.27-1.76-12.46Z"/>
      <path class="cls-1" d="M182.64,71.9c2.94-.54,4.9-3.31,4.37-6.2-.53-2.88-3.34-4.78-6.28-4.24-2.94.54-4.9,3.31-4.37,6.2.53,2.88,3.34,4.78,6.28,4.24ZM180.79,66.38c.27-.53.89-.77,1.36-.53.48.25.65.88.38,1.42-.27.53-.89.77-1.36.53-.48-.25-.65-.88-.38-1.42Z"/>
      <path class="cls-1" d="M193.28,97.94c.91.91,2.38.95,3.33.09l5.15-4.64c.23-.21.58-.24.85-.07,5,3.17,13.17,5.59,17.84.94.34-.34.81-.54,1.29-.57,2.37-.11,4.08-.36,5.15-.76,4.45-1.66,6.87-4.72,7.27-9.18.02-.27.14-.53.33-.73.11-.12.74-.71,1.88-1.76,4-3.69,8.65-13.5,1.3-16.49-4.24-1.72-8.54-1.95-12.91-.68-1.24.36-1.87.54-1.9.54-.51.09-1.03.02-1.49-.2-5.39-2.49-11.6,1.29-14.64,5.69-.18.25-.42.45-.69.57-1.28.6-2.29,1.43-3.05,2.49-3.4,4.72-4.65,9.8-3.74,15.27.03.22-.04.44-.19.59l-5.94,5.94c-.77.77-.77,2.03,0,2.8l.17.16ZM210.3,72.73c1.85-2.6,3.6-3.9,6.86-4.38,1.45-.22,2.74.2,3.86,1.25.36.34.91.4,1.33.16,4.32-2.38,8.98-2.58,13.98-.61.43.17.71.61.66,1.08-.42,4.44-2.55,7.8-6.39,10.09-.53.32-.82.94-.71,1.56.81,4.71-4.23,7.51-8.05,7.21-1.15-.09-1.99.19-2.52.84-3.25,3.97-9.3,1.77-13.25.66-.31-.09-.37-.5-.1-.67,2.2-1.41,5.12-3.44,8.78-6.1.43-.32,1.02-.28,1.77.09,1.69.85,3.4,1.16,4.97,1.1.8-.03,1.41-.75,1.36-1.6-.1-1.87-1.5-1.72-3.03-1.84-.46-.04-.57-.65-.15-.84l7.7-3.58c1.04-.48,1.48-1.72.98-2.75l-.12-.23c-.5-1.02-1.74-1.45-2.77-.95l-8.2,4.01s-.04,0-.05-.02c-.27-.36-.26-.79.03-1.31.42-.75.19-1.7-.54-2.17-.71-.45-1.29-.45-1.76,0-1.48,1.48-2.3,2.81-2.44,3.98-.08.6-.23,1.22-.46,1.86-.06.18-.19.34-.35.45l-7.74,5.46c-.29.21-.69-.02-.67-.37.24-4.38,1.98-9.41,5.96-11.46.43-.22.8-.54,1.08-.94Z"/>
      <path class="cls-1" d="M63.15,96.7c.08,2.12,1.26,4.06,3.11,5.09.99.55,2.11.81,3.24.76,2.03-.09,3.87-1.19,4.92-2.94,1.33-2.22,1.12-5.04-.54-7.02-1.6-1.92-4.21-2.66-6.58-1.87-2.55.85-4.24,3.28-4.14,5.97ZM68.02,97.55c-.53-.66-.33-1.69.43-2.28.76-.59,1.8-.54,2.32.13.53.66.33,1.69-.43,2.28-.76.59-1.8.54-2.32-.13Z"/>
      <path class="cls-1" d="M180.5,113.87c.31-2.14-.78-3.31-3.26-3.51-3.11-.25-6.16.01-9.13.77-.35.09-.68-.19-.67-.54.13-3.08-.52-11.29-5.85-9.46-2.76.95-4.19,7.9-4.36,10.43-.02.19-.15.35-.34.38-4.61.84-9.08,2.25-13.43,4.24-.51.23-.57.93-.09,1.23.62.4.65.82.07,1.24-5.72,4.18-9.38,9.62-10.99,16.31-3.4,14.23,2.95,28.42,16.33,34.99,9.17,4.85,20.75,4.57,30.23.73,5.66-2.29,10.29-5.72,13.91-10.31,7-10.23,8.1-21.01,3.28-32.36-1.44-3.16-3.48-5.86-6.12-8.11-2.62-2.36-5.63-4.08-9.05-5.17-.37-.12-.6-.49-.54-.88ZM164.07,116.86c.05.26.17.49.35.67.68.72,1.5.93,2.44.63.29-.09.54-.28.71-.53l.68-1.06c.15-.22.37-.39.63-.45l4.18-1.08c.33-.09.58.27.41.56-.95,1.59-2.42,2.81-4.42,3.67-5.78,2.49-.42,5.42,1.16,7.92.25.39-.21.84-.6.6l-5.53-3.56c-.72-.46-1.67-.36-2.29.23l-4.83,4.76c-.15.14-.39.12-.51-.05v-.02c-.15-.26-.14-.57.02-.82.96-1.46,1.71-2.73,2.27-3.81,1.23-2.39-.22-3.08-2.48-3.63-1.68-.4-3.44-1.18-5.3-2.34-.29-.18-.22-.61.11-.7l4.13-1.06c.53-.14,1.08.16,1.27.68.5,1.39,1.68,1.86,3.56,1.4.6-.15,1.03-.7,1.02-1.32-.05-3.42-.21-7.74,1.33-10.56.28-.11.64.03,1.08.43-.21,3.25,0,6.4.61,9.45ZM180.93,163.91c-9.91,5.82-20.34,6.1-31.3.85-12.02-7.27-16.35-21.12-10.44-33.92,1.71-3.71,4.33-6.74,7.86-9.1.07-.05.16-.05.23-.02l5.95,2.94c.27.13.37.47.22.73-1.2,2.05-2.51,5.02-2.4,7.41.03.57.38,1.13,1.08,1.67,1.34,1.07,2.8,1.08,4.39.02,2.5-1.65,4.73-3.4,6.69-5.24.19-.18.49-.19.69-.02,2.42,1.98,5.27,3.47,8.57,4.47.26.08.53.08.78,0,2.29-.74,3.18-2.36,2.29-4.73-.83-2.22-1.73-3.93-2.72-5.13-.29-.36-.22-.89.15-1.17l5.25-3.92c.12-.09.29-.12.44-.07,3.68,1.36,6.85,3.5,9.51,6.42l2.29,2.94c4.2,7.19,4.88,14.71,2.03,22.56-2.45,5.79-6.3,10.23-11.56,13.32Z"/>
      <path class="cls-1" d="M220.37,120.76c1.06,4.51,5.92,8.13,9.89,10.91.3.21.31.65.02.87-1.53,1.16-3.97,3.21-7.32,6.15-3.16,2.78-3.32,5.73-.49,8.85,1.8,1.99,3.23,3.41,4.31,4.25,1.51,1.53,3.07,2.61,4.68,3.21,2.4.92,4.4.35,5.98-1.72l6.56-8.21c.26-.32.73-.35,1.01-.05,3.67,3.75,7.23,7.56,13.04,6.97,5.4-.54,9.51-5.49,11.16-10.57,3.34-10.29,1.87-22.13-5.6-30.21-6.84-7.4-17.21-8.73-26.67-6.64-7.37,1.63-18.91,6.25-16.56,16.19ZM232.75,150.13c-1.19-.88-2.39-1.87-3.58-2.97-1.19-1.11-2.27-2.22-3.25-3.33-.38-.44-.33-1.11.12-1.48,4.31-3.65,8.5-7.61,12.57-11.88.53-.56,1-1.18,1.39-1.85.13-.22.43-.27.63-.11,1.1.9,2.16,1.82,3.19,2.77,1.02.95,2.03,1.93,3.01,2.96.18.19.15.49-.06.64-.64.45-1.21.96-1.73,1.54-3.93,4.4-7.54,8.89-10.84,13.48-.33.47-1,.57-1.46.23ZM262.68,143.37c-1.85,3.48-5.83,5.18-9.4,2.77-2.2-1.48-4.15-3.15-5.86-5.01-.18-.2-.19-.5-.04-.71l1.55-2.08.39-.09c.42.52.7,1.08.85,1.7.27,1.13,1.39,1.84,2.52,1.6,2.32-.49,1.87-2.66,1.04-4.4-3-6.25-7.6-10.89-13.79-13.9-1.39-1.06-3.12-1.7-5.19-1.93-.21-.02-.42,0-.62.07-1.19.39-1.91,1.07-2.15,2.02-.5,1.96,2.54,2.51,3.92,2.59.09,0,.19.05.25.11.2.2.18.4-.05.61l-1.74,1.62c-.18.17-.46.19-.66.05-2.45-1.64-4.52-3.32-6.21-5.02-4.9-4.93-1.77-9.41,3.55-11.78,7.72-3.44,18.38-4.42,25.68.52,10.09,6.82,11.31,21.26,5.97,31.27Z"/>
      <path class="cls-1" d="M33.35,107.79l2.7,1.87c2.8,2.31,5.85-1.32,3.4-3.51l-3.94-3.15c-.38-.29-.61-.74-.66-1.22-.58-6.53-3.59-11.64-9.01-15.31-2.02-2.99-5.09-3.89-9.22-2.7-.4.12-.84.12-1.25.02-4.31-1.12-16.07-2.56-14.85,5.38.65,4.26,2.57,7.8,5.76,10.63.29.26.48.63.53,1.02.29,2.8,2.16,4.72,4.78,5.92.3.14.81.54,1.54,1.19.83.75,1.76,1.34,2.8,1.76,5.61,1.67,10.87,1.02,15.77-1.95.51-.31,1.15-.29,1.65.05ZM11.18,99.56c0-.65,0-1.03-.02-1.16-.04-.36-.22-.69-.5-.92-2.72-2.32-4.69-5.02-5.5-8.58-.11-.49.19-.98.67-1.08,3.57-.84,6.85-.5,9.85,1.01.22.11.46.11.68,0l1.71-.87c1.75-.2,3.23.26,4.46,1.36,2.52,2.27,5.12,4.18,6.27,6.38.64,1.22,1.18,2.44,1.61,3.65.11.3-.22.58-.5.41l-6.83-4.03-1.37-2.05c-.14-.22-.39-.33-.65-.3l-1.58.19c-.26.03-.51-.02-.74-.12l-5-2.46c-.88-.43-1.94-.07-2.38.81l-.11.21c-.51,1.04-.09,2.29.95,2.79l6.48,3.2c.27.14.23.53-.06.62-.59.17-1.05.38-1.38.64-.26.19-.34.55-.19.84.89,1.73,2.19,2.34,3.9,1.84,1.59-.46,2.76-.62,3.49-.46l4.11,2.38c.31.18.29.64-.04.79-4.18,1.96-8.11,2.14-11.79.53-.64-1.01-1.35-1.6-2.58-1.91-1.71-.43-2.97-1.91-2.97-3.69Z"/>
      <path class="cls-1" d="M192.74,195.6c-5,1.19-9.32,5.86-11.85,10.09-4.22,7.04-7.66,14.31-10.3,21.81-3.42,9.71-3.93,20.52,7.5,24.8,1.03.39,2.15.37,3.01.81.23.12.43.3.56.53,3.2,5.72,8.08,8.43,14.63,8.13.26,0,.51.09.69.29,4.79,5.17,10.28,6.68,16.47,4.52,3.11-1.08,6.29-3.87,8.6-6.37,5.01-5.47,9.79-12.18,14.34-20.12,3.21-5.6,5.33-11.98,3.32-18.3-1.1-3.45-4.29-7.03-8.3-7.9-.49-.1-.92-.22-1.28-.35-.26-.09-.45-.32-.5-.59-.44-2.59-1.79-4.62-4.07-6.09-.19-.12-.24-.37-.12-.56,1.69-2.77,2.75-6.02,3.18-9.75.59-2.18.56-4.5-.1-6.96-1.49-5.61-5.81-9.62-11.53-5.62-1.39.97-2.44,2.97-1.88,4.46.59,1.58,1.06,3.24,1.4,4.98.07,2.49-.61,4.8-2.05,6.93-.19.28-.54.39-.85.26-1.85-.7-3.74-.74-5.69-.1-.39.12-.82,0-1.09-.29-3.61-4.07-8.58-5.93-14.08-4.62ZM219.86,189.15c-.28-.95.48-1.87,1.46-1.78l.52.05c.88.08,1.63.7,1.87,1.55.96,3.36.93,6.6-.07,9.72-1.14,3.54-2.56,6.76-4.28,9.68-.12.19-.36.27-.57.17l-3.59-1.77c-.16-.08-.19-.3-.05-.42,4.87-4.28,6.49-11.16,4.72-17.21ZM224.46,213.35c-.44.35-1.31-.02-1.96-.82-.65-.8-.82-1.73-.39-2.09.44-.35,1.31.02,1.96.82.65.8.82,1.73.39,2.09ZM220.28,221.99c-.04.37.09.74.33,1.02,2.01,2.19,3.72,1.08,4.45-1.32.28-.93.17-2.09-.36-3.49-.09-.22.08-.46.32-.46,4.74-.05,7.89,1.54,9.45,4.76,3.08,6.35-1.79,14.06-5.16,19.46-3.56,5.69-7.3,10.97-11.85,15.69-4.9,5.1-9.88,7.09-16.11,2.5-.26-.19-.24-.58.03-.74,3.59-2.13,6.62-4.88,9.1-8.25,4.48-6.07,8.15-12.52,11.02-19.34.5-1.18.06-2.54-1.02-3.22l-.08-.05c-1.01-.63-2.34-.22-2.83.85-3.59,7.91-7.89,14.92-12.88,21.02-3.78,4.63-8.94,8.41-14.97,5.05-8.68-4.85-2.47-18.03.64-24.21,2.26-4.47,4.97-9.03,8.11-13.68.22-.33.26-.77.08-1.12-.38-.76-1.03-1.37-1.94-1.83-.27-.14-.6-.13-.86.02-1.03.56-2.26,1.94-3.7,4.15-4.18,6.47-7.49,12.97-9.92,19.51-1.06,2.84-1.53,5.49-1.4,7.94.06,1.28-1.44,2.01-2.4,1.16l-2.25-1.98c-1.37-1.2-2.25-2.87-2.48-4.67-.71-5.59,1.07-10.66,3.52-16.34,2.26-5.25,4.74-10.32,7.46-15.2,2.47-4.44,6.98-9.51,12.36-9.06,3.25.27,5.72,2.06,7.42,5.36.23.45.05.99-.4,1.22l-2.87,1.4c-.81.4-1.05,1.43-.52,2.15l1.05,1.4c.42.56,1.21.67,1.77.26,2.36-1.73,5.07-2.3,8.13-1.71,6.08,1.18,9.44,5.39,8.75,11.75ZM210.66,205.85c-1.08-.16-1.91-.62-1.85-1.05.06-.43.99-.65,2.07-.5,1.08.16,1.91.62,1.85,1.05-.06.43-.99.65-2.07.5Z"/>
      <path class="cls-1" d="M154.31,229.14l-1.41,1.78h0c-1.12,1.42-.89,3.48.53,4.6l.7.56h0c1.42,1.12,3.48.89,4.6-.53l1.41-1.78c1.12-1.42.89-3.48-.53-4.6l-.7-.56h0c-1.42-1.12-3.48-.89-4.6.53ZM156.54,231.54c.3-.08.62.18.71.57.1.39-.06.76-.35.84-.3.08-.62-.18-.71-.57-.1-.39.06-.76.35-.84Z"/>
    </g>
  </g>
</svg>