<?xml version="1.0" encoding="UTF-8"?>
<svg id="Capa_2" data-name="Capa 2" xmlns="http://www.w3.org/2000/svg" viewBox="0 0 350.18 927.67">
  <defs>
    <style>
      .cls-1 {
        fill: #fef1d1;
      }
    </style>
  </defs>
  <g id="Capa_1-2" data-name="Capa 1">
    <g>
      <path class="cls-1" d="M339.9,236.4c-5.73-13.53-9.41-26.85-11.03-39.95-.81-6.54-2.23-20.46-4.27-41.79-2.09-21.84-5.55-43.08-12.78-63.76-10.79-30.84-31.79-58.14-60.03-74.39-15.59-8.97-32.48-14.31-50.66-16.01-18.08-1.7-35.48.78-50.87,9.25-.44.24-.94.31-1.43.2-30.09-6.9-58.88,8.9-77.92,31.05-.07.08-.16.16-.25.23-.31.21-.66.55-1.05,1.02-16.5,19.12-27.34,42.94-33.42,67.21-3.47,13.86-5.95,26.13-7.42,36.79-3.92,28.37-6.15,48.62-12.9,72.1-2.92,10.13-7.12,20.26-10.98,30.59-1.89,5.07-3.31,10.9-4.27,17.5-2.72,18.83,3.7,36.45,18.31,48.4,8.89,7.28,19.48,11.17,31.75,11.66,1.91.07,3.02-.55,3.33-1.88.07-.3,0-.63-.19-.88-1.19-1.51-2.41-3.3-3.65-5.37-4.45-7.44-6.08-15.63-4.9-24.57.03-.19.29-.2.34-.02,4.67,19.98,20.88,31.82,39.71,37.6.39.12.43.68.05.84-12.39,5.4-23.77,16.44-30.88,27.52-3.83,5.97-6.94,11.41-9.33,16.34-9.17,18.92-16.88,39.16-23.12,60.73-1.72,5.94-3.16,9.42,2.52,12.6,5.58,3.13,11.08,5.7,16.51,7.72.12.05.2.17.18.29-5.12,37.9-9.65,74.69-13.6,110.4-.43,3.9-.94,6.79-1.5,8.66-.79,2.61-1.63,5.43-2.53,8.45-6.49,21.81-7.12,51.46,14.74,65.71,4.93,3.21,10.05,4.4,15.36,3.57.26-.05.48.16.45.42-.81,8.5-1.55,18.21-2.2,29.13-.24,3.92.46,6.67,4.13,8.13,5.48,2.18,11.11,3.95,16.91,5.3.41.1.72.46.74.88.26,4.25.49,7.5.71,9.77,4,42.99,7.67,84.1,11,123.33.21,2.41,1.23,13.09,3.05,32.06.35,3.63,3.17,5.26,6.16,6.65.38.17.45.67.16.95-5.46,5.25-10.18,10.83-14.15,16.74-4.46,6.63-6.46,13.87-5.98,21.72.21,3.44,1.03,6.14,2.46,8.1,6.52,8.91,18.43,10.25,28.87,10.22,15.55-.05,29.85-4.79,42.91-14.23,6.5-4.69,12.08-7.95,12.54-16.85.46-8.73-.4-17.45-2.58-26.16-.14-.55.12-1.13.63-1.39,3.11-1.6,3.75-2.74,3.98-6.57,1.69-28.96,3.4-59.12,5.13-90.48.9-16.41,1.9-33.04,2.98-49.88.43-6.67.68-11.31.77-13.92,0-.35.29-.64.65-.66l2.44-.11c.38-.02.7.28.72.65,1.14,22.71,1.94,37.63,2.39,44.77,2.54,40.24,4.66,76.62,6.36,109.14.21,4.03.85,5.7,4.33,7.19.36.16.55.55.45.93-2.35,8.86-3.19,18.01-2.54,27.43.29,4.13,1.87,7.47,4.76,10.02,17.83,15.76,40.97,23.79,65.04,18.67,6.51-1.38,15.08-6.47,16.32-13.54,1.42-8.14-.04-15.9-4.38-23.3-4-6.82-8.89-12.91-14.66-18.26-.41-.38-.28-1.05.24-1.26,2.44-.95,5.88-3.39,5.84-6.12-.02-1.46.31-5.65,1-12.55.83-8.25,5.08-55.32,12.77-141.22.3-3.37.52-8.09.89-11.79.04-.34.28-.62.61-.7,1.68-.41,5.84-1.63,12.48-3.65,5.17-1.58,9.2-3.36,8.9-8.86-.07-1.18-.76-11.23-2.06-30.15-.03-.33.26-.61.59-.58,1.07.1,2.22.56,3.3.48,4.47-.32,8.61-1.74,12.42-4.26,20.14-13.35,20.82-40.52,15.59-61.47-1.6-6.41-4.23-12.87-5.03-19.54-.15-1.25-.64-5.81-1.47-13.69-2.54-24.14-6.19-53.5-10.97-88.09-.45-3.25-.83-6.5-1.16-9.74-.04-.33.16-.64.47-.75,5.92-2.15,14.16-5.44,18.39-9.33,3.26-3.01.81-8.56-.17-12.1-3.78-13.71-8.54-27.53-14.3-41.46-6.4-15.51-12.78-29.29-22.67-41.86-6.25-7.96-14.15-14.42-23.69-19.39-.31-.16-.27-.63.07-.72,15.06-4.22,26.67-12.83,34.85-25.8,2.9-4.6,4.79-9.44,5.67-14.52.06-.37.59-.39.67-.02,2.16,9.52.72,18.27-4.34,26.26-1.01,1.6-2.25,3.43-3.71,5.5-.58.82-.32,1.94.54,2.44.29.17.73.25,1.32.27,6.05.11,12.3-1.24,18.77-4.05,12.97-5.64,22-15.34,27.09-29.08,7.14-19.28.48-38.62-7.23-56.81ZM63.38,218.67c-12.79,3.47-25.03-8.56-27.01-20.36-2.25-13.42,5.11-27.04,19.93-27.22.39,0,.71.29.72.68.7,15.87,2.97,31.25,6.79,46.14.08.33-.11.67-.44.75ZM77.86,233.3c-.04-.08,0-.18.08-.22h0c.14-.06.3,0,.37.13,3.48,7.24,10.7,11.68,18.61,11.93,15.12.47,26.27-14.24,21.55-28.99-2.09-6.51-6.48-11.23-13.17-14.15-8.86-3.87-19.74-1.06-25.51,6.74-3.16,4.29-4.87,9.48-4.14,14.77.1.7.31,2.11.63,4.24,0,.06-.03.13-.09.15-.07.02-.14,0-.17-.07-2.66-6.07-3.93-13.56-5.28-22.26-.68-4.47-.93-9.06-.73-13.76.67-15.69,3.25-31.11,7.75-46.28,2.08-7.02,4.22-13.58,6.42-19.68,8.33-23.07,23.06-48.32,46.52-58.66,5.12-2.26,10.51-2.67,16.18-1.21,6.78,1.74,13.18,4.29,19.19,7.66,23.81,13.31,44.32,32.1,60.89,53.27,3.5,4.46,7.99,10.37,13.49,17.73,7.01,9.37,14.8,17.76,23.37,25.16.23.19.38.48.42.78,1.63,11.49,1.92,23.21.88,35.18-.84,9.85-2.45,18.4-6.37,27.52-7.9,18.35-20.62,32.59-38.16,42.74-17.54,10.14-36.21,14.63-56.01,13.45-22.05-1.29-43-8.35-60.58-21.96-11.55-8.93-20.27-20.33-26.15-34.19ZM170.8,329.62c-1.22-5.31-3.43-9.56-6.63-12.73-5.41-5.36-14.82-7.26-21.92-12.56-.27-.19-.42-.5-.42-.83v-9.39c0-.24.23-.41.46-.35,22.04,5.8,43.56,4.86,64.54-2.82.31-.12.65.12.65.46v12.05c0,.33-.18.64-.49.81-2.6,1.42-6.63,3.36-12.09,5.82-9.92,4.47-15.54,8.37-18.17,18.33-1.24,4.7-2.06,9.21-2.47,13.53-.03.28-.27.5-.55.5h-.37c-.28,0-.5-.26-.47-.54.18-1.34-.52-5.43-2.08-12.29ZM133.18,307.37c1.88,1.77,4.37,3.47,7.46,5.12,3.72,1.97,8.68,4.41,14.9,7.31,7.08,3.3,8.09,14.07,9.66,21.7.05.28-.17.51-.45.49-11.65-1.41-22.41-5.45-32.3-12.12-2.16-1.46-4-3.17-5.52-5.14-.25-.32-.39-.72-.39-1.13v-22.25c0-1.43.76-2.75,2-3.47l4.41-2.54c.17-.1.4.02.4.23v4.69c0,.34-.08.67-.25.96-1.07,1.95-1.76,4.45.06,6.15ZM188.79,322.24c1.25-1.25,3.66-2.64,7.23-4.18,7.23-3.13,13.65-5.85,19.31-10.17,1.86-1.42,2.5-3.01,1.39-5.36-1-2.14-1.29-4.67-.85-7.59.03-.19.23-.3.4-.22,2.54,1.19,4.55,2.72,6.02,4.59.37.47.58,1.04.61,1.63l.98,21.37c.04.81-.27,1.6-.83,2.16-2.81,2.83-5.27,4.9-7.36,6.22-10.02,6.28-20.88,9.98-32.58,11.11-.28.03-.51-.19-.5-.47.18-5.12,2.18-15.11,6.19-19.1ZM55.4,630.4c-6.09-1.1-6.77-13.51-6.71-18.64.02-1.99-1.48-3.67-3.46-3.87l-.21-.03c-1.88-.19-3.56,1.18-3.72,3.06-.57,6.43.17,12.37,2.25,17.82,1.95,5.15,4.37,6.98,8.99,9.75,1.69,1.01,1.58,2.03,1.6,4.08.02,1.82-.65,2.98-2.02,3.5-3.79,1.43-9.21-1.69-12.15-4.1-11.5-9.42-13.86-26.24-11.93-40.59.96-7.1,2.83-14.56,5.61-22.37,1.15-3.23,1.85-7.68,2.16-10.33,3.28-29.02,6.5-55.99,9.64-80.92,1.74-13.75,2.94-22.8,3.61-27.15.05-.28.33-.46.6-.38,11.55,3.81,23.24,6.24,35.08,7.28.27.03.49.26.49.53.13,9.54.17,17.79.1,24.75-.03,3.2-.66,6.79-1.9,10.77-8.43,27.03-14.4,46.46-18.69,68.54-.33,1.69-.79,3.35-1.37,4.96-1.01,2.79-.43,5.55-.95,8.61-2.44,14.41-4.33,28.98-5.68,43.7-.06.67-.68,1.14-1.34,1.02ZM61.17,685.37c-.61-.2-1-.79-.95-1.42,2.42-33.72,5.47-64.7,10.42-97.7,1.22-8.08,2.91-16.71,5.08-25.91,4.61-19.53,10.47-39.31,16.13-57.33.43-1.37.9-4.77,1.41-10.22.77-8.28.34-20.09-.08-30.87-.73-18.34-.68-36.52.17-54.53.09-2.03-1.52-3.72-3.55-3.72h-.28c-2.03,0-3.71,1.55-3.89,3.58-1.45,17.19-1.33,34.52-.81,51.56,0,.27-.22.47-.48.44-15.36-1.47-30.28-5.18-44.74-11.12-3.61-1.48-7-3.15-10.19-5.02-.41-.24-.61-.72-.47-1.17,4.76-16.07,10.13-31.39,16.12-45.97,5.42-13.2,11.25-24.41,17.47-33.64,8.3-12.29,19.72-20.48,33.01-26.35,6.36-2.81,14.11-5.93,23.24-9.36.15-.06.31,0,.38.15,3.14,5.9,8.72,9.69,14.73,13.14,6.23,3.58,12.9,6.19,20.02,7.85.35.08.36.58,0,.67-2.54.65-14.28,3.7-35.23,9.15-5.25,1.36-8.85,3.24-9.33,8.73-1.31,15.43-2.43,31.7-3.36,48.82-.47,8.76-.66,18.84-.56,30.23.09,10.04.36,26.16.81,48.37.13,6.87-.05,13.05-.55,18.57-3.78,41.84-6.72,80.89-8.8,117.14-1.26,21.89-2.11,43.01-2.55,63.35,0,.2-.19.36-.39.33-11.47-1.78-22.4-4.36-32.79-7.73ZM85.46,895.58c4.5-8.01,10.38-14.75,17.17-20.92.36-.33.86-.42,1.32-.26,15.96,5.89,31.44,5.9,46.77-1.61.18-.09.39.02.44.22.99,5.09,1.61,9.28,1.86,12.56.1,1.24-1.27,2.27-2.21,3.05-5.19,4.27-9.95,7.7-14.29,10.29-13.1,7.79-29.35,10.81-44.23,6.87-4.48-1.19-9.9-4.72-6.83-10.21ZM153.16,897.91c-1,2.1-2.49,3.9-4.47,5.4-16.18,12.26-32.82,18.78-53.38,15.23-4.57-.79-10.52-2.9-12.25-7.95-.1-.29.22-.55.49-.39,7.57,4.64,15.56,5.2,24.41,5.06,16.38-.25,32.01-7.17,44.4-17.96.41-.37,1.04.1.8.61ZM155.12,861.41c-.02.36-.22.67-.53.83-3.67,1.92-7.62,3.37-11.85,4.36-14.99,3.48-31.48,2.57-45.38-4.3-.37-.18-.61-.55-.65-.96l-14.3-161.51c-.02-.2.16-.36.35-.32,20.42,3.92,41.44,6.31,63.03,7.16,10.95.43,16.74.65,17.38.68.31,0,.55.27.53.58l-8.57,153.48ZM265.13,910.75c-1.76,5.04-7.72,7.12-12.29,7.88-20.58,3.42-37.17-3.19-53.27-15.54-1.96-1.51-3.44-3.32-4.43-5.43-.24-.5.39-.96.8-.6,12.32,10.86,27.9,17.87,44.27,18.22,8.85.19,16.85-.32,24.43-4.91.27-.16.59.1.49.39ZM262.27,893.93c1.88,3.15,2.93,6.8-.9,9.28-4.11,2.65-8.88,4.09-14.3,4.32-20.68.87-36.81-6.93-50.9-20.62-.52-.51-.8-1.23-.76-1.95.22-3.92.91-7.82,2.06-11.69.08-.27.38-.39.62-.27,2.89,1.45,6.46,2.78,10.7,3.99,12.04,3.41,24.83,1.32,36.43-2.93.33-.12.7-.04.94.22,6.03,6.42,11.75,12.37,16.09,19.65ZM251.77,861.39c-.04.42-.28.78-.65.96-13.89,6.84-30.36,7.74-45.34,4.25-4.22-.99-8.17-2.45-11.83-4.37-.3-.16-.5-.49-.53-.83l-8.37-153.32c-.02-.31.22-.57.53-.58.64-.02,6.42-.24,17.36-.66,21.57-.82,42.56-3.18,62.97-7.07.19-.04.37.12.35.32l-14.49,161.3ZM313.84,570.33c.63,5.05,1.68,7.95,3.29,13.15,4.17,13.46,6.52,29.07,2.27,42.34-3,9.39-10,18.85-19.96,20.65-1.14.21-2.54-.19-4.21-1.2-.27-.16-.43-.45-.43-.76v-3.87c0-.99.59-1.89,1.49-2.27,4.41-1.9,7.38-5,8.9-9.3,1.96-5.51,2.73-11.47,2.33-17.88-.13-2.05-1.87-3.64-3.93-3.58h-.03c-1.99.06-3.57,1.69-3.56,3.68.02,5.95-.17,14.26-4.62,18.47-.83.79-2.08.83-2.74.07-.27-.31-.44-.88-.52-1.71-1.35-14.11-3.22-28.34-5.59-42.7-.29-1.76-.24-3.4-.28-5.22-.02-.77-.15-1.54-.38-2.28-.81-2.55-1.38-4.61-1.71-6.18-4.66-22.01-10.6-44.04-17.8-66.1-1.5-4.6-2.34-9.49-2.52-14.66-.1-3.1-.12-10.74-.04-22.92,0-.28.21-.53.49-.57,2.28-.3,4.57-.58,6.87-.84,9.88-1.13,19.29-3.21,28.24-6.24.33-.11.67.11.72.45,4.97,36.26,10.24,81.75,13.71,109.49ZM285.96,360.4c8.73,12.43,15.27,26.86,21.19,42.51,5.21,13.79,9.14,25.23,11.76,34.31.78,2.68,1.22,4.29,1.34,4.82.09.42-.09.85-.47,1.07-3.33,1.96-6.95,3.73-10.88,5.3-14.62,5.86-29.34,9.49-44.16,10.9-.45.05-.84-.33-.82-.78.83-16.7.75-33.71-.23-51.01-.12-2.14-1.93-3.79-4.06-3.73h-.16c-2.13.06-3.8,1.83-3.73,3.96.76,24.87.27,41.46-.39,68.3-.23,9.28-.12,15.78,1.14,23.99.24,1.58,1.01,4.45,2.29,8.62,3.09,10.01,6.43,21.48,10.01,34.41,5.11,18.44,8.9,36.87,11.37,55.3,3.74,27.96,6.61,56.49,8.61,85.6.04.54-.28,1.05-.79,1.25-1.6.64-3.11,1.17-4.54,1.6-21.29,6.5-47.13,9.82-70.03,11.23-37.47,2.3-74.3,1.17-110.51-3.39-.37-.05-.63-.36-.62-.72.55-19.87,1.47-40.85,2.75-62.92,2.34-40.18,5.13-77.44,8.39-111.76.63-6.63.93-12.98.89-19.03-.15-24.73-.25-39.41-.32-44.02-.41-30.2.83-57.25,3.04-88.41.08-1.16.87-1.92,2.37-2.3,14.63-3.7,33.41-8.67,56.35-14.91,1.21-.33,2.46-.54,3.71-.64,3.28-.26,5.78-.5,7.52-.72,12.2-1.58,23.39-5.66,33.57-12.26,3.4-2.2,8.92-6.46,10.06-10.42.05-.16.22-.26.39-.2,9.49,3.35,18.43,7.09,26.81,11.23,11.81,5.82,20.93,12.57,28.11,22.8ZM291.4,214.93c-5.55,4.44-12.59,5.67-19.3,3.35-.23-.08-.36-.33-.29-.56,4.08-14.38,6.44-29.41,7.06-45.07.02-.43.36-.79.79-.83,12.71-1.16,21.4,9.03,21.51,21.13.09,9.38-3.16,16.7-9.77,21.98Z"/>
      <path class="cls-1" d="M99.99,149.73c4.95-2.95,9.2-5.21,15.25-6.24,6.05-1.04,10.8-.31,16.46.83,1.22.25,2.97-1.1,3.32-2.46,1.94-7.6-17.23-6.31-21.03-5.66-3.8.64-22.31,5.8-17.95,12.32.78,1.17,2.88,1.86,3.95,1.22Z"/>
      <path class="cls-1" d="M202.46,144.33c5.66-1.16,10.42-1.89,16.48-.86,6.06,1.03,10.32,3.27,15.29,6.23,1.07.63,3.17-.06,3.95-1.24,4.35-6.53-14.2-11.65-18-12.3-3.81-.64-23.01-1.9-21.04,5.7.35,1.37,2.1,2.71,3.33,2.47Z"/>
      <path class="cls-1" d="M137.87,185c.53-1.9-.59-3.86-2.49-4.38l-.05-.02c-1.88-.51-3.85.49-4.54,2.31-1.38,3.67-3.84,6.02-7.4,7.06-7.72,2.25-15.3-1.43-17.51-9.44-.47-1.68-2.44-2.52-4.12-2.23-3.42.58-2.76,4.2-2.39,6.88.05.35-.11.69-.4.89-1.72,1.18-7.35,3.76-5.04,7.37,2.05,3.21,7.02.28,9.22-1.68.25-.21.62-.2.85.04,3.7,3.8,8.1,5.87,13.2,6.24,9.18.65,18.09-3.74,20.67-13.04Z"/>
      <path class="cls-1" d="M217.16,198.17c5.13-.39,9.55-2.49,13.25-6.33.23-.24.61-.26.86-.04,2.22,1.96,7.22,4.88,9.27,1.65,2.31-3.65-3.37-6.22-5.11-7.4-.29-.19-.45-.54-.4-.89.36-2.7,1.01-6.34-2.44-6.9-1.69-.28-3.67.57-4.13,2.26-2.19,8.06-9.79,11.79-17.56,9.56-3.58-1.03-6.07-3.39-7.47-7.07-.7-1.83-2.69-2.83-4.58-2.3l-.05.02c-1.91.53-3.03,2.51-2.48,4.42,2.63,9.33,11.61,13.71,20.83,13.02Z"/>
      <path class="cls-1" d="M214.28,221.54c-.79,12.44,8.55,23.16,20.84,23.93,12.29.77,22.89-8.69,23.67-21.13.79-12.44-8.55-23.16-20.84-23.93-12.29-.77-22.89,8.69-23.67,21.13Z"/>
      <path class="cls-1" d="M167.01,241.77c11.08.06,20.6-5.41,26.28-15.1,1.04-1.78.45-4.06-1.32-5.11l-.04-.02c-1.81-1.06-4.14-.45-5.17,1.38-4.09,7.2-11.5,11.41-19.72,11.37-8.22-.04-15.58-4.32-19.61-11.56-1.02-1.83-3.35-2.48-5.15-1.42l-.04.02c-1.79,1.03-2.39,3.31-1.38,5.09,5.59,9.75,15.06,15.3,26.14,15.36Z"/>
      <path class="cls-1" d="M138.34,379.85h0c-5.45,0-9.87,4.42-9.87,9.87s4.42,9.87,9.87,9.87,9.87-4.42,9.87-9.87c0-5.45-4.42-9.87-9.87-9.87Z"/>
      <circle class="cls-1" cx="206.1" cy="389.75" r="9.89"/>
      <circle class="cls-1" cx="138.22" cy="456.68" r="9.89"/>
      <path class="cls-1" d="M205.05,446.93c-5.56.43-9.73,5.13-9.32,10.52.41,5.38,5.26,9.4,10.82,8.97,5.56-.43,9.73-5.13,9.32-10.52-.41-5.38-5.26-9.4-10.82-8.97Z"/>
      <path class="cls-1" d="M138.32,511.87h0c-5.43,0-9.84,4.41-9.84,9.84s4.41,9.84,9.84,9.84,9.84-4.41,9.84-9.84h0c0-5.43-4.41-9.84-9.84-9.84Z"/>
      <path class="cls-1" d="M205.15,511.84c-5.54.39-9.73,5.09-9.35,10.52.38,5.42,5.17,9.5,10.72,9.11,5.54-.39,9.73-5.09,9.35-10.52-.38-5.42-5.17-9.5-10.72-9.11Z"/>
    </g>
  </g>
</svg>