<?xml version="1.0" encoding="UTF-8"?>
<svg id="Capa_2" data-name="Capa 2" xmlns="http://www.w3.org/2000/svg" viewBox="0 0 584.14 919.5">
  <defs>
    <style>
      .cls-1 {
        fill: #fef1d1;
      }
    </style>
  </defs>
  <g id="Capa_1-2" data-name="Capa 1">
    <g>
      <path class="cls-1" d="M544.55,340.83c-.22-.29-.26-.69-.11-1.02,1.98-4.27,3.53-8.46,4.66-12.56,2.44-8.89-2.28-19.28-13.14-16.89-4.34.95-7.82,3.52-10.44,7.7-.23.36-.73.4-1.03.09-3.54-3.82-7.81-7.19-13.27-6.13-.33.07-.56-.31-.35-.57,5.29-6.74,8.9-14.36,10.86-22.86,4.24-18.52-.46-36.41-8.34-53.82-4.8-10.61-8.42-19.68-10.86-27.2-2.31-7.12-4.3-15.37-5.98-24.74-1.01-5.61-2.5-14.3-4.46-26.05-1.79-10.72-3.55-18.59-6.21-29.36-5.73-23.31-15.2-44.88-28.42-64.72-20.32-30.5-51.18-51.86-87.1-59.76-25.01-5.5-49-3.26-71.96,6.72-.8.35-3.28,1.74-7.43,4.2-.4.24-.86.38-1.33.4-2.36.12-5.57-.1-7.76.04-49.55,3.21-78.82,49.87-91.4,92.53-4.56,15.49-7.64,31.29-9.24,47.4-1.54,15.56-2.37,26.62-2.49,33.18-.26,14.56-1.11,28.95-2.53,43.16-1.71,17.09-6.63,30.61-12.5,47.46-5.34,15.29-8.71,33.86-1.1,49.09,2.65,5.3,5.6,9.58,8.84,12.85,8.63,8.69,19.52,14.25,32.67,16.66,2.89.54,8.65.73,11.6.08,1.02-.23,1.58-.78,1.67-1.66.04-.45-.35-1.17-1.18-2.17-6.25-7.5-9.28-16.47-9.08-26.94,0-.31.43-.39.55-.09,2.51,6.5,6.16,12.11,10.94,16.85,6.33,6.28,13.67,11,22.03,14.16.16.07.2.28.06.39-7.73,6.07-14.96,13.09-21.68,21.06-10.23,12.13-19.74,24.59-28.53,37.4-.21.29-.64.28-.83-.02l-18.01-29.1c-.34-.54-.47-1.19-.38-1.82,1.5-9.97.45-19.44-3.16-28.4-2.68-6.68-6.7-10.51-12.12-14.95-.39-.32-.7-.73-.9-1.19-2.52-5.75-4.84-11.13-12.35-10.23-.33.04-.64-.18-.7-.51-2.94-15.58-6.1-31.56-9.48-47.94-6.41-31.1-12.85-62.25-19.31-93.46-1.79-8.64-2.5-14.53-2.13-17.67,1.46-12.29,9.39-17.99,18.91-26.13,4.69-4.02,7.74-8.8,9.15-14.34.83-3.28.95-8.61.35-16-2.85-35.15-5.94-66.53-9.28-94.14-1.23-10.23-9.37-18.28-20.23-16.82-28.66,3.87-57.64,9.12-86.95,15.75-2.32.52-5.64,1.35-9.96,2.5C2.52,24.05-1.61,34.29.56,44.59c.94,4.48,2.6,10.81,4.98,19.01,7.58,26.13,15.79,52.12,24.64,77.98,2.76,8.06,7.36,13.69,13.78,16.88,5.14,2.55,11.23,3.64,16.12,5.22,8.02,2.59,13.8,7.2,17.33,13.84,1.31,2.47,2.79,8.41,4.43,17.82,11.37,65.27,18.18,104.52,20.44,117.75.83,4.9,1.62,9.82,2.34,14.75.06.4-.19.79-.58.89-11.57,3.26-20.35,14.82-16.56,27.12.22.73.2,1.5-.08,2.21-3.29,8.6-1.23,19.1,2.98,26.99.34.63.57,1.32.66,2.02,1.8,13.06,12.58,22.35,24.87,25.94.54.16.93.6,1.03,1.16,2.66,16.03,5.44,31.54,8.36,46.52,1.32,6.76,5.19,13.36,11.3,16.68,6.74,3.66,13.9,3.53,21.5-.38.22-.11.48-.04.61.18,2.54,4.26,5.6,8.2,9.19,11.83,19.26,19.39,43.62,9.33,61.01-6.19.31-.27.78-.24,1.05.08,2.74,3.34,8.21,7.79,12.17,3.28.28-.32.81-.14.82.28.11,3.76.03,8.31-.24,13.65-.03.66-.29,1.8-.79,3.42-8.02,26.06-14.59,49.86-19.71,71.4-5.65,23.78-9.79,44.76-11.82,64.29-.46,4.44,2.55,6.61,6.2,8.27,4.66,2.13,9.57,4,14.73,5.6.31.1.55.35.63.66.37,1.41.13,3.06.28,4.79,5.83,69.7,10.25,123.01,13.28,159.94.68,8.27,1.34,16.6,1.99,25.01.33,4.26-.79,7.06,3.82,9.51.24.12.26.45.05.61-6.46,4.73-12.31,10.01-17.56,15.86-6.51,7.24-10.51,15.72-9.81,25.74.53,7.43,6.53,12.17,13.25,14.29,4.81,1.52,8.87,2.43,12.18,2.72,19.95,1.78,41.18-3.1,59.48-10.98,8.27-3.56,15.47-7.66,16.77-17.13,1.18-8.52-.38-17.97-1.54-26.69-.05-.37.2-.71.57-.78,3.13-.6,5.2-2.08,6.21-4.45.12-.3.2-.62.22-.94,1.24-23.18,2.26-41,3.06-53.48,1.82-28.59,2.72-50.82,4.38-77.21.17-2.67.25-8.52.24-17.57,0-.24.18-.44.41-.46h.02c.26-.02.5.17.55.43.99,5.89,2.23,12.23,3.74,19.04,17.65,79.76,26.54,119.98,26.68,120.65,1.14,5.53,1.85,8.83,2.14,9.91.97,3.66,3.96,5.13,7.23,6.18.49.16.79.64.72,1.15-.8,5.41-1.33,9.7-1.57,12.88-.81,10.49-.56,19.36,6.89,26.29,16.32,15.16,39.04,21.9,61.29,20.19,12.45-.96,24.32-7.03,24.64-21.02.27-11.39-5.7-21.95-12.53-30.61-5.26-6.66-7.95-10.05-8.07-10.18-.3-.32-.21-.85.19-1.05,2.07-1.04,3.6-2.24,4.59-3.62.67-.92.92-2.79.77-5.63-4.02-76.37-7.05-135.04-9.07-176.02-.3-6.11-.51-11.91-.62-17.4,0-.49.32-.93.79-1.05,5.61-1.52,10.68-3.26,15.2-5.24,5.18-2.26,9.71-4.2,8.75-10.15-1.71-10.68-3.69-21.1-5.92-31.28-6.27-28.55-15.78-64.61-23.42-96.76-.97-4.08-1.47-7.6-1.5-10.55-.05-7.11-.06-11.84-.04-14.22,0-.25.05-.51.15-.74l1.26-2.91c.17-.41.73-.45.97-.08,4.82,7.85,11.22,14.17,19.21,18.96,11.5,6.91,26.86,7.19,37.73-.83,7.12-5.25,12.65-12.05,16.58-20.39,5.17-10.93,9.13-22.66,11.88-35.17,2.68-12.18,4.86-24.77,6.55-37.75.06-.43.31-.82.68-1.05,9.92-6.2,20.65-18.19,22.31-29.64.88-6.04-.2-12.01-3.23-17.89-2.82-5.48-6.22-10.87-10.2-16.18ZM530.76,323.46c1.64-3.02,4.91-6.45,8.59-5.89,3.14.48,3.56,4.77,2.85,7.26-.57,1.99-1.64,5.01-3.21,9.07-.09.24-.4.28-.56.08l-7.59-9.62c-.2-.25-.23-.61-.08-.89ZM448.82,165.7c12.03-2.8,21.57,5.93,24.01,17.16,2.09,9.64-.13,18.22-6.66,25.74-4.65,5.36-10.44,8-17.37,7.91-.26,0-.46-.24-.43-.49,1.86-16.72,1.73-33.08-.41-49.07-.08-.57.3-1.11.87-1.24ZM441.39,345.4c.06-.14.17-.24.34-.27,2.23-.5,4.62-1.33,7.17-2.5,19.77-9.07,35.98-27.04,38.16-49.15.02-.22.27-.32.44-.19.19.15.35.42.46.8.46,1.61.89,4.49,1.28,8.62.77,8.11-.88,15.6-4.93,22.46-.53.89.02,2.04,1.05,2.18,5.09.71,12.93-3.78,16.76-6.78.23-.18.56,0,.53.29-.31,3.21.24,6.22,1.66,9.05,1.84,3.67,4.83,8.23,7.66,11.33.23.24.13.63-.18.75-4,1.55-6.52,4.36-7.55,8.43-.14.57-.61,1.02-1.2,1.12-5.94,1.08-9.77,4.73-11.5,10.96-.07.24-.24.42-.47.49-7.2,2.22-9.46,10.29-8.01,16.96.54,2.43,1.62,4.07,2.49,6.2.12.3.07.65-.16.89l-.02.02c-.22.23-.59.2-.76-.07-10.76-16.72-25.13-32.21-43.03-41.1-.18-.09-.25-.3-.18-.49ZM230.24,247.45c-6.93,2.24-13.56,1.39-19.9-2.55-8.89-5.53-13.78-13.46-14.67-23.77-1.04-12.02,5.84-23.75,18.78-24.68.61-.05,1.15.39,1.25.99,2.81,16.72,7.75,33.19,14.81,49.4.1.24-.03.54-.28.62ZM232.79,224.29c-.82-4.6-1.25-9.91-1.31-15.95-.18-18.87,2.35-38.94,7.59-60.21,3.86-15.67,9.72-30.23,17.58-43.68,4.58-7.84,10.43-14.85,17.54-21.03,4.47-3.89,11.02-8.05,16.81-9.3.42-.08.87-.1,1.3-.06,3.37.41,6.5,1,9.38,1.77,12.36,3.31,24.31,7.99,35.86,14.05,20.77,10.91,39,23.99,54.68,39.24,7.82,7.62,15.71,15.35,23.65,23.18,5.62,5.55,11.59,10.46,17.93,14.74.14.09.24.24.27.4,1.47,6.23,2.61,11.46,3.44,15.7,2.72,14.02,3.37,27.81,1.95,41.38-3,28.72-20.53,53.98-45.18,68.46-18.85,11.07-39.03,16.38-60.53,15.93-12.32-.25-23.71-1.97-34.16-5.15-19.31-5.87-36.7-17.87-48.1-34.84-9.06-13.5-15.89-28.93-18.69-44.63ZM303.11,327.4c1.8,1.81,4.17,3.52,7.13,5.13,3.24,1.76,8.78,4.49,16.61,8.18.86.4,1.57,1.06,2.05,1.88,3.27,5.61,4.26,13.86,5.5,18.04.12.41-.24.82-.66.74-12.7-2.21-26.93-7.68-36.17-17.33-1.05-1.1-1.57-2.47-1.53-4.11.26-11.66.41-18.11.45-19.36.03-.84.47-1.6,1.19-2.04l5.11-3.16c.3-.19.7.04.69.4l-.13,4.65c0,.26-.1.51-.27.71-1.9,2.25-1.88,4.34.04,6.27ZM328.03,332.8c-6.73-3.1-12.11-5.81-16.16-8.14-.22-.12-.36-.35-.38-.6l-.45-8.75c-.02-.38.31-.68.69-.61,16.02,2.81,32.07,2.75,48.15-.17,8.47-1.54,16.65-4.18,24.55-7.92.34-.16.73.08.75.45l.67,12.78c.02.41-.19.8-.55,1.02-8.16,4.86-15.58,7.71-25.87,12.3-5.09,2.27-8.64,6.27-10.64,11.99-1.72,4.92-3.17,10.4-4.34,16.45-.04.2-.12.39-.24.54-.09.12-.17.2-.22.24-.7.51-1.69.08-1.81-.77-.97-7.02-2.64-13.59-5-19.72-1.52-3.94-4.57-6.96-9.16-9.08ZM355.74,348.35c1.51-4.76,4.02-7.07,8.94-9.18,8.54-3.66,16.28-6.92,23.3-11.08,2.93-1.74,4.99-3.36,6.19-4.88,1.05-1.34.77-3.21-.14-4.95-.85-1.61-1.06-3.67-.61-6.18.05-.25.34-.37.55-.23l5.36,3.77c.38.26.61.7.64,1.16l1.14,21.8c.04.79-.24,1.57-.77,2.17-11.37,12.49-30.82,18.38-47.3,20.63-.28.04-.53-.22-.47-.5.89-4.44,1.95-8.61,3.19-12.52ZM114.2,399.74c.64.82.94,2.27.9,4.33,0,.33-.34.56-.65.45-4.85-1.71-10.27-6.11-13.15-10.79-1.24-2-1.92-3.54-2.04-4.61-.28-2.4-.56-3.84-.84-4.31-1.85-3.11-2.81-5.22-2.89-6.31-.16-2.21-.52-4.16-1.07-5.87-1.68-5.16-1.39-8.87.49-14.07.47-1.3.5-2.64.09-4.02-1.52-5.17-.68-9.36,2.95-13.35,5.66-6.23,14.1-7.82,22.06-4.6,2.18.89,3.79,2.79,4.3,5.08l.08.39c.35,1.55-1.1,2.91-2.63,2.48-4.17-1.19-8.77-.98-13.79.63-2.27.73-5,2.56-3.88,5.28,1.05,2.55,2.99,2.88,5.65,1.91,4.48-1.64,10.24-1.31,14.72.4,3.21,1.23,6.11,4.68,3.31,8.19-.21.26-.56.38-.88.28-5.88-1.62-11.7-1.43-17.47.57-1.87.65-2.88,2.68-2.26,4.57l.02.08c.6,1.85,2.57,2.86,4.42,2.28,5.14-1.61,14.7-2.39,18.59,2.34.18.23.31.49.39.77.46,1.85.13,3.29-1,4.34-.27.25-.66.36-1.02.25-5.06-1.38-10.5-1.04-16.31,1.04-1.8.64-2.75,2.61-2.15,4.43l.08.26c.56,1.68,2.36,2.61,4.06,2.08,4.2-1.3,7.86-1.96,11.8-1.17,2.97.6,4.18,3.38,2.21,5.91-.92,1.19-2.78,2-4.64,2.39-4.48.96-14.41,2.05-9.46,8.35ZM152.12,471.14c-6.74,2.79-13.85.08-16.91-6.4-1.13-2.39-2.01-5.29-2.64-8.7-2.91-15.77-5.83-31.98-8.74-48.64-.44-2.54-.77-5.29-.98-8.25-.02-.25.18-.48.44-.5,2.19-.14,4.49-.85,6.9-2.13,6.07-3.23,7.86-8.23,5.37-14.98-.15-.39-.08-.82.17-1.15,3.58-4.7,2.33-11.14-1.09-15.25-.31-.38-.36-.9-.11-1.32,2.92-5,.45-12.81-4.22-16.06-.26-.18-.34-.53-.19-.81,2.37-4.2,1.3-8.3-1.29-12.11-3.18-4.7-9.62-7.09-15.07-7.33-.59-.02-1.09-.46-1.19-1.05-6.7-41.81-13.68-82.44-20.94-121.89-1.62-8.81-2.68-14.85-3.19-18.13-2.17-14.04-9.62-23.7-22.36-29-2.49-1.04-7.04-2.45-13.64-4.24-12.04-3.27-14.08-12.61-18.06-24.52-1.96-5.86-7.41-23.02-16.35-51.47-3.65-11.64-6.79-22.71-9.4-33.21-1.24-5-.95-10.41,3.71-13.77,1.7-1.21,6.05-2.15,7.76-2.53,29.03-6.55,58.37-11.98,88-16.29,2.91-.43,5.12-.46,6.63-.09,6.26,1.52,7.06,6.67,7.68,12.29,1.53,13.96,3.02,28.15,4.49,42.56,1.64,16.18,3.16,33.11,4.55,50.81.42,5.37.26,9.26-.49,11.67-1.19,3.86-3.66,7.39-7.41,10.58-5.08,4.33-9.77,7.98-13.56,13.08-4.91,6.62-7.27,14.22-7.06,22.82.05,2.03.78,6.51,2.17,13.44.41,2.01,8.02,38.73,22.83,110.16,1.09,5.27,3.48,17.27,7.17,36.02.06.3.03.61-.08.9-3.26,8.24-.79,14.57,3.31,22.78.03.06.07.1.1.15l2.29,2.65c.26.3.43.66.51,1.05.79,3.94,6.7,32.83,17.72,86.65,1.67,8.12,2.33,18.42-6.85,22.2ZM226.46,474.73c-14.7,13.2-36.12,26.43-53.55,8.28-3.48-3.63-6.34-7.51-8.57-11.64-.1-.18-.09-.4,0-.57,2.94-4.97,4.04-10.45,3.3-16.46-.65-5.27-1.39-9.91-2.23-13.92-6.18-29.59-11.2-54.07-15.07-73.44-.16-.79.08-1.66.72-2.6.1-.16.19-.34.24-.53.42-1.75-.07-3.17-1.56-4.34-6-4.66-10.83-12.65-8.2-20.37.44-1.3,1.69-2.06,2.87-1.75.7.18,1.27.67,1.71,1.46,2.54,4.56,4.7,7.7,6.49,9.4,5.55,5.27,8.86,9.85,10.42,17.1,1.36,6.29,1.55,12.57.57,18.83-.38,2.4.07,3.94,1.38,6.08,8.56,13.99,13.85,22.52,15.87,25.61,10.19,15.6,15.7,24.27,16.52,26.03.14.3.34.58.58.81,1.84,1.71,3.73,1.51,5.68-.6.15-.17.42-.17.57,0,8.33,9.67,15.78,20.33,22.34,31.96.12.22.08.5-.1.66ZM219.08,639.63c-.26-.13-.42-.41-.39-.71.44-3.83.69-5.95.74-6.36,4.78-33.03,12.94-65.87,22.36-100.17,2.54-9.27,6.13-19.27,8.21-27.8.53-2.16.82-5.1.87-8.82.06-3.75.17-14.82.34-33.19.11-11.79,1.51-25.62,4.21-41.5.05-.28.03-.56-.06-.84-1.32-4.43-7.03-3.27-7.87,1.15-3.22,16.92-4.71,34.56-4.46,52.94,0,.56-.24,1.09-.69,1.44l-3.63,2.86c-.32.25-.79.15-.98-.22-8.21-16.52-18.62-31.66-31.23-45.42-3.12-3.4-6.65-6.75-10.59-10.05-.34-.28-.4-.77-.15-1.13,9.89-14.17,20.13-27.37,30.73-39.59,4.56-5.27,9.71-10.4,15.43-15.39,12.61-11.02,30.14-18.13,46.75-22.06.21-.05.41.05.51.24,6.23,12.47,24.55,19.68,37.09,22.52.39.08.37.64-.03.7-2.38.32-4.84.79-7.37,1.41-14.59,3.6-26.38,6.72-35.37,9.35-3.22.94-5.31,3.01-6.26,6.2-.8,2.71-1.48,5.49-2.01,8.35-3.22,17.11-5.68,33.77-7.37,50-1.82,17.46-2.16,34.15-2.93,55.06-.23,6.43-.82,13.75-1.77,21.98-4.9,42.47-8.57,85.62-11,129.48-.02.3-.3.52-.59.45-11.1-2.5-22.37-5.7-32.48-10.85ZM235.5,880.54c1.91-3.28,4.21-6.22,6.9-8.83,5.42-5.26,11.1-9.98,17.02-14.15.15-.1.34-.12.51-.07,17.72,6.7,37.74,6.98,56,2.2.26-.07.53.11.56.39l1.07,10.28c.06.54-.19,1.06-.64,1.36-16.6,10.8-34.87,16.84-54.81,18.1-7.18.45-22.1-.24-26.52-6.74-.52-.76-.56-1.74-.09-2.53ZM310.16,891.38c-17.26,8.83-35.21,13.22-53.83,13.15-4.91-.02-9.8-.69-14.64-2.01-3.06-.83-5.53-2.15-7.41-3.97-2.32-2.23-2.51-4.79-2.47-7.88,0-.34.41-.51.65-.28,2.2,2.02,4.83,3.52,7.91,4.5,17.36,5.56,36.86,2.06,53.75-3.45,8.5-2.77,16.4-6.48,23.71-11.14.11-.07.24,0,.24.14-.15,5.54-2.78,8.32-7.91,10.94ZM332.18,678.66c-2.64,51.44-4.59,88.63-5.83,111.58-1.1,20.18-2.27,39.35-3.5,57.49-.07.92-.68,1.72-1.56,2.01-14.35,4.83-29.12,6.19-44.32,4.09-7.02-.97-13.86-3.11-20.54-6.42-.41-.21-.67-.63-.66-1.09.04-2.79-.09-6.66-.4-11.59-.31-4.98-1.03-13.92-2.17-26.83-3.84-43.71-7.62-87.97-11.34-132.76-.45-5.47-.9-11.74-1.36-18.8,0-.21.18-.36.38-.31,7.43,2.01,14.19,3.73,20.46,4.91,23.12,4.38,46.49,6.58,70.12,6.61.5,0,.9.4.91.9.04,3.23-.03,6.64-.21,10.22ZM463.04,896.99c.15-.2.39-.35.71-.45.23-.08.45.1.43.34-.64,6.87-4.32,11.15-11.05,12.84-20.2,5.08-42.15-1.14-58.61-13.42-4.17-3.11-7.86-6.97-7.86-12.18,0-.25.29-.39.48-.22,16.58,15.11,40.1,23.77,62.58,19.74,4.05-.73,10.57-2.96,13.33-6.65ZM455.25,875.83c2.3,3.16,4.07,6.41,5.32,9.75,1.74,4.66-5.72,8.78-9.36,9.75-13,3.47-28.28,1.14-39.98-4.43-9.36-4.46-17.43-10.17-24.21-17.14-.22-.22-.32-.53-.28-.84l1.26-10.62c.04-.3.34-.51.63-.43,2.37.59,5.24,1.18,8.62,1.77,15.3,2.7,30.29,1.52,44.98-3.53.25-.09.54,0,.72.2,4.86,5.75,8.96,10.92,12.3,15.52ZM448.22,847.62c.04.6-.29,1.18-.84,1.45-20.34,10.22-45.46,9.91-66.41,2.17-.29-.11-.51-.37-.57-.67l-40.48-182.33c-.08-.37.2-.72.57-.73,32.36-.29,65.58-4.11,97.27-12,.36-.09.71.17.72.54.41,12.52,1.19,30.26,2.32,53.21,2.34,47.42,4.81,93.54,7.42,138.36ZM439.71,464.35c-1.64,3.21-2.87,6.18-3.67,8.91-.12.41-.69.46-.88.08-8.28-17.02-13.11-35.85-16.37-55.13-.36-2.12-2.45-3.47-4.53-2.94l-.31.08c-2.01.51-3.29,2.46-2.98,4.5,2.4,15.74,6.34,30.65,11.81,44.72,2.71,6.97,5.73,12.98,9.09,18.04.25.36.38.79.37,1.23-.03,7.12.02,11.58.16,13.4.53,7.14,1.68,14.05,3.45,20.71,6.05,22.87,12.86,50.79,20.41,83.76,3.14,13.69,5.52,25.6,7.12,35.73.08.46-.17.9-.58,1.1-6.16,2.89-12.65,5.26-19.44,7.11-41.52,11.31-84.82,15.06-128.02,13.25-18.77-.78-36.93-2.85-54.49-6.21-.26-.05-.45-.28-.44-.55.13-4.24.32-8.27.57-12.1,1.75-27.09,3.64-51.81,5.66-74.15.99-10.87,2.58-25.76,4.79-44.68.83-7.15,1.35-13.94,1.53-20.39.58-19.96,1.22-34.6,1.93-43.92,1.73-22.79,4.91-45.8,9.56-69.02.16-.78.74-1.41,1.53-1.62,14.31-3.87,32.65-8.58,55.02-14.15,4.58-1.14,9.51-2.16,14.79-3.05,9.21-1.57,18.39-4.15,27.51-7.75,8.13-3.2,20.92-9.89,24.74-17.71.12-.25.4-.39.68-.33,3.42.78,7.12,1.72,11.11,2.83,19.62,5.48,35.79,16.12,48.53,31.93,5.36,6.65,10.4,13.89,15.12,21.74.2.33.2.74,0,1.07-7.12,11.59-13.39,23.27-18.78,35.05-.15.33-.4.61-.7.82-10.41,7.13-18.51,16.33-24.28,27.61ZM547.68,380.65c-5.01,8.84-12.3,15.95-21.86,21.31-2.53,1.42-2.92,4.81.11,5.97.3.11.49.42.44.74-1.9,14.32-4.7,28.51-8.41,42.57-2.69,10.23-6.31,20.43-12.14,29.49-3.81,5.93-7.8,10.13-11.96,12.6-14.45,8.6-30.93.94-40.36-11.47-3.06-4.03-5.64-7.93-7.72-11.71-.11-.21-.11-.45,0-.66,3.45-6.59,7.71-12.78,12.78-18.58.16-.18.35-.27.57-.27.24,0,.4.24.33.47-.48,1.42-.97,2.84-.21,4.16,1.32,2.29,3.84,2.53,5.67.88,1.29-1.18,1.53-3.78,2.08-5.46.62-1.92.98-3.01,1.08-3.27,5.83-14.39,13.55-28.12,21.42-41.82.17-.29.53-.42.85-.3.83.31,1.59,1.21,2.78,1.05,1.66-.24,2.57-1.27,2.74-3.1.03-.32-.08-.63-.28-.88-2.64-3-3.98-6.94-3.32-10.99.31-1.92,1.22-3.24,1.64-4.49.28-.85.15-1.78-.36-2.5-1.64-2.37-3.42-4.87-3.49-7.6-.09-3.46.54-7.15,4.61-7.07.44,0,.87.16,1.21.44,1.48,1.23,2.37,2.06,2.66,2.49,1.96,2.94,3.03,4.51,3.2,4.72,2.88,3.36,7.39.52,5.74-3.09-1.83-3.99-4.02-7.01-6.58-9.09-1.25-1.02-1.51-2.82-.57-4.14l.82-1.17c1.06-1.51,3.06-2.01,4.71-1.18,3.65,1.85,6.08,5.37,7.91,8.16,1.06,1.61,2.08,2.55,3.05,2.8,2.43.62,5.3-1.83,4.11-4.38-2.22-4.71-5.36-8.54-9.44-11.49-.4-.28-.56-.78-.42-1.25.87-2.9,2.74-4.34,5.6-4.32.34,0,.68.08.98.24,4.42,2.17,7.57,6.73,10.26,11.25.92,1.55,2.86,2.18,4.52,1.47l.23-.09c1.54-.67,2.26-2.46,1.6-4.01-2.71-6.3-6.74-11.14-12.07-14.5-.41-.26-.78-.61-1.07-1.01-4.47-6.15-6.87-9.48-7.19-9.98-2.21-3.45-6.77-10.1-2.14-12.36.39-.19.83-.18,1.21,0,2.54,1.29,4,2.13,4.41,2.52,9.06,8.73,17.14,18.16,24.22,28.29,6.5,9.29,12.51,19.28,6.1,30.61Z"/>
      <path class="cls-1" d="M103.07,114.36c.3,2.16,2.29,3.68,4.45,3.38l.34-.05h0c2.16-.3,3.68-2.29,3.38-4.45l-9.69-70.71c-.3-2.16-2.29-3.68-4.45-3.38l-.34.05c-2.16.3-3.68,2.29-3.38,4.45l9.69,70.71h0Z"/>
      <path class="cls-1" d="M74.13,47.13c-.4-2.16-2.47-3.58-4.63-3.18l-.24.04c-2.16.4-3.58,2.47-3.18,4.63l13.05,70.4h0c.4,2.16,2.47,3.58,4.63,3.18l.24-.04h0c2.16-.4,3.58-2.47,3.18-4.63l-13.05-70.4Z"/>
      <path class="cls-1" d="M46.25,52.47c-.53-2.17-2.72-3.5-4.89-2.97l-.11.03h0c-2.17.53-3.5,2.72-2.97,4.89l16.82,69.01c.53,2.17,2.72,3.5,4.89,2.97l.11-.03h0c2.17-.53,3.5-2.72,2.97-4.89l-16.82-69.01Z"/>
      <path class="cls-1" d="M367.19,150.56c5.27-2.04,10.45-3.41,16.1-3.24,5.66.16,10.75,1.83,15.89,4.17,1.19.54,2.59.33,3.57-.54,1.59-1.38,1.72-3.04.41-4.98-.69-1.01-2.21-2.04-4.57-3.08-4.63-2.04-9.65-3.14-15.07-3.3-5.42-.16-10.5.65-15.23,2.42-2.41.9-3.99,1.83-4.74,2.8-1.43,1.86-1.4,3.53.1,5.01.94.91,2.32,1.21,3.54.73Z"/>
      <path class="cls-1" d="M258.84,170.08c1.18.59,2.59.45,3.62-.38,4.43-3.56,8.98-6.45,14.46-8.01,5.47-1.57,10.87-1.53,16.51-.86,1.31.16,2.59-.46,3.27-1.59,1.1-1.81.72-3.44-1.14-4.91-.97-.76-2.74-1.28-5.32-1.55-5.05-.55-10.21-.08-15.46,1.43-5.25,1.5-9.87,3.82-13.87,6.97-2.04,1.6-3.27,2.98-3.69,4.13-.8,2.22-.26,3.81,1.63,4.76Z"/>
      <path class="cls-1" d="M399.56,184.96c-.79,4.53-2.95,7.99-6.48,10.38-5.41,3.66-14.26,3.6-18.32-2.17-.98-1.39-1.59-2.99-3.37-3.56-2.71-.87-5.84,1.51-4.78,4.4,2.85,7.9,11.93,12.27,19.79,11.62,7.13-.59,12.64-3.72,16.52-9.38.22-.31.64-.4.96-.18,1.89,1.3,3.69,2.11,5.4,2.44,5.14.98,6.61-4.75,2.32-6.85-1.64-.8-3.12-1.49-4.45-2.07-.39-.17-.59-.59-.49-1,.48-1.79.61-4.09-.63-5.5-2.01-2.27-5.93-1.17-6.46,1.87Z"/>
      <path class="cls-1" d="M282.71,211.88c-5.11-.65-8.82-3.41-11.12-8.29-.91-1.93-2.01-3.43-4.08-3-3.84.78-3.83,4.79-2.18,7.76.2.35.09.78-.23,1.02-2.75,2.02-6.16,3.86-5.28,6.71,1.06,3.49,4.38,3.21,6.99,1.39.02-.01,1.27-.91,3.76-2.69.24-.18.59-.17.84.03,2.66,2.17,5.02,3.51,7.07,4.02,10.7,2.66,18.99-.52,24.86-9.54,1.84-2.82,4.25-9.81-1.3-10.56-.94-.13-1.94.28-2.99,1.21-.21.19-.37.42-.46.69-2.54,7.44-7.52,12.31-15.87,11.24Z"/>
      <path class="cls-1" d="M394.41,216.37c-6.51,11.09-2.98,25.25,7.87,31.63,10.86,6.37,24.94,2.54,31.45-8.56,6.51-11.09,2.98-25.25-7.87-31.63-10.86-6.37-24.94-2.54-31.45,8.56Z"/>
      <path class="cls-1" d="M555.42,230.9l.22.06c1.84.53,3.77-.54,4.3-2.38l3.9-13.59c.53-1.84-.54-3.77-2.38-4.3l-.22-.06c-1.84-.53-3.77.54-4.3,2.38l-3.9,13.59h0c-.53,1.84.54,3.77,2.38,4.3Z"/>
      <path class="cls-1" d="M286.77,262c7.63-10.35,5.3-25.02-5.19-32.76-10.49-7.74-25.19-5.63-32.83,4.73-7.63,10.35-5.3,25.02,5.19,32.76,10.49,7.74,25.19,5.63,32.83-4.73Z"/>
      <path class="cls-1" d="M583.41,227.6l-.13-.16c-1.16-1.49-3.32-1.76-4.81-.6l-9.7,7.55h0c-1.49,1.16-1.76,3.32-.6,4.81l.13.16c1.16,1.49,3.32,1.76,4.81.6l9.7-7.55h0c1.49-1.16,1.76-3.32.6-4.81Z"/>
      <path class="cls-1" d="M344.85,258.83c10.51-1.39,20.08-7.97,24.69-17.65,1.29-2.71,1.04-4.79-.73-6.25-.31-.25-.69-.42-1.07-.49-2.94-.46-4.04.99-5.34,3.73-3.47,7.36-10.56,12.01-18.55,13.06-7.99,1.06-16.03-1.57-21.31-7.77-1.97-2.31-3.41-3.42-6.12-2.21-.37.17-.68.42-.91.75-1.33,1.88-1.02,3.95.92,6.23,6.97,8.14,17.92,11.99,28.43,10.59Z"/>
      <path class="cls-1" d="M552.9,266.01c-.21.17-.52.07-.59-.2-1.4-5.16-6.17-11.96-12.21-10.98-6.61,1.07-10.27,4.96-10.98,11.68-1.09,10.31,3.59,20.14,9.87,28.99.8,1.13,1.59,2,2.39,2.61.41.31.94.42,1.44.29,9.77-2.55,22.79-8.84,28.25-17.69,2.61-4.23,3.65-11.44,0-15.3-4.79-5.05-13.23-3.41-18.16.6Z"/>
      <circle class="cls-1" cx="303.96" cy="405.31" r="9.27"/>
      <path class="cls-1" d="M366.57,396.11c-5.12,0-9.27,4.15-9.27,9.27s4.15,9.27,9.27,9.27,9.27-4.15,9.27-9.27h0c0-5.12-4.15-9.27-9.27-9.27Z"/>
      <path class="cls-1" d="M300.25,456.43h0c-5.26,0-9.52,4.26-9.52,9.52s4.26,9.52,9.52,9.52,9.52-4.26,9.52-9.52h0c0-5.26-4.26-9.52-9.52-9.52Z"/>
      <path class="cls-1" d="M363.96,456.46c-5.28,0-9.56,4.28-9.56,9.56h0c0,5.28,4.28,9.56,9.56,9.56s9.56-4.28,9.56-9.56-4.28-9.56-9.56-9.56Z"/>
      <path class="cls-1" d="M302.07,521.56c-4.75-1.97-10.23.34-12.25,5.19-2.01,4.84.2,10.38,4.95,12.35,4.75,1.97,10.23-.34,12.25-5.19,2.01-4.84-.2-10.38-4.95-12.35Z"/>
      <path class="cls-1" d="M363.33,520.97c-5.25,0-9.5,4.25-9.5,9.5s4.25,9.5,9.5,9.5h0c5.25,0,9.5-4.25,9.5-9.5s-4.25-9.5-9.5-9.5Z"/>
    </g>
  </g>
</svg>